<svg xmlns="http://www.w3.org/2000/svg" xmlns:xlink="http://www.w3.org/1999/xlink" data-name="Layer 1" width="1480" height="946.77"><defs><linearGradient id="a" x1="205.5" y1="458.72" x2="205.5" gradientUnits="userSpaceOnUse"><stop offset="0" stop-color="gray" stop-opacity=".25"/><stop offset=".54" stop-color="gray" stop-opacity=".12"/><stop offset="1" stop-color="gray" stop-opacity=".1"/></linearGradient><linearGradient id="c" x1="347.94" y1="120.14" x2="347.94" y2="40.02" xlink:href="#a" gradientTransform="translate(288 96)"/><linearGradient id="d" x1="347.94" y1="269.14" x2="347.94" y2="189.02" xlink:href="#a" gradientTransform="translate(288 96)"/><linearGradient id="e" x1="347.94" y1="417.14" x2="347.94" y2="337.02" xlink:href="#a" gradientTransform="translate(288 96)"/><linearGradient id="f" x1="660.91" y1="754.77" x2="660.91" y2="737.77" xlink:href="#a" gradientTransform="translate(288 96)"/><linearGradient id="g" x1="810" y1="732" x2="810" y2="417" xlink:href="#a" gradientTransform="translate(140 23.38)"/><linearGradient xlink:href="#a" id="b" gradientUnits="userSpaceOnUse" x1="205.5" y1="458.72" x2="205.5" gradientTransform="translate(288 96)"/></defs><path fill="url(#b)" d="M288 96h411v458.72H288z"/><path fill="#fff" d="M294.79 402.27H692.2v142.46H294.79z"/><path fill="#64ffda" d="M327.41 436.06h15.4v73h-15.4z"/><path fill="#64ffda" d="M357.81 436.06h15.4v73h-15.4z" opacity=".7"/><path fill="#64ffda" d="M388.22 436.06h15.4v73h-15.4z" opacity=".6"/><path fill="#64ffda" d="M418.62 436.06h15.4v73h-15.4zm30.4 0h15.4v73h-15.4z" opacity=".5"/><path fill="#64ffda" d="M479.42 436.06h15.4v73h-15.4z" opacity=".4"/><path fill="#64ffda" d="M509.83 436.06h15.4v73h-15.4z" opacity=".3"/><circle cx="635.94" cy="472.09" r="37.16" fill="#6c63ff"/><path fill="#fff" d="M294.79 254.26H692.2v142.46H294.79z"/><path fill="#64ffda" d="M327.41 288.05h15.4v73h-15.4z"/><path fill="#64ffda" d="M357.81 288.05h15.4v73h-15.4z" opacity=".7"/><path fill="#64ffda" d="M388.22 288.05h15.4v73h-15.4z" opacity=".6"/><path fill="#64ffda" d="M418.62 288.05h15.4v73h-15.4zm30.4 0h15.4v73h-15.4z" opacity=".5"/><path fill="#64ffda" d="M479.42 288.05h15.4v73h-15.4z" opacity=".4"/><path fill="#64ffda" d="M509.83 288.05h15.4v73h-15.4z" opacity=".3"/><circle cx="635.94" cy="324.09" r="37.16" fill="#6c63ff"/><path fill="#fff" d="M294.79 106.25H692.2v142.46H294.79z"/><path fill="#64ffda" d="M327.41 140.05h15.4v73h-15.4z"/><path fill="#64ffda" d="M357.81 140.05h15.4v73h-15.4z" opacity=".7"/><path fill="#64ffda" d="M388.22 140.05h15.4v73h-15.4z" opacity=".6"/><path fill="#64ffda" d="M418.62 140.05h15.4v73h-15.4zm30.4 0h15.4v73h-15.4z" opacity=".5"/><path fill="#64ffda" d="M479.42 140.05h15.4v73h-15.4z" opacity=".4"/><path fill="#64ffda" d="M509.83 140.05h15.4v73h-15.4z" opacity=".3"/><circle cx="635.94" cy="176.08" r="40.06" fill="url(#c)"/><circle cx="635.94" cy="325.08" r="40.06" fill="url(#d)"/><circle cx="635.94" cy="473.08" r="40.06" fill="url(#e)"/><circle cx="635.94" cy="176.08" r="37.16" fill="#6c63ff"/><g opacity=".7" fill="none" stroke="#6c63ff" stroke-width="4" stroke-linecap="round" stroke-linejoin="round"><path d="M749 254.67h6"/><path stroke-dasharray="12.52,33.38" d="M788.38 254.67h166.93"/><path d="M972 254.67h6v6"/><path stroke-dasharray="11.93,31.8" d="M978 292.48v115.29"/><path d="M978 423.67v6"/></g><g opacity=".7" fill="none" stroke="#6c63ff" stroke-width="4" stroke-linecap="round" stroke-linejoin="round"><path d="M655.58 707.67l-6-.03"/><path stroke-dasharray="12.52,33.38" d="M616.2 707.48l-166.92-.8"/><path d="M432.58 706.61l-6-.03.04-6"/><path stroke-dasharray="11.55,30.79" d="M426.82 669.79l.46-69.27"/><path d="M427.38 585.12l.04-6"/></g><path d="M1009.21 726.46s11.92 80.48 82.27 107.31h-285c70.35-26.83 82.27-107.31 82.27-107.31z" fill="#e0e0e0"/><path fill="url(#f)" d="M805.09 833.77h287.65v17H805.09z"/><path fill="#f5f5f5" d="M806.52 833.77h284.96v13.12H806.52z"/><path d="M1181.25 440.38h-462.5A10.75 10.75 0 00708 451.13v291.39a12.86 12.86 0 0012.86 12.86h458.28a12.86 12.86 0 0012.86-12.86V451.13a10.75 10.75 0 00-10.75-10.75z" fill="url(#g)"/><path d="M724.57 444.78h448.86a10.75 10.75 0 0110.75 10.75V705H713.82V455.54a10.75 10.75 0 0110.75-10.76z" fill="#fff"/><path d="M1171.32 747.92H726.68a12.86 12.86 0 01-12.86-12.86V705h470.36v30.06a12.86 12.86 0 01-12.86 12.86z" fill="#f5f5f5"/><path fill="#6c63ff" d="M737.07 465.86h425.65v210.06H737.07z"/><path opacity=".2" fill="#fff" d="M753.91 479.8h409.08v-14.01H737.34v210.06h16.57z"/></svg>