<svg width="199" height="217" fill="none" xmlns="http://www.w3.org/2000/svg"><path d="M28.667.417h150.666a9.417 9.417 0 0 1 9.417 9.416V47.5a9.417 9.417 0 0 1-9.417 9.417H74.055L55.222 38.083h1.695V19.25H38.083v1.695L21.228 4.089C22.921 1.83 25.652.417 28.666.417Zm169.5 204.53L186.207 217l-9.416-9.417H28.667a9.416 9.416 0 0 1-9.417-9.416V160.5a9.418 9.418 0 0 1 9.417-9.417h91.624l-18.834-18.833h-72.79a9.416 9.416 0 0 1-9.417-9.417V85.167a9.416 9.416 0 0 1 9.417-9.417h16.29L25.654 56.446a9.309 9.309 0 0 1-5.932-5.933L.417 31.21 12.47 19.25l185.697 185.697ZM179.333 75.75a9.417 9.417 0 0 1 9.417 9.417v37.666a9.417 9.417 0 0 1-9.417 9.417h-29.945l-56.5-56.5h86.445Zm0 75.333a9.417 9.417 0 0 1 9.417 9.417v11.112l-20.528-20.529h11.111Zm-103.583-113h9.417V19.25H75.75v18.833Zm0 75.334h6.874l-6.874-6.875v6.875Zm0 75.333h9.417v-18.833H75.75v18.833ZM38.083 94.583v18.834h18.834V94.583H38.083Zm0 75.334v18.833h18.834v-18.833H38.083Z" fill="#5440D8"/></svg>