<svg xmlns="http://www.w3.org/2000/svg" width="112" height="165"><g style="fill:none;fill-rule:evenodd"><path d="M0 164.761h115.234V0H0z" style="fill:#bf59d8" transform="scale(.97438 1.00478)"/><path d="M99.267 11.764 98.07 12.96l-1.196-1.196 1.196-1.197zm3.097 0-1.196 1.196-1.196-1.196 1.196-1.197zm3.098 0-1.197 1.196-1.196-1.196 1.196-1.197zm-90.87 53.537-1.197 1.197-1.196-1.197 1.196-1.196zm3.097 0-1.196 1.197-1.196-1.197 1.196-1.196zm3.098 0-1.197 1.197-1.196-1.197 1.196-1.196zm61.071-23.947-1.197 1.196-1.197-1.196 1.197-1.197zm3.097 0-1.197 1.196-1.196-1.196 1.196-1.197zm3.097 0-1.197 1.196-1.196-1.196 1.196-1.197zM24.518 5.743 23.322 6.94l-1.197-1.197 1.197-1.196zm3.098 0L26.419 6.94l-1.197-1.197 1.197-1.196zm3.097 0L29.516 6.94 28.32 5.743l1.196-1.196zm38.253 128.169-1.196 1.197-1.197-1.197 1.197-1.196zm3.098 0-1.197 1.197-1.196-1.197 1.196-1.196zm3.097 0-1.197 1.197-1.196-1.197 1.196-1.196zm-37.795-1.769-1.197 1.197-1.196-1.197 1.196-1.196zm3.097 0-1.197 1.197-1.196-1.197 1.196-1.196zm3.098 0-1.197 1.197-1.196-1.197 1.196-1.196zM38.907 16.017l1.552 1.551 1.55-1.551-1.55-1.551zm7.858 0 1.551 1.551 1.551-1.551-1.551-1.551zm10.96 0-1.551-1.551-1.552 1.551 1.552 1.551zm-18.818 8.142 1.552 1.552 1.55-1.552-1.55-1.551zm7.858 0 1.551 1.552 1.551-1.552-1.551-1.551zm7.858 0 1.55 1.552 1.552-1.552-1.552-1.551zm-15.716 8.142 1.552 1.552 1.55-1.552-1.55-1.551zm7.858 0 1.551 1.552 1.551-1.552-1.551-1.551zm7.858 0 1.55 1.552 1.552-1.552-1.552-1.551zm46.545 107.774 1.551 1.551 1.551-1.551-1.551-1.551zm7.857 0 1.552 1.551 1.551-1.551-1.551-1.551zm-7.857 8.142 1.551 1.552 1.551-1.552-1.551-1.551zm7.857 0 1.552 1.552 1.551-1.552-1.551-1.551zm-7.857 8.142 1.551 1.551 1.551-1.551-1.551-1.551zm7.857 0 1.552 1.551 1.551-1.551-1.551-1.551zM11.904 96.073l1.55 1.551 1.552-1.551-1.552-1.552zm7.857 0 1.551 1.551 1.551-1.551-1.551-1.552zm30.341-55.522L48.551 39 47 40.551l1.551 1.552zm-38.198 63.664 1.55 1.551 1.552-1.551-1.552-1.552zm7.857 0 1.551 1.551 1.551-1.551-1.551-1.552zm7.858 0 1.551 1.551 1.551-1.551-1.551-1.552zm-15.715 8.142 1.55 1.551 1.552-1.551-1.552-1.551zm7.857 0 1.551 1.551 1.551-1.551-1.551-1.551zm7.858 0 1.551 1.551 1.551-1.551-1.551-1.551z" style="fill:#fff" transform="scale(.97438 1.00478)"/><path d="m13.102 70.844-8.558 8.558V62.286zm74.738 47.883 8.557 8.558v-17.116zm.072-86.869 8.558 8.558V23.3zm-34.955 86.39-8.558 8.558V109.69z" style="fill:#de99ff" transform="scale(.97438 1.00478)"/><path d="M91.343 106.126a2.44 2.44 0 1 1 0-4.88 2.44 2.44 0 0 1 0 4.88m0-6.364a3.923 3.923 0 1 0 0 7.846 3.923 3.923 0 0 0 0-7.846m-3.661-89.458a2.44 2.44 0 1 1 0-4.88 2.44 2.44 0 0 1 0 4.88m0-6.364a3.923 3.923 0 1 0 0 7.846 3.923 3.923 0 0 0 0-7.846" style="fill:#fff" transform="scale(.97438 1.00478)"/><path d="M104.548 125.645a4.656 4.656 0 0 1-.888 5.338 4.63 4.63 0 0 1-2.476 1.29v1.535a6.144 6.144 0 0 0 3.552-1.75 6.175 6.175 0 0 0 .93-7.532z" style="fill:#7137b0" transform="scale(.97438 1.00478)"/><path d="M20.366 9.176a.776.776 0 1 1-1.552 0 .776.776 0 0 1 1.552 0m12.432 41.16a.775.775 0 1 1-1.55 0 .775.775 0 0 1 1.55 0m41.874 71.774a.775.775 0 1 1-1.55 0 .775.775 0 0 1 1.55 0M62.55 111.775a.775.775 0 1 1-1.55 0 .775.775 0 0 1 1.55 0m6 0a.775.775 0 1 1-1.55 0 .775.775 0 0 1 1.55 0M61.338 5.743a.776.776 0 1 1-1.552 0 .776.776 0 0 1 1.552 0M8.236 43.229a.775.775 0 1 1-1.55 0 .775.775 0 0 1 1.55 0m57.314 63.546a.775.775 0 1 1-1.55 0 .775.775 0 0 1 1.55 0m33.296-42.206a.775.775 0 1 1-1.55 0 .775.775 0 0 1 1.55 0M15.367 85.534a.775.775 0 1 1-1.55 0 .775.775 0 0 1 1.55 0m85.413 3.377a5.024 5.024 0 0 1-4.765-3.436 4.124 4.124 0 0 1 .23-3.17 4.126 4.126 0 0 1 2.404-2.079 3.439 3.439 0 0 1 2.641.191 3.436 3.436 0 0 1 1.733 2.004 2.889 2.889 0 0 1-.16 2.22 2.89 2.89 0 0 1-1.684 1.457.697.697 0 1 1-.439-1.324 1.516 1.516 0 0 0 .96-1.914 2.053 2.053 0 0 0-1.035-1.196 2.052 2.052 0 0 0-1.577-.114 2.74 2.74 0 0 0-1.597 1.38 2.738 2.738 0 0 0-.152 2.105 3.625 3.625 0 0 0 4.578 2.297 4.706 4.706 0 0 0 2.981-5.942 6.057 6.057 0 0 0-7.65-3.838.697.697 0 1 1-.438-1.323c3.896-1.293 8.118.825 9.411 4.721a6.102 6.102 0 0 1-3.865 7.705 4.996 4.996 0 0 1-1.576.256M69.286 54.743a7.484 7.484 0 0 1-2.019-.28 7.397 7.397 0 0 1-4.481-3.519 6.055 6.055 0 0 1-.558-4.631 6.056 6.056 0 0 1 2.881-3.67 5.022 5.022 0 0 1 6.831 1.913 4.157 4.157 0 0 1-1.583 5.654 3.44 3.44 0 0 1-2.63.317 3.443 3.443 0 0 1-2.083-1.636 2.888 2.888 0 0 1-.266-2.21 2.89 2.89 0 0 1 1.375-1.751.697.697 0 0 1 .683 1.215 1.504 1.504 0 0 0-.716.912 1.5 1.5 0 0 0 .139 1.15c.271.481.713.828 1.244.977a2.04 2.04 0 0 0 1.57-.19 2.76 2.76 0 0 0 1.052-3.755 3.625 3.625 0 0 0-4.932-1.38 4.67 4.67 0 0 0-2.222 2.83 4.671 4.671 0 0 0 .43 3.572 6.013 6.013 0 0 0 3.642 2.86 6.01 6.01 0 0 0 4.598-.553.697.697 0 1 1 .683 1.215 7.407 7.407 0 0 1-3.638.96m-49.788 95.532a3.474 3.474 0 0 1 4.037-.442 2.874 2.874 0 0 1 1.079 3.914 2.396 2.396 0 0 1-3.263.9 1.998 1.998 0 0 1-.945-1.215 1.995 1.995 0 0 1 .19-1.527.482.482 0 0 1 .838.476 1.048 1.048 0 0 0 .393 1.427 1.43 1.43 0 0 0 1.948-.537c.52-.914.198-2.08-.716-2.6a2.506 2.506 0 0 0-3.413.942 3.254 3.254 0 0 0 1.22 4.43 4.188 4.188 0 0 0 5.704-1.571.482.482 0 1 1 .838.476 5.153 5.153 0 0 1-7.017 1.933 4.184 4.184 0 0 1-1.982-2.544 4.185 4.185 0 0 1 .399-3.2c.187-.332.422-.62.69-.862m6.306-93.922a3.473 3.473 0 0 1 4.037-.441 2.874 2.874 0 0 1 1.079 3.913 2.396 2.396 0 0 1-3.263.9 1.997 1.997 0 0 1-.945-1.215 1.995 1.995 0 0 1 .19-1.527.482.482 0 1 1 .838.476 1.048 1.048 0 0 0 .393 1.427 1.43 1.43 0 0 0 1.949-.537 1.91 1.91 0 0 0-.717-2.6 2.506 2.506 0 0 0-3.413.941 3.254 3.254 0 0 0 1.22 4.432 4.187 4.187 0 0 0 5.704-1.572.483.483 0 0 1 .838.476 5.153 5.153 0 0 1-7.017 1.934 4.185 4.185 0 0 1-1.982-2.545 4.187 4.187 0 0 1 .399-3.2c.188-.332.422-.62.69-.862m74.738-16.837a2.34 2.34 0 0 1 .29-2.72 1.936 1.936 0 0 1 2.73-.146c.66.595.716 1.615.122 2.276-.242.27-.573.427-.935.447a1.344 1.344 0 0 1-.977-.345.325.325 0 0 1 .434-.483c.289.26.735.236.995-.053a.964.964 0 0 0-.073-1.359 1.286 1.286 0 0 0-1.813.097 1.688 1.688 0 0 0 .128 2.381 2.191 2.191 0 0 0 3.09-.165 2.82 2.82 0 0 0-.212-3.978.325.325 0 1 1 .434-.483 3.47 3.47 0 0 1 .261 4.895 2.817 2.817 0 0 1-1.96.937 2.819 2.819 0 0 1-2.047-.723 2.335 2.335 0 0 1-.467-.578M9.13 7.873a2.34 2.34 0 0 1 .29-2.719 1.936 1.936 0 0 1 2.73-.146c.66.595.715 1.615.121 2.276-.241.27-.573.428-.935.447a1.344 1.344 0 0 1-.977-.345.325.325 0 0 1 .434-.483c.29.26.736.236.995-.053a.963.963 0 0 0-.072-1.36 1.286 1.286 0 0 0-1.813.098 1.687 1.687 0 0 0 .127 2.381 2.191 2.191 0 0 0 3.09-.165 2.82 2.82 0 0 0-.212-3.978.325.325 0 0 1 .434-.483 3.47 3.47 0 0 1 .262 4.894 2.817 2.817 0 0 1-1.96.938 2.819 2.819 0 0 1-2.048-.723 2.335 2.335 0 0 1-.467-.578m77.629 125.713a2.34 2.34 0 0 1 .29-2.72 1.936 1.936 0 0 1 2.73-.145c.661.594.716 1.615.122 2.275a1.34 1.34 0 0 1-.935.447 1.343 1.343 0 0 1-.977-.344.325.325 0 0 1 .434-.483c.289.26.736.236.995-.053a.964.964 0 0 0-.072-1.36 1.286 1.286 0 0 0-1.814.098 1.688 1.688 0 0 0 .127 2.38 2.192 2.192 0 0 0 3.092-.164 2.82 2.82 0 0 0-.213-3.979.325.325 0 0 1 .434-.483 3.47 3.47 0 0 1 .261 4.896 2.821 2.821 0 0 1-1.959.937 2.818 2.818 0 0 1-2.048-.723 2.325 2.325 0 0 1-.467-.579m-70.891 5.729a2.34 2.34 0 0 1 .29-2.719 1.935 1.935 0 0 1 2.73-.146c.66.594.716 1.615.122 2.276a1.343 1.343 0 0 1-.935.446 1.344 1.344 0 0 1-.977-.344.325.325 0 1 1 .434-.483c.289.26.735.236.995-.053a.964.964 0 0 0-.073-1.36 1.286 1.286 0 0 0-1.813.098 1.688 1.688 0 0 0 .128 2.381 2.191 2.191 0 0 0 3.09-.165 2.82 2.82 0 0 0-.213-3.979.325.325 0 0 1 .435-.483 3.47 3.47 0 0 1 .261 4.896 2.819 2.819 0 0 1-1.96.937 2.819 2.819 0 0 1-2.047-.723 2.325 2.325 0 0 1-.467-.579" style="fill:#fff" transform="scale(.97438 1.00478)"/><path d="M4.545 114.163a2.389 2.389 0 0 1-2.387 2.388H0v-4.772h2.158a2.386 2.386 0 0 1 2.387 2.384m110.689-82.298v4.772h-2.353a2.383 2.383 0 0 1-2.384-2.385c0-.658.265-1.254.697-1.687a2.38 2.38 0 0 1 1.687-.7zM100.84 93.372a1.59 1.59 0 0 0-1.596 1.596c0 .882.714 1.599 1.597 1.599h9.26a1.598 1.598 0 0 1 0 3.196h-3.759a1.593 1.593 0 0 0-1.597 1.596c0 .882.715 1.596 1.597 1.596h8.916v-9.583h-14.417zM14.647 49.14c.441 0 .84.177 1.13.467a1.6 1.6 0 0 1-1.13 2.728H5.385a1.598 1.598 0 0 0 0 3.195h3.76a1.59 1.59 0 0 1 1.597 1.597c0 .882-.714 1.597-1.597 1.597H.23V49.14zm2.895 73.903c.537 0 1.022.216 1.374.568a1.947 1.947 0 0 1-1.374 3.32H6.274a1.944 1.944 0 0 0 0 3.887h4.575a1.936 1.936 0 0 1 1.942 1.942 1.941 1.941 0 0 1-1.942 1.942H0v-11.659h17.54zm77.243-75.196a2.257 2.257 0 0 0-2.264 2.264 2.266 2.266 0 0 0 2.264 2.268h13.135a2.266 2.266 0 0 1 0 4.531h-5.333a2.256 2.256 0 0 0-2.265 2.264 2.264 2.264 0 0 0 2.265 2.265h12.645V47.847z" style="fill:#50b0fd" transform="scale(.97438 1.00478)"/><path d="M83.25 20.028h-1.7a1.507 1.507 0 0 1 0-3.014h1.7a1.507 1.507 0 0 0 0-3.014h-9.743a1.507 1.507 0 1 0 0 3.014h2.6a1.507 1.507 0 1 1 0 3.014h-2.6a1.507 1.507 0 1 0 0 3.014h9.743a1.507 1.507 0 1 0 0-3.014M33.192 120.453H32.17a.908.908 0 1 1 0-1.815h1.023a.907.907 0 0 0 0-1.815h-5.865a.907.907 0 1 0 0 1.815h1.565a.907.907 0 1 1 0 1.814h-1.565a.907.907 0 1 0 0 1.815h5.865a.907.907 0 1 0 0-1.815M16.25 22.028h-1.7a1.507 1.507 0 0 1 0-3.014h1.7a1.507 1.507 0 1 0 0-3.014H6.507a1.507 1.507 0 1 0 0 3.014h2.6a1.507 1.507 0 0 1 0 3.014h-2.6a1.507 1.507 0 1 0 0 3.014h9.743a1.507 1.507 0 1 0 0-3.014" style="fill:#7137b0" transform="scale(.97438 1.00478)"/><path d="m41.847 148.551 1.551 1.552 1.551-1.552m6.306 1.552 1.551-1.552L51.255 147m6.307 1.551 1.551 1.552 1.551-1.552m-15.715 8.142-1.551-1.551-1.551 1.551m10.959 0-1.55-1.551-1.552 1.551m10.96 0-1.551-1.551-1.551 1.551m13.366-7.65 1.551 1.551 1.551-1.551m6.307 1.551 1.551-1.551-1.551-1.551m6.306 1.551 1.551 1.551 1.551-1.551m-15.715 8.142-1.551-1.551-1.551 1.551m10.96 0-1.552-1.551-1.551 1.551m10.96 0-1.551-1.551-1.551 1.551" style="fill:#fff" transform="scale(.97438 1.00478)"/><path d="M42.04 96.783c3.458 0 6.182-.9 8.17-2.701 1.988-1.802 2.983-4.503 2.983-8.105V67.432H44.46v18.415c0 1.009-.295 1.801-.886 2.377-.591.577-1.362.865-2.313.865-1.21 0-2.45-.432-3.717-1.297L34 94.45c2.017 1.556 4.697 2.334 8.04 2.334zm27.06 0c2.767 0 5.13-.706 7.09-2.118 1.988-1.44 3.436-3.263 4.344-5.468.907-2.205 1.361-4.647 1.361-7.327 0-4.179-1.11-7.702-3.328-10.569C76.347 68.434 73.192 67 69.1 67c-4.092 0-7.248 1.434-9.466 4.301-2.22 2.867-3.329 6.39-3.329 10.569 0 2.68.454 5.122 1.362 7.327.907 2.205 2.348 4.02 4.322 5.447 1.974 1.426 4.345 2.14 7.111 2.14zm0-7.694c-2.68 0-4.02-2.406-4.02-7.219 0-4.784 1.34-7.176 4.02-7.176 2.68 0 4.02 2.392 4.02 7.176 0 4.813-1.34 7.219-4.02 7.219z" style="fill:#fff;fill-rule:nonzero" transform="scale(.97438 1.00478)"/></g></svg>