<svg xmlns="http://www.w3.org/2000/svg" xmlns:xlink="http://www.w3.org/1999/xlink" width="115" height="165"><defs><path id="a" d="M0 164.234h114.864V0H0z"/></defs><g fill="none" fill-rule="evenodd"><path fill="#F29725" d="M0 164.759h114.864V.526H0z"/><g transform="translate(0 .285)"><path fill="#FFE11D" d="M16.064 73.13a1.777 1.777 0 11-3.553 0 1.777 1.777 0 013.553 0m59.552-34.75a1.777 1.777 0 11-3.554 0 1.777 1.777 0 013.554 0"/><path fill="#FFF" d="M20.993 90.714L19.8 91.907l-1.193-1.193 1.193-1.192zm3.087 0l-1.193 1.193-1.192-1.193 1.192-1.192zm3.088 0l-1.193 1.193-1.192-1.193 1.192-1.192zM9.305 62.157L8.112 63.35 6.92 62.157l1.192-1.192zm3.087 0L11.2 63.35l-1.193-1.193 1.193-1.192zm3.088 0l-1.193 1.193-1.192-1.193 1.192-1.192zm63.543-48.549l-1.193 1.193-1.192-1.193 1.192-1.193zm3.088 0l-1.194 1.193-1.192-1.193 1.192-1.193zm3.087 0l-1.193 1.193-1.192-1.193 1.192-1.193zm5.74 142.236l-1.193 1.193-1.193-1.193 1.193-1.192zm3.087 0l-1.193 1.193-1.192-1.193 1.192-1.192zm3.088 0l-1.193 1.193-1.192-1.193 1.192-1.192zM27.134 51.625l-1.193 1.193-1.192-1.193 1.192-1.193zm3.088 0l-1.193 1.193-1.192-1.193 1.192-1.193zm3.087 0l-1.193 1.193-1.192-1.193 1.192-1.193zm50.366 2.402l-1.193 1.193-1.192-1.193 1.192-1.193zm3.087 0l-1.193 1.193-1.192-1.193 1.192-1.193zm3.088 0l-1.193 1.193-1.192-1.193 1.192-1.193zM9.305 158.436l-1.193 1.193-1.192-1.193 1.192-1.193zm3.087 0l-1.192 1.193-1.193-1.193 1.193-1.193zm3.088 0l-1.193 1.193-1.192-1.193 1.192-1.193zm88.563-94.241a1.25 1.25 0 11-2.501 0 1.25 1.25 0 012.501 0m-94.68 56.408a1.25 1.25 0 11-2.501 0 1.25 1.25 0 012.5 0m3.088-84.97a1.25 1.25 0 11-2.5 0 1.25 1.25 0 012.5 0m66.23 115.935a1.25 1.25 0 11-2.5 0 1.25 1.25 0 012.5 0M10.555 10.696a1.25 1.25 0 11-2.5 0 1.25 1.25 0 012.5 0m15.925 94.058a.823.823 0 11-1.646 0 .823.823 0 011.645 0M12.023 90.496a.822.822 0 11-1.644 0 .822.822 0 011.644 0m52.555 66.49a.822.822 0 11-1.643 0 .822.822 0 011.643 0M62.979 52.448a.822.822 0 11-1.645 0 .822.822 0 011.645 0m39.605-20.451a.823.823 0 11-1.646 0 .823.823 0 011.646 0M44.542 10.842a.823.823 0 11-1.645 0 .823.823 0 011.645 0m-17.96 32.489a1.25 1.25 0 11-2.5 0 1.25 1.25 0 012.5 0m20.65 62.732a1.25 1.25 0 11-2.502 0 1.25 1.25 0 012.502 0M99.36 53.12a1.495 1.495 0 110-2.99 1.495 1.495 0 010 2.99m0-3.897a2.402 2.402 0 100 4.804 2.402 2.402 0 000-4.804M18.607 114.41a1.495 1.495 0 110-2.989 1.495 1.495 0 010 2.99m0-3.897a2.402 2.402 0 10.001 4.804 2.402 2.402 0 000-4.804m4.28-98.324a1.495 1.495 0 110-2.989 1.495 1.495 0 010 2.99m0-3.897a2.402 2.402 0 100 4.804 2.402 2.402 0 000-4.804M11.267 56.667a1.494 1.494 0 110-2.989 1.494 1.494 0 010 2.989m0-3.897a2.402 2.402 0 100 4.805 2.402 2.402 0 000-4.805m36.083-4.673a1.494 1.494 0 110-2.988 1.494 1.494 0 010 2.988m0-3.896a2.402 2.402 0 100 4.804 2.402 2.402 0 000-4.804m53.588-30.558a1.495 1.495 0 110-2.99 1.495 1.495 0 010 2.99m0-3.897a2.402 2.402 0 100 4.803 2.402 2.402 0 000-4.803M50.495 154a2.433 2.433 0 110-4.865 2.433 2.433 0 010 4.866m0-6.345a3.911 3.911 0 10.001 7.823 3.911 3.911 0 000-7.823"/><path fill="#7137B0" d="M34.358 117.219a3.591 3.591 0 017.181 0h2.18a5.77 5.77 0 00-11.541 0h2.18zM69.822 7.336a4.18 4.18 0 11-8.36 0h-2.54a6.719 6.719 0 1013.439 0h-2.539zM81.61 151.53a4.18 4.18 0 11-8.361 0H70.71a6.719 6.719 0 1013.438 0H81.61zM24.798 84.525a.955.955 0 11-1.91.001.955.955 0 011.91 0m78.718 70.364a.954.954 0 11-1.909 0 .954.954 0 011.91 0M18.118 23.057a.955.955 0 11-1.91 0 .955.955 0 011.91 0M89.937 48.03a.954.954 0 11-1.909.001.954.954 0 011.909 0M9.735 109.218a.954.954 0 11-1.909 0 .954.954 0 011.91 0"/><mask id="b" fill="#fff"><use xlink:href="#a"/></mask><path fill="#FFE11D" d="M91.296 89.69h20.34V69.35h-20.34v20.34zm-.695.695h21.729v-21.73H90.6v21.73z" mask="url(#b)"/><path fill="#FFE11D" d="M84.812 94.138h20.34v-20.34h-20.34v20.34zm-.695.694h21.729v-21.73H84.117v21.73z" mask="url(#b)"/><path fill="#FFE11D" d="M84.661 73.737l-.393-.573 6.484-4.448.393.573zm0 21.034l-.393-.573 6.484-4.447.393.573zm21.035 0l-.394-.573 6.484-4.447.393.573zm0-21.034l-.394-.573 6.484-4.448.393.573zm-84.944 69.659h20.34v-20.34h-20.34v20.34zm-.695.695h21.73v-21.729h-21.73v21.73z" mask="url(#b)"/><path fill="#FFE11D" d="M14.269 147.844h20.339v-20.339h-20.34v20.34zm-.695.695h21.729v-21.73h-21.73v21.73z" mask="url(#b)"/><path fill="#FFE11D" d="M14.118 127.444l-.393-.573 6.484-4.448.393.573zm0 21.034l-.393-.573 6.484-4.448.393.573zm21.034 0l-.393-.573 6.484-4.448.393.573zm0-21.034l-.393-.573 6.484-4.448.393.573z" mask="url(#b)"/><path fill="#FFF" d="M37.536 27.162a1.043 1.043 0 11-2.086 0 1.043 1.043 0 012.086 0m6.659 0a1.042 1.042 0 11-2.085 0 1.042 1.042 0 012.085 0m6.659 0a1.042 1.042 0 11-2.084 0 1.042 1.042 0 012.084 0m6.66 0a1.043 1.043 0 11-2.085 0 1.043 1.043 0 012.085 0m6.659 0a1.043 1.043 0 11-2.085 0 1.043 1.043 0 012.085 0m6.66 0a1.042 1.042 0 11-2.085 0 1.042 1.042 0 012.085 0m6.659 0a1.042 1.042 0 11-2.085 0 1.042 1.042 0 012.085 0m6.66 0a1.043 1.043 0 11-2.086 0 1.043 1.043 0 012.086 0m-43.547 4.013a1.043 1.043 0 11-2.085-.001 1.043 1.043 0 012.085 0m6.659.001a1.042 1.042 0 11-2.085-.001 1.042 1.042 0 012.085 0m6.659.001a1.042 1.042 0 11-2.084 0 1.042 1.042 0 012.084 0m6.66 0a1.042 1.042 0 11-2.085 0 1.042 1.042 0 012.085 0m6.66 0a1.043 1.043 0 11-2.086-.001 1.043 1.043 0 012.086 0m6.659.001a1.042 1.042 0 11-2.084 0 1.042 1.042 0 012.084 0m6.659 0a1.042 1.042 0 11-2.084 0 1.042 1.042 0 012.084 0m-21.025 71.036a1.043 1.043 0 11-2.086 0 1.043 1.043 0 012.086 0m6.659 0a1.042 1.042 0 11-2.085 0 1.042 1.042 0 012.085 0m6.659 0a1.042 1.042 0 11-2.084 0 1.042 1.042 0 012.084 0m6.66 0a1.043 1.043 0 11-2.085 0 1.043 1.043 0 012.085 0m6.659 0a1.043 1.043 0 11-2.085 0 1.043 1.043 0 012.085 0m6.66 0a1.042 1.042 0 11-2.085 0 1.042 1.042 0 012.085 0m6.659 0a1.042 1.042 0 11-2.085 0 1.042 1.042 0 012.085 0m6.66 0a1.043 1.043 0 11-2.086 0 1.043 1.043 0 012.086 0m-43.547 4.013a1.043 1.043 0 11-2.085-.001 1.043 1.043 0 012.085.001m6.659 0a1.042 1.042 0 11-2.085 0 1.042 1.042 0 012.085 0m6.659 0a1.042 1.042 0 11-2.084 0 1.042 1.042 0 012.084 0m6.66 0a1.042 1.042 0 11-2.085 0 1.042 1.042 0 012.085 0m6.66 0a1.043 1.043 0 11-2.086-.001 1.043 1.043 0 012.086.001m6.659 0a1.042 1.042 0 11-2.084 0 1.042 1.042 0 012.084 0m6.659 0a1.042 1.042 0 11-2.084 0 1.042 1.042 0 012.084 0m-43.025 4.036a1.043 1.043 0 11-2.086 0 1.043 1.043 0 012.086 0m6.659 0a1.042 1.042 0 11-2.084 0 1.042 1.042 0 012.084 0m6.659 0a1.042 1.042 0 11-2.084 0 1.042 1.042 0 012.084 0m6.66 0a1.043 1.043 0 11-2.085 0 1.043 1.043 0 012.085 0m6.659 0a1.042 1.042 0 11-2.085 0 1.042 1.042 0 012.085 0m6.66 0a1.042 1.042 0 11-2.085 0 1.042 1.042 0 012.085 0m6.659 0a1.042 1.042 0 11-2.084 0 1.042 1.042 0 012.084 0m6.66 0a1.043 1.043 0 11-2.085 0 1.043 1.043 0 012.085 0m-43.547 4.013a1.042 1.042 0 11-2.085 0 1.042 1.042 0 012.085 0m6.659 0a1.042 1.042 0 11-2.084 0 1.042 1.042 0 012.084 0m6.659 0a1.042 1.042 0 11-2.083 0 1.042 1.042 0 012.083 0m6.66 0a1.042 1.042 0 11-2.084 0 1.042 1.042 0 012.084 0m6.66 0a1.042 1.042 0 11-2.085 0 1.042 1.042 0 012.085 0m6.659 0a1.042 1.042 0 11-2.084 0 1.042 1.042 0 012.084 0m6.659 0a1.042 1.042 0 11-2.083 0 1.042 1.042 0 012.083 0m-43.025 4.037a1.043 1.043 0 11-2.086-.001 1.043 1.043 0 012.086 0m6.659.001a1.042 1.042 0 11-2.084 0 1.042 1.042 0 012.084 0m6.659 0a1.042 1.042 0 11-2.084 0 1.042 1.042 0 012.084 0m6.66 0a1.043 1.043 0 11-2.085-.001 1.043 1.043 0 012.085 0m6.659.001a1.042 1.042 0 11-2.085-.001 1.042 1.042 0 012.085 0m6.66.001a1.042 1.042 0 11-2.085 0 1.042 1.042 0 012.085 0m6.659 0a1.042 1.042 0 11-2.084 0 1.042 1.042 0 012.084 0m6.66 0a1.043 1.043 0 11-2.085-.001 1.043 1.043 0 012.085 0m-43.547 4.014a1.043 1.043 0 11-2.086 0 1.043 1.043 0 012.086 0m6.659 0a1.043 1.043 0 11-2.085 0 1.043 1.043 0 012.085 0m6.659 0a1.042 1.042 0 11-2.084 0 1.042 1.042 0 012.084 0m6.66 0a1.042 1.042 0 11-2.085 0 1.042 1.042 0 012.085 0m6.66 0a1.043 1.043 0 11-2.086 0 1.043 1.043 0 012.086 0m6.659 0a1.042 1.042 0 11-2.085 0 1.042 1.042 0 012.085 0m6.659 0a1.042 1.042 0 11-2.084 0 1.042 1.042 0 012.084 0m-43.025 4.037a1.043 1.043 0 11-2.086-.002 1.043 1.043 0 012.086.001m6.659.001a1.042 1.042 0 11-2.084-.001 1.042 1.042 0 012.084 0m6.659.001a1.042 1.042 0 11-2.084-.001 1.042 1.042 0 012.084 0m6.66.001a1.043 1.043 0 11-2.085-.002 1.043 1.043 0 012.085.001m6.659.001a1.042 1.042 0 11-2.085-.002 1.042 1.042 0 012.085.001m6.66.001a1.042 1.042 0 11-2.085-.001 1.042 1.042 0 012.085 0m6.659.001a1.042 1.042 0 11-2.084-.001 1.042 1.042 0 012.084 0m6.66.001a1.043 1.043 0 11-2.085-.002 1.043 1.043 0 012.085.001m-43.547 4.013a1.043 1.043 0 11-2.086 0 1.043 1.043 0 012.086 0m6.659 0a1.043 1.043 0 11-2.085 0 1.043 1.043 0 012.085 0m6.659 0a1.042 1.042 0 11-2.084 0 1.042 1.042 0 012.084 0m6.66 0a1.042 1.042 0 11-2.085 0 1.042 1.042 0 012.085 0m6.66 0a1.043 1.043 0 11-2.086 0 1.043 1.043 0 012.086 0m6.659 0a1.042 1.042 0 11-2.085 0 1.042 1.042 0 012.085 0m6.659 0a1.042 1.042 0 11-2.084 0 1.042 1.042 0 012.084 0m-43.025 4.036a1.043 1.043 0 11-2.086 0 1.043 1.043 0 012.086 0m6.659 0a1.042 1.042 0 11-2.085 0 1.042 1.042 0 012.085 0m6.659 0a1.042 1.042 0 11-2.084 0 1.042 1.042 0 012.084 0m6.66 0a1.043 1.043 0 11-2.085 0 1.043 1.043 0 012.085 0m6.659 0a1.043 1.043 0 11-2.085 0 1.043 1.043 0 012.085 0m6.66 0a1.042 1.042 0 11-2.085 0 1.042 1.042 0 012.085 0m6.659 0a1.042 1.042 0 11-2.085 0 1.042 1.042 0 012.085 0m6.66 0a1.043 1.043 0 11-2.086 0 1.043 1.043 0 012.086 0m-43.547 4.013a1.043 1.043 0 11-2.086 0 1.043 1.043 0 012.086 0m6.659 0a1.043 1.043 0 11-2.085 0 1.043 1.043 0 012.085 0m6.659 0a1.042 1.042 0 11-2.084 0 1.042 1.042 0 012.084 0m6.66 0a1.042 1.042 0 11-2.085 0 1.042 1.042 0 012.085 0m6.66 0a1.043 1.043 0 11-2.086 0 1.043 1.043 0 012.086 0m6.659 0a1.042 1.042 0 11-2.085 0 1.042 1.042 0 012.085 0m6.659 0a1.042 1.042 0 11-2.084 0 1.042 1.042 0 012.084 0m-43.025 4.036a1.043 1.043 0 11-2.086 0 1.043 1.043 0 012.086 0m6.659 0a1.042 1.042 0 11-2.085.001 1.042 1.042 0 012.085 0m6.659-.001a1.042 1.042 0 11-2.084.001 1.042 1.042 0 012.084 0m6.66-.001a1.043 1.043 0 11-2.085 0 1.043 1.043 0 012.085 0m6.659 0a1.043 1.043 0 11-2.085 0 1.043 1.043 0 012.085 0m6.66 0a1.042 1.042 0 11-2.085.001 1.042 1.042 0 012.085 0m6.659-.001a1.042 1.042 0 11-2.085.001 1.042 1.042 0 012.085 0m6.66-.001a1.043 1.043 0 11-2.086 0 1.043 1.043 0 012.086 0" mask="url(#b)"/></g><path fill="#FFF" fill-rule="nonzero" d="M45.015 97.258c3.447 0 6.161-.898 8.143-2.694 1.983-1.795 2.974-4.488 2.974-8.079V68h-8.704v18.356c0 1.005-.295 1.795-.884 2.37-.589.574-1.357.862-2.305.862-1.207 0-2.442-.431-3.706-1.293L37 94.931c2.01 1.55 4.682 2.327 8.015 2.327zm31.929-.518V68h-7.498L58.458 78.772l4.913 5.128 4.869-4.826V96.74h8.704z"/></g></svg>