<svg xmlns="http://www.w3.org/2000/svg" xmlns:xlink="http://www.w3.org/1999/xlink" width="115" height="165"><defs><path id="a" d="M0 164.234h114.864V0H0z"/></defs><g fill="none" fill-rule="evenodd"><path fill="#24E1CB" d="M0 164.759h114.864V.525H0z"/><g transform="translate(0 .285)"><path fill="#F14BF3" d="M41.609 149.99a4.47 4.47 0 11-8.94-.002 4.47 4.47 0 018.94.001"/><path fill="#FFF" d="M108.59 140.093a.62.62 0 11-1.238 0 .62.62 0 011.239 0M51.847 26.515a.62.62 0 11-1.238 0 .62.62 0 011.238 0M26.767 83.9a.619.619 0 11-1.238 0 .619.619 0 011.238 0m33.474 64.96a.62.62 0 11-1.24 0 .62.62 0 011.24 0m33.157-82.686a.62.62 0 11-1.238 0 .62.62 0 011.238 0M9.72 122.315l1.546 1.546 1.547-1.546-1.547-1.546zm7.833 0l1.546 1.546 1.546-1.546-1.546-1.546zm10.925 0l-1.546-1.546-1.547 1.546 1.547 1.546zM9.72 130.431l1.546 1.546 1.547-1.546-1.547-1.546zm7.833 0l1.546 1.546 1.546-1.546-1.546-1.546zm7.832 0l1.546 1.546 1.547-1.546-1.547-1.546zM9.72 138.547l1.546 1.546 1.547-1.546-1.547-1.546zm7.833 0l1.546 1.546 1.546-1.546-1.546-1.546zm7.832 0l1.546 1.546 1.547-1.546-1.547-1.546z"/><mask id="b" fill="#fff"><use xlink:href="#a"/></mask><path fill="#FFF" d="M18.058 113.552h6.949v-6.949h-6.95v6.95zm-1.043 1.042h9.034v-9.033h-9.034v9.033zm49.331 28.974h6.949v-6.95h-6.95v6.95zm-1.042 1.042h9.033v-9.033h-9.033v9.033zm-18.261-2.243h3.61v-3.61h-3.61v3.61zM46 143.409h5.694v-5.694H46v5.694zM73.292 18.043h3.61v-3.61h-3.61v3.61zm-1.042 1.043h5.694v-5.694H72.25v5.694zM19.819 77.797h3.61v-3.61h-3.61v3.61zm-1.042 1.042h5.694v-5.694h-5.694v5.694zm6.226-39.801h6.95v-6.95h-6.95v6.95zm-1.042 1.042h9.034v-9.033H23.96v9.033zM94.47 53.27h11.292V41.978H94.47V53.27zm-1.043 1.042h13.377V40.935H93.427v13.377zm-5.638 74.878H99.08v-11.292H87.789v11.292zm-1.043 1.042h13.377v-13.376H86.746v13.376z" mask="url(#b)"/><path fill="#FFF" d="M102.271 57.008h6.434v-6.433h-6.434v6.433zm-1.042 1.042h8.519v-8.518h-8.519v8.518zM44.481 17.591h6.434v-6.434H44.48v6.434zm-1.043 1.043h8.519v-8.519h-8.519v8.519zM23.383 155.635h11.292v-11.292H23.383v11.292zm-1.042 1.042h13.377V143.3H22.34v13.377zM9.719 108.34H21.01V97.048H9.719v11.292zm-1.043 1.042h13.377V96.006H8.676v13.376z" mask="url(#b)"/><path fill="#7137B0" d="M102.793 79.779a2.447 2.447 0 110-4.894 2.447 2.447 0 010 4.894m0-6.38a3.933 3.933 0 100 7.866 3.933 3.933 0 000-7.866m-8.86 27.697a2.447 2.447 0 110-4.895 2.447 2.447 0 010 4.895m0-6.38a3.933 3.933 0 100 7.865 3.933 3.933 0 000-7.866m-62-39.619a2.447 2.447 0 110-4.894 2.447 2.447 0 010 4.894m0-6.38a3.933 3.933 0 100 7.866 3.933 3.933 0 000-7.867M11.2 50.071a2.447 2.447 0 110-4.893 2.447 2.447 0 010 4.893m0-6.38a3.933 3.933 0 100 7.866 3.933 3.933 0 000-7.866m80.205 116.768a5.354 5.354 0 0110.707 0h3.25a8.605 8.605 0 00-17.21 0h3.253zM4.109 69.942a5.353 5.353 0 110 10.706V83.9a8.605 8.605 0 000-17.21v3.252z" mask="url(#b)"/><path fill="#F14BF3" d="M77.175 45.836a5.414 5.414 0 11-10.828 0 5.414 5.414 0 0110.828 0m-7.948 63.993a2.113 2.113 0 11-4.226 0 2.113 2.113 0 014.226 0m10.309 44.63a2.113 2.113 0 11-4.225 0 2.113 2.113 0 014.225 0m-53.1-139.841a4.405 4.405 0 11-8.81 0 4.405 4.405 0 018.81 0" mask="url(#b)"/><path fill="#7137B0" d="M83.43 134.49a2.512 2.512 0 11-5.024 0 2.512 2.512 0 015.023 0m-42.175-8.117a2.512 2.512 0 11-5.024 0 2.512 2.512 0 015.024 0m48.208-90.81a1.309 1.309 0 11-2.617 0 1.309 1.309 0 012.617 0m-32.781 86.752a1.309 1.309 0 11-2.617 0 1.309 1.309 0 012.617 0m-40.757 25.237a1.309 1.309 0 11-2.618 0 1.309 1.309 0 012.618 0M37.305 25.901a1.31 1.31 0 11-2.618 0 1.31 1.31 0 012.618 0M26.836 91.944a.752.752 0 11-1.504 0 .752.752 0 011.504 0m78.574 22.129a1.309 1.309 0 11-2.617 0 1.309 1.309 0 012.617 0" mask="url(#b)"/><path fill="#FFF" d="M87.019 11.215l1.546 1.547 1.547-1.547-1.547-1.546zm7.832 0l1.547 1.547 1.546-1.547-1.546-1.546zm10.926 0l-1.546-1.546-1.547 1.546 1.547 1.547zm-18.758 8.116l1.546 1.546 1.547-1.546-1.547-1.546zm7.832 0l1.547 1.546 1.546-1.546-1.546-1.546zm7.833 0l1.546 1.546 1.547-1.546-1.547-1.546zm-15.665 8.116l1.546 1.546 1.547-1.546-1.547-1.546zm7.832 0l1.547 1.546 1.546-1.546-1.546-1.546zm7.833 0l1.546 1.546 1.547-1.546-1.547-1.546zM14.99 19.995a5.378 5.378 0 110-10.755 5.378 5.378 0 010 10.755m0-12.451a7.074 7.074 0 100 14.148 7.074 7.074 0 000-14.148M61.695 52.02a6.61 6.61 0 110-13.22 6.61 6.61 0 010 13.22m0-15.305a8.695 8.695 0 100 17.39 8.695 8.695 0 000-17.39" mask="url(#b)"/></g><path fill="#FFF" fill-rule="nonzero" d="M42.015 97.688c3.447 0 6.161-.897 8.143-2.693 1.983-1.795 2.974-4.488 2.974-8.079V68.431h-8.704v18.356c0 1.005-.295 1.795-.884 2.37-.589.574-1.357.862-2.305.862-1.207 0-2.442-.431-3.706-1.293L34 95.362c2.01 1.55 4.682 2.326 8.015 2.326zm38.694-.517v-7.583h-9.35c3.36-2.212 5.716-4.209 7.066-5.99 1.35-1.78 2.025-3.677 2.025-5.687 0-2.902-1.127-5.279-3.382-7.132C74.813 68.926 71.832 68 68.127 68c-2.212 0-4.403.395-6.571 1.185a14.11 14.11 0 00-5.58 3.684l4.74 5.774c2.355-1.982 4.883-2.973 7.583-2.973.948 0 1.738.208 2.37.625.632.416.948.955.948 1.616 0 .574-.108 1.077-.323 1.508-.216.43-.884 1.134-2.004 2.111-1.12.977-2.52 2.068-4.201 3.275-1.68 1.206-4.302 3.073-7.864 5.601v6.765H80.71z"/></g></svg>