<svg xmlns="http://www.w3.org/2000/svg" width="116" height="165"><g fill="none" fill-rule="evenodd"><path fill="#00C8FB" d="M0 164.759h115.231V0H0z"/><path fill="#FFF" d="M84.39 77.916l-.658.659-.658-.659.658-.658zm3.334 0l-.658.659-.659-.659.659-.658zm3.334 0l-.658.659-.659-.659.659-.658zm3.334 0l-.658.659-.659-.659.659-.658zm3.333 0l-.658.659-.658-.659.658-.658zm3.334 0l-.658.659-.658-.659.658-.658zm3.334 0l-.658.659-.658-.659.658-.658zm3.334 0l-.658.659-.658-.659.658-.658zM84.39 81.371l-.658.658-.658-.658.658-.658zm3.334 0l-.658.658-.659-.658.659-.658zm3.334 0l-.658.658-.659-.658.659-.658zm3.334 0l-.658.658-.659-.658.659-.658zm3.333 0l-.658.658-.658-.658.658-.658zm3.334 0l-.658.658-.658-.658.658-.658zm3.334 0l-.658.658-.658-.658.658-.658zm3.334 0l-.658.658-.658-.658.658-.658zM84.39 84.825l-.658.659-.658-.659.658-.658zm3.334 0l-.658.659-.659-.659.659-.658zm3.334 0l-.658.659-.659-.659.659-.658zm3.334 0l-.658.659-.659-.659.659-.658zm3.333 0l-.658.659-.658-.659.658-.658zm3.334 0l-.658.659-.658-.659.658-.658zm3.334 0l-.658.659-.658-.659.658-.658zm3.334 0l-.658.659-.658-.659.658-.658zM84.39 88.28l-.658.658-.658-.658.658-.658zm3.334 0l-.658.658-.659-.658.659-.658zm3.334 0l-.658.658-.659-.658.659-.658zm3.334 0l-.658.658-.659-.658.659-.658zm3.333 0l-.658.658-.658-.658.658-.658zm3.334 0l-.658.658-.658-.658.658-.658zm3.334 0l-.658.658-.658-.658.658-.658zm3.334 0l-.658.658-.658-.658.658-.658zM84.39 91.734l-.658.659-.658-.659.658-.657zm3.334 0l-.658.659-.659-.659.659-.657zm3.334 0l-.658.659-.659-.659.659-.657zm3.334 0l-.658.659-.659-.659.659-.657zm3.333 0l-.658.659-.658-.659.658-.657zm3.334 0l-.658.659-.658-.659.658-.657zm3.334 0l-.658.659-.658-.659.658-.657zm3.334 0l-.658.659-.658-.659.658-.657zM84.39 95.189l-.658.658-.658-.658.658-.658zm3.334 0l-.658.658-.659-.658.659-.658zm3.334 0l-.658.658-.659-.658.659-.658zm3.334 0l-.658.658-.659-.658.659-.658zm3.333 0l-.658.658-.658-.658.658-.658zm3.334 0l-.658.658-.658-.658.658-.658zm3.334 0l-.658.658-.658-.658.658-.658zm3.334 0l-.658.658-.658-.658.658-.658zM84.39 98.644l-.658.658-.658-.658.658-.658zm3.334 0l-.658.658-.659-.658.659-.658zm3.334 0l-.658.658-.659-.658.659-.658zm3.334 0l-.658.658-.659-.658.659-.658zm3.333 0l-.658.658-.658-.658.658-.658zm3.334 0l-.658.658-.658-.658.658-.658zm3.334 0l-.658.658-.658-.658.658-.658zm3.334 0l-.658.658-.658-.658.658-.658zm-23.337 3.454l-.658.658-.658-.658.658-.658zm3.334 0l-.658.658-.659-.658.659-.658zm3.334 0l-.658.658-.659-.658.659-.658zm3.334 0l-.658.658-.659-.658.659-.658zm3.333 0l-.658.658-.658-.658.658-.658zm3.334 0l-.658.658-.658-.658.658-.658zm3.334 0l-.658.658-.658-.658.658-.658zm3.334 0l-.658.658-.658-.658.658-.658zM74.309 53.663a1.057 1.057 0 11-2.114 0 1.057 1.057 0 012.114 0m35.065 62.867a1.058 1.058 0 11-2.116 0 1.058 1.058 0 012.115 0m-63.509 31.208a1.057 1.057 0 11-2.113 0 1.057 1.057 0 012.114 0M94.79 36.156a1.057 1.057 0 11-2.114 0 1.057 1.057 0 012.114 0M9.517 77.595a.622.622 0 11-1.244 0 .622.622 0 011.244 0m72.297 72.096a.622.622 0 11-1.243 0 .621.621 0 011.242 0m-16.557-7.139a.622.622 0 11-1.243 0 .622.622 0 011.243 0m30.155-32.009a.621.621 0 11-1.242 0 .621.621 0 011.242 0m-73.567 43.071a.622.622 0 11-1.242 0 .622.622 0 011.243 0M63.242 31.621a.621.621 0 11-1.242 0 .621.621 0 011.242 0M12.186 62.428l.964.965.965-.965-.965-.965zm4.887 0l.965.965.965-.965-.965-.965zm6.818 0l-.965-.965-.965.965.965.965zm-11.705 5.065l.964.964.965-.964-.965-.965zm4.887 0l.965.964.965-.964-.965-.965zm4.888 0l.965.964.965-.964-.965-.965zm-9.775 5.064l.964.965.965-.965-.965-.965zm4.887 0l.965.965.965-.965-.965-.965zm4.888 0l.965.965.965-.965-.965-.965zm46.495 54.981l.965.965.965-.965-.965-.965zm4.888 0l.965.965.965-.965-.965-.965zm6.817 0l-.965-.965-.964.965.964.965zm-11.705 5.065l.965.965.965-.965-.965-.965zm4.888 0l.965.965.965-.965-.965-.965zm4.888 0l.964.965.965-.965-.965-.965zm-9.776 5.064l.965.965.965-.965-.965-.964zm4.888 0l.965.965.965-.965-.965-.964zm4.888 0l.964.965.965-.965-.965-.964zM53.964 14.328a1.521 1.521 0 100 3.042 1.521 1.521 0 000-3.042m4.126 0a1.521 1.521 0 100 3.042 1.521 1.521 0 000-3.042m4.126 0a1.52 1.52 0 100 3.041 1.52 1.52 0 000-3.04m4.126 0a1.52 1.52 0 100 3.04 1.52 1.52 0 000-3.04m-14.822-3.33a1.521 1.521 0 100 3.042 1.52 1.52 0 000-3.041m4.126 0a1.52 1.52 0 100 3.041 1.52 1.52 0 000-3.041m4.125 0a1.52 1.52 0 100 3.041 1.52 1.52 0 000-3.041m2.605 1.52a1.52 1.52 0 113.041 0 1.52 1.52 0 01-3.04 0M24.05 115.976a1.437 1.437 0 100 2.874 1.437 1.437 0 000-2.874m3.897 0a1.437 1.437 0 100 2.874 1.437 1.437 0 000-2.874m3.897 0a1.437 1.437 0 100 2.873 1.437 1.437 0 000-2.873m3.897 0a1.437 1.437 0 100 2.874 1.437 1.437 0 000-2.874m-14-3.145a1.437 1.437 0 100 2.874 1.437 1.437 0 000-2.874m3.897 0a1.438 1.438 0 100 2.875 1.438 1.438 0 000-2.875m3.897 0a1.437 1.437 0 100 2.874 1.437 1.437 0 000-2.874m2.46 1.437a1.438 1.438 0 112.875 0 1.438 1.438 0 01-2.875 0m60.927 21.78a1.581 1.581 0 100 3.163 1.581 1.581 0 000-3.163m4.29 0a1.581 1.581 0 10-.001 3.162 1.581 1.581 0 000-3.162m4.29 0a1.581 1.581 0 100 3.163 1.581 1.581 0 000-3.163m4.29 0a1.581 1.581 0 100 3.163 1.581 1.581 0 000-3.163m-15.411-3.461a1.581 1.581 0 100 3.162 1.581 1.581 0 000-3.162m4.29 0a1.581 1.581 0 10-.001 3.162 1.581 1.581 0 000-3.162m4.29 0a1.581 1.581 0 100 3.162 1.581 1.581 0 000-3.162m2.709 1.581a1.581 1.581 0 113.162 0 1.581 1.581 0 01-3.162 0"/><path fill="#E2A1F6" d="M90.269 47.198c.797 0 1.516.3 2.077.781l-.004-.02c5.131 3.702 7.474-.678 7.474-.678v.005a6.287 6.287 0 015.461-3.173 6.294 6.294 0 010 12.588 6.286 6.286 0 01-5.46-3.172v.006s-2.344-4.381-7.475-.679l.004-.02a3.18 3.18 0 01-2.077.78 3.21 3.21 0 010-6.418m-61.956 75.7a3.51 3.51 0 00-2.291.862l.003-.023c-5.66 4.084-8.244-.748-8.244-.748v.006a6.937 6.937 0 00-6.025-3.5 6.944 6.944 0 100 13.887c2.58 0 4.828-1.41 6.025-3.5v.006s2.584-4.833 8.244-.748l-.003-.023a3.51 3.51 0 002.29.862 3.541 3.541 0 000-7.081"/><path fill="#8C8AF8" d="M65.99 112.522c.733 0 1.394.277 1.91.718l-.003-.019c4.718 3.405 6.872-.623 6.872-.623v.005a5.783 5.783 0 015.022-2.918 5.788 5.788 0 010 11.576 5.782 5.782 0 01-5.022-2.917v.005s-2.154-4.029-6.872-.624l.003-.02a2.924 2.924 0 01-1.91.719 2.951 2.951 0 110-5.902"/><path fill="#7A96FA" d="M96.955 64.843c0-.369-.14-.703-.362-.963l.01.002c-1.718-2.381.314-3.468.314-3.468h-.002a2.92 2.92 0 10-2.896 0h-.003s2.032 1.087.315 3.468l.01-.002a1.47 1.47 0 00-.363.963 1.488 1.488 0 102.977 0M54.054 53.002c0-.34-.13-.647-.334-.886l.009.001c-1.58-2.188.29-3.188.29-3.188h-.003a2.682 2.682 0 00-1.332-5.014 2.685 2.685 0 00-1.332 5.014h-.002s1.869 1 .29 3.188l.009-.001a1.351 1.351 0 00-.334.886 1.37 1.37 0 102.738 0"/><path fill="#6177C7" d="M23.656 142.93a1.63 1.63 0 00-.4-1.063l.011.001c-1.894-2.625.348-3.825.348-3.825h-.003a3.221 3.221 0 10-3.196 0h-.002s2.242 1.2.347 3.825l.01-.001a1.633 1.633 0 00-.399 1.063 1.642 1.642 0 103.284 0"/><path fill="#7A96FA" d="M68.689 156.162c0-.34-.128-.647-.334-.886l.01.002c-1.58-2.19.289-3.19.289-3.19h-.002a2.685 2.685 0 10-2.664 0h-.002s1.869 1 .29 3.19l.008-.002c-.205.24-.333.546-.333.886a1.369 1.369 0 102.738 0"/><path fill="#E2A1F6" d="M14.705 13.561c.92 0 1.75.348 2.398.902l-.004-.024c5.924 4.275 8.63-.782 8.63-.782v.005A7.26 7.26 0 0132.033 10a7.267 7.267 0 010 14.534 7.26 7.26 0 01-6.305-3.663v.006s-2.705-5.058-8.629-.783l.004-.023a3.677 3.677 0 01-2.398.902 3.706 3.706 0 010-7.412"/><path fill="#6177C7" d="M35.028 27.32c-.427 0-.811.161-1.112.418l.002-.011c-2.748 1.983-4.004-.363-4.004-.363v.003a3.372 3.372 0 10-2.925 5.043 3.368 3.368 0 002.925-1.699v.003s1.256-2.347 4.004-.364l-.002-.01c.3.257.685.417 1.112.417a1.719 1.719 0 100-3.437m70.218-16.6c-.426 0-.812.162-1.112.419l.002-.011c-2.749 1.983-4.003-.363-4.003-.363v.002a3.372 3.372 0 100 3.345v.002s1.254-2.346 4.003-.363l-.002-.01c.3.257.686.417 1.112.417a1.719 1.719 0 100-3.438"/><path fill="#7A96FA" d="M104.918 145.312c-.34 0-.647.128-.886.333l.001-.009c-2.188 1.58-3.188-.289-3.188-.289v.003a2.685 2.685 0 100 2.663v.002s1-1.869 3.188-.289v-.009c.238.205.545.333.885.333a1.37 1.37 0 100-2.738"/><path fill="#FFF" d="M106.287 31.244a1.994 1.994 0 110-3.987 1.994 1.994 0 010 3.987m0-5.197a3.204 3.204 0 100 6.407 3.204 3.204 0 000-6.407m-27.083 4.149a1.994 1.994 0 110-3.987 1.994 1.994 0 010 3.987m0-5.196a3.203 3.203 0 10-.001 6.406 3.203 3.203 0 000-6.406m-67.119 77.54a1.993 1.993 0 110-3.985 1.993 1.993 0 010 3.986m0-5.196a3.203 3.203 0 100 6.406 3.203 3.203 0 000-6.406m-.97 55.002a1.39 1.39 0 110-2.78 1.39 1.39 0 010 2.78m0-3.623a2.233 2.233 0 100 4.466 2.233 2.233 0 000-4.466m90.795-128.18a1.39 1.39 0 110-2.78 1.39 1.39 0 010 2.78m0-3.623a2.233 2.233 0 100 4.466 2.233 2.233 0 000-4.466M52.684 40.622a1.39 1.39 0 110-2.78 1.39 1.39 0 010 2.78m0-3.622a2.233 2.233 0 100 4.465 2.233 2.233 0 000-4.465m-.567 89.05a1.993 1.993 0 11-.002-3.985 1.993 1.993 0 01.002 3.985m0-5.196a3.203 3.203 0 100 6.406 3.203 3.203 0 000-6.406"/><path fill="#FFF" fill-rule="nonzero" d="M42.04 96.783c3.458 0 6.182-.9 8.17-2.701 1.988-1.802 2.983-4.503 2.983-8.105V67.432H44.46v18.415c0 1.009-.295 1.801-.886 2.377-.591.577-1.362.865-2.313.865-1.21 0-2.45-.432-3.717-1.297L34 94.45c2.017 1.556 4.697 2.334 8.04 2.334zm26.455 0c3.746 0 6.772-.8 9.078-2.399 2.305-1.6 3.458-3.681 3.458-6.246 0-1.873-.699-3.415-2.097-4.625-1.397-1.21-2.975-1.917-4.733-2.118 1.844-.289 3.364-1.045 4.56-2.27 1.196-1.225 1.794-2.6 1.794-4.128 0-2.45-1.03-4.395-3.09-5.836-2.06-1.44-5.036-2.161-8.927-2.161-5.187 0-9.221 1.585-12.103 4.755l4.106 5.447c2.018-1.672 4.366-2.508 7.046-2.508 2.853 0 4.28.62 4.28 1.86 0 .95-1.326 1.426-3.977 1.426-2.42 0-3.819-.015-4.193-.044v7.738c.576-.058 1.974-.086 4.193-.086 1.787 0 2.975.122 3.566.367.59.245.886.641.886 1.189 0 .547-.36 1.008-1.08 1.383-.72.375-1.758.562-3.113.562-1.239 0-2.593-.238-4.063-.713-1.47-.476-2.723-1.16-3.76-2.054l-4.28 5.966c1.268 1.354 2.975 2.442 5.122 3.263 2.147.822 4.59 1.232 7.327 1.232z"/></g></svg>