<svg xmlns="http://www.w3.org/2000/svg" xmlns:xlink="http://www.w3.org/1999/xlink" width="116" height="165"><defs><path id="a" d="M.381.113h9.604v15.784H.381z"/><path id="c" d="M.468.492h10.759v6.547H.468z"/><path id="e" d="M.183.457h9.774v15.784H.183z"/><path id="g" d="M.371.373h12.807v7.93H.371z"/></defs><g fill="none" fill-rule="evenodd"><path fill="#7137B0" d="M0 164.759h115.231V0H0z"/><path fill="#2ED8CD" d="M11.062 158.362a1.554 1.554 0 11-3.108 0 1.554 1.554 0 013.108 0"/><path fill="#D52FD9" d="M91.145 22.163a1.554 1.554 0 11-3.109 0 1.554 1.554 0 013.109 0"/><path fill="#FFF" d="M102.493 147.43a1.057 1.057 0 11-2.114 0 1.057 1.057 0 012.114 0M24.682 71.246a.49.49 0 11-.978 0 .49.49 0 01.978 0m82.961 84.814a.489.489 0 11-.977 0 .489.489 0 01.977 0m-52.375-1.069a.49.49 0 11-.98 0 .49.49 0 01.98 0M9.95 113.923a.49.49 0 11-.979 0 .49.49 0 01.98 0m97.692-59.579a.49.49 0 11-.978 0 .49.49 0 01.978 0M9.461 56.061a.49.49 0 11-.979-.001.49.49 0 01.98 0m36.681-37.405a.49.49 0 11-.979 0 .49.49 0 01.979 0M65.79 136.026a.49.49 0 11-.98 0 .49.49 0 01.98 0m-55.84 7.042a.49.49 0 11-.978-.001.49.49 0 01.978 0m75.281 11.435a.49.49 0 11-.978 0 .49.49 0 01.978 0M26.318 4.023a.49.49 0 11-.978 0 .49.49 0 01.978 0m46.945 150.479a.49.49 0 11-.979 0 .49.49 0 01.98 0m20.022-44.41a.489.489 0 11-.978 0 .489.489 0 01.977 0"/><path fill="#22E4CC" d="M15.974 19.465l.81.81.81-.81-.81-.81zm4.104 0l.81.81.81-.81-.81-.81zm5.725 0l-.811-.81-.81.81.81.81zm-9.829 4.253l.81.81.81-.81-.81-.811zm4.104 0l.81.81.81-.81-.81-.811zm4.104 0l.81.81.81-.81-.81-.811zm-8.208 4.252l.81.811.81-.811-.81-.81zm4.104 0l.81.811.81-.811-.81-.81zm4.104 0l.81.811.81-.811-.81-.81zm-5.725 92.454l1.216 1.216 1.215-1.216-1.215-1.216zm6.157 0l1.215 1.216 1.215-1.216-1.215-1.216zm8.587 0l-1.216-1.216-1.215 1.216 1.215 1.216zm-14.744 6.379l1.216 1.216 1.215-1.216-1.215-1.215zm6.157 0l1.215 1.216 1.215-1.216-1.215-1.215zm6.156 0l1.216 1.216 1.215-1.216-1.215-1.215zm-12.313 6.379l1.216 1.216 1.215-1.216-1.215-1.215zm6.157 0l1.215 1.216 1.215-1.216-1.215-1.215zm6.156 0l1.216 1.216 1.215-1.216-1.215-1.215zm52.352-15.694l.81.81.81-.81-.81-.811zm4.104 0l.81.81.81-.81-.81-.811zm5.725 0l-.811-.811-.81.811.81.81zm-9.829 4.252l.81.811.81-.811-.81-.81zm4.104 0l.81.811.81-.811-.81-.81zm4.104 0l.81.811.811-.811-.811-.81zm-8.208 4.253l.81.81.81-.81-.81-.81zm4.104 0l.81.81.81-.81-.81-.81zm4.104 0l.81.81.811-.81-.811-.81z"/><path fill="#FFF" d="M93.286 105.109a1.415 1.415 0 110-2.83 1.415 1.415 0 010 2.83m0-3.689a2.274 2.274 0 100 4.548 2.274 2.274 0 000-4.548m-53.921 44.453a1.685 1.685 0 110-3.37 1.685 1.685 0 010 3.37m0-4.394a2.708 2.708 0 100 5.417 2.708 2.708 0 000-5.417"/><path fill="#D52FD9" d="M11.782 42.403a1.415 1.415 0 110-2.83 1.415 1.415 0 010 2.83m0-3.69a2.275 2.275 0 100 4.55 2.275 2.275 0 000-4.55"/><path fill="#FFF" d="M104.85 37.039a1.415 1.415 0 110-2.83 1.415 1.415 0 010 2.83m0-3.689a2.275 2.275 0 10.001 4.55 2.275 2.275 0 000-4.55m-88.405 71.759a1.415 1.415 0 11.001-2.83 1.415 1.415 0 010 2.83m0-3.689a2.274 2.274 0 100 4.548 2.274 2.274 0 000-4.548"/><path fill="#D52FD9" d="M24.193 149.983a2.057 2.057 0 110-4.113 2.057 2.057 0 010 4.113m0-5.362a3.306 3.306 0 10.001 6.611 3.306 3.306 0 000-6.61M73.206 25.773a2.056 2.056 0 110-4.112 2.057 2.057 0 010 4.113m0-5.361a3.305 3.305 0 100 6.61 3.305 3.305 0 000-6.61"/><path fill="#2ED8CD" d="M81.898 148.429a2.057 2.057 0 110-4.113 2.057 2.057 0 010 4.113m0-5.361a3.305 3.305 0 100 6.61 3.305 3.305 0 000-6.61m18.784-131.689a2.056 2.056 0 110-4.112 2.056 2.056 0 010 4.112m0-5.361a3.305 3.305 0 100 6.61 3.305 3.305 0 000-6.61m4.898 131.009a3.845 3.845 0 11.001-7.69 3.845 3.845 0 010 7.69m0-10.024a6.179 6.179 0 00-6.18 6.18 6.179 6.179 0 1012.358 0 6.179 6.179 0 00-6.179-6.18m-44.401-71.98a3.845 3.845 0 11.001-7.688 3.845 3.845 0 01-.001 7.689m0-10.024A6.179 6.179 0 0055 51.18a6.179 6.179 0 1012.358 0 6.179 6.179 0 00-6.18-6.18"/><path fill="#FFF" d="M71.947 113.31a2.44 2.44 0 11-.001-4.88 2.44 2.44 0 01.001 4.88m0-6.364a3.923 3.923 0 100 7.846 3.923 3.923 0 000-7.846M47.923 47.363a2.44 2.44 0 11-.001-4.88 2.44 2.44 0 01.001 4.88m0-6.363a3.923 3.923 0 100 7.846 3.923 3.923 0 000-7.846"/><path fill="#2ED8CD" d="M103.988 73.303a2.057 2.057 0 110-4.113 2.056 2.056 0 010 4.112m0-5.36a3.305 3.305 0 100 6.61 3.305 3.305 0 000-6.61M33.619 12.551a2.057 2.057 0 110-4.113 2.057 2.057 0 010 4.113m0-5.362a3.306 3.306 0 100 6.612 3.306 3.306 0 000-6.612"/><path fill="#D52FD9" d="M44.021 125.028a2.243 2.243 0 011.633-1.615v-.915a3.139 3.139 0 00-2.552 2.53h.92zm2.704-1.615c.798.197 1.427.82 1.632 1.615h.919a3.137 3.137 0 00-2.551-2.53v.915zm-1.071 4.35a2.242 2.242 0 01-1.645-1.664h-.914a3.136 3.136 0 002.559 2.58v-.916zm2.716-1.664a2.242 2.242 0 01-1.645 1.663v.917a3.138 3.138 0 002.559-2.58h-.914z"/><path fill="#FFF" d="M7.757 8.941a3.252 3.252 0 012.37-2.342v-1.33a4.553 4.553 0 00-3.702 3.672h1.331zm3.924-2.343a3.252 3.252 0 012.369 2.343h1.333a4.553 4.553 0 00-3.702-3.672v1.33zm-1.555 6.311a3.253 3.253 0 01-2.387-2.414H6.413a4.552 4.552 0 003.714 3.743v-1.329zm3.942-2.414a3.254 3.254 0 01-2.387 2.414v1.33a4.553 4.553 0 003.712-3.744h-1.325z"/><g transform="translate(3.69 79.63)"><mask id="b" fill="#fff"><use xlink:href="#a"/></mask><path fill="#2ED8CD" d="M2.093 12.915a4.91 4.91 0 110-9.82 4.91 4.91 0 010 9.82m0-12.802a7.892 7.892 0 100 15.784 7.892 7.892 0 000-15.784" mask="url(#b)"/></g><g transform="translate(63.259 3.193)"><mask id="d" fill="#fff"><use xlink:href="#c"/></mask><path fill="#2ED8CD" d="M2.5 1.66a3.347 3.347 0 116.695 0 3.347 3.347 0 01-6.694 0m8.726 0a5.38 5.38 0 10-10.758 0 5.38 5.38 0 0010.758 0" mask="url(#d)"/></g><g transform="translate(101.741 94.391)"><mask id="f" fill="#fff"><use xlink:href="#e"/></mask><path fill="#FFF" d="M8.075 13.26a4.91 4.91 0 110-9.821 4.91 4.91 0 010 9.82m0-12.802a7.892 7.892 0 100 15.784 7.892 7.892 0 100-15.784" mask="url(#f)"/></g><g transform="translate(32.157 153.433)"><mask id="h" fill="#fff"><use xlink:href="#g"/></mask><path fill="#FFF" d="M2.79 6.776a3.984 3.984 0 117.968 0 3.984 3.984 0 01-7.967 0m10.387 0a6.403 6.403 0 10-12.806 0 6.403 6.403 0 0012.806 0" mask="url(#h)"/></g><path fill="#FFF" fill-rule="nonzero" d="M42.04 97.351c3.458 0 6.182-.9 8.17-2.702 1.988-1.8 2.983-4.502 2.983-8.105V68H44.46v18.415c0 1.008-.295 1.8-.886 2.377-.591.576-1.362.865-2.313.865-1.21 0-2.45-.433-3.717-1.297L34 95.017c2.017 1.556 4.697 2.334 8.04 2.334zm36.873-.519v-4.625h3.328v-7.608h-3.328V68H66.809L56.305 85.507v6.7h13.876v4.625h8.732zM70.18 84.6h-5.447l5.447-9.078V84.6z"/></g></svg>