<svg xmlns="http://www.w3.org/2000/svg" width="115" height="165"><defs><linearGradient id="a" x1="50%" x2="50%" y1="100%" y2="0%"><stop offset="0%" stop-color="#F749EF"/><stop offset="100%" stop-color="#2DC3FF"/></linearGradient></defs><g fill="none" fill-rule="evenodd"><path fill="#FFF" d="M0 164.759h114.864V.525H0z"/><path fill="url(#a)" d="M0 164.234h114.864V0H0z" transform="translate(0 .285)"/><path fill="#FFF" d="M90.81 51.412a2.61 2.61 0 00-2.606 2.606 2.61 2.61 0 002.606 2.605 2.609 2.609 0 002.605-2.605 2.609 2.609 0 00-2.605-2.606m0 5.906c-1.82 0-3.3-1.48-3.3-3.3 0-1.82 1.48-3.3 3.3-3.3 1.82 0 3.3 1.48 3.3 3.3 0 1.82-1.48 3.3-3.3 3.3m20.464 56.093a8.694 8.694 0 01-8.695 8.694 8.695 8.695 0 110-17.39 8.695 8.695 0 018.695 8.696m-98.66-55.898a4.463 4.463 0 11-8.926 0 4.463 4.463 0 018.926 0"/><path fill="#F14BF3" d="M24.665 99.257a8.3 8.3 0 11-8.3-8.3 8.3 8.3 0 018.3 8.3m58.639 36.641a4.395 4.395 0 11-8.79 0 4.395 4.395 0 018.79 0m22.594-121.13a4.135 4.135 0 11-8.27 0 4.135 4.135 0 018.27 0m-2.312 132.53a1.823 1.823 0 11-3.646 0 1.823 1.823 0 013.646 0m-49.498-6.225a1.823 1.823 0 11-3.645 0 1.823 1.823 0 013.645 0"/><path fill="#FFF" d="M75.72 14.49a1.593 1.593 0 11-3.187 0 1.593 1.593 0 013.186 0"/><path fill="#7137B0" d="M94.452 153.651a1.593 1.593 0 11-3.186 0 1.593 1.593 0 013.186 0"/><path fill="#FFF" d="M45.547 133.096a1.593 1.593 0 11-3.187 0 1.593 1.593 0 013.187 0"/><path fill="#7137B0" d="M12.374 82.343a1.593 1.593 0 11-3.186.001 1.593 1.593 0 013.186 0M11.252 9.631a1.593 1.593 0 11-3.185 0 1.593 1.593 0 013.185 0"/><path fill="#FFF" d="M16.77 144.499a1.593 1.593 0 11-3.187 0 1.593 1.593 0 013.187 0"/><path fill="#F14BF3" d="M22.268 16.084a1.127 1.127 0 11-2.255 0 1.127 1.127 0 012.255 0m88.079 52.894a.78.78 0 11-1.56 0 .78.78 0 011.56 0m-7.804-6.763a.78.78 0 11-1.56 0 .78.78 0 011.56 0M30.26 54.509a.78.78 0 11-1.56 0 .78.78 0 011.56 0m8.3-15.729a.78.78 0 11-1.56-.001.78.78 0 011.56.001m-25.946 86.188a.78.78 0 11-1.56-.001.78.78 0 011.56 0m90.709 33.228a.78.78 0 11-1.56 0 .78.78 0 011.56 0M79.255 60.128a1.128 1.128 0 11-2.255 0 1.128 1.128 0 012.255 0m27.77-21.2a1.127 1.127 0 11-2.255 0 1.127 1.127 0 012.255 0M81.933 97.853l1.546 1.546 1.547-1.546-1.547-1.546zm7.833 0l1.546 1.546 1.547-1.546-1.547-1.546zm10.925 0l-1.546-1.546-1.547 1.546 1.547 1.546zm-18.758 8.116l1.546 1.546 1.547-1.546-1.547-1.546zm7.833 0l1.546 1.546 1.547-1.546-1.547-1.546zm7.832 0l1.547 1.546 1.546-1.546-1.546-1.546zm-15.665 8.116l1.546 1.546 1.547-1.546-1.547-1.546zm7.833 0l1.546 1.546 1.547-1.546-1.547-1.546zm7.832 0l1.547 1.546 1.546-1.546-1.546-1.546z"/><path fill="#FFF" d="M19.737 91.565l.876.875.875-.875-.875-.875zm4.434 0l.875.875.876-.875-.876-.875zm6.184 0l-.875-.875-.876.875.876.875zm-10.618 4.594l.876.875.875-.875-.875-.875zm4.434 0l.875.875.876-.875-.876-.875zm4.434 0l.875.875.876-.875-.876-.875zm-8.868 4.594l.876.876.875-.876-.875-.875zm4.434 0l.875.876.876-.876-.876-.875zm4.434 0l.875.876.876-.876-.876-.875zm24.171-67.237l.875.875.875-.875-.875-.875zm4.434 0l.875.875.875-.875-.875-.875zm6.184 0l-.876-.875-.875.875.875.875zM52.776 38.11l.875.875.875-.875-.875-.875zm4.434 0l.875.875.875-.875-.875-.875zm4.433 0l.875.875.876-.875-.876-.875zm-8.867 4.594l.875.876.875-.876-.875-.875zm4.434 0l.875.876.875-.876-.875-.875zm4.433 0l.875.876.876-.876-.876-.875zM25.922 132.76l.875.876.875-.876-.875-.875zm4.433 0l.876.876.875-.876-.875-.875zm6.184 0l-.875-.875-.875.875.875.876zm-10.617 4.595l.875.874.875-.874-.875-.876zm4.433 0l.876.874.875-.874-.875-.876zm4.434 0l.875.874.875-.874-.875-.876zm-8.867 4.594l.875.875.875-.875-.875-.876zm4.433 0l.876.875.875-.875-.875-.876zm4.434 0l.875.875.875-.875-.875-.876zm47.56-121.454l.875.875.875-.875-.875-.876zm4.434 0l.875.875.875-.875-.875-.876zm6.184 0l-.875-.876-.876.876.876.875zm-10.618 4.594l.875.875.875-.875-.875-.875zm4.434 0l.875.875.875-.875-.875-.875zm4.433 0l.876.875.875-.875-.875-.875zm-8.867 4.594l.875.875.875-.875-.875-.875zm4.434 0l.875.875.875-.875-.875-.875zm4.433 0l.876.875.875-.875-.875-.875zm3.878 59.135a2.353 2.353 0 110-4.706 2.353 2.353 0 010 4.706m0-6.135a3.782 3.782 0 100 7.564 3.782 3.782 0 000-7.564M37.385 15.989a2.353 2.353 0 110-4.705 2.353 2.353 0 010 4.705m0-6.134a3.782 3.782 0 100 7.563 3.782 3.782 0 000-7.563M27.5 119.229a1.823 1.823 0 110-3.645 1.823 1.823 0 010 3.645m0-4.752a2.93 2.93 0 100 5.859 2.93 2.93 0 000-5.859m65.873 17.318a3.188 3.188 0 110-6.377v-1.937a5.125 5.125 0 100 10.251v-1.937z"/><path fill="#7137B0" d="M24.739 20.786a5.354 5.354 0 11-10.707 0h-3.251a8.605 8.605 0 0017.209 0h-3.251zm35.137 140.163a5.354 5.354 0 1110.707 0h3.25a8.604 8.604 0 10-17.208 0h3.251z"/><path fill="#2EC4FF" d="M105.572 73.99a3.81 3.81 0 01-7.618 0H95.64a6.122 6.122 0 1012.244 0h-2.313z"/><path fill="#7137B0" d="M20.313 58.123a3.81 3.81 0 117.619 0h2.313a6.122 6.122 0 10-12.245 0h2.313z"/><path fill="#FFF" d="M21.857 153.651a3.189 3.189 0 116.378 0h1.937a5.125 5.125 0 10-10.251 0h1.936zm-9.243-107a3.189 3.189 0 000-6.378v-1.936a5.125 5.125 0 110 10.25v-1.936z"/><path fill="#FFF" fill-rule="nonzero" d="M42.015 97.258c3.447 0 6.161-.898 8.143-2.694 1.983-1.795 2.974-4.488 2.974-8.079V68h-8.704v18.356c0 1.005-.295 1.795-.884 2.37-.589.574-1.357.862-2.305.862-1.207 0-2.442-.431-3.706-1.293L34 94.931c2.01 1.55 4.682 2.327 8.015 2.327zm26.844 0c3.993 0 7.124-.941 9.394-2.823 2.269-1.881 3.404-4.416 3.404-7.605 0-2.786-.905-5.049-2.715-6.787-1.81-1.738-3.993-2.606-6.55-2.606-2.47 0-4.466.732-5.989 2.197v-4.05h13.272V68H57.699v17.451l5.99 1.379c1.407-1.321 3.188-1.982 5.342-1.982 1.264 0 2.212.222 2.844.668.632.445.948 1.012.948 1.702 0 .66-.337 1.22-1.012 1.68-.675.46-1.688.69-3.038.69-2.844 0-5.271-.833-7.282-2.5l-4.654 6.12c2.988 2.7 6.995 4.05 12.022 4.05z"/></g></svg>