<svg xmlns="http://www.w3.org/2000/svg" width="116" height="165"><defs><linearGradient id="a" x1="50%" x2="50%" y1="100%" y2="0%"><stop offset="0%" stop-color="#FD0"/><stop offset="100%" stop-color="#F29724"/></linearGradient></defs><g fill="none" fill-rule="evenodd"><path fill="url(#a)" d="M0 164.758h115.231V0H0z"/><path fill="#FFF" d="M88.683 146.193l-1.197 1.196-1.196-1.196 1.196-1.197zm3.097 0l-1.197 1.196-1.196-1.196 1.196-1.197zm3.098 0l-1.197 1.196-1.196-1.196 1.196-1.197zM28.75 112.967l-1.197 1.197-1.197-1.197 1.197-1.196zm3.097 0l-1.197 1.197-1.196-1.197 1.196-1.196zm3.097 0l-1.196 1.197-1.197-1.197 1.197-1.196zm-16.59-48.399l-1.196 1.197-1.196-1.197 1.196-1.197zm3.098 0l-1.197 1.197-1.196-1.197 1.196-1.197zm3.097 0l-1.196 1.197-1.196-1.197 1.196-1.197zm80.484-15.429l-1.197 1.197-1.197-1.197 1.197-1.197zm3.097 0l-1.197 1.197-1.196-1.197 1.196-1.197zm3.097 0l-1.196 1.197-1.197-1.197 1.197-1.197zM30.435 15.82l-1.197 1.196-1.196-1.196 1.196-1.197zm3.097 0l-1.197 1.196-1.196-1.196 1.196-1.197zm3.097 0l-1.196 1.196-1.196-1.196 1.196-1.197zM12.965 141.626l-1.887 1.886-1.886-1.886 1.886-1.887zm4.883 0l-1.886 1.886-1.887-1.886 1.887-1.887zm4.884 0l-1.887 1.886-1.886-1.886 1.886-1.887zm73.96-74.536a.621.621 0 11-1.242 0 .622.622 0 011.243 0m-79.451 7.64a.622.622 0 11-1.243 0 .622.622 0 011.243 0m63.361 64.091a.622.622 0 11-1.243 0 .622.622 0 011.243 0m5.052-119.872a.622.622 0 11-1.243 0 .622.622 0 011.243 0M9.252 37.239a.622.622 0 11-1.244 0 .622.622 0 011.243 0m42.484-8.387l1.551 1.551 1.552-1.551-1.552-1.551zm7.858 0l1.55 1.551 1.552-1.551-1.552-1.551zm10.96 0l-1.551-1.551-1.552 1.551 1.552 1.551zm-18.818 8.142l1.551 1.551 1.552-1.551-1.552-1.551zm7.858 0l1.55 1.551 1.552-1.551-1.552-1.551zm7.857 0l1.551 1.551 1.552-1.551-1.552-1.551zm-15.715 8.142l1.551 1.551 1.552-1.551-1.552-1.551zm7.858 0l1.55 1.551 1.552-1.551-1.552-1.551zm7.857 0l1.551 1.551 1.552-1.551-1.552-1.551zm-28.74 88.348l1.551 1.551 1.551-1.551-1.551-1.551zm7.857 0l1.552 1.551 1.551-1.551-1.551-1.551zm10.96 0l-1.551-1.551-1.551 1.551 1.551 1.551zm-18.817 8.142l1.551 1.551 1.551-1.551-1.551-1.552zm7.857 0l1.552 1.551 1.551-1.551-1.551-1.552zm7.858 0l1.551 1.551 1.551-1.551-1.551-1.552zm-15.715 8.142l1.551 1.551 1.551-1.551-1.551-1.551zm7.857 0l1.552 1.551 1.551-1.551-1.551-1.551zm7.858 0l1.551 1.551 1.551-1.551-1.551-1.551z"/><path fill="#EA5345" d="M94.363 82.041a.809.809 0 11-1.143 1.144.809.809 0 011.143-1.144m1.472-1.472a.809.809 0 11-1.144 1.144.809.809 0 011.144-1.143m1.471-1.471a.809.809 0 11-1.144 1.143.809.809 0 111.144-1.143m1.472-1.472a.809.809 0 11-1.144 1.143.809.809 0 011.144-1.143m1.471-1.471a.808.808 0 11-1.143 1.143.808.808 0 011.143-1.143m1.471-1.472a.809.809 0 11-1.143 1.144.809.809 0 011.143-1.144m1.472-1.471a.809.809 0 11-1.144 1.143.809.809 0 111.144-1.143m1.47-1.471a.808.808 0 11-1.143 1.143.809.809 0 111.144-1.143m1.472-1.472a.809.809 0 11-1.144 1.143.809.809 0 011.144-1.143m1.471-1.471a.808.808 0 11-1.143 1.143.808.808 0 011.143-1.143m1.471-1.472a.809.809 0 11-1.143 1.144.809.809 0 111.143-1.144M95.823 83.502a.808.808 0 11-1.143 1.143.808.808 0 111.143-1.143m1.472-1.472a.809.809 0 11-1.143 1.144.809.809 0 011.143-1.144m1.471-1.471a.808.808 0 11-1.143 1.143.808.808 0 011.143-1.143m1.472-1.471a.809.809 0 11-1.144 1.143.809.809 0 011.144-1.143m1.471-1.472a.808.808 0 11-1.143 1.143.808.808 0 111.143-1.143m1.471-1.471a.808.808 0 11-1.143 1.143.808.808 0 111.143-1.143m1.472-1.472a.809.809 0 11-1.143 1.144.809.809 0 011.143-1.144m1.471-1.471a.808.808 0 11-1.143 1.143.808.808 0 011.143-1.143m1.472-1.472a.809.809 0 11-1.144 1.144.809.809 0 111.144-1.144m1.471-1.471a.808.808 0 11-1.143 1.143.808.808 0 111.143-1.143M97.284 84.962a.809.809 0 11-1.144 1.143.809.809 0 011.144-1.143m1.471-1.472a.809.809 0 11-1.143 1.144.809.809 0 111.143-1.144m1.471-1.471a.809.809 0 11-1.143 1.144.809.809 0 111.143-1.144m1.472-1.471a.808.808 0 11-1.143 1.143.808.808 0 011.143-1.143m1.471-1.472a.809.809 0 11-1.143 1.144.809.809 0 011.143-1.144m1.472-1.471a.809.809 0 11-1.144 1.143.809.809 0 111.144-1.143m1.471-1.472a.809.809 0 11-1.143 1.144.809.809 0 111.143-1.144m1.472-1.471a.808.808 0 11-1.143 1.143.808.808 0 011.143-1.143m1.471-1.471a.808.808 0 11-1.143 1.143.808.808 0 011.143-1.143M98.744 86.422a.809.809 0 11-1.143 1.144.809.809 0 011.143-1.144m1.472-1.471a.809.809 0 11-1.144 1.143.809.809 0 011.144-1.143m1.471-1.472a.809.809 0 11-1.143 1.144.809.809 0 011.143-1.144m1.471-1.471a.808.808 0 11-1.143 1.143.808.808 0 111.143-1.143m1.471-1.472a.809.809 0 11-1.143 1.144.809.809 0 111.143-1.144m1.473-1.471a.809.809 0 11-1.144 1.144.809.809 0 011.143-1.144m1.471-1.471a.808.808 0 11-1.143 1.143.809.809 0 011.144-1.143m1.471-1.472a.809.809 0 11-1.143 1.144.809.809 0 011.143-1.144m-8.84 11.76a.809.809 0 11-1.143 1.144.809.809 0 111.143-1.144m1.472-1.471a.809.809 0 11-1.144 1.144.809.809 0 111.144-1.144m1.471-1.472a.809.809 0 11-1.143 1.144.808.808 0 011.143-1.143m1.472-1.471a.809.809 0 11-1.144 1.143.809.809 0 011.144-1.144m1.471-1.471a.808.808 0 11-1.143 1.142.808.808 0 011.143-1.143m1.472-1.471a.809.809 0 11-1.144 1.144.809.809 0 111.143-1.144m1.471-1.471a.808.808 0 11-1.143 1.143.809.809 0 111.144-1.143m-7.368 10.289a.809.809 0 11-1.144 1.143.809.809 0 011.144-1.143m1.471-1.472a.809.809 0 11-1.143 1.144.809.809 0 011.143-1.144m1.471-1.471a.808.808 0 11-1.143 1.143.808.808 0 011.143-1.143m1.472-1.471a.809.809 0 11-1.144 1.143.809.809 0 111.144-1.144m1.471-1.471a.809.809 0 11-1.143 1.144.809.809 0 011.143-1.144m1.472-1.471a.809.809 0 11-1.144 1.143.809.809 0 011.144-1.143m-5.897 8.817a.809.809 0 11-1.144 1.144.809.809 0 111.144-1.144m1.471-1.471a.808.808 0 11-1.143 1.143.808.808 0 111.143-1.143m1.472-1.472a.809.809 0 11-1.143 1.144.809.809 0 011.143-1.144m1.471-1.471a.808.808 0 11-1.143 1.143.808.808 0 011.143-1.143m1.471-1.472a.809.809 0 11-1.143 1.144.809.809 0 111.143-1.144m-4.425 7.346a.809.809 0 11-1.143 1.144.809.809 0 011.143-1.144m1.471-1.471a.808.808 0 11-1.143 1.143.808.808 0 011.143-1.143m1.472-1.472a.809.809 0 11-1.144 1.144.809.809 0 111.144-1.144m1.471-1.471a.808.808 0 11-1.143 1.143.808.808 0 111.143-1.143m-2.954 5.875a.808.808 0 11-1.143 1.143.808.808 0 111.143-1.143m1.472-1.472a.808.808 0 11-1.143 1.143.808.808 0 011.143-1.143m1.471-1.471a.808.808 0 11-1.143 1.143.808.808 0 011.143-1.143m-1.482 4.403a.809.809 0 11-1.144 1.143.809.809 0 011.144-1.143m1.471-1.472a.809.809 0 11-1.143 1.144.809.809 0 111.143-1.144m-.011 2.932a.808.808 0 11-1.143 1.143.808.808 0 011.143-1.143"/><path fill="#FFF" d="M81.138 123.103a.678.678 0 11-.96.958.678.678 0 01.96-.958m1.232-1.233a.678.678 0 11-.96.958.678.678 0 01.96-.958m1.232-1.232a.677.677 0 11-.957.958.677.677 0 01.957-.958m1.233-1.232a.677.677 0 11-.957.957.677.677 0 01.957-.957m1.232-1.233a.677.677 0 11-.957.958.677.677 0 01.957-.958m1.233-1.232a.677.677 0 11-.958.958.677.677 0 01.958-.958m1.232-1.232a.677.677 0 11-.957.957.677.677 0 01.957-.958m1.233-1.232a.677.677 0 11-.958.958.677.677 0 01.958-.958m1.232-1.232a.677.677 0 11-.957.957.677.677 0 01.957-.957m1.232-1.233a.677.677 0 11-.957.958.677.677 0 01.957-.958m1.233-1.232a.678.678 0 11-.96.958.678.678 0 01.96-.958m-11.101 13.547a.677.677 0 11-.957.958.677.677 0 01.957-.958m1.232-1.233a.677.677 0 11-.957.958.677.677 0 01.957-.958m1.233-1.232a.677.677 0 11-.958.958.677.677 0 01.958-.958m1.232-1.232a.677.677 0 11-.957.958.677.677 0 01.957-.958m1.232-1.233a.677.677 0 11-.957.958.677.677 0 01.957-.958m1.232-1.232a.677.677 0 11-.956.958.677.677 0 01.957-.958m1.232-1.233a.677.677 0 11-.957.958.677.677 0 01.957-.958m1.233-1.232a.678.678 0 11-.96.958.678.678 0 01.96-.958m1.232-1.232a.678.678 0 11-.96.958.678.678 0 01.96-.958m1.232-1.233a.677.677 0 11-.957.958.677.677 0 01.957-.958m-9.868 12.315a.677.677 0 11-.957.958.677.677 0 01.957-.958m1.232-1.233a.677.677 0 11-.957.958.677.677 0 01.957-.958m1.233-1.232a.677.677 0 11-.957.958.677.677 0 01.957-.958m1.233-1.232a.677.677 0 11-.958.957.677.677 0 01.957-.957m1.233-1.233a.677.677 0 11-.958.958.677.677 0 01.958-.958m1.232-1.232a.678.678 0 11-.96.958.678.678 0 01.96-.958m1.232-1.232a.678.678 0 11-.96.957.678.678 0 01.96-.957m1.232-1.233a.677.677 0 11-.957.958.677.677 0 01.957-.958m1.232-1.233a.677.677 0 11-.956.958.677.677 0 01.957-.957m-8.636 11.082a.677.677 0 11-.957.958.677.677 0 01.957-.958m1.232-1.233a.677.677 0 11-.957.958.677.677 0 01.957-.958m1.233-1.232a.677.677 0 11-.957.958.677.677 0 01.957-.958m1.232-1.232a.678.678 0 11-.96.958.678.678 0 01.96-.958m1.232-1.233a.677.677 0 11-.957.958.677.677 0 01.957-.958m1.233-1.233a.677.677 0 11-.957.959.677.677 0 01.957-.958m1.233-1.233a.677.677 0 11-.958.958.677.677 0 01.957-.958m1.233-1.232a.677.677 0 11-.958.958.677.677 0 01.958-.958m-7.404 9.85a.678.678 0 11-.96.958.678.678 0 01.96-.958m1.232-1.232a.678.678 0 11-.96.957.678.678 0 01.96-.957m1.233-1.233a.677.677 0 11-.958.958.677.677 0 01.958-.958m1.232-1.232a.677.677 0 11-.957.957.677.677 0 01.957-.957m1.232-1.233a.677.677 0 11-.957.958.677.677 0 01.957-.958m1.233-1.232a.677.677 0 11-.957.958.677.677 0 01.957-.958m1.232-1.232a.677.677 0 11-.957.957.677.677 0 01.957-.957m-6.172 8.617a.677.677 0 11-.956.958.677.677 0 01.957-.958m1.232-1.232a.677.677 0 11-.957.958.677.677 0 01.957-.958m1.233-1.233a.677.677 0 11-.957.958.677.677 0 01.957-.958m1.232-1.232a.677.677 0 11-.957.958.677.677 0 01.957-.958m1.232-1.232a.677.677 0 11-.957.957.677.677 0 01.958-.958m1.232-1.232a.677.677 0 11-.957.958.677.677 0 01.957-.958m-4.939 7.385a.677.677 0 11-.957.958.677.677 0 01.957-.958m1.232-1.232a.677.677 0 11-.957.957.677.677 0 01.957-.957m1.233-1.233a.677.677 0 11-.957.958.677.677 0 01.957-.958m1.232-1.232a.677.677 0 11-.957.958.677.677 0 01.957-.958m1.233-1.232a.677.677 0 11-.957.957.677.677 0 01.957-.957m-3.707 6.152a.677.677 0 11-.957.958.677.677 0 01.957-.958m1.233-1.232a.677.677 0 11-.958.957.677.677 0 01.958-.957m1.232-1.233a.677.677 0 11-.957.958.677.677 0 01.957-.958m1.232-1.232a.678.678 0 11-.96.958.678.678 0 01.96-.958m-2.474 4.92a.677.677 0 11-.957.958.677.677 0 01.957-.958m1.233-1.232a.678.678 0 11-.96.958.678.678 0 01.96-.958m1.232-1.233a.677.677 0 11-.957.958.677.677 0 01.957-.958m-1.242 3.688a.677.677 0 11-.957.958.677.677 0 01.957-.958m1.232-1.232a.677.677 0 11-.957.958.677.677 0 01.957-.958m-.009 2.455a.677.677 0 11-.957.958.677.677 0 01.957-.958"/><path fill="#F29725" d="M32.684 145.427l-7.868 7.869v-15.738z"/><path fill="#FFF" d="M33.774 124.886a.48.48 0 10.678.678.48.48 0 00-.678-.678m-.872-.872a.48.48 0 10.678.678.48.48 0 00-.678-.678m-.872-.873a.48.48 0 10.678.678.48.48 0 00-.678-.678m-.872-.872a.48.48 0 10.678.678.48.48 0 00-.678-.678m-.872-.872a.48.48 0 10.678.678.48.48 0 00-.678-.678m-.873-.872a.48.48 0 10.679.678.48.48 0 00-.679-.678m-.871-.872a.48.48 0 10.678.678.48.48 0 00-.679-.678m-.872-.872a.48.48 0 10.678.678.48.48 0 00-.678-.678m-.872-.872a.48.48 0 10.678.677.48.48 0 00-.678-.678m-.872-.872a.48.48 0 10.678.678.48.48 0 00-.678-.678m-.873-.872a.48.48 0 10.679.678.48.48 0 00-.679-.678m7.857 9.587a.48.48 0 10.678.678.48.48 0 00-.678-.678m-.872-.872a.48.48 0 10.678.678.48.48 0 00-.678-.678m-.873-.872a.48.48 0 10.679.678.48.48 0 00-.679-.678m-.872-.872a.48.48 0 10.678.678.48.48 0 00-.678-.678m-.872-.872a.48.48 0 10.678.678.48.48 0 00-.678-.678m-.872-.872a.48.48 0 10.678.678.48.48 0 00-.678-.678m-.872-.872a.48.48 0 10.678.677.48.48 0 00-.678-.677m-.872-.873a.48.48 0 10.678.678.48.48 0 00-.678-.678m-.872-.872a.48.48 0 10.678.678.48.48 0 00-.679-.678m-.872-.872a.48.48 0 10.678.678.48.48 0 00-.678-.678m6.984 8.715a.48.48 0 10.678.678.48.48 0 00-.678-.678m-.872-.872a.48.48 0 10.678.678.48.48 0 00-.678-.678m-.872-.872a.48.48 0 10.678.678.48.48 0 00-.678-.678m-.872-.873a.48.48 0 10.678.678.48.48 0 00-.678-.678m-.873-.871a.48.48 0 10.679.677.48.48 0 00-.679-.678m-.872-.872a.48.48 0 10.679.678.48.48 0 00-.679-.678m-.872-.872a.48.48 0 10.678.678.48.48 0 00-.678-.678m-.872-.872a.48.48 0 10.678.678.48.48 0 00-.678-.678m-.872-.873a.48.48 0 10.678.679.48.48 0 00-.678-.678m6.112 7.842a.48.48 0 10.678.678.48.48 0 00-.678-.678m-.872-.872a.48.48 0 10.678.678.48.48 0 00-.678-.678m-.873-.871a.48.48 0 10.678.677.48.48 0 00-.678-.678m-.871-.872a.48.48 0 10.677.678.48.48 0 00-.678-.678m-.872-.872a.48.48 0 10.678.678.48.48 0 00-.678-.678m-.872-.872a.48.48 0 10.678.678.48.48 0 00-.678-.678m-.872-.873a.48.48 0 10.678.678.48.48 0 00-.678-.677m-.873-.873a.48.48 0 10.679.678.48.48 0 00-.679-.678m5.24 6.972a.48.48 0 10.678.677.48.48 0 00-.678-.678m-.872-.872a.48.48 0 10.678.678.48.48 0 00-.678-.678m-.872-.872a.48.48 0 10.678.678.48.48 0 00-.678-.678m-.872-.872a.48.48 0 10.678.678.48.48 0 00-.678-.678m-.873-.873a.48.48 0 10.679.678.48.48 0 00-.679-.678m-.871-.872a.48.48 0 10.677.678.48.48 0 00-.678-.678m-.872-.872a.48.48 0 10.678.678.48.48 0 00-.678-.678m4.368 6.098a.48.48 0 10.678.678.48.48 0 00-.678-.678m-.873-.872a.48.48 0 10.679.678.48.48 0 00-.679-.678m-.872-.872a.48.48 0 10.678.678.48.48 0 00-.678-.678m-.872-.872a.48.48 0 10.678.678.48.48 0 00-.678-.678m-.872-.872a.48.48 0 10.678.678.48.48 0 00-.678-.678m-.872-.872a.48.48 0 10.678.678.48.48 0 00-.678-.678m3.495 5.226a.48.48 0 10.678.678.48.48 0 00-.678-.678m-.872-.872a.48.48 0 10.678.678.48.48 0 00-.678-.678m-.872-.872a.48.48 0 10.678.678.48.48 0 00-.678-.678m-.873-.872a.48.48 0 10.679.678.48.48 0 00-.679-.678m-.872-.872a.48.48 0 10.678.677.48.48 0 00-.678-.677m2.623 4.354a.48.48 0 10.679.678.48.48 0 00-.679-.678m-.872-.873a.48.48 0 10.678.678.48.48 0 00-.678-.678m-.872-.872a.48.48 0 10.678.678.48.48 0 00-.678-.678m-.872-.871a.48.48 0 10.678.677.48.48 0 00-.678-.678m1.751 3.482a.48.48 0 10.678.678.48.48 0 00-.678-.678m-.872-.871a.48.48 0 10.678.677.48.48 0 00-.678-.678m-.872-.872a.48.48 0 10.678.678.48.48 0 00-.678-.678m.878 2.61a.48.48 0 10.679.678.48.48 0 00-.679-.678m-.872-.872a.48.48 0 10.678.678.48.48 0 00-.678-.678m.007 1.737a.48.48 0 10.678.678.48.48 0 00-.678-.678"/><path fill="#DB6B46" d="M5.567 116.955l15.981 15.982v-31.964z"/><path fill="#FF813A" d="M108.759 122.952l-13.385 13.385v-26.771z"/><path fill="#FF9D26" d="M31.696 90.763l-9.257 9.257V81.506z"/><path fill="#FFF" d="M9.728 91.109v17.251l8.626-8.626-8.626-8.626zm-.523 18.513V89.846l9.889 9.888-9.889 9.888zm91.445 1.671l9.278 9.278v-18.556l-9.278 9.278zm9.8 10.54l-10.54-10.54 10.54-10.54v21.08z"/><path fill="#FE5858" d="M96.071 138.821l13.385 13.385v-26.771zM14.058 91.624l6.27 6.27V85.355zm-2.864-66.036l6.269 6.27V19.319z"/><path fill="#FFF" d="M13.679 13.279a2.214 2.214 0 110-4.427 2.214 2.214 0 010 4.427m0-5.772a3.558 3.558 0 100 7.116 3.558 3.558 0 000-7.116m67.657 101.029a2.214 2.214 0 110-4.428 2.214 2.214 0 010 4.428m0-5.772a3.558 3.558 0 100 7.116 3.558 3.558 0 000-7.116M12.53 57.321a2.214 2.214 0 110-4.428 2.214 2.214 0 010 4.428m0-5.772a3.558 3.558 0 100 7.116 3.558 3.558 0 000-7.116m22.902 109.366a2.214 2.214 0 110-4.428 2.214 2.214 0 010 4.428m0-5.772a3.558 3.558 0 100 7.116 3.558 3.558 0 000-7.116M100.486 15.54a2.441 2.441 0 110-4.882 2.441 2.441 0 010 4.882m0-6.364a3.923 3.923 0 100 7.846 3.923 3.923 0 000-7.846m-1.783 148.136a2.44 2.44 0 110-4.88 2.44 2.44 0 010 4.88m0-6.364a3.923 3.923 0 100 7.846 3.923 3.923 0 000-7.846M33.924 49.365a2.441 2.441 0 110-4.882 2.441 2.441 0 010 4.882m0-6.365a3.923 3.923 0 100 7.847 3.923 3.923 0 000-7.847"/><path fill="#2ED8CD" d="M86.92 9.176a1.313 1.313 0 11-2.625 0 1.313 1.313 0 012.625 0M9.943 77.536a1.313 1.313 0 11-2.627 0 1.313 1.313 0 012.627 0m60.092 38.967a1.313 1.313 0 11-2.626 0 1.313 1.313 0 012.626 0m-53.851 39.231a1.313 1.313 0 11-2.626 0 1.313 1.313 0 012.626 0m94.305-117.497a.938.938 0 11-1.875-.001.938.938 0 011.875 0m-95.223 4.055a.937.937 0 11-1.874 0 .937.937 0 011.874 0m30.599 68.081a.937.937 0 11-1.874 0 .937.937 0 011.874 0m39.367 44.499a.937.937 0 11-1.875 0 .937.937 0 011.875 0"/><path fill="#FFF" fill-rule="nonzero" d="M42.04 96.783c3.458 0 6.182-.9 8.17-2.701 1.988-1.802 2.983-4.503 2.983-8.105V67.432H44.46v18.415c0 1.009-.295 1.801-.886 2.377-.591.577-1.362.865-2.313.865-1.21 0-2.45-.432-3.717-1.297L34 94.45c2.017 1.556 4.697 2.334 8.04 2.334zm28.011 0c3.458 0 6.319-.958 8.58-2.874 2.263-1.917 3.394-4.417 3.394-7.5 0-2.94-1.009-5.267-3.026-6.981-2.017-1.715-4.409-2.572-7.176-2.572-2.939 0-5.172.98-6.7 2.94v-.087c0-1.614.649-2.853 1.946-3.718 1.296-.864 2.752-1.297 4.365-1.297 2.075 0 3.848.52 5.317 1.557l3.675-6.744C77.976 67.836 74.979 67 71.434 67c-4.582 0-8.249 1.304-11 3.912-2.753 2.608-4.129 6.275-4.129 11.001 0 4.438 1.16 8.026 3.48 10.764 2.32 2.737 5.742 4.106 10.266 4.106zm-.562-7.694c-1.412 0-2.478-.346-3.199-1.038-.72-.691-1.123-1.57-1.21-2.636 1.009-.778 2.363-1.167 4.063-1.167 1.038 0 1.967.208 2.789.626.82.418 1.232 1.045 1.232 1.88 0 .635-.346 1.182-1.038 1.643-.692.461-1.57.692-2.637.692z"/></g></svg>