<svg width="116" height="165" xmlns="http://www.w3.org/2000/svg"><defs><linearGradient x1="50%" y1="0%" x2="50%" y2="100%" id="a"><stop stop-color="#D86868" offset="0%"/><stop stop-color="#4437B0" offset="100%"/></linearGradient></defs><g fill="none" fill-rule="evenodd"><path d="M0 164.759h115.23V0H0z" fill="url(#a)"/><path d="M42.184 96.528c3.52 0 6.292-.917 8.316-2.75 2.024-1.833 3.036-4.583 3.036-8.25V66.652h-8.888v18.744c0 1.027-.3 1.833-.902 2.42-.601.587-1.386.88-2.354.88-1.232 0-2.493-.44-3.784-1.32L34 94.152c2.053 1.584 4.781 2.376 8.184 2.376zM70.916 96l9.768-23.188v-6.16h-23.98v7.744h13.772L61.192 96h9.724z" fill="#FFF" fill-rule="nonzero"/><path d="M42.609 148.274a4.47 4.47 0 11-8.94-.001 4.47 4.47 0 018.94.001" fill="#F14BF3"/><path d="M109.59 138.378a.62.62 0 11-1.238 0 .62.62 0 011.239 0M52.847 24.8a.62.62 0 11-1.238 0 .62.62 0 011.238 0m-25.08 57.385a.619.619 0 11-1.238 0 .619.619 0 011.238 0m33.474 64.96a.62.62 0 11-1.24 0 .62.62 0 011.24 0m33.157-82.686a.62.62 0 11-1.238 0 .62.62 0 011.238 0M10.72 120.6l1.546 1.546 1.547-1.546-1.547-1.546zm7.833 0l1.546 1.546 1.546-1.546-1.546-1.546zm10.925 0l-1.546-1.546-1.547 1.546 1.547 1.546zm-18.758 8.116l1.546 1.546 1.547-1.546-1.547-1.546zm7.833 0l1.546 1.546 1.546-1.546-1.546-1.546zm7.832 0l1.546 1.546 1.547-1.546-1.547-1.546zm-15.665 8.116l1.546 1.546 1.547-1.546-1.547-1.546zm7.833 0l1.546 1.546 1.546-1.546-1.546-1.546zm7.832 0l1.546 1.546 1.547-1.546-1.547-1.546zm-7.327-24.995h6.949v-6.95h-6.95v6.95zm-1.043 1.042h9.034v-9.034h-9.034v9.034zm49.331 28.974h6.949v-6.95h-6.95v6.95zm-1.042 1.042h9.033v-9.033h-9.033v9.033zm-18.261-2.243h3.61v-3.61h-3.61v3.61zM47 141.694h5.694V136H47v5.694zM74.292 16.328h3.61v-3.61h-3.61v3.61zm-1.042 1.043h5.694v-5.694H73.25v5.694zM20.819 76.082h3.61v-3.61h-3.61v3.61zm-1.042 1.042h5.694V71.43h-5.694v5.694zm6.226-39.801h6.95v-6.95h-6.95v6.95zm-1.042 1.042h9.034v-9.033H24.96v9.033zm70.509 13.19h11.292V40.263H95.47v11.292zm-1.043 1.042h13.377V39.22H94.427v13.377zm-5.638 74.878h11.292v-11.292H88.789v11.292zm-1.043 1.042h13.377v-13.376H87.746v13.376z" fill="#FFF"/><path d="M103.271 55.293h6.434v-6.434h-6.434v6.434zm-1.042 1.042h8.519v-8.518h-8.519v8.518zM45.481 15.876h6.434V9.442H45.48v6.434zm-1.043 1.043h8.519V8.4h-8.519v8.519zM24.383 153.92h11.292v-11.292H24.383v11.292zm-1.042 1.042h13.377v-13.377H23.34v13.377zm-12.622-48.337H22.01V95.333H10.719v11.292zm-1.043 1.042h13.377V94.291H9.676v13.376z" fill="#FFF"/><path d="M103.793 78.064a2.447 2.447 0 110-4.895 2.447 2.447 0 010 4.895m0-6.38a3.933 3.933 0 100 7.866 3.933 3.933 0 000-7.867m-8.86 27.697a2.447 2.447 0 110-4.894 2.447 2.447 0 010 4.894m0-6.38a3.933 3.933 0 100 7.866 3.933 3.933 0 000-7.866m-62-39.62a2.447 2.447 0 110-4.893 2.447 2.447 0 010 4.894m0-6.381a3.933 3.933 0 100 7.866 3.933 3.933 0 000-7.866M12.2 48.356a2.447 2.447 0 110-4.893 2.447 2.447 0 010 4.893m0-6.38a3.933 3.933 0 100 7.866 3.933 3.933 0 000-7.866" fill="#7137B0"/><path d="M92.405 158.743a5.354 5.354 0 0110.707 0h3.25a8.605 8.605 0 00-17.21 0h3.253z" fill="#FFF"/><path d="M5.109 68.226a5.353 5.353 0 110 10.707v3.252a8.605 8.605 0 000-17.21v3.251z" fill="#7137B0"/><path d="M78.175 44.12a5.414 5.414 0 11-10.828 0 5.414 5.414 0 0110.828 0m-7.948 63.993a2.113 2.113 0 11-4.226 0 2.113 2.113 0 014.226 0m10.309 44.631a2.113 2.113 0 11-4.225 0 2.113 2.113 0 014.225 0m-53.1-139.842a4.405 4.405 0 11-8.81 0 4.405 4.405 0 018.81 0" fill="#F14BF3"/><path d="M84.43 132.774a2.512 2.512 0 11-5.024 0 2.512 2.512 0 015.023 0" fill="#FFF"/><path d="M42.254 124.658a2.512 2.512 0 11-5.024 0 2.512 2.512 0 015.024 0m48.208-90.81a1.309 1.309 0 11-2.617 0 1.309 1.309 0 012.617 0M57.681 120.6a1.309 1.309 0 11-2.617 0 1.309 1.309 0 012.617 0m-40.757 25.236a1.309 1.309 0 11-2.618 0 1.309 1.309 0 012.618 0m21.381-121.65a1.31 1.31 0 11-2.618 0 1.31 1.31 0 012.618 0M27.836 90.23a.752.752 0 11-1.504 0 .752.752 0 011.504 0m78.574 22.128a1.309 1.309 0 11-2.617 0 1.309 1.309 0 012.617 0" fill="#7137B0"/><path fill="#FFF" d="M88.02 9.5l1.545 1.546L91.112 9.5l-1.547-1.546zm7.831 0l1.547 1.546L98.944 9.5l-1.546-1.546zm10.926 0l-1.546-1.546-1.547 1.546 1.547 1.546zM88.02 17.616l1.545 1.546 1.547-1.546-1.547-1.546zm7.831 0l1.547 1.546 1.546-1.546-1.546-1.546zm7.833 0l1.546 1.546 1.547-1.546-1.547-1.546zM88.02 25.732l1.545 1.546 1.547-1.546-1.547-1.546zm7.831 0l1.547 1.546 1.546-1.546-1.546-1.546zm7.833 0l1.546 1.546 1.547-1.546-1.547-1.546zM15.99 18.28a5.378 5.378 0 110-10.756 5.378 5.378 0 010 10.756m0-12.452a7.074 7.074 0 100 14.149 7.074 7.074 0 000-14.149m46.705 44.477a6.61 6.61 0 110-13.22 6.61 6.61 0 010 13.22m0-15.305a8.695 8.695 0 100 17.39 8.695 8.695 0 000-17.39"/></g></svg>