<svg width="115" height="165" xmlns="http://www.w3.org/2000/svg"><defs><linearGradient x1="50%" y1="100%" x2="50%" y2="0%" id="a"><stop stop-color="#F7498D" offset="0%"/><stop stop-color="#FF9E2D" offset="100%"/></linearGradient></defs><g fill="none" fill-rule="evenodd"><path fill="#FFF" d="M0 164.76h114.864V.524H0z"/><path d="M0 164.234h114.864V0H0z" transform="translate(0 .285)" fill="url(#a)"/><path d="M24.567 117.664a2.61 2.61 0 002.606-2.606 2.61 2.61 0 00-2.606-2.606 2.609 2.609 0 00-2.605 2.606 2.609 2.609 0 002.605 2.606m0-5.907c1.82 0 3.3 1.481 3.3 3.301s-1.48 3.3-3.3 3.3c-1.82 0-3.3-1.48-3.3-3.3 0-1.82 1.48-3.3 3.3-3.3M4.103 55.665a8.694 8.694 0 018.695-8.695 8.695 8.695 0 110 17.39 8.695 8.695 0 01-8.695-8.695m98.66 55.897a4.463 4.463 0 118.926.001 4.463 4.463 0 01-8.926 0" fill="#FFF"/><path d="M90.712 69.818a8.3 8.3 0 118.3 8.3 8.3 8.3 0 01-8.3-8.3m-58.639-36.64a4.395 4.395 0 118.79 0 4.395 4.395 0 01-8.79 0M9.48 154.307a4.135 4.135 0 118.27 0 4.135 4.135 0 01-8.27 0m2.311-132.53a1.823 1.823 0 113.646 0 1.823 1.823 0 01-3.646 0m49.499 6.225a1.823 1.823 0 113.644 0 1.823 1.823 0 01-3.645 0" fill="#F14BF3"/><path d="M39.658 154.585a1.593 1.593 0 113.186 0 1.593 1.593 0 01-3.186 0" fill="#FFF"/><path d="M20.925 15.425a1.593 1.593 0 113.186-.001 1.593 1.593 0 01-3.186 0" fill="#7137B0"/><path d="M69.83 35.98a1.593 1.593 0 113.187 0 1.593 1.593 0 01-3.187 0" fill="#FFF"/><path d="M103.003 86.733a1.593 1.593 0 113.186-.002 1.593 1.593 0 01-3.186.002m1.122 72.711a1.593 1.593 0 113.186 0 1.593 1.593 0 01-3.186 0" fill="#7137B0"/><path d="M98.607 24.577a1.593 1.593 0 113.187 0 1.593 1.593 0 01-3.187 0" fill="#FFF"/><path d="M93.11 152.992a1.127 1.127 0 112.254 0 1.127 1.127 0 01-2.255 0M5.03 100.098a.78.78 0 111.56 0 .78.78 0 01-1.56 0m7.804 6.762a.78.78 0 111.56 0 .78.78 0 01-1.56 0m72.283 7.706a.78.78 0 111.56.001.78.78 0 01-1.56 0m-8.301 15.729a.78.78 0 111.561 0 .78.78 0 01-1.56 0m25.946-86.188a.78.78 0 111.56 0 .78.78 0 01-1.56 0M12.054 10.88a.78.78 0 111.56.001.78.78 0 01-1.56-.001m24.068 98.068a1.128 1.128 0 112.255 0 1.128 1.128 0 01-2.255 0m-27.77 21.2a1.127 1.127 0 112.255 0 1.127 1.127 0 01-2.255 0m25.092-58.925l-1.546-1.546-1.547 1.546 1.547 1.546zm-7.833 0l-1.546-1.546-1.547 1.546 1.547 1.546zm-10.925 0l1.546 1.546 1.547-1.546-1.547-1.546zm18.758-8.116l-1.546-1.546-1.547 1.546 1.547 1.546zm-7.833 0l-1.546-1.546-1.547 1.546 1.547 1.546zm-7.831 0l-1.547-1.546-1.547 1.546 1.547 1.546zm15.664-8.117l-1.546-1.546-1.547 1.546 1.547 1.547zm-7.833 0l-1.546-1.546-1.547 1.546 1.547 1.547zm-7.831 0l-1.547-1.546-1.547 1.546 1.547 1.547z" fill="#F14BF3"/><path fill="#FFF" d="M95.64 77.51l-.876-.874-.875.875.875.875zm-4.434 0l-.875-.874-.876.875.876.875zm-6.184 0l.875.876.876-.875-.876-.875zm10.618-4.593l-.876-.876-.875.876.875.875zm-4.434 0l-.875-.876-.876.876.876.875zm-4.434 0l-.875-.876-.876.876.876.875zm8.868-4.595l-.876-.875-.875.875.875.875zm-4.434 0l-.875-.875-.876.875.876.875zm-4.434 0l-.875-.875-.876.875.876.875zM62.601 135.56l-.875-.876-.875.875.875.876zm-4.434 0l-.874-.876-.876.875.876.876zm-6.184 0l.876.875.875-.876-.875-.875zm10.618-4.594l-.875-.876-.875.876.875.874zm-4.434 0l-.874-.876-.876.876.876.874zm-4.433 0l-.875-.876-.876.876.876.874zm8.867-4.595l-.875-.875-.875.875.875.875zm-4.434 0l-.874-.875-.876.875.876.875zm-4.433 0l-.875-.875-.876.875.876.875zm35.721-90.056l-.875-.875-.875.875.875.876zm-4.433 0l-.876-.875-.875.875.875.876zm-6.184 0l.875.876.875-.876-.875-.875zm10.617-4.594l-.875-.875-.875.875.875.876zm-4.433 0l-.876-.875-.875.875.875.876zm-4.434 0l-.875-.875-.875.875.875.876zm8.867-4.594l-.875-.875-.875.875.875.875zm-4.433 0l-.876-.875-.875.875.875.875zm-4.434 0l-.875-.875-.875.875.875.875zM33.028 148.58l-.875-.874-.875.875.875.875zm-4.434 0l-.875-.874-.875.875.875.875zm-6.184 0l.875.876.876-.875-.876-.875zm10.618-4.593l-.875-.875-.875.875.875.875zm-4.434 0l-.875-.875-.875.875.875.875zm-4.434 0l-.875-.875-.875.875.875.875zm8.868-4.594l-.875-.876-.875.876.875.875zm-4.434 0l-.875-.876-.875.876.875.875zm-4.434 0l-.875-.876-.875.876.875.875zm-3.877-59.135a2.353 2.353 0 110 4.706 2.353 2.353 0 010-4.706m0 6.135a3.782 3.782 0 100-7.564 3.782 3.782 0 000 7.564m57.709 66.693a2.353 2.353 0 110 4.706 2.353 2.353 0 010-4.706m0 6.135a3.782 3.782 0 100-7.563 3.782 3.782 0 000 7.563m9.885-109.374a1.823 1.823 0 110 3.645 1.823 1.823 0 010-3.645m0 4.751a2.93 2.93 0 100-5.858 2.93 2.93 0 000 5.858M22.004 37.28a3.188 3.188 0 110 6.378v1.936a5.125 5.125 0 100-10.25v1.936z"/><path d="M90.638 148.29a5.353 5.353 0 1110.707 0h3.252a8.605 8.605 0 00-17.21 0h3.251zM55.501 8.127a5.353 5.353 0 11-10.707 0h-3.25a8.604 8.604 0 1017.208 0h-3.25z" fill="#7137B0"/><path d="M9.805 95.086a3.81 3.81 0 017.618 0h2.313a6.122 6.122 0 10-12.244 0h2.313z" fill="#2EC4FF"/><path d="M95.064 110.953a3.809 3.809 0 11-7.618 0h-2.314a6.122 6.122 0 1012.245 0h-2.313z" fill="#7137B0"/><path d="M93.52 15.425a3.188 3.188 0 11-6.378 0h-1.936a5.125 5.125 0 1010.25 0H93.52zm9.243 107a3.189 3.189 0 000 6.378v1.936a5.125 5.125 0 110-10.25v1.936z" fill="#FFF"/><path d="M41.184 97.528c3.52 0 6.292-.917 8.316-2.75 2.024-1.833 3.036-4.583 3.036-8.25V67.652h-8.888v18.744c0 1.027-.3 1.833-.902 2.42-.601.587-1.386.88-2.354.88-1.232 0-2.493-.44-3.784-1.32L33 95.152c2.053 1.584 4.781 2.376 8.184 2.376zm27.588 0c2.317 0 4.415-.264 6.292-.792 1.907-.557 3.513-1.481 4.818-2.772 1.305-1.29 1.958-2.89 1.958-4.796 0-1.555-.513-2.985-1.54-4.29-1.027-1.305-2.39-2.31-4.092-3.014 3.432-1.408 5.148-3.667 5.148-6.776 0-1.819-.653-3.344-1.958-4.576-1.305-1.232-2.86-2.09-4.664-2.574-1.804-.484-3.791-.726-5.962-.726-2.17 0-4.158.242-5.962.726-1.804.484-3.359 1.342-4.664 2.574-1.305 1.232-1.958 2.757-1.958 4.576 0 3.11 1.701 5.368 5.104 6.776-1.701.704-3.058 1.709-4.07 3.014-1.012 1.305-1.518 2.735-1.518 4.29 0 1.907.653 3.505 1.958 4.796 1.305 1.29 2.904 2.207 4.796 2.75 1.892.543 3.997.814 6.314.814zm0-19.096c-.939-.147-1.767-.41-2.486-.792-.719-.381-1.078-.792-1.078-1.232 0-.587.315-1.063.946-1.43.63-.367 1.503-.55 2.618-.55 1.085 0 1.943.183 2.574.55.63.367.946.843.946 1.43 0 .44-.352.85-1.056 1.232-.704.381-1.525.645-2.464.792zm0 11.88c-1.232 0-2.215-.205-2.948-.616-.733-.41-1.1-.924-1.1-1.54 0-.528.41-1.005 1.232-1.43.821-.425 1.76-.711 2.816-.858a8.888 8.888 0 012.794.858c.836.425 1.254.902 1.254 1.43 0 .616-.374 1.13-1.122 1.54-.748.41-1.723.616-2.926.616z" fill="#FFF" fill-rule="nonzero"/></g></svg>