<svg xmlns="http://www.w3.org/2000/svg" width="116" height="165"><defs><linearGradient x1="68.893" y1="137.786" x2="68.893" y2="0" id="a" gradientTransform="scale(.8363 1.19575)" gradientUnits="userSpaceOnUse"><stop stop-color="#00C9FF" offset="0%"/><stop stop-color="#24F291" offset="100%"/></linearGradient></defs><g style="fill:none;fill-rule:evenodd"><path d="M0 164.758h115.23V0H0z" style="fill:url(#a)" transform="scale(1.0091 1.00424)"/><path d="m88.683 146.193-1.197 1.196-1.196-1.196 1.196-1.197zm3.097 0-1.197 1.196-1.196-1.196 1.196-1.197zm3.098 0-1.197 1.196-1.196-1.196 1.196-1.197zM28.75 112.967l-1.197 1.197-1.197-1.197 1.197-1.196zm3.097 0-1.197 1.197-1.196-1.197 1.196-1.196zm3.097 0-1.196 1.197-1.197-1.197 1.197-1.196zm-16.59-48.399-1.196 1.197-1.196-1.197 1.196-1.197zm3.098 0-1.197 1.197-1.196-1.197 1.196-1.197zm3.098 0-1.197 1.197-1.196-1.197 1.196-1.197zm5.885-48.748-1.197 1.196-1.196-1.196 1.196-1.197zm3.097 0-1.197 1.196-1.196-1.196 1.196-1.197zm3.098 0-1.197 1.196-1.196-1.196 1.196-1.197zm60.062 51.27a.621.621 0 1 1-1.242 0 .621.621 0 0 1 1.242 0m-79.45 7.64a.622.622 0 1 1-1.243 0 .622.622 0 0 1 1.243 0m63.361 64.09a.622.622 0 1 1-1.244 0 .622.622 0 0 1 1.244 0m5.051-119.872a.622.622 0 1 1-1.243 0 .622.622 0 0 1 1.243 0M9.251 37.24a.622.622 0 1 1-1.243 0 .622.622 0 0 1 1.243 0m42.484-8.388 1.55 1.55 1.552-1.55-1.551-1.552zm7.857 0 1.551 1.55 1.552-1.55-1.552-1.552zm10.96 0-1.55-1.552-1.553 1.552 1.552 1.55zm-18.817 8.142 1.55 1.551 1.552-1.551-1.551-1.551zm7.857 0 1.551 1.551 1.552-1.551-1.552-1.551zm7.858 0L69 38.545l1.551-1.551L69 35.443zm-15.715 8.142 1.55 1.55 1.552-1.55-1.551-1.551zm7.857 0 1.551 1.55 1.552-1.55-1.552-1.551zm7.858 0 1.55 1.55 1.551-1.55L69 43.585zM9.728 91.108v17.252l8.626-8.626zm-.523 18.514V89.846l9.888 9.888zm91.445 1.671 9.278 9.277v-18.555zm9.8 10.54-10.54-10.54 10.54-10.54z" style="fill:#fff" transform="scale(1.0091 1.00424)"/><path d="m11.194 25.588 6.27 6.27v-12.54z" style="fill:#b0ffd8" transform="scale(1.0091 1.00424)"/><path d="M13.679 13.279a2.214 2.214 0 1 1-.001-4.428 2.214 2.214 0 0 1 0 4.428m0-5.772a3.558 3.558 0 1 0 0 7.115 3.558 3.558 0 0 0 0-7.115m67.658 101.029a2.214 2.214 0 1 1 0-4.428 2.214 2.214 0 0 1 0 4.428m0-5.772a3.558 3.558 0 1 0-.001 7.115 3.558 3.558 0 0 0 0-7.115M12.53 57.321a2.214 2.214 0 1 1 0-4.428 2.214 2.214 0 0 1 0 4.428m0-5.772a3.558 3.558 0 1 0 0 7.116 3.558 3.558 0 0 0 0-7.116m87.955-36.009a2.441 2.441 0 1 1 0-4.882 2.441 2.441 0 0 1 0 4.882m0-6.365a3.924 3.924 0 1 0 0 7.847 3.924 3.924 0 0 0 0-7.847m-1.782 148.137a2.44 2.44 0 1 1 0-4.881 2.44 2.44 0 0 1 0 4.88m0-6.363a3.923 3.923 0 1 0 0 7.846 3.923 3.923 0 0 0 0-7.846M33.923 49.364a2.44 2.44 0 1 1 0-4.881 2.44 2.44 0 0 1 0 4.881m0-6.364a3.924 3.924 0 1 0 0 7.847 3.924 3.924 0 0 0 0-7.847" style="fill:#fff" transform="scale(1.0091 1.00424)"/><path d="M86.92 9.175a1.313 1.313 0 1 1-2.626.001 1.313 1.313 0 0 1 2.626 0M9.943 77.536a1.313 1.313 0 1 1-2.627 0 1.313 1.313 0 0 1 2.627 0m60.092 38.967a1.313 1.313 0 1 1-2.626 0 1.313 1.313 0 0 1 2.626 0m40.454-78.267a.938.938 0 1 1-1.875 0 .938.938 0 0 1 1.875 0M15.266 42.29a.938.938 0 1 1-1.875 0 .938.938 0 0 1 1.875 0m30.599 68.082a.938.938 0 1 1-1.875 0 .938.938 0 0 1 1.875 0m39.366 44.498a.937.937 0 1 1-1.874.001.937.937 0 0 1 1.874 0" style="fill:#2ed8cd" transform="scale(1.0091 1.00424)"/><path d="M43.184 97.528c3.52 0 6.292-.917 8.316-2.75 2.024-1.833 3.036-4.583 3.036-8.25V67.652h-8.888v18.744c0 1.027-.3 1.833-.902 2.42-.601.587-1.386.88-2.354.88-1.232 0-2.493-.44-3.784-1.32L35 95.152c2.053 1.584 4.781 2.376 8.184 2.376zm25.036-.044c4.664 0 8.397-1.327 11.198-3.982 2.801-2.655 4.202-6.387 4.202-11.198 0-4.517-1.18-8.17-3.542-10.956-2.361-2.787-5.845-4.18-10.45-4.18-3.52 0-6.431.975-8.734 2.926-2.303 1.95-3.454 4.495-3.454 7.634 0 2.992 1.027 5.36 3.08 7.106 2.053 1.745 4.488 2.618 7.304 2.618 2.992 0 5.265-.997 6.82-2.992v.132c0 1.437-.609 2.64-1.826 3.608s-2.75 1.452-4.598 1.452c-2.112 0-3.916-.528-5.412-1.584l-3.74 6.864c2.493 1.701 5.544 2.552 9.152 2.552zm2.332-17.556c-1.056 0-2.002-.213-2.838-.638-.836-.425-1.254-1.063-1.254-1.914 0-.645.352-1.203 1.056-1.672.704-.47 1.584-.704 2.64-.704 1.467 0 2.567.352 3.3 1.056.733.704 1.144 1.599 1.232 2.684-1.027.792-2.405 1.188-4.136 1.188z" style="fill:#fff;fill-rule:nonzero" transform="scale(1.0091 1.00424)"/><path d="m8.443 162.173-1.193 1.193-1.192-1.193 1.192-1.193zm3.087 0-1.192 1.193-1.193-1.193 1.193-1.193zm3.088 0-1.193 1.193-1.192-1.193 1.192-1.193zM8.5 124.34a1.25 1.25 0 1 1-2.5 0 1.25 1.25 0 0 1 2.5 0m55.216 36.382a.822.822 0 1 1-1.643.001.822.822 0 0 1 1.643 0m-45.971-42.576a1.495 1.495 0 1 1 0-2.989 1.495 1.495 0 0 1 0 2.99m0-3.897a2.402 2.402 0 1 0 .001 4.803 2.402 2.402 0 0 0 0-4.803m31.887 43.486a2.433 2.433 0 1 1 0-4.865 2.433 2.433 0 0 1 0 4.865m0-6.344a3.911 3.911 0 1 0 .001 7.822 3.911 3.911 0 0 0 0-7.822" style="fill:#fff" transform="scale(1.0091 1.00424)"/><path d="M33.496 120.955a3.591 3.591 0 0 1 7.181 0h2.18a5.77 5.77 0 0 0-11.541 0z" style="fill:#9dffec" transform="scale(1.0091 1.00424)"/><path d="M8.873 112.955a.955.955 0 1 1-1.909 0 .955.955 0 0 1 1.91 0" style="fill:#7137b0" transform="scale(1.0091 1.00424)"/><g style="fill:#fff"><path d="M20.071 147.757h20.525v-20.426H20.071zm-.701.698h21.927v-21.822H19.37z"/><path d="M13.529 152.223h20.524V131.8H13.528v20.425zm-.701.698 21.925.001V131.1H12.826v21.822z"/><path d="m13.377 131.737-.397-.575 6.543-4.467.397.576zm0 21.123-.397-.575 6.543-4.466.397.575zm21.225 0-.396-.575 6.543-4.466.396.575zm0-21.123-.396-.575 6.543-4.467.396.576z"/></g><g style="fill:#fff"><path d="M85.954 50.246h20.524V29.82H85.953v20.426zm-.701.698h21.927l-.001-21.82H85.25v21.82z"/><path d="M79.411 54.713h20.525V34.287H79.411zm-.701.698h21.927V33.59H78.71z"/><path d="m79.259 34.227-.397-.576 6.543-4.467.397.576zm0 21.123-.397-.576 6.543-4.466.397.575zm21.225 0-.396-.576 6.543-4.466.396.575zm0-21.123-.396-.576 6.543-4.467.396.576z"/></g><path d="M58.674 113.997a1.043 1.043 0 1 1-2.086 0 1.043 1.043 0 0 1 2.086 0m3.069 4.013a1.042 1.042 0 1 1-2.085 0 1.042 1.042 0 0 1 2.085 0m-3.069 4.036a1.043 1.043 0 1 1-2.086 0 1.043 1.043 0 0 1 2.086 0m3.069 4.014a1.043 1.043 0 1 1-2.086-.001 1.043 1.043 0 0 1 2.086 0m-3.069 4.037a1.043 1.043 0 1 1-2.086-.001 1.043 1.043 0 0 1 2.086 0m3.069 4.013a1.043 1.043 0 1 1-2.086 0 1.043 1.043 0 0 1 2.086 0m-3.069 4.037a1.043 1.043 0 1 1-2.086 0 1.043 1.043 0 0 1 2.086 0m3.069 4.013a1.043 1.043 0 1 1-2.086 0 1.043 1.043 0 0 1 2.086 0m-3.069 4.036a1.043 1.043 0 1 1-2.086 0 1.043 1.043 0 0 1 2.086 0" style="fill:#fff" transform="scale(1.0091 1.00424)"/><path d="M100.175 128.12a5.414 5.414 0 1 1-10.828 0 5.414 5.414 0 0 1 10.828 0" style="fill:#73ffb9" transform="scale(1.0091 1.00424)"/><path d="M84.695 134.305a6.61 6.61 0 1 1 0-13.22 6.61 6.61 0 0 1 0 13.22m0-15.305a8.695 8.695 0 1 0 0 17.39 8.695 8.695 0 0 0 0-17.39" style="fill:#fff" transform="scale(1.0091 1.00424)"/></g></svg>