<svg xmlns="http://www.w3.org/2000/svg" width="116" height="165" viewBox="0 0 116 165">
    <g fill="none" fill-rule="evenodd">
        <path fill="#BF59D8" d="M0 164.761L115.234 164.761 115.234 0 0 0z"/>
        <path fill="#FFF" d="M99.267 11.764L98.07 12.96 96.874 11.764 98.07 10.567zM102.364 11.764L101.168 12.96 99.972 11.764 101.168 10.567zM105.462 11.764L104.265 12.96 103.069 11.764 104.265 10.567zM14.592 65.301L13.395 66.498 12.199 65.301 13.395 64.105zM17.689 65.301L16.493 66.498 15.297 65.301 16.493 64.105zM20.787 65.301L19.59 66.498 18.394 65.301 19.59 64.105zM81.858 41.354L80.661 42.55 79.464 41.354 80.661 40.157zM84.955 41.354L83.758 42.55 82.562 41.354 83.758 40.157zM88.052 41.354L86.855 42.55 85.659 41.354 86.855 40.157zM24.518 5.743L23.322 6.94 22.125 5.743 23.322 4.547zM27.616 5.743L26.419 6.94 25.222 5.743 26.419 4.547zM30.713 5.743L29.516 6.94 28.32 5.743 29.516 4.547zM68.966 133.912L67.77 135.109 66.573 133.912 67.77 132.716zM72.064 133.912L70.867 135.109 69.671 133.912 70.867 132.716zM75.161 133.912L73.964 135.109 72.768 133.912 73.964 132.716zM37.366 132.143L36.169 133.34 34.973 132.143 36.169 130.947zM40.463 132.143L39.266 133.34 38.07 132.143 39.266 130.947zM43.561 132.143L42.364 133.34 41.168 132.143 42.364 130.947zM38.907 16.017L40.459 17.568 42.009 16.017 40.459 14.466zM46.765 16.017L48.316 17.568 49.867 16.017 48.316 14.466zM57.725 16.017L56.174 14.466 54.622 16.017 56.174 17.568zM38.907 24.159L40.459 25.711 42.009 24.159 40.459 22.608zM46.765 24.159L48.316 25.711 49.867 24.159 48.316 22.608zM54.623 24.159L56.173 25.711 57.725 24.159 56.173 22.608zM38.907 32.301L40.459 33.853 42.009 32.301 40.459 30.75zM46.765 32.301L48.316 33.853 49.867 32.301 48.316 30.75zM54.623 32.301L56.173 33.853 57.725 32.301 56.173 30.75zM101.168 140.075L102.719 141.626 104.27 140.075 102.719 138.524zM109.025 140.075L110.577 141.626 112.128 140.075 110.577 138.524zM101.168 148.217L102.719 149.769 104.27 148.217 102.719 146.666zM109.025 148.217L110.577 149.769 112.128 148.217 110.577 146.666zM101.168 156.359L102.719 157.91 104.27 156.359 102.719 154.808zM109.025 156.359L110.577 157.91 112.128 156.359 110.577 154.808zM11.904 96.073L13.454 97.624 15.006 96.073 13.454 94.521zM19.761 96.073L21.312 97.624 22.863 96.073 21.312 94.521zM50.102 40.551L48.551 39 47 40.551 48.551 42.103zM11.904 104.215L13.454 105.766 15.006 104.215 13.454 102.663zM19.761 104.215L21.312 105.766 22.863 104.215 21.312 102.663zM27.619 104.215L29.17 105.766 30.721 104.215 29.17 102.663zM11.904 112.357L13.454 113.908 15.006 112.357 13.454 110.806zM19.761 112.357L21.312 113.908 22.863 112.357 21.312 110.806zM27.619 112.357L29.17 113.908 30.721 112.357 29.17 110.806z"/>
        <path fill="#DE99FF" d="M13.102 70.844L4.544 79.402 4.544 62.286zM87.84 118.727L96.397 127.285 96.397 110.169zM87.912 31.858L96.47 40.416 96.47 23.3zM52.957 118.248L44.399 126.806 44.399 109.69z"/>
        <g>
            <path fill="#FFF" d="M91.343 103.203a2.44 2.44 0 110-4.88 2.44 2.44 0 010 4.88m0-6.364a3.923 3.923 0 100 7.846 3.923 3.923 0 000-7.846M87.682 7.381a2.44 2.44 0 110-4.88 2.44 2.44 0 010 4.88m0-6.364a3.923 3.923 0 100 7.846 3.923 3.923 0 000-7.846" transform="translate(0 2.923)"/>
            <path fill="#7137B0" d="M104.548 122.722a4.656 4.656 0 01-.888 5.338 4.63 4.63 0 01-2.476 1.29v1.535a6.144 6.144 0 003.552-1.75 6.175 6.175 0 00.93-7.532l-1.118 1.119z" transform="translate(0 2.923)"/>
            <path fill="#FFF" d="M20.366 6.253a.776.776 0 11-1.552 0 .776.776 0 011.552 0M32.798 47.413a.775.775 0 11-1.55 0 .775.775 0 011.55 0M74.672 119.187a.775.775 0 11-1.55 0 .775.775 0 011.55 0M62.55 108.852a.775.775 0 11-1.55 0 .775.775 0 011.55 0M68.55 108.852a.775.775 0 11-1.55 0 .775.775 0 011.55 0M61.338 2.82a.776.776 0 11-1.552 0 .776.776 0 011.552 0M8.236 40.306a.775.775 0 11-1.55 0 .775.775 0 011.55 0M65.55 103.852a.775.775 0 11-1.55 0 .775.775 0 011.55 0M98.846 61.646a.775.775 0 11-1.55 0 .775.775 0 011.55 0M15.367 82.611a.775.775 0 11-1.55 0 .775.775 0 011.55 0M100.78 85.988a5.024 5.024 0 01-4.765-3.436 4.124 4.124 0 01.23-3.17 4.126 4.126 0 012.404-2.079 3.439 3.439 0 012.641.191 3.436 3.436 0 011.733 2.004 2.889 2.889 0 01-.16 2.22 2.89 2.89 0 01-1.684 1.457.697.697 0 11-.439-1.324 1.516 1.516 0 00.96-1.914 2.053 2.053 0 00-1.035-1.196 2.052 2.052 0 00-1.577-.114 2.74 2.74 0 00-1.597 1.38 2.738 2.738 0 00-.152 2.105 3.625 3.625 0 004.578 2.297 4.706 4.706 0 002.981-5.942 6.057 6.057 0 00-7.65-3.838.697.697 0 11-.438-1.323c3.896-1.293 8.118.825 9.411 4.721a6.102 6.102 0 01-3.865 7.705 4.996 4.996 0 01-1.576.256M69.286 51.82a7.484 7.484 0 01-2.019-.28 7.397 7.397 0 01-4.481-3.519 6.055 6.055 0 01-.558-4.631 6.056 6.056 0 012.881-3.67 5.022 5.022 0 016.831 1.913 4.157 4.157 0 01-1.583 5.654 3.44 3.44 0 01-2.63.317c-.89-.25-1.63-.831-2.083-1.636a2.888 2.888 0 01-.266-2.21c.209-.748.698-1.37 1.375-1.751a.697.697 0 01.683 1.215 1.504 1.504 0 00-.716.912c-.109.389-.06.798.139 1.15.271.481.713.828 1.244.977.531.15 1.09.082 1.57-.19a2.76 2.76 0 001.052-3.755 3.625 3.625 0 00-4.932-1.38 4.67 4.67 0 00-2.222 2.83 4.671 4.671 0 00.43 3.572 6.013 6.013 0 003.642 2.86 6.01 6.01 0 004.598-.553.697.697 0 11.683 1.215 7.407 7.407 0 01-3.638.96M19.498 147.352a3.474 3.474 0 014.037-.442 2.874 2.874 0 011.079 3.914 2.396 2.396 0 01-3.263.9 1.998 1.998 0 01-.945-1.215 1.995 1.995 0 01.19-1.527.482.482 0 01.838.476 1.048 1.048 0 00.393 1.427 1.43 1.43 0 001.948-.537c.52-.914.198-2.08-.716-2.6a2.506 2.506 0 00-3.413.942 3.254 3.254 0 001.22 4.43 4.188 4.188 0 005.704-1.571.482.482 0 11.838.476 5.153 5.153 0 01-7.017 1.933 4.184 4.184 0 01-1.982-2.544 4.185 4.185 0 01.399-3.2c.187-.332.422-.62.69-.862M25.804 53.43a3.473 3.473 0 014.037-.441 2.874 2.874 0 011.079 3.913 2.396 2.396 0 01-3.263.9 1.997 1.997 0 01-.945-1.215 1.995 1.995 0 01.19-1.527.481.481 0 11.838.476 1.048 1.048 0 00.393 1.427 1.43 1.43 0 001.949-.537c.519-.914.197-2.08-.717-2.6a2.506 2.506 0 00-3.413.941 3.254 3.254 0 001.22 4.432 4.187 4.187 0 005.704-1.572.483.483 0 01.838.476 5.153 5.153 0 01-7.017 1.934 4.185 4.185 0 01-1.982-2.545 4.187 4.187 0 01.399-3.2c.188-.332.422-.62.69-.862M100.542 36.593a2.34 2.34 0 01.29-2.72 1.936 1.936 0 012.73-.146c.66.595.716 1.615.122 2.276-.242.27-.573.427-.935.447a1.344 1.344 0 01-.977-.345.325.325 0 01.434-.483c.289.26.735.236.995-.053a.964.964 0 00-.073-1.359 1.286 1.286 0 00-1.813.097 1.688 1.688 0 00.128 2.381 2.191 2.191 0 003.09-.165 2.82 2.82 0 00-.212-3.978.324.324 0 11.434-.483 3.47 3.47 0 01.261 4.895 2.817 2.817 0 01-1.96.937 2.819 2.819 0 01-2.047-.723 2.335 2.335 0 01-.467-.578M9.13 4.95a2.34 2.34 0 01.29-2.719 1.936 1.936 0 012.73-.146c.66.595.715 1.615.121 2.276-.241.27-.573.428-.935.447a1.344 1.344 0 01-.977-.345.325.325 0 01.434-.483c.29.26.736.236.995-.053a.963.963 0 00-.072-1.36 1.286 1.286 0 00-1.813.098 1.687 1.687 0 00.127 2.381 2.191 2.191 0 003.09-.165 2.82 2.82 0 00-.212-3.978.325.325 0 01.434-.483 3.47 3.47 0 01.262 4.894 2.817 2.817 0 01-1.96.938 2.819 2.819 0 01-2.048-.723 2.335 2.335 0 01-.467-.578M86.758 130.664a2.34 2.34 0 01.29-2.72 1.936 1.936 0 012.73-.145c.661.594.716 1.615.122 2.275-.242.27-.574.428-.935.447a1.343 1.343 0 01-.977-.344.325.325 0 01.434-.483c.289.26.736.236.995-.053a.964.964 0 00-.072-1.36 1.286 1.286 0 00-1.814.098 1.688 1.688 0 00.127 2.38 2.192 2.192 0 003.092-.164 2.82 2.82 0 00-.213-3.979.325.325 0 01.434-.483 3.47 3.47 0 01.261 4.896 2.821 2.821 0 01-1.959.937 2.818 2.818 0 01-2.048-.723 2.325 2.325 0 01-.467-.579M15.867 136.393a2.34 2.34 0 01.29-2.719 1.935 1.935 0 012.73-.146c.66.594.716 1.615.122 2.276a1.343 1.343 0 01-.935.446 1.344 1.344 0 01-.977-.344.324.324 0 11.434-.483c.289.26.735.236.995-.053a.964.964 0 00-.073-1.36 1.286 1.286 0 00-1.813.098 1.688 1.688 0 00.128 2.381 2.191 2.191 0 003.09-.165 2.82 2.82 0 00-.213-3.979.325.325 0 01.435-.483 3.47 3.47 0 01.261 4.896 2.819 2.819 0 01-1.96.937 2.819 2.819 0 01-2.047-.723 2.325 2.325 0 01-.467-.579" transform="translate(0 2.923)"/>
            <path fill="#50B0FD" d="M4.545 111.24a2.389 2.389 0 01-2.387 2.388H0v-4.772h2.158a2.386 2.386 0 012.387 2.384M115.234 28.942v4.772h-2.353a2.383 2.383 0 01-2.384-2.385c0-.658.265-1.254.697-1.687a2.38 2.38 0 011.687-.7h2.353zM100.84 90.449a1.59 1.59 0 00-1.596 1.596c0 .882.714 1.599 1.597 1.599h9.26a1.598 1.598 0 010 3.196h-3.759a1.593 1.593 0 00-1.597 1.596c0 .882.715 1.596 1.597 1.596h8.916v-9.583h-14.417zM14.647 46.217c.441 0 .84.177 1.13.467a1.6 1.6 0 01-1.13 2.728H5.385a1.598 1.598 0 000 3.195h3.76a1.59 1.59 0 011.597 1.597c0 .882-.714 1.597-1.597 1.597H.23v-9.584h14.417zM17.542 120.12c.537 0 1.022.216 1.374.568a1.947 1.947 0 01-1.374 3.32H6.274a1.944 1.944 0 000 3.887h4.575a1.936 1.936 0 011.942 1.942 1.941 1.941 0 01-1.942 1.942H0V120.12h17.54zM94.785 44.924a2.257 2.257 0 00-2.264 2.264 2.266 2.266 0 002.264 2.268h13.135a2.266 2.266 0 010 4.531h-5.333a2.256 2.256 0 00-2.265 2.264 2.264 2.264 0 002.265 2.265h12.645V44.924H94.785z" transform="translate(0 2.923)"/>
            <path fill="#7137B0" d="M83.25 17.105h-1.7a1.507 1.507 0 010-3.014h1.7a1.507 1.507 0 000-3.014h-9.743a1.507 1.507 0 100 3.014h2.6a1.507 1.507 0 110 3.014h-2.6a1.507 1.507 0 100 3.014h9.743a1.507 1.507 0 100-3.014M33.192 117.53H32.17a.908.908 0 110-1.815h1.023a.907.907 0 000-1.815h-5.865a.907.907 0 100 1.815h1.565a.907.907 0 110 1.814h-1.565a.907.907 0 100 1.815h5.865a.907.907 0 100-1.815M16.25 19.105h-1.7a1.507 1.507 0 010-3.014h1.7a1.507 1.507 0 100-3.014H6.507a1.507 1.507 0 100 3.014h2.6a1.507 1.507 0 010 3.014h-2.6a1.507 1.507 0 100 3.014h9.743a1.507 1.507 0 100-3.014" transform="translate(0 2.923)"/>
            <path fill="#FFF" d="M41.847 145.628L43.398 147.18 44.949 145.628M51.255 147.18L52.806 145.628 51.255 144.077M57.562 145.628L59.113 147.18 60.664 145.628M44.949 153.77L43.398 152.219 41.847 153.77M52.806 153.77L51.256 152.219 49.704 153.77M60.664 153.77L59.113 152.219 57.562 153.77M70.928 146.12L72.479 147.671 74.03 146.12M80.337 147.671L81.888 146.12 80.337 144.569M86.643 146.12L88.194 147.671 89.745 146.12M74.03 154.262L72.479 152.711 70.928 154.262M81.888 154.262L80.336 152.711 78.785 154.262M89.745 154.262L88.194 152.711 86.643 154.262" transform="translate(0 2.923)"/>
        </g>
        <path fill="#FFF" fill-rule="nonzero" d="M42.04 96.783c3.458 0 6.182-.9 8.17-2.701 1.988-1.802 2.983-4.503 2.983-8.105V67.432H44.46v18.415c0 1.009-.295 1.801-.886 2.377-.591.577-1.362.865-2.313.865-1.21 0-2.45-.432-3.717-1.297L34 94.45c2.017 1.556 4.697 2.334 8.04 2.334zm27.06 0c2.767 0 5.13-.706 7.09-2.118 1.988-1.44 3.436-3.263 4.344-5.468.907-2.205 1.361-4.647 1.361-7.327 0-4.179-1.11-7.702-3.328-10.569C76.347 68.434 73.192 67 69.1 67c-4.092 0-7.248 1.434-9.466 4.301-2.22 2.867-3.329 6.39-3.329 10.569 0 2.68.454 5.122 1.362 7.327.907 2.205 2.348 4.02 4.322 5.447 1.974 1.426 4.345 2.14 7.111 2.14zm0-7.694c-2.68 0-4.02-2.406-4.02-7.219 0-4.784 1.34-7.176 4.02-7.176 2.68 0 4.02 2.392 4.02 7.176 0 4.813-1.34 7.219-4.02 7.219z"/>
    </g>
</svg>
