<svg xmlns="http://www.w3.org/2000/svg" xmlns:xlink="http://www.w3.org/1999/xlink" width="115" height="165" viewBox="0 0 115 165">
    <defs>
        <path id="prefix__a" d="M0 164.234L114.864 164.234 114.864 0 0 0z"/>
    </defs>
    <g fill="none" fill-rule="evenodd">
        <path fill="#F29725" d="M0 164.759L114.864 164.759 114.864 0.526 0 0.526z"/>
        <g transform="translate(0 .285)">
            <path fill="#FFE11D" d="M16.064 73.13a1.777 1.777 0 11-3.553 0 1.777 1.777 0 013.553 0M75.616 38.38a1.777 1.777 0 11-3.554 0 1.777 1.777 0 013.554 0"/>
            <path fill="#FFF" d="M20.993 90.714L19.8 91.907 18.607 90.714 19.8 89.522zM24.08 90.714L22.887 91.907 21.695 90.714 22.887 89.522zM27.168 90.714L25.975 91.907 24.783 90.714 25.975 89.522zM9.305 62.157L8.112 63.35 6.92 62.157 8.112 60.965zM12.392 62.157L11.2 63.35 10.007 62.157 11.2 60.965zM15.48 62.157L14.287 63.35 13.095 62.157 14.287 60.965zM79.023 13.608L77.83 14.801 76.638 13.608 77.83 12.415zM82.111 13.608L80.917 14.801 79.725 13.608 80.917 12.415zM85.198 13.608L84.005 14.801 82.813 13.608 84.005 12.415zM90.938 155.844L89.745 157.037 88.552 155.844 89.745 154.652zM94.025 155.844L92.832 157.037 91.64 155.844 92.832 154.652zM97.113 155.844L95.92 157.037 94.728 155.844 95.92 154.652zM27.134 51.625L25.941 52.818 24.749 51.625 25.941 50.432zM30.222 51.625L29.029 52.818 27.837 51.625 29.029 50.432zM33.309 51.625L32.116 52.818 30.924 51.625 32.116 50.432zM83.675 54.027L82.482 55.22 81.29 54.027 82.482 52.834zM86.762 54.027L85.569 55.22 84.377 54.027 85.569 52.834zM89.85 54.027L88.657 55.22 87.465 54.027 88.657 52.834zM9.305 158.436L8.112 159.629 6.92 158.436 8.112 157.243zM12.392 158.436L11.2 159.629 10.007 158.436 11.2 157.243zM15.48 158.436L14.287 159.629 13.095 158.436 14.287 157.243zM104.043 64.195a1.25 1.25 0 11-2.501 0 1.25 1.25 0 012.501 0M9.363 120.603a1.25 1.25 0 11-2.501 0 1.25 1.25 0 012.5 0M12.45 35.633a1.25 1.25 0 11-2.5 0 1.25 1.25 0 012.5 0M78.68 151.568a1.25 1.25 0 11-2.5 0 1.25 1.25 0 012.5 0M10.555 10.696a1.25 1.25 0 11-2.5 0 1.25 1.25 0 012.5 0M26.48 104.754a.823.823 0 11-1.646 0 .823.823 0 011.645 0M12.023 90.496a.822.822 0 11-1.644 0 .822.822 0 011.644 0M64.578 156.986a.822.822 0 11-1.643 0 .822.822 0 011.643 0M62.979 52.448a.822.822 0 11-1.645 0 .822.822 0 011.645 0M102.584 31.997a.823.823 0 11-1.646 0 .823.823 0 011.646 0M44.542 10.842a.823.823 0 11-1.645 0 .823.823 0 011.645 0M26.582 43.331a1.25 1.25 0 11-2.5 0 1.25 1.25 0 012.5 0M47.232 106.063a1.25 1.25 0 11-2.502 0 1.25 1.25 0 012.502 0M99.36 53.12a1.495 1.495 0 110-2.99 1.495 1.495 0 010 2.99m0-3.897a2.402 2.402 0 100 4.804 2.402 2.402 0 000-4.804M18.607 114.41a1.495 1.495 0 110-2.989 1.495 1.495 0 010 2.99m0-3.897a2.402 2.402 0 10.001 4.804 2.402 2.402 0 000-4.804M22.888 12.19a1.495 1.495 0 110-2.989 1.495 1.495 0 010 2.99m0-3.897a2.402 2.402 0 100 4.804 2.402 2.402 0 000-4.804M11.267 56.667a1.494 1.494 0 110-2.989 1.494 1.494 0 010 2.989m0-3.897a2.402 2.402 0 100 4.805 2.402 2.402 0 000-4.805M47.35 48.097a1.494 1.494 0 110-2.988 1.494 1.494 0 010 2.988m0-3.896a2.402 2.402 0 100 4.804 2.402 2.402 0 000-4.804M100.938 13.643a1.495 1.495 0 110-2.99 1.495 1.495 0 010 2.99m0-3.897a2.402 2.402 0 100 4.803 2.402 2.402 0 000-4.803M50.495 154a2.433 2.433 0 110-4.865 2.433 2.433 0 010 4.866m0-6.345a3.911 3.911 0 10.001 7.823 3.911 3.911 0 000-7.823"/>
            <path fill="#7137B0" d="M34.358 117.219a3.591 3.591 0 017.181 0h2.18a5.77 5.77 0 00-11.541 0h2.18zM69.822 7.336a4.18 4.18 0 11-8.36 0h-2.54a6.719 6.719 0 1013.439 0h-2.539zM81.61 151.53a4.18 4.18 0 11-8.361 0H70.71a6.719 6.719 0 1013.438 0H81.61zM24.798 84.525a.955.955 0 11-1.91.001.955.955 0 011.91 0M103.516 154.89a.954.954 0 11-1.909 0 .954.954 0 011.91 0M18.118 23.057a.955.955 0 11-1.91 0 .955.955 0 011.91 0M89.937 48.03a.954.954 0 11-1.909.001.954.954 0 011.909 0M9.735 109.218a.954.954 0 11-1.909 0 .954.954 0 011.91 0"/>
            <mask id="prefix__b" fill="#fff">
                <use xlink:href="#prefix__a"/>
            </mask>
            <path fill="#FFE11D" d="M91.296 89.69h20.34V69.35h-20.34v20.34zm-.695.695h21.729v-21.73H90.6v21.73z" mask="url(#prefix__b)"/>
            <path fill="#FFE11D" d="M84.812 94.138h20.34v-20.34h-20.34v20.34zm-.695.694h21.729v-21.73H84.117v21.73z" mask="url(#prefix__b)"/>
            <path fill="#FFE11D" d="M84.661 73.737L84.268 73.164 90.752 68.716 91.145 69.289zM84.661 94.771L84.268 94.198 90.752 89.751 91.145 90.324zM105.696 94.771L105.302 94.198 111.786 89.751 112.179 90.324zM105.696 73.737L105.302 73.164 111.786 68.716 112.179 69.289zM20.752 143.396h20.34v-20.34h-20.34v20.34zm-.695.695h21.73v-21.729h-21.73v21.73z" mask="url(#prefix__b)"/>
            <path fill="#FFE11D" d="M14.269 147.844h20.339v-20.339h-20.34v20.34zm-.695.695h21.729v-21.73h-21.73v21.73z" mask="url(#prefix__b)"/>
            <path fill="#FFE11D" d="M14.118 127.444L13.725 126.871 20.209 122.423 20.602 122.996zM14.118 148.478L13.725 147.905 20.209 143.457 20.602 144.03zM35.152 148.478L34.759 147.905 41.243 143.457 41.636 144.03zM35.152 127.444L34.759 126.871 41.243 122.423 41.636 122.996z" mask="url(#prefix__b)"/>
            <path fill="#FFF" d="M37.536 27.162a1.043 1.043 0 11-2.086 0 1.043 1.043 0 012.086 0M44.195 27.162a1.042 1.042 0 11-2.085 0 1.042 1.042 0 012.085 0M50.854 27.162a1.042 1.042 0 11-2.084 0 1.042 1.042 0 012.084 0M57.514 27.162a1.043 1.043 0 11-2.085 0 1.043 1.043 0 012.085 0M64.173 27.162a1.043 1.043 0 11-2.085 0 1.043 1.043 0 012.085 0M70.833 27.162a1.042 1.042 0 11-2.085 0 1.042 1.042 0 012.085 0M77.492 27.162a1.042 1.042 0 11-2.085 0 1.042 1.042 0 012.085 0M84.152 27.162a1.043 1.043 0 11-2.086 0 1.043 1.043 0 012.086 0M40.605 31.175a1.043 1.043 0 11-2.085-.001 1.043 1.043 0 012.085 0M47.264 31.175a1.042 1.042 0 11-2.085-.001 1.042 1.042 0 012.085 0M53.923 31.175a1.042 1.042 0 11-2.084 0 1.042 1.042 0 012.084 0M60.583 31.175a1.042 1.042 0 11-2.085 0 1.042 1.042 0 012.085 0M67.243 31.175a1.043 1.043 0 11-2.086-.001 1.043 1.043 0 012.086 0M73.902 31.175a1.042 1.042 0 11-2.084 0 1.042 1.042 0 012.084 0M80.561 31.175a1.042 1.042 0 11-2.084 0 1.042 1.042 0 012.084 0M59.536 102.211a1.043 1.043 0 11-2.086 0 1.043 1.043 0 012.086 0M66.195 102.211a1.042 1.042 0 11-2.085 0 1.042 1.042 0 012.085 0M72.854 102.211a1.042 1.042 0 11-2.084 0 1.042 1.042 0 012.084 0M79.514 102.211a1.043 1.043 0 11-2.085 0 1.043 1.043 0 012.085 0M86.173 102.211a1.043 1.043 0 11-2.085 0 1.043 1.043 0 012.085 0M92.833 102.211a1.042 1.042 0 11-2.085 0 1.042 1.042 0 012.085 0M99.492 102.211a1.042 1.042 0 11-2.085 0 1.042 1.042 0 012.085 0M106.152 102.211a1.043 1.043 0 11-2.086 0 1.043 1.043 0 012.086 0M62.605 106.224a1.043 1.043 0 11-2.085-.001 1.043 1.043 0 012.085.001M69.264 106.224a1.042 1.042 0 11-2.085 0 1.042 1.042 0 012.085 0M75.923 106.224a1.042 1.042 0 11-2.084 0 1.042 1.042 0 012.084 0M82.583 106.224a1.042 1.042 0 11-2.085 0 1.042 1.042 0 012.085 0M89.243 106.224a1.043 1.043 0 11-2.086-.001 1.043 1.043 0 012.086.001M95.902 106.224a1.042 1.042 0 11-2.084 0 1.042 1.042 0 012.084 0M102.561 106.224a1.042 1.042 0 11-2.084 0 1.042 1.042 0 012.084 0M59.536 110.26a1.043 1.043 0 11-2.086 0 1.043 1.043 0 012.086 0M66.195 110.26a1.042 1.042 0 11-2.084 0 1.042 1.042 0 012.084 0M72.854 110.26a1.042 1.042 0 11-2.084 0 1.042 1.042 0 012.084 0M79.514 110.26a1.043 1.043 0 11-2.085 0 1.043 1.043 0 012.085 0M86.173 110.26a1.042 1.042 0 11-2.085 0 1.042 1.042 0 012.085 0M92.833 110.26a1.042 1.042 0 11-2.085 0 1.042 1.042 0 012.085 0M99.492 110.26a1.042 1.042 0 11-2.084 0 1.042 1.042 0 012.084 0M106.152 110.26a1.043 1.043 0 11-2.085 0 1.043 1.043 0 012.085 0M62.605 114.273a1.042 1.042 0 11-2.085 0 1.042 1.042 0 012.085 0M69.264 114.273a1.042 1.042 0 11-2.084 0 1.042 1.042 0 012.084 0M75.923 114.273a1.042 1.042 0 11-2.083 0 1.042 1.042 0 012.083 0M82.583 114.273a1.042 1.042 0 11-2.084 0 1.042 1.042 0 012.084 0M89.243 114.273a1.042 1.042 0 11-2.085 0 1.042 1.042 0 012.085 0M95.902 114.273a1.042 1.042 0 11-2.084 0 1.042 1.042 0 012.084 0M102.561 114.273a1.042 1.042 0 11-2.083 0 1.042 1.042 0 012.083 0M59.536 118.31a1.043 1.043 0 11-2.086-.001 1.043 1.043 0 012.086 0M66.195 118.31a1.042 1.042 0 11-2.084 0 1.042 1.042 0 012.084 0M72.854 118.31a1.042 1.042 0 11-2.084 0 1.042 1.042 0 012.084 0M79.514 118.31a1.043 1.043 0 11-2.085-.001 1.043 1.043 0 012.085 0M86.173 118.31a1.042 1.042 0 11-2.085-.001 1.042 1.042 0 012.085 0M92.833 118.31a1.042 1.042 0 11-2.085 0 1.042 1.042 0 012.085 0M99.492 118.31a1.042 1.042 0 11-2.084 0 1.042 1.042 0 012.084 0M106.152 118.31a1.043 1.043 0 11-2.085-.001 1.043 1.043 0 012.085 0M62.605 122.323a1.043 1.043 0 11-2.086 0 1.043 1.043 0 012.086 0M69.264 122.323a1.043 1.043 0 11-2.085 0 1.043 1.043 0 012.085 0M75.923 122.323a1.042 1.042 0 11-2.084 0 1.042 1.042 0 012.084 0M82.583 122.323a1.042 1.042 0 11-2.085 0 1.042 1.042 0 012.085 0M89.243 122.323a1.043 1.043 0 11-2.086 0 1.043 1.043 0 012.086 0M95.902 122.323a1.042 1.042 0 11-2.085 0 1.042 1.042 0 012.085 0M102.561 122.323a1.042 1.042 0 11-2.084 0 1.042 1.042 0 012.084 0M59.536 126.36a1.043 1.043 0 11-2.086-.002 1.043 1.043 0 012.086.001M66.195 126.36a1.042 1.042 0 11-2.084-.001 1.042 1.042 0 012.084 0M72.854 126.36a1.042 1.042 0 11-2.084-.001 1.042 1.042 0 012.084 0M79.514 126.36a1.043 1.043 0 11-2.085-.002 1.043 1.043 0 012.085.001M86.173 126.36a1.042 1.042 0 11-2.085-.002 1.042 1.042 0 012.085.001M92.833 126.36a1.042 1.042 0 11-2.085-.001 1.042 1.042 0 012.085 0M99.492 126.36a1.042 1.042 0 11-2.084-.001 1.042 1.042 0 012.084 0M106.152 126.36a1.043 1.043 0 11-2.085-.002 1.043 1.043 0 012.085.001M62.605 130.372a1.043 1.043 0 11-2.086 0 1.043 1.043 0 012.086 0M69.264 130.372a1.043 1.043 0 11-2.085 0 1.043 1.043 0 012.085 0M75.923 130.372a1.042 1.042 0 11-2.084 0 1.042 1.042 0 012.084 0M82.583 130.372a1.042 1.042 0 11-2.085 0 1.042 1.042 0 012.085 0M89.243 130.372a1.043 1.043 0 11-2.086 0 1.043 1.043 0 012.086 0M95.902 130.372a1.042 1.042 0 11-2.085 0 1.042 1.042 0 012.085 0M102.561 130.372a1.042 1.042 0 11-2.084 0 1.042 1.042 0 012.084 0M59.536 134.408a1.043 1.043 0 11-2.086 0 1.043 1.043 0 012.086 0M66.195 134.408a1.042 1.042 0 11-2.085 0 1.042 1.042 0 012.085 0M72.854 134.408a1.042 1.042 0 11-2.084 0 1.042 1.042 0 012.084 0M79.514 134.408a1.043 1.043 0 11-2.085 0 1.043 1.043 0 012.085 0M86.173 134.408a1.043 1.043 0 11-2.085 0 1.043 1.043 0 012.085 0M92.833 134.408a1.042 1.042 0 11-2.085 0 1.042 1.042 0 012.085 0M99.492 134.408a1.042 1.042 0 11-2.085 0 1.042 1.042 0 012.085 0M106.152 134.408a1.043 1.043 0 11-2.086 0 1.043 1.043 0 012.086 0M62.605 138.421a1.043 1.043 0 11-2.086 0 1.043 1.043 0 012.086 0M69.264 138.421a1.043 1.043 0 11-2.085 0 1.043 1.043 0 012.085 0M75.923 138.421a1.042 1.042 0 11-2.084 0 1.042 1.042 0 012.084 0M82.583 138.421a1.042 1.042 0 11-2.085 0 1.042 1.042 0 012.085 0M89.243 138.421a1.043 1.043 0 11-2.086 0 1.043 1.043 0 012.086 0M95.902 138.421a1.042 1.042 0 11-2.085 0 1.042 1.042 0 012.085 0M102.561 138.421a1.042 1.042 0 11-2.084 0 1.042 1.042 0 012.084 0M59.536 142.457a1.043 1.043 0 11-2.086 0 1.043 1.043 0 012.086 0M66.195 142.457a1.042 1.042 0 11-2.085.001 1.042 1.042 0 012.085 0M72.854 142.457a1.042 1.042 0 11-2.084.001 1.042 1.042 0 012.084 0M79.514 142.457a1.043 1.043 0 11-2.085 0 1.043 1.043 0 012.085 0M86.173 142.457a1.043 1.043 0 11-2.085 0 1.043 1.043 0 012.085 0M92.833 142.457a1.042 1.042 0 11-2.085.001 1.042 1.042 0 012.085 0M99.492 142.457a1.042 1.042 0 11-2.085.001 1.042 1.042 0 012.085 0M106.152 142.457a1.043 1.043 0 11-2.086 0 1.043 1.043 0 012.086 0" mask="url(#prefix__b)"/>
        </g>
        <path fill="#FFF" fill-rule="nonzero" d="M45.015 97.258c3.447 0 6.161-.898 8.143-2.694 1.983-1.795 2.974-4.488 2.974-8.079V68h-8.704v18.356c0 1.005-.295 1.795-.884 2.37-.589.574-1.357.862-2.305.862-1.207 0-2.442-.431-3.706-1.293L37 94.931c2.01 1.55 4.682 2.327 8.015 2.327zm31.929-.518V68h-7.498L58.458 78.772l4.913 5.128 4.869-4.826V96.74h8.704z"/>
    </g>
</svg>
