<svg xmlns="http://www.w3.org/2000/svg" xmlns:xlink="http://www.w3.org/1999/xlink" width="115" height="165" viewBox="0 0 115 165">
    <defs>
        <path id="prefix__a" d="M0 164.234L114.864 164.234 114.864 0 0 0z"/>
    </defs>
    <g fill="none" fill-rule="evenodd">
        <path fill="#24E1CB" d="M0 164.759L114.864 164.759 114.864 0.525 0 0.525z"/>
        <g transform="translate(0 .285)">
            <path fill="#F14BF3" d="M41.609 149.99a4.47 4.47 0 11-8.94-.002 4.47 4.47 0 018.94.001"/>
            <path fill="#FFF" d="M108.59 140.093a.62.62 0 11-1.238 0 .62.62 0 011.239 0M51.847 26.515a.62.62 0 11-1.238 0 .62.62 0 011.238 0M26.767 83.9a.619.619 0 11-1.238 0 .619.619 0 011.238 0M60.241 148.86a.62.62 0 11-1.24 0 .62.62 0 011.24 0M93.398 66.174a.62.62 0 11-1.238 0 .62.62 0 011.238 0M9.72 122.315L11.266 123.861 12.813 122.315 11.266 120.769zM17.553 122.315L19.099 123.861 20.645 122.315 19.099 120.769zM28.478 122.315L26.932 120.769 25.385 122.315 26.932 123.861zM9.72 130.431L11.266 131.977 12.813 130.431 11.266 128.885zM17.553 130.431L19.099 131.977 20.645 130.431 19.099 128.885zM25.385 130.431L26.931 131.977 28.478 130.431 26.931 128.885zM9.72 138.547L11.266 140.093 12.813 138.547 11.266 137.001zM17.553 138.547L19.099 140.093 20.645 138.547 19.099 137.001zM25.385 138.547L26.931 140.093 28.478 138.547 26.931 137.001z"/>
            <mask id="prefix__b" fill="#fff">
                <use xlink:href="#prefix__a"/>
            </mask>
            <path fill="#FFF" d="M18.058 113.552h6.949v-6.949h-6.95v6.95zm-1.043 1.042h9.034v-9.033h-9.034v9.033zM66.346 143.568h6.949v-6.95h-6.95v6.95zm-1.042 1.042h9.033v-9.033h-9.033v9.033zM47.043 142.367h3.61v-3.61h-3.61v3.61zM46 143.409h5.694v-5.694H46v5.694zM73.292 18.043h3.61v-3.61h-3.61v3.61zm-1.042 1.043h5.694v-5.694H72.25v5.694zM19.819 77.797h3.61v-3.61h-3.61v3.61zm-1.042 1.042h5.694v-5.694h-5.694v5.694zM25.003 39.038h6.95v-6.95h-6.95v6.95zm-1.042 1.042h9.034v-9.033H23.96v9.033zM94.47 53.27h11.292V41.978H94.47V53.27zm-1.043 1.042h13.377V40.935H93.427v13.377zM87.789 129.19H99.08v-11.292H87.789v11.292zm-1.043 1.042h13.377v-13.376H86.746v13.376z" mask="url(#prefix__b)"/>
            <path fill="#FFF" d="M102.271 57.008h6.434v-6.433h-6.434v6.433zm-1.042 1.042h8.519v-8.518h-8.519v8.518zM44.481 17.591h6.434v-6.434H44.48v6.434zm-1.043 1.043h8.519v-8.519h-8.519v8.519zM23.383 155.635h11.292v-11.292H23.383v11.292zm-1.042 1.042h13.377V143.3H22.34v13.377zM9.719 108.34H21.01V97.048H9.719v11.292zm-1.043 1.042h13.377V96.006H8.676v13.376z" mask="url(#prefix__b)"/>
            <path fill="#7137B0" d="M102.793 79.779a2.447 2.447 0 110-4.894 2.447 2.447 0 010 4.894m0-6.38a3.933 3.933 0 100 7.866 3.933 3.933 0 000-7.866M93.933 101.096a2.447 2.447 0 110-4.895 2.447 2.447 0 010 4.895m0-6.38a3.933 3.933 0 100 7.865 3.933 3.933 0 000-7.866M31.933 55.096a2.447 2.447 0 110-4.894 2.447 2.447 0 010 4.894m0-6.38a3.933 3.933 0 100 7.866 3.933 3.933 0 000-7.867M11.2 50.071a2.447 2.447 0 110-4.893 2.447 2.447 0 010 4.893m0-6.38a3.933 3.933 0 100 7.866 3.933 3.933 0 000-7.866M91.405 160.459a5.354 5.354 0 0110.707 0h3.25a8.605 8.605 0 00-17.21 0h3.253zM4.109 69.942a5.353 5.353 0 110 10.706V83.9a8.605 8.605 0 000-17.21v3.252z" mask="url(#prefix__b)"/>
            <path fill="#F14BF3" d="M77.175 45.836a5.414 5.414 0 11-10.828 0 5.414 5.414 0 0110.828 0M69.227 109.829a2.113 2.113 0 11-4.226 0 2.113 2.113 0 014.226 0M79.536 154.459a2.113 2.113 0 11-4.225 0 2.113 2.113 0 014.225 0M26.436 14.618a4.405 4.405 0 11-8.81 0 4.405 4.405 0 018.81 0" mask="url(#prefix__b)"/>
            <path fill="#7137B0" d="M83.43 134.49a2.512 2.512 0 11-5.024 0 2.512 2.512 0 015.023 0M41.254 126.373a2.512 2.512 0 11-5.024 0 2.512 2.512 0 015.024 0M89.462 35.563a1.309 1.309 0 11-2.617 0 1.309 1.309 0 012.617 0M56.681 122.315a1.309 1.309 0 11-2.617 0 1.309 1.309 0 012.617 0M15.924 147.552a1.309 1.309 0 11-2.618 0 1.309 1.309 0 012.618 0M37.305 25.901a1.31 1.31 0 11-2.618 0 1.31 1.31 0 012.618 0M26.836 91.944a.752.752 0 11-1.504 0 .752.752 0 011.504 0M105.41 114.073a1.309 1.309 0 11-2.617 0 1.309 1.309 0 012.617 0" mask="url(#prefix__b)"/>
            <path fill="#FFF" d="M87.019 11.215L88.565 12.762 90.112 11.215 88.565 9.669zM94.851 11.215L96.398 12.762 97.944 11.215 96.398 9.669zM105.777 11.215L104.231 9.669 102.684 11.215 104.231 12.762zM87.019 19.331L88.565 20.877 90.112 19.331 88.565 17.785zM94.851 19.331L96.398 20.877 97.944 19.331 96.398 17.785zM102.684 19.331L104.23 20.877 105.777 19.331 104.23 17.785zM87.019 27.447L88.565 28.993 90.112 27.447 88.565 25.901zM94.851 27.447L96.398 28.993 97.944 27.447 96.398 25.901zM102.684 27.447L104.23 28.993 105.777 27.447 104.23 25.901zM14.99 19.995a5.378 5.378 0 110-10.755 5.378 5.378 0 010 10.755m0-12.451a7.074 7.074 0 100 14.148 7.074 7.074 0 000-14.148M61.695 52.02a6.61 6.61 0 110-13.22 6.61 6.61 0 010 13.22m0-15.305a8.695 8.695 0 100 17.39 8.695 8.695 0 000-17.39" mask="url(#prefix__b)"/>
        </g>
        <path fill="#FFF" fill-rule="nonzero" d="M42.015 97.688c3.447 0 6.161-.897 8.143-2.693 1.983-1.795 2.974-4.488 2.974-8.079V68.431h-8.704v18.356c0 1.005-.295 1.795-.884 2.37-.589.574-1.357.862-2.305.862-1.207 0-2.442-.431-3.706-1.293L34 95.362c2.01 1.55 4.682 2.326 8.015 2.326zm38.694-.517v-7.583h-9.35c3.36-2.212 5.716-4.209 7.066-5.99 1.35-1.78 2.025-3.677 2.025-5.687 0-2.902-1.127-5.279-3.382-7.132C74.813 68.926 71.832 68 68.127 68c-2.212 0-4.403.395-6.571 1.185a14.11 14.11 0 00-5.58 3.684l4.74 5.774c2.355-1.982 4.883-2.973 7.583-2.973.948 0 1.738.208 2.37.625.632.416.948.955.948 1.616 0 .574-.108 1.077-.323 1.508-.216.43-.884 1.134-2.004 2.111-1.12.977-2.52 2.068-4.201 3.275-1.68 1.206-4.302 3.073-7.864 5.601v6.765H80.71z"/>
    </g>
</svg>
