<svg xmlns="http://www.w3.org/2000/svg" width="116" height="165" viewBox="0 0 116 165">
    <g fill="none" fill-rule="evenodd">
        <path fill="#00C8FB" d="M0 164.759L115.231 164.759 115.231 0 0 0z"/>
        <path fill="#FFF" d="M84.39 77.916L83.732 78.575 83.074 77.916 83.732 77.258zM87.724 77.916L87.066 78.575 86.407 77.916 87.066 77.258zM91.058 77.916L90.4 78.575 89.741 77.916 90.4 77.258zM94.392 77.916L93.734 78.575 93.075 77.916 93.734 77.258zM97.725 77.916L97.067 78.575 96.409 77.916 97.067 77.258zM101.059 77.916L100.401 78.575 99.743 77.916 100.401 77.258zM104.393 77.916L103.735 78.575 103.077 77.916 103.735 77.258zM107.727 77.916L107.069 78.575 106.411 77.916 107.069 77.258zM84.39 81.371L83.732 82.029 83.074 81.371 83.732 80.713zM87.724 81.371L87.066 82.029 86.407 81.371 87.066 80.713zM91.058 81.371L90.4 82.029 89.741 81.371 90.4 80.713zM94.392 81.371L93.734 82.029 93.075 81.371 93.734 80.713zM97.725 81.371L97.067 82.029 96.409 81.371 97.067 80.713zM101.059 81.371L100.401 82.029 99.743 81.371 100.401 80.713zM104.393 81.371L103.735 82.029 103.077 81.371 103.735 80.713zM107.727 81.371L107.069 82.029 106.411 81.371 107.069 80.713zM84.39 84.825L83.732 85.484 83.074 84.825 83.732 84.167zM87.724 84.825L87.066 85.484 86.407 84.825 87.066 84.167zM91.058 84.825L90.4 85.484 89.741 84.825 90.4 84.167zM94.392 84.825L93.734 85.484 93.075 84.825 93.734 84.167zM97.725 84.825L97.067 85.484 96.409 84.825 97.067 84.167zM101.059 84.825L100.401 85.484 99.743 84.825 100.401 84.167zM104.393 84.825L103.735 85.484 103.077 84.825 103.735 84.167zM107.727 84.825L107.069 85.484 106.411 84.825 107.069 84.167zM84.39 88.28L83.732 88.938 83.074 88.28 83.732 87.622zM87.724 88.28L87.066 88.938 86.407 88.28 87.066 87.622zM91.058 88.28L90.4 88.938 89.741 88.28 90.4 87.622zM94.392 88.28L93.734 88.938 93.075 88.28 93.734 87.622zM97.725 88.28L97.067 88.938 96.409 88.28 97.067 87.622zM101.059 88.28L100.401 88.938 99.743 88.28 100.401 87.622zM104.393 88.28L103.735 88.938 103.077 88.28 103.735 87.622zM107.727 88.28L107.069 88.938 106.411 88.28 107.069 87.622zM84.39 91.734L83.732 92.393 83.074 91.734 83.732 91.077zM87.724 91.734L87.066 92.393 86.407 91.734 87.066 91.077zM91.058 91.734L90.4 92.393 89.741 91.734 90.4 91.077zM94.392 91.734L93.734 92.393 93.075 91.734 93.734 91.077zM97.725 91.734L97.067 92.393 96.409 91.734 97.067 91.077zM101.059 91.734L100.401 92.393 99.743 91.734 100.401 91.077zM104.393 91.734L103.735 92.393 103.077 91.734 103.735 91.077zM107.727 91.734L107.069 92.393 106.411 91.734 107.069 91.077zM84.39 95.189L83.732 95.847 83.074 95.189 83.732 94.531zM87.724 95.189L87.066 95.847 86.407 95.189 87.066 94.531zM91.058 95.189L90.4 95.847 89.741 95.189 90.4 94.531zM94.392 95.189L93.734 95.847 93.075 95.189 93.734 94.531zM97.725 95.189L97.067 95.847 96.409 95.189 97.067 94.531zM101.059 95.189L100.401 95.847 99.743 95.189 100.401 94.531zM104.393 95.189L103.735 95.847 103.077 95.189 103.735 94.531zM107.727 95.189L107.069 95.847 106.411 95.189 107.069 94.531zM84.39 98.644L83.732 99.302 83.074 98.644 83.732 97.986zM87.724 98.644L87.066 99.302 86.407 98.644 87.066 97.986zM91.058 98.644L90.4 99.302 89.741 98.644 90.4 97.986zM94.392 98.644L93.734 99.302 93.075 98.644 93.734 97.986zM97.725 98.644L97.067 99.302 96.409 98.644 97.067 97.986zM101.059 98.644L100.401 99.302 99.743 98.644 100.401 97.986zM104.393 98.644L103.735 99.302 103.077 98.644 103.735 97.986zM107.727 98.644L107.069 99.302 106.411 98.644 107.069 97.986zM84.39 102.098L83.732 102.756 83.074 102.098 83.732 101.44zM87.724 102.098L87.066 102.756 86.407 102.098 87.066 101.44zM91.058 102.098L90.4 102.756 89.741 102.098 90.4 101.44zM94.392 102.098L93.734 102.756 93.075 102.098 93.734 101.44zM97.725 102.098L97.067 102.756 96.409 102.098 97.067 101.44zM101.059 102.098L100.401 102.756 99.743 102.098 100.401 101.44zM104.393 102.098L103.735 102.756 103.077 102.098 103.735 101.44zM107.727 102.098L107.069 102.756 106.411 102.098 107.069 101.44z"/>
        <g>
            <path fill="#FFF" d="M69.565 44.943a1.057 1.057 0 11-2.114 0 1.057 1.057 0 012.114 0M104.63 107.81a1.058 1.058 0 11-2.116 0 1.058 1.058 0 012.115 0M41.12 139.018a1.057 1.057 0 11-2.113 0 1.057 1.057 0 012.114 0M90.046 27.436a1.057 1.057 0 11-2.114 0 1.057 1.057 0 012.114 0M4.773 68.875a.622.622 0 11-1.244 0 .622.622 0 011.244 0M77.07 140.971a.621.621 0 11-1.243 0 .621.621 0 011.242 0M60.512 133.832a.622.622 0 11-1.243 0 .622.622 0 011.243 0M90.667 101.823a.621.621 0 11-1.242 0 .621.621 0 011.242 0M17.1 144.894a.622.622 0 11-1.242 0 .622.622 0 011.243 0M58.498 22.901a.621.621 0 11-1.242 0 .621.621 0 011.242 0M7.442 53.708L8.406 54.673 9.371 53.708 8.406 52.743zM12.329 53.708L13.294 54.673 14.259 53.708 13.294 52.743zM19.147 53.708L18.182 52.743 17.217 53.708 18.182 54.673zM7.442 58.773L8.406 59.737 9.371 58.773 8.406 57.808zM12.329 58.773L13.294 59.737 14.259 58.773 13.294 57.808zM17.217 58.773L18.182 59.737 19.147 58.773 18.182 57.808zM7.442 63.837L8.406 64.802 9.371 63.837 8.406 62.872zM12.329 63.837L13.294 64.802 14.259 63.837 13.294 62.872zM17.217 63.837L18.182 64.802 19.147 63.837 18.182 62.872zM63.712 118.818L64.677 119.783 65.642 118.818 64.677 117.853zM68.6 118.818L69.565 119.783 70.53 118.818 69.565 117.853zM75.417 118.818L74.452 117.853 73.488 118.818 74.452 119.783zM63.712 123.883L64.677 124.848 65.642 123.883 64.677 122.918zM68.6 123.883L69.565 124.848 70.53 123.883 69.565 122.918zM73.488 123.883L74.452 124.848 75.417 123.883 74.452 122.918zM63.712 128.947L64.677 129.912 65.642 128.947 64.677 127.983zM68.6 128.947L69.565 129.912 70.53 128.947 69.565 127.983zM73.488 128.947L74.452 129.912 75.417 128.947 74.452 127.983zM49.22 5.608a1.52 1.52 0 100 3.042 1.52 1.52 0 000-3.042m4.126 0a1.52 1.52 0 100 3.042 1.52 1.52 0 000-3.042m4.126 0a1.52 1.52 0 100 3.041 1.52 1.52 0 000-3.04m4.126 0a1.52 1.52 0 100 3.04 1.52 1.52 0 000-3.04m-14.822-3.33a1.52 1.52 0 100 3.042 1.52 1.52 0 000-3.041m4.126 0a1.52 1.52 0 100 3.041 1.52 1.52 0 000-3.041m4.125 0a1.52 1.52 0 100 3.041 1.52 1.52 0 000-3.041m2.605 1.52a1.52 1.52 0 113.041 0 1.52 1.52 0 01-3.04 0M19.306 107.256a1.437 1.437 0 100 2.874 1.437 1.437 0 000-2.874m3.897 0a1.437 1.437 0 100 2.874 1.437 1.437 0 000-2.874m3.897 0a1.437 1.437 0 100 2.873 1.437 1.437 0 000-2.873m3.897 0a1.437 1.437 0 100 2.874 1.437 1.437 0 000-2.874m-14-3.145a1.437 1.437 0 100 2.874 1.437 1.437 0 000-2.874m3.897 0a1.437 1.437 0 100 2.875 1.437 1.437 0 000-2.875m3.897 0a1.437 1.437 0 100 2.874 1.437 1.437 0 000-2.874m2.46 1.437a1.437 1.437 0 112.875 0 1.437 1.437 0 01-2.875 0M88.178 127.328a1.581 1.581 0 100 3.163 1.581 1.581 0 000-3.163m4.29 0a1.581 1.581 0 10-.001 3.162 1.581 1.581 0 000-3.162m4.29 0a1.581 1.581 0 100 3.163 1.581 1.581 0 000-3.163m4.29 0a1.581 1.581 0 100 3.163 1.581 1.581 0 000-3.163m-15.411-3.461a1.581 1.581 0 100 3.162 1.581 1.581 0 000-3.162m4.29 0a1.581 1.581 0 10-.001 3.162 1.581 1.581 0 000-3.162m4.29 0a1.581 1.581 0 100 3.162 1.581 1.581 0 000-3.162m2.709 1.581a1.581 1.581 0 113.162 0 1.581 1.581 0 01-3.162 0" transform="translate(4.744 8.72)"/>
            <path fill="#E2A1F6" d="M85.525 38.478c.797 0 1.516.3 2.077.781l-.004-.02c5.131 3.702 7.474-.678 7.474-.678v.005a6.287 6.287 0 015.461-3.173 6.294 6.294 0 010 12.588 6.286 6.286 0 01-5.46-3.172v.006s-2.344-4.381-7.475-.679l.004-.02a3.18 3.18 0 01-2.077.78 3.21 3.21 0 010-6.418M23.569 114.178a3.51 3.51 0 00-2.291.862l.003-.023c-5.66 4.084-8.244-.748-8.244-.748v.006a6.937 6.937 0 00-6.025-3.5 6.943 6.943 0 100 13.887c2.58 0 4.828-1.41 6.025-3.5v.006s2.584-4.833 8.244-.748l-.003-.023a3.51 3.51 0 002.29.862 3.541 3.541 0 000-7.081" transform="translate(4.744 8.72)"/>
            <path fill="#8C8AF8" d="M61.246 103.802c.733 0 1.394.277 1.91.718l-.003-.019c4.718 3.405 6.872-.623 6.872-.623v.005a5.783 5.783 0 015.022-2.918 5.788 5.788 0 010 11.576 5.782 5.782 0 01-5.022-2.917v.005s-2.154-4.029-6.872-.624l.003-.02a2.924 2.924 0 01-1.91.719 2.95 2.95 0 110-5.902" transform="translate(4.744 8.72)"/>
            <path fill="#7A96FA" d="M92.211 56.123c0-.369-.14-.703-.362-.963l.01.002c-1.718-2.381.314-3.468.314-3.468h-.002a2.92 2.92 0 10-2.896 0h-.003s2.032 1.087.315 3.468l.01-.002c-.224.26-.363.594-.363.963a1.488 1.488 0 102.977 0M49.31 44.282c0-.34-.13-.647-.334-.886l.009.001c-1.58-2.188.29-3.188.29-3.188h-.003a2.682 2.682 0 00-1.332-5.014 2.685 2.685 0 00-1.332 5.014h-.002s1.869 1 .29 3.188l.009-.001c-.206.239-.334.546-.334.886a1.37 1.37 0 102.738 0" transform="translate(4.744 8.72)"/>
            <path fill="#6177C7" d="M18.912 134.21a1.63 1.63 0 00-.4-1.063l.011.001c-1.894-2.625.348-3.825.348-3.825h-.003a3.221 3.221 0 10-3.196 0h-.002s2.242 1.2.347 3.825l.01-.001c-.245.287-.399.656-.399 1.063a1.642 1.642 0 103.284 0" transform="translate(4.744 8.72)"/>
            <path fill="#7A96FA" d="M63.945 147.442c0-.34-.128-.647-.334-.886l.01.002c-1.58-2.19.289-3.19.289-3.19h-.002a2.685 2.685 0 10-2.664 0h-.002s1.869 1 .29 3.19l.008-.002c-.205.24-.333.546-.333.886a1.369 1.369 0 102.738 0" transform="translate(4.744 8.72)"/>
            <path fill="#E2A1F6" d="M9.961 4.841c.92 0 1.75.348 2.398.902l-.004-.024c5.924 4.275 8.63-.782 8.63-.782v.005a7.26 7.26 0 016.304-3.662 7.267 7.267 0 010 14.534 7.26 7.26 0 01-6.305-3.663v.006s-2.705-5.058-8.629-.783l.004-.023a3.677 3.677 0 01-2.398.902 3.706 3.706 0 010-7.412" transform="translate(4.744 8.72)"/>
            <path fill="#6177C7" d="M30.284 18.6c-.427 0-.811.161-1.112.418l.002-.011c-2.748 1.983-4.004-.363-4.004-.363v.003a3.372 3.372 0 10-2.925 5.043 3.368 3.368 0 002.925-1.699v.003s1.256-2.347 4.004-.364l-.002-.01c.3.257.685.417 1.112.417a1.719 1.719 0 100-3.437M100.502 2c-.426 0-.812.162-1.112.419l.002-.011c-2.749 1.983-4.003-.363-4.003-.363v.002a3.372 3.372 0 100 3.345v.002s1.254-2.346 4.003-.363l-.002-.01c.3.257.686.417 1.112.417a1.719 1.719 0 100-3.438" transform="translate(4.744 8.72)"/>
            <path fill="#7A96FA" d="M100.174 136.592c-.34 0-.647.128-.886.333l.001-.009c-2.188 1.58-3.188-.289-3.188-.289v.003a2.685 2.685 0 100 2.663v.002s1-1.869 3.188-.289v-.009c.238.205.545.333.885.333a1.37 1.37 0 100-2.738" transform="translate(4.744 8.72)"/>
            <path fill="#FFF" d="M101.543 22.524a1.993 1.993 0 110-3.987 1.993 1.993 0 010 3.987m0-5.197a3.203 3.203 0 100 6.407 3.203 3.203 0 000-6.407M74.46 21.476a1.993 1.993 0 110-3.987 1.993 1.993 0 010 3.987m0-5.196a3.203 3.203 0 10-.001 6.406 3.203 3.203 0 000-6.406M7.34 93.82a1.993 1.993 0 110-3.985 1.993 1.993 0 010 3.986m0-5.196a3.203 3.203 0 100 6.406 3.203 3.203 0 000-6.406M6.37 143.627a1.39 1.39 0 110-2.78 1.39 1.39 0 010 2.78m0-3.623a2.233 2.233 0 100 4.466 2.233 2.233 0 000-4.466M97.165 11.824a1.39 1.39 0 110-2.78 1.39 1.39 0 010 2.78m0-3.623a2.233 2.233 0 100 4.466 2.233 2.233 0 000-4.466M47.94 31.902a1.39 1.39 0 110-2.78 1.39 1.39 0 010 2.78m0-3.622a2.233 2.233 0 100 4.465 2.233 2.233 0 000-4.465M47.373 117.33a1.993 1.993 0 11-.002-3.985 1.993 1.993 0 01.002 3.985m0-5.196a3.203 3.203 0 100 6.406 3.203 3.203 0 000-6.406" transform="translate(4.744 8.72)"/>
        </g>
        <path fill="#FFF" fill-rule="nonzero" d="M42.04 96.783c3.458 0 6.182-.9 8.17-2.701 1.988-1.802 2.983-4.503 2.983-8.105V67.432H44.46v18.415c0 1.009-.295 1.801-.886 2.377-.591.577-1.362.865-2.313.865-1.21 0-2.45-.432-3.717-1.297L34 94.45c2.017 1.556 4.697 2.334 8.04 2.334zm26.455 0c3.746 0 6.772-.8 9.078-2.399 2.305-1.6 3.458-3.681 3.458-6.246 0-1.873-.699-3.415-2.097-4.625-1.397-1.21-2.975-1.917-4.733-2.118 1.844-.289 3.364-1.045 4.56-2.27 1.196-1.225 1.794-2.6 1.794-4.128 0-2.45-1.03-4.395-3.09-5.836-2.06-1.44-5.036-2.161-8.927-2.161-5.187 0-9.221 1.585-12.103 4.755l4.106 5.447c2.018-1.672 4.366-2.508 7.046-2.508 2.853 0 4.28.62 4.28 1.86 0 .95-1.326 1.426-3.977 1.426-2.42 0-3.819-.015-4.193-.044v7.738c.576-.058 1.974-.086 4.193-.086 1.787 0 2.975.122 3.566.367.59.245.886.641.886 1.189 0 .547-.36 1.008-1.08 1.383-.72.375-1.758.562-3.113.562-1.239 0-2.593-.238-4.063-.713-1.47-.476-2.723-1.16-3.76-2.054l-4.28 5.966c1.268 1.354 2.975 2.442 5.122 3.263 2.147.822 4.59 1.232 7.327 1.232z"/>
    </g>
</svg>
