<svg xmlns="http://www.w3.org/2000/svg" xmlns:xlink="http://www.w3.org/1999/xlink" width="116" height="165" viewBox="0 0 116 165">
    <defs>
        <path id="prefix__a" d="M0.381 0.113L9.985 0.113 9.985 15.897 0.381 15.897z"/>
        <path id="prefix__c" d="M0.468 0.492L11.227 0.492 11.227 7.039 0.468 7.039z"/>
        <path id="prefix__e" d="M0.183 0.457L9.957 0.457 9.957 16.241 0.183 16.241z"/>
        <path id="prefix__g" d="M0.371 0.373L13.178 0.373 13.178 8.303 0.371 8.303z"/>
    </defs>
    <g fill="none" fill-rule="evenodd">
        <path fill="#7137B0" d="M0 164.759L115.231 164.759 115.231 0 0 0z"/>
        <g>
            <path fill="#2ED8CD" d="M4.736 155.169a1.554 1.554 0 11-3.108 0 1.554 1.554 0 013.108 0" transform="translate(6.326 3.193)"/>
            <path fill="#D52FD9" d="M84.819 18.97a1.554 1.554 0 11-3.109 0 1.554 1.554 0 013.109 0" transform="translate(6.326 3.193)"/>
            <path fill="#FFF" d="M96.167 144.237a1.057 1.057 0 11-2.114 0 1.057 1.057 0 012.114 0M18.356 68.053a.49.49 0 11-.978 0 .49.49 0 01.978 0M101.317 152.867a.489.489 0 11-.977 0 .489.489 0 01.977 0M48.942 151.798a.49.49 0 11-.98 0 .49.49 0 01.98 0M3.624 110.73a.49.49 0 11-.979 0 .49.49 0 01.98 0M101.317 51.151a.49.49 0 11-.978 0 .49.49 0 01.978 0M3.135 52.868a.49.49 0 11-.979-.001.49.49 0 01.98 0M39.817 15.462a.49.49 0 11-.979 0 .49.49 0 01.979 0M59.464 132.833a.49.49 0 11-.98 0 .49.49 0 01.98 0M3.624 139.875a.49.49 0 11-.978-.001.49.49 0 01.978 0M78.905 151.309a.49.49 0 11-.978 0 .49.49 0 01.978 0M19.992.83a.49.49 0 11-.978 0 .49.49 0 01.978 0M66.937 151.309a.49.49 0 11-.979 0 .49.49 0 01.98 0M86.96 106.899a.489.489 0 11-.978 0 .489.489 0 01.977 0" transform="translate(6.326 3.193)"/>
            <path fill="#22E4CC" d="M9.648 16.272L10.458 17.082 11.268 16.272 10.458 15.462zM13.752 16.272L14.562 17.082 15.372 16.272 14.562 15.462zM19.477 16.272L18.666 15.462 17.856 16.272 18.666 17.082zM9.648 20.525L10.458 21.335 11.268 20.525 10.458 19.714zM13.752 20.525L14.562 21.335 15.372 20.525 14.562 19.714zM17.856 20.525L18.666 21.335 19.476 20.525 18.666 19.714zM9.648 24.777L10.458 25.588 11.268 24.777 10.458 23.967zM13.752 24.777L14.562 25.588 15.372 24.777 14.562 23.967zM17.856 24.777L18.666 25.588 19.476 24.777 18.666 23.967zM12.131 117.231L13.347 118.447 14.562 117.231 13.347 116.015zM18.288 117.231L19.503 118.447 20.718 117.231 19.503 116.015zM26.875 117.231L25.659 116.015 24.444 117.231 25.659 118.447zM12.131 123.61L13.347 124.826 14.562 123.61 13.347 122.395zM18.288 123.61L19.503 124.826 20.718 123.61 19.503 122.395zM24.444 123.61L25.66 124.826 26.875 123.61 25.66 122.395zM12.131 129.989L13.347 131.205 14.562 129.989 13.347 128.774zM18.288 129.989L19.503 131.205 20.718 129.989 19.503 128.774zM24.444 129.989L25.66 131.205 26.875 129.989 25.66 128.774zM76.796 114.295L77.606 115.105 78.416 114.295 77.606 113.484zM80.9 114.295L81.71 115.105 82.52 114.295 81.71 113.484zM86.625 114.295L85.814 113.484 85.004 114.295 85.814 115.105zM76.796 118.547L77.606 119.358 78.416 118.547 77.606 117.737zM80.9 118.547L81.71 119.358 82.52 118.547 81.71 117.737zM85.004 118.547L85.814 119.358 86.625 118.547 85.814 117.737zM76.796 122.8L77.606 123.61 78.416 122.8 77.606 121.99zM80.9 122.8L81.71 123.61 82.52 122.8 81.71 121.99zM85.004 122.8L85.814 123.61 86.625 122.8 85.814 121.99z" transform="translate(6.326 3.193)"/>
            <path fill="#FFF" d="M86.96 101.916a1.415 1.415 0 110-2.83 1.415 1.415 0 010 2.83m0-3.689a2.274 2.274 0 100 4.548 2.274 2.274 0 000-4.548M33.039 142.68a1.685 1.685 0 110-3.37 1.685 1.685 0 010 3.37m0-4.394a2.708 2.708 0 100 5.417 2.708 2.708 0 000-5.417" transform="translate(6.326 3.193)"/>
            <path fill="#D52FD9" d="M5.456 39.21a1.415 1.415 0 110-2.83 1.415 1.415 0 010 2.83m0-3.69a2.275 2.275 0 100 4.55 2.275 2.275 0 000-4.55" transform="translate(6.326 3.193)"/>
            <path fill="#FFF" d="M98.524 33.846a1.415 1.415 0 110-2.83 1.415 1.415 0 010 2.83m0-3.689a2.275 2.275 0 10.001 4.55 2.275 2.275 0 000-4.55M10.12 101.916a1.415 1.415 0 11.001-2.83 1.415 1.415 0 010 2.83m0-3.689a2.274 2.274 0 100 4.548 2.274 2.274 0 000-4.548" transform="translate(6.326 3.193)"/>
            <path fill="#D52FD9" d="M17.867 146.79a2.056 2.056 0 110-4.113 2.056 2.056 0 010 4.113m0-5.362a3.306 3.306 0 10.001 6.611 3.306 3.306 0 000-6.61M66.88 22.58a2.056 2.056 0 110-4.112 2.056 2.056 0 010 4.113m0-5.361a3.305 3.305 0 100 6.61 3.305 3.305 0 000-6.61" transform="translate(6.326 3.193)"/>
            <path fill="#2ED8CD" d="M75.572 145.236a2.056 2.056 0 110-4.113 2.056 2.056 0 010 4.113m0-5.361a3.305 3.305 0 100 6.61 3.305 3.305 0 000-6.61M94.356 8.186a2.056 2.056 0 110-4.112 2.056 2.056 0 010 4.112m0-5.361a3.305 3.305 0 100 6.61 3.305 3.305 0 000-6.61M99.254 133.834a3.845 3.845 0 11.001-7.69 3.845 3.845 0 010 7.69m0-10.024a6.179 6.179 0 00-6.18 6.18 6.179 6.179 0 1012.358 0 6.179 6.179 0 00-6.179-6.18M54.853 51.83a3.845 3.845 0 11.001-7.688 3.845 3.845 0 01-.001 7.689m0-10.024a6.179 6.179 0 00-6.179 6.18 6.179 6.179 0 1012.358 0 6.179 6.179 0 00-6.18-6.18" transform="translate(6.326 3.193)"/>
            <path fill="#FFF" d="M65.621 110.117a2.44 2.44 0 11-.001-4.88 2.44 2.44 0 01.001 4.88m0-6.364a3.923 3.923 0 100 7.846 3.923 3.923 0 000-7.846M41.597 44.17a2.44 2.44 0 11-.001-4.88 2.44 2.44 0 01.001 4.88m0-6.363a3.923 3.923 0 100 7.846 3.923 3.923 0 000-7.846" transform="translate(6.326 3.193)"/>
            <path fill="#2ED8CD" d="M97.662 70.11a2.056 2.056 0 110-4.113 2.056 2.056 0 010 4.112m0-5.36a3.305 3.305 0 100 6.61 3.305 3.305 0 000-6.61M27.293 9.358a2.056 2.056 0 110-4.113 2.056 2.056 0 010 4.113m0-5.362a3.306 3.306 0 100 6.612 3.306 3.306 0 000-6.612" transform="translate(6.326 3.193)"/>
            <path fill="#D52FD9" d="M37.695 121.835a2.243 2.243 0 011.633-1.615v-.915a3.139 3.139 0 00-2.552 2.53h.92zM40.399 120.22c.798.197 1.427.82 1.632 1.615h.919a3.137 3.137 0 00-2.551-2.53v.915zM39.328 124.57a2.242 2.242 0 01-1.645-1.664h-.914a3.136 3.136 0 002.559 2.58v-.916zM42.044 122.906a2.242 2.242 0 01-1.645 1.663v.917a3.138 3.138 0 002.559-2.58h-.914z" transform="translate(6.326 3.193)"/>
            <path fill="#FFF" d="M1.431 5.748a3.252 3.252 0 012.37-2.342v-1.33A4.553 4.553 0 00.099 5.748H1.43zM5.355 3.405a3.252 3.252 0 012.369 2.343h1.333a4.553 4.553 0 00-3.702-3.672v1.33zM3.8 9.716a3.253 3.253 0 01-2.387-2.414H.087a4.552 4.552 0 003.714 3.743V9.716zM7.742 7.302a3.254 3.254 0 01-2.387 2.414v1.33a4.553 4.553 0 003.712-3.744H7.742z" transform="translate(6.326 3.193)"/>
        </g>
        <g transform="translate(3.69 79.63)">
            <mask id="prefix__b" fill="#fff">
                <use xlink:href="#prefix__a"/>
            </mask>
            <path fill="#2ED8CD" d="M2.093 12.915a4.91 4.91 0 110-9.82 4.91 4.91 0 010 9.82m0-12.802a7.892 7.892 0 100 15.784 7.892 7.892 0 000-15.784" mask="url(#prefix__b)"/>
        </g>
        <g transform="translate(63.259 3.193)">
            <mask id="prefix__d" fill="#fff">
                <use xlink:href="#prefix__c"/>
            </mask>
            <path fill="#2ED8CD" d="M2.5 1.66a3.347 3.347 0 116.695 0 3.347 3.347 0 01-6.694 0m8.726 0a5.38 5.38 0 10-10.758 0 5.38 5.38 0 0010.758 0" mask="url(#prefix__d)"/>
        </g>
        <g transform="translate(101.741 94.391)">
            <mask id="prefix__f" fill="#fff">
                <use xlink:href="#prefix__e"/>
            </mask>
            <path fill="#FFF" d="M8.075 13.26a4.91 4.91 0 110-9.821 4.91 4.91 0 010 9.82m0-12.802a7.892 7.892 0 100 15.784 7.892 7.892 0 100-15.784" mask="url(#prefix__f)"/>
        </g>
        <g transform="translate(32.157 153.433)">
            <mask id="prefix__h" fill="#fff">
                <use xlink:href="#prefix__g"/>
            </mask>
            <path fill="#FFF" d="M2.79 6.776a3.984 3.984 0 117.968 0 3.984 3.984 0 01-7.967 0m10.387 0a6.403 6.403 0 10-12.806 0 6.403 6.403 0 0012.806 0" mask="url(#prefix__h)"/>
        </g>
        <path fill="#FFF" fill-rule="nonzero" d="M42.04 97.351c3.458 0 6.182-.9 8.17-2.702 1.988-1.8 2.983-4.502 2.983-8.105V68H44.46v18.415c0 1.008-.295 1.8-.886 2.377-.591.576-1.362.865-2.313.865-1.21 0-2.45-.433-3.717-1.297L34 95.017c2.017 1.556 4.697 2.334 8.04 2.334zm36.873-.519v-4.625h3.328v-7.608h-3.328V68H66.809L56.305 85.507v6.7h13.876v4.625h8.732zM70.18 84.6h-5.447l5.447-9.078V84.6z"/>
    </g>
</svg>
