<svg xmlns="http://www.w3.org/2000/svg" width="115" height="165" viewBox="0 0 115 165">
    <defs>
        <linearGradient id="prefix__a" x1="50%" x2="50%" y1="100%" y2="0%">
            <stop offset="0%" stop-color="#F749EF"/>
            <stop offset="100%" stop-color="#2DC3FF"/>
        </linearGradient>
    </defs>
    <g fill="none" fill-rule="evenodd">
        <path fill="#FFF" d="M0 164.759L114.864 164.759 114.864 0.525 0 0.525z"/>
        <g>
            <path fill="url(#prefix__a)" d="M0 164.234L114.864 164.234 114.864 0 0 0z" transform="translate(0 .285)"/>
            <path fill="#FFF" d="M90.81 51.127a2.61 2.61 0 00-2.606 2.606 2.61 2.61 0 002.606 2.605 2.609 2.609 0 002.605-2.605 2.609 2.609 0 00-2.605-2.606m0 5.906c-1.82 0-3.3-1.48-3.3-3.3 0-1.82 1.48-3.3 3.3-3.3 1.82 0 3.3 1.48 3.3 3.3 0 1.82-1.48 3.3-3.3 3.3M111.274 113.126a8.694 8.694 0 01-8.695 8.694 8.695 8.695 0 110-17.39 8.695 8.695 0 018.695 8.696M12.614 57.228a4.463 4.463 0 11-8.926 0 4.463 4.463 0 018.926 0" transform="translate(0 .285)"/>
            <path fill="#F14BF3" d="M24.665 98.972a8.3 8.3 0 11-8.3-8.3 8.3 8.3 0 018.3 8.3M83.304 135.613a4.395 4.395 0 11-8.79 0 4.395 4.395 0 018.79 0M105.898 14.483a4.135 4.135 0 11-8.27 0 4.135 4.135 0 018.27 0M103.586 147.013a1.823 1.823 0 11-3.646 0 1.823 1.823 0 013.646 0M54.088 140.788a1.823 1.823 0 11-3.645 0 1.823 1.823 0 013.645 0" transform="translate(0 .285)"/>
            <path fill="#FFF" d="M75.72 14.205a1.593 1.593 0 11-3.187 0 1.593 1.593 0 013.186 0" transform="translate(0 .285)"/>
            <path fill="#7137B0" d="M94.452 153.366a1.593 1.593 0 11-3.186 0 1.593 1.593 0 013.186 0" transform="translate(0 .285)"/>
            <path fill="#FFF" d="M45.547 132.811a1.593 1.593 0 11-3.187 0 1.593 1.593 0 013.187 0" transform="translate(0 .285)"/>
            <path fill="#7137B0" d="M12.374 82.058a1.593 1.593 0 11-3.186.001 1.593 1.593 0 013.186 0M11.252 9.346a1.593 1.593 0 11-3.185 0 1.593 1.593 0 013.185 0" transform="translate(0 .285)"/>
            <path fill="#FFF" d="M16.77 144.214a1.593 1.593 0 11-3.187 0 1.593 1.593 0 013.187 0" transform="translate(0 .285)"/>
            <path fill="#F14BF3" d="M22.268 15.799a1.127 1.127 0 11-2.255 0 1.127 1.127 0 012.255 0M110.347 68.693a.78.78 0 11-1.56 0 .78.78 0 011.56 0M102.543 61.93a.78.78 0 11-1.56 0 .78.78 0 011.56 0M30.26 54.224a.78.78 0 11-1.56 0 .78.78 0 011.56 0M38.56 38.495a.78.78 0 11-1.56-.001.78.78 0 011.56.001M12.614 124.683a.78.78 0 11-1.56-.001.78.78 0 011.56 0M103.323 157.91a.78.78 0 11-1.56 0 .78.78 0 011.56 0M79.255 59.843a1.128 1.128 0 11-2.255 0 1.128 1.128 0 012.255 0M107.025 38.643a1.127 1.127 0 11-2.255 0 1.127 1.127 0 012.255 0M81.933 97.568L83.479 99.114 85.026 97.568 83.479 96.022zM89.766 97.568L91.312 99.114 92.859 97.568 91.312 96.022zM100.691 97.568L99.145 96.022 97.598 97.568 99.145 99.114zM81.933 105.684L83.479 107.23 85.026 105.684 83.479 104.138zM89.766 105.684L91.312 107.23 92.859 105.684 91.312 104.138zM97.598 105.684L99.145 107.23 100.691 105.684 99.145 104.138zM81.933 113.8L83.479 115.346 85.026 113.8 83.479 112.254zM89.766 113.8L91.312 115.346 92.859 113.8 91.312 112.254zM97.598 113.8L99.145 115.346 100.691 113.8 99.145 112.254z" transform="translate(0 .285)"/>
            <path fill="#FFF" d="M19.737 91.28L20.613 92.155 21.488 91.28 20.613 90.405zM24.171 91.28L25.046 92.155 25.922 91.28 25.046 90.405zM30.355 91.28L29.48 90.405 28.604 91.28 29.48 92.155zM19.737 95.874L20.613 96.749 21.488 95.874 20.613 94.999zM24.171 95.874L25.046 96.749 25.922 95.874 25.046 94.999zM28.605 95.874L29.48 96.749 30.356 95.874 29.48 94.999zM19.737 100.468L20.613 101.344 21.488 100.468 20.613 99.593zM24.171 100.468L25.046 101.344 25.922 100.468 25.046 99.593zM28.605 100.468L29.48 101.344 30.356 100.468 29.48 99.593zM52.776 33.231L53.651 34.106 54.526 33.231 53.651 32.356zM57.21 33.231L58.085 34.106 58.96 33.231 58.085 32.356zM63.394 33.231L62.518 32.356 61.643 33.231 62.518 34.106zM52.776 37.825L53.651 38.7 54.526 37.825 53.651 36.95zM57.21 37.825L58.085 38.7 58.96 37.825 58.085 36.95zM61.643 37.825L62.518 38.7 63.394 37.825 62.518 36.95zM52.776 42.419L53.651 43.295 54.526 42.419 53.651 41.544zM57.21 42.419L58.085 43.295 58.96 42.419 58.085 41.544zM61.643 42.419L62.518 43.295 63.394 42.419 62.518 41.544zM25.922 132.475L26.797 133.351 27.672 132.475 26.797 131.6zM30.355 132.475L31.231 133.351 32.106 132.475 31.231 131.6zM36.539 132.475L35.664 131.6 34.789 132.475 35.664 133.351zM25.922 137.07L26.797 137.944 27.672 137.07 26.797 136.194zM30.355 137.07L31.231 137.944 32.106 137.07 31.231 136.194zM34.789 137.07L35.664 137.944 36.539 137.07 35.664 136.194zM25.922 141.664L26.797 142.539 27.672 141.664 26.797 140.788zM30.355 141.664L31.231 142.539 32.106 141.664 31.231 140.788zM34.789 141.664L35.664 142.539 36.539 141.664 35.664 140.788zM82.349 20.21L83.224 21.085 84.099 20.21 83.224 19.334zM86.783 20.21L87.658 21.085 88.533 20.21 87.658 19.334zM92.967 20.21L92.092 19.334 91.216 20.21 92.092 21.085zM82.349 24.804L83.224 25.679 84.099 24.804 83.224 23.929zM86.783 24.804L87.658 25.679 88.533 24.804 87.658 23.929zM91.216 24.804L92.092 25.679 92.967 24.804 92.092 23.929zM82.349 29.398L83.224 30.273 84.099 29.398 83.224 28.523zM86.783 29.398L87.658 30.273 88.533 29.398 87.658 28.523zM91.216 29.398L92.092 30.273 92.967 29.398 92.092 28.523zM95.094 88.533a2.353 2.353 0 110-4.706 2.353 2.353 0 010 4.706m0-6.135a3.782 3.782 0 100 7.564 3.782 3.782 0 000-7.564M37.385 15.704a2.353 2.353 0 110-4.705 2.353 2.353 0 010 4.705m0-6.134a3.782 3.782 0 100 7.563 3.782 3.782 0 000-7.563M27.5 118.944a1.823 1.823 0 110-3.645 1.823 1.823 0 010 3.645m0-4.752a2.93 2.93 0 100 5.859 2.93 2.93 0 000-5.859M93.373 131.51a3.188 3.188 0 110-6.377v-1.937a5.125 5.125 0 100 10.251v-1.937z" transform="translate(0 .285)"/>
            <path fill="#7137B0" d="M24.739 20.501a5.353 5.353 0 11-10.707 0h-3.251a8.605 8.605 0 0017.209 0h-3.251zM59.876 160.664a5.353 5.353 0 1110.707 0h3.25a8.604 8.604 0 10-17.208 0h3.251z" transform="translate(0 .285)"/>
            <path fill="#2EC4FF" d="M105.572 73.705a3.81 3.81 0 01-7.618 0H95.64a6.122 6.122 0 1012.244 0h-2.313z" transform="translate(0 .285)"/>
            <path fill="#7137B0" d="M20.313 57.838a3.809 3.809 0 117.619 0h2.313a6.122 6.122 0 10-12.245 0h2.313z" transform="translate(0 .285)"/>
            <path fill="#FFF" d="M21.857 153.366a3.188 3.188 0 116.378 0h1.937a5.125 5.125 0 10-10.251 0h1.936zM12.614 46.366a3.189 3.189 0 000-6.378v-1.936a5.125 5.125 0 110 10.25v-1.936z" transform="translate(0 .285)"/>
        </g>
        <path fill="#FFF" fill-rule="nonzero" d="M42.015 97.258c3.447 0 6.161-.898 8.143-2.694 1.983-1.795 2.974-4.488 2.974-8.079V68h-8.704v18.356c0 1.005-.295 1.795-.884 2.37-.589.574-1.357.862-2.305.862-1.207 0-2.442-.431-3.706-1.293L34 94.931c2.01 1.55 4.682 2.327 8.015 2.327zm26.844 0c3.993 0 7.124-.941 9.394-2.823 2.269-1.881 3.404-4.416 3.404-7.605 0-2.786-.905-5.049-2.715-6.787-1.81-1.738-3.993-2.606-6.55-2.606-2.47 0-4.466.732-5.989 2.197v-4.05h13.272V68H57.699v17.451l5.99 1.379c1.407-1.321 3.188-1.982 5.342-1.982 1.264 0 2.212.222 2.844.668.632.445.948 1.012.948 1.702 0 .66-.337 1.22-1.012 1.68-.675.46-1.688.69-3.038.69-2.844 0-5.271-.833-7.282-2.5l-4.654 6.12c2.988 2.7 6.995 4.05 12.022 4.05z"/>
    </g>
</svg>
