<svg xmlns="http://www.w3.org/2000/svg" width="116" height="165" viewBox="0 0 116 165">
    <defs>
        <linearGradient id="prefix__a" x1="50%" x2="50%" y1="100%" y2="0%">
            <stop offset="0%" stop-color="#FD0"/>
            <stop offset="100%" stop-color="#F29724"/>
        </linearGradient>
    </defs>
    <g fill="none" fill-rule="evenodd">
        <path fill="url(#prefix__a)" d="M0 164.758L115.231 164.758 115.231 0 0 0z"/>
        <path fill="#FFF" d="M88.683 146.193L87.486 147.389 86.29 146.193 87.486 144.996zM91.78 146.193L90.583 147.389 89.387 146.193 90.583 144.996zM94.878 146.193L93.681 147.389 92.485 146.193 93.681 144.996zM28.75 112.967L27.553 114.164 26.356 112.967 27.553 111.771zM31.847 112.967L30.65 114.164 29.454 112.967 30.65 111.771zM34.944 112.967L33.748 114.164 32.551 112.967 33.748 111.771zM18.354 64.568L17.158 65.765 15.962 64.568 17.158 63.371zM21.452 64.568L20.255 65.765 19.059 64.568 20.255 63.371zM24.549 64.568L23.353 65.765 22.157 64.568 23.353 63.371zM105.033 49.139L103.836 50.336 102.639 49.139 103.836 47.942zM108.13 49.139L106.933 50.336 105.737 49.139 106.933 47.942zM111.227 49.139L110.031 50.336 108.834 49.139 110.031 47.942zM30.435 15.82L29.238 17.016 28.042 15.82 29.238 14.623zM33.532 15.82L32.335 17.016 31.139 15.82 32.335 14.623zM36.629 15.82L35.433 17.016 34.237 15.82 35.433 14.623zM12.965 141.626L11.078 143.512 9.192 141.626 11.078 139.739zM17.848 141.626L15.962 143.512 14.075 141.626 15.962 139.739zM22.732 141.626L20.845 143.512 18.959 141.626 20.845 139.739z"/>
        <g>
            <path fill="#FFF" d="M91.42 59.951a.621.621 0 11-1.242 0 .621.621 0 011.243 0M11.97 67.591a.622.622 0 11-1.243 0 .622.622 0 011.243 0M75.331 131.682a.622.622 0 11-1.243 0 .622.622 0 011.243 0M80.383 11.81a.622.622 0 11-1.243 0 .622.622 0 011.243 0M3.98 30.1a.622.622 0 11-1.244 0 .622.622 0 011.243 0M46.463 21.713L48.014 23.264 49.566 21.713 48.014 20.162zM54.321 21.713L55.871 23.264 57.423 21.713 55.871 20.162zM65.281 21.713L63.73 20.162 62.178 21.713 63.73 23.264zM46.463 29.855L48.014 31.406 49.566 29.855 48.014 28.304zM54.321 29.855L55.871 31.406 57.423 29.855 55.871 28.304zM62.178 29.855L63.729 31.406 65.281 29.855 63.729 28.304zM46.463 37.997L48.014 39.548 49.566 37.997 48.014 36.446zM54.321 37.997L55.871 39.548 57.423 37.997 55.871 36.446zM62.178 37.997L63.729 39.548 65.281 37.997 63.729 36.446zM33.438 126.345L34.989 127.896 36.54 126.345 34.989 124.794zM41.295 126.345L42.847 127.896 44.398 126.345 42.847 124.794zM52.255 126.345L50.704 124.794 49.153 126.345 50.704 127.896zM33.438 134.487L34.989 136.038 36.54 134.487 34.989 132.935zM41.295 134.487L42.847 136.038 44.398 134.487 42.847 132.935zM49.153 134.487L50.704 136.038 52.255 134.487 50.704 132.935zM33.438 142.629L34.989 144.18 36.54 142.629 34.989 141.078zM41.295 142.629L42.847 144.18 44.398 142.629 42.847 141.078zM49.153 142.629L50.704 144.18 52.255 142.629 50.704 141.078z" transform="translate(5.272 7.139)"/>
            <path fill="#EA5345" d="M89.091 74.902a.808.808 0 11-1.143 1.144.808.808 0 011.143-1.144M90.563 73.43a.808.808 0 11-1.144 1.144.808.808 0 011.144-1.143M92.034 71.96a.808.808 0 11-1.144 1.143.808.808 0 111.144-1.143M93.506 70.488a.808.808 0 11-1.144 1.143.808.808 0 011.144-1.143M94.977 69.017a.808.808 0 11-1.143 1.143.808.808 0 011.143-1.143M96.448 67.545a.808.808 0 11-1.143 1.144.808.808 0 011.143-1.144M97.92 66.074a.808.808 0 11-1.144 1.143.808.808 0 111.144-1.143M99.39 64.603a.808.808 0 11-1.143 1.143.808.808 0 111.144-1.143M100.863 63.131a.808.808 0 11-1.144 1.143.808.808 0 011.144-1.143M102.334 61.66a.808.808 0 11-1.143 1.143.808.808 0 011.143-1.143M103.805 60.188a.808.808 0 11-1.143 1.144.808.808 0 111.143-1.144M90.551 76.363a.808.808 0 11-1.143 1.143.808.808 0 111.143-1.143M92.023 74.891a.808.808 0 11-1.143 1.144.808.808 0 011.143-1.144M93.494 73.42a.808.808 0 11-1.143 1.143.808.808 0 011.143-1.143M94.966 71.949a.808.808 0 11-1.144 1.143.808.808 0 011.144-1.143M96.437 70.477a.808.808 0 11-1.143 1.143.808.808 0 111.143-1.143M97.908 69.006a.808.808 0 11-1.143 1.143.808.808 0 111.143-1.143M99.38 67.534a.808.808 0 11-1.143 1.144.808.808 0 011.143-1.144M100.851 66.063a.808.808 0 11-1.143 1.143.808.808 0 011.143-1.143M102.323 64.591a.808.808 0 11-1.144 1.144.808.808 0 111.144-1.144M103.794 63.12a.808.808 0 11-1.143 1.143.808.808 0 111.143-1.143M92.012 77.823a.808.808 0 11-1.144 1.143.808.808 0 011.144-1.143M93.483 76.351a.808.808 0 11-1.143 1.144.808.808 0 111.143-1.144M94.954 74.88a.808.808 0 11-1.143 1.144.808.808 0 111.143-1.144M96.426 73.409a.808.808 0 11-1.143 1.143.808.808 0 011.143-1.143M97.897 71.937a.808.808 0 11-1.143 1.144.808.808 0 011.143-1.144M99.369 70.466a.808.808 0 11-1.144 1.143.808.808 0 111.144-1.143M100.84 68.994a.808.808 0 11-1.143 1.144.808.808 0 111.143-1.144M102.312 67.523a.808.808 0 11-1.143 1.143.808.808 0 011.143-1.143M103.783 66.052a.808.808 0 11-1.143 1.143.808.808 0 011.143-1.143M93.472 79.283a.808.808 0 11-1.143 1.144.808.808 0 011.143-1.144M94.944 77.812a.808.808 0 11-1.144 1.143.808.808 0 011.144-1.143M96.415 76.34a.808.808 0 11-1.143 1.144.808.808 0 011.143-1.144M97.886 74.869a.808.808 0 11-1.143 1.143.808.808 0 111.143-1.143M99.357 73.397a.808.808 0 11-1.143 1.144.808.808 0 111.143-1.144M100.83 71.926a.808.808 0 11-1.144 1.144.808.808 0 011.143-1.144M102.3 70.455a.808.808 0 11-1.143 1.143.808.808 0 011.144-1.143M103.772 68.983a.808.808 0 11-1.143 1.144.808.808 0 011.143-1.144M94.932 80.743a.808.808 0 11-1.143 1.144.808.808 0 111.143-1.144M96.404 79.272a.808.808 0 11-1.144 1.144.808.808 0 111.144-1.144M97.875 77.8a.808.808 0 11-1.143 1.144.808.808 0 011.143-1.143M99.347 76.33a.808.808 0 11-1.144 1.143.808.808 0 011.144-1.144M100.818 74.858A.808.808 0 1199.675 76a.808.808 0 011.143-1.143M102.29 73.386a.808.808 0 11-1.144 1.144.808.808 0 111.143-1.144M103.76 71.915a.808.808 0 11-1.143 1.143.808.808 0 111.144-1.143M96.393 82.204a.808.808 0 11-1.144 1.143.808.808 0 011.144-1.143M97.864 80.732a.808.808 0 11-1.143 1.144.808.808 0 011.143-1.144M99.335 79.261a.808.808 0 11-1.143 1.143.808.808 0 011.143-1.143M100.807 77.79a.808.808 0 11-1.144 1.143.808.808 0 111.144-1.144M102.278 76.318a.808.808 0 11-1.143 1.144.808.808 0 011.143-1.144M103.75 74.847a.808.808 0 11-1.144 1.143.808.808 0 011.144-1.143M97.853 83.664a.808.808 0 11-1.144 1.144.808.808 0 111.144-1.144M99.324 82.193a.808.808 0 11-1.143 1.143.808.808 0 111.143-1.143M100.796 80.721a.808.808 0 11-1.143 1.144.808.808 0 011.143-1.144M102.267 79.25a.808.808 0 11-1.143 1.143.808.808 0 011.143-1.143M103.738 77.778a.808.808 0 11-1.143 1.144.808.808 0 111.143-1.144M99.313 85.124a.808.808 0 11-1.143 1.144.808.808 0 011.143-1.144M100.784 83.653a.808.808 0 11-1.143 1.143.808.808 0 011.143-1.143M102.256 82.181a.808.808 0 11-1.144 1.144.808.808 0 111.144-1.144M103.727 80.71a.808.808 0 11-1.143 1.143.808.808 0 111.143-1.143M100.773 86.585a.808.808 0 11-1.143 1.143.808.808 0 111.143-1.143M102.245 85.113a.808.808 0 11-1.143 1.143.808.808 0 011.143-1.143M103.716 83.642a.808.808 0 11-1.143 1.143.808.808 0 011.143-1.143M102.234 88.045a.808.808 0 11-1.144 1.143.808.808 0 011.144-1.143M103.705 86.573a.808.808 0 11-1.143 1.144.808.808 0 111.143-1.144M103.694 89.505a.808.808 0 11-1.143 1.143.808.808 0 011.143-1.143" transform="translate(5.272 7.139)"/>
            <path fill="#FFF" d="M75.866 115.964a.678.678 0 11-.96.958.678.678 0 01.96-.958M77.098 114.731a.678.678 0 11-.96.958.678.678 0 01.96-.958M78.33 113.499a.677.677 0 11-.957.958.677.677 0 01.957-.958M79.563 112.267a.677.677 0 11-.957.957.677.677 0 01.957-.957M80.795 111.034a.677.677 0 11-.957.958.677.677 0 01.957-.958M82.028 109.802a.677.677 0 11-.958.958.677.677 0 01.958-.958M83.26 108.57a.677.677 0 11-.957.957.677.677 0 01.957-.958M84.493 107.337a.677.677 0 11-.958.958.677.677 0 01.958-.958M85.725 106.105a.677.677 0 11-.957.957.677.677 0 01.957-.957M86.957 104.872a.677.677 0 11-.957.958.677.677 0 01.957-.958M88.19 103.64a.678.678 0 11-.96.958.678.678 0 01.96-.958M77.089 117.187a.677.677 0 11-.957.958.677.677 0 01.957-.958M78.321 115.954a.677.677 0 11-.957.958.677.677 0 01.957-.958M79.554 114.722a.677.677 0 11-.958.958.677.677 0 01.958-.958M80.786 113.49a.677.677 0 11-.957.958.677.677 0 01.957-.958M82.018 112.257a.677.677 0 11-.957.958.677.677 0 01.957-.958M83.25 111.025a.677.677 0 11-.956.958.677.677 0 01.957-.958M84.483 109.792a.677.677 0 11-.957.958.677.677 0 01.957-.958M85.716 108.56a.678.678 0 11-.96.958.678.678 0 01.96-.958M86.948 107.328a.678.678 0 11-.96.958.678.678 0 01.96-.958M88.18 106.095a.677.677 0 11-.957.958.677.677 0 01.957-.958M78.312 118.41a.677.677 0 11-.957.958.677.677 0 01.957-.958M79.544 117.177a.677.677 0 11-.957.958.677.677 0 01.957-.958M80.777 115.945a.677.677 0 11-.957.958.677.677 0 01.957-.958M82.01 114.713a.677.677 0 11-.958.957.677.677 0 01.957-.957M83.242 113.48a.677.677 0 11-.958.958.677.677 0 01.958-.958M84.474 112.248a.678.678 0 11-.96.958.678.678 0 01.96-.958M85.706 111.016a.678.678 0 11-.96.957.678.678 0 01.96-.957M86.938 109.783a.677.677 0 11-.957.958.677.677 0 01.957-.958M88.17 108.55a.677.677 0 11-.956.958.677.677 0 01.957-.957M79.535 119.633a.677.677 0 11-.957.958.677.677 0 01.957-.958M80.767 118.4a.677.677 0 11-.957.958.677.677 0 01.957-.958M82 117.168a.677.677 0 11-.957.958.677.677 0 01.957-.958M83.232 115.936a.678.678 0 11-.96.958.678.678 0 01.96-.958M84.464 114.703a.677.677 0 11-.957.958.677.677 0 01.957-.958M85.697 113.47a.677.677 0 11-.957.959.677.677 0 01.957-.958M86.93 112.238a.677.677 0 11-.958.958.677.677 0 01.957-.958M88.162 111.006a.677.677 0 11-.958.958.677.677 0 01.958-.958M80.758 120.856a.678.678 0 11-.96.958.678.678 0 01.96-.958M81.99 119.624a.678.678 0 11-.96.957.678.678 0 01.96-.957M83.223 118.391a.677.677 0 11-.958.958.677.677 0 01.958-.958M84.455 117.159a.677.677 0 11-.957.957.677.677 0 01.957-.957M85.687 115.926a.677.677 0 11-.957.958.677.677 0 01.957-.958M86.92 114.694a.677.677 0 11-.957.958.677.677 0 01.957-.958M88.152 113.462a.677.677 0 11-.957.957.677.677 0 01.957-.957M81.98 122.079a.677.677 0 11-.956.958.677.677 0 01.957-.958M83.213 120.847a.677.677 0 11-.957.958.677.677 0 01.957-.958M84.446 119.614a.677.677 0 11-.957.958.677.677 0 01.957-.958M85.678 118.382a.677.677 0 11-.957.958.677.677 0 01.957-.958M86.91 117.15a.677.677 0 11-.957.957.677.677 0 01.958-.958M88.143 115.917a.677.677 0 11-.957.958.677.677 0 01.957-.958M83.204 123.302a.677.677 0 11-.957.958.677.677 0 01.957-.958M84.436 122.07a.677.677 0 11-.957.957.677.677 0 01.957-.957M85.669 120.837a.677.677 0 11-.957.958.677.677 0 01.957-.958M86.901 119.605a.677.677 0 11-.957.958.677.677 0 01.957-.958M88.134 118.373a.677.677 0 11-.957.957.677.677 0 01.957-.957M84.427 124.525a.677.677 0 11-.957.958.677.677 0 01.957-.958M85.66 123.293a.677.677 0 11-.958.957.677.677 0 01.958-.957M86.892 122.06a.677.677 0 11-.957.958.677.677 0 01.957-.958M88.124 120.828a.678.678 0 11-.96.958.678.678 0 01.96-.958M85.65 125.748a.677.677 0 11-.957.958.677.677 0 01.957-.958M86.883 124.516a.678.678 0 11-.96.958.678.678 0 01.96-.958M88.115 123.283a.677.677 0 11-.957.958.677.677 0 01.957-.958M86.873 126.971a.677.677 0 11-.957.958.677.677 0 01.957-.958M88.105 125.739a.677.677 0 11-.957.958.677.677 0 01.957-.958M88.096 128.194a.677.677 0 11-.957.958.677.677 0 01.957-.958" transform="translate(5.272 7.139)"/>
            <path fill="#F29725" d="M27.412 138.288L19.544 146.157 19.544 130.419z" transform="translate(5.272 7.139)"/>
            <path fill="#FFF" d="M28.502 117.747a.48.48 0 10.678.678.48.48 0 00-.678-.678M27.63 116.875a.48.48 0 10.678.678.48.48 0 00-.678-.678M26.758 116.002a.48.48 0 10.678.678.48.48 0 00-.678-.678M25.886 115.13a.48.48 0 10.678.678.48.48 0 00-.678-.678M25.014 114.258a.48.48 0 10.678.678.48.48 0 00-.678-.678M24.141 113.386a.48.48 0 10.679.678.48.48 0 00-.679-.678M23.27 112.514a.48.48 0 10.678.678.48.48 0 00-.679-.678M22.397 111.642a.48.48 0 10.678.678.48.48 0 00-.678-.678M21.525 110.77a.48.48 0 10.678.677.48.48 0 00-.678-.678M20.653 109.897a.48.48 0 10.678.678.48.48 0 00-.678-.678M19.78 109.025a.48.48 0 10.679.678.48.48 0 00-.679-.678M27.637 118.612a.48.48 0 10.678.678.48.48 0 00-.678-.678M26.765 117.74a.48.48 0 10.678.678.48.48 0 00-.678-.678M25.892 116.868a.48.48 0 10.679.678.48.48 0 00-.679-.678M25.02 115.996a.48.48 0 10.678.678.48.48 0 00-.678-.678M24.148 115.124a.48.48 0 10.678.678.48.48 0 00-.678-.678M23.276 114.252a.48.48 0 10.678.678.48.48 0 00-.678-.678M22.404 113.38a.48.48 0 10.678.677.48.48 0 00-.678-.677M21.532 112.507a.48.48 0 10.678.678.48.48 0 00-.678-.678M20.66 111.635a.48.48 0 10.678.678.48.48 0 00-.679-.678M19.787 110.763a.48.48 0 10.678.678.48.48 0 00-.678-.678M26.771 119.478a.48.48 0 10.678.678.48.48 0 00-.678-.678M25.899 118.606a.48.48 0 10.678.678.48.48 0 00-.678-.678M25.027 117.734a.48.48 0 10.678.678.48.48 0 00-.678-.678M24.155 116.861a.48.48 0 10.678.678.48.48 0 00-.678-.678M23.282 115.99a.48.48 0 10.679.677.48.48 0 00-.679-.678M22.41 115.117a.48.48 0 10.679.678.48.48 0 00-.679-.678M21.538 114.245a.48.48 0 10.678.678.48.48 0 00-.678-.678M20.666 113.373a.48.48 0 10.678.678.48.48 0 00-.678-.678M19.794 112.5a.48.48 0 10.678.679.48.48 0 00-.678-.678M25.906 120.343a.48.48 0 10.678.678.48.48 0 00-.678-.678M25.034 119.471a.48.48 0 10.678.678.48.48 0 00-.678-.678M24.161 118.6a.48.48 0 10.678.677.48.48 0 00-.678-.678M23.29 117.727a.48.48 0 10.677.678.48.48 0 00-.678-.678M22.417 116.855a.48.48 0 10.678.678.48.48 0 00-.678-.678M21.545 115.983a.48.48 0 10.678.678.48.48 0 00-.678-.678M20.673 115.11a.48.48 0 10.678.678.48.48 0 00-.678-.677M19.8 114.238a.48.48 0 10.679.678.48.48 0 00-.679-.678M25.04 121.21a.48.48 0 10.678.677.48.48 0 00-.678-.678M24.168 120.337a.48.48 0 10.678.678.48.48 0 00-.678-.678M23.296 119.465a.48.48 0 10.678.678.48.48 0 00-.678-.678M22.424 118.593a.48.48 0 10.678.678.48.48 0 00-.678-.678M21.551 117.72a.48.48 0 10.679.678.48.48 0 00-.679-.678M20.68 116.848a.48.48 0 10.677.678.48.48 0 00-.678-.678M19.807 115.976a.48.48 0 10.678.678.48.48 0 00-.678-.678M24.175 122.074a.48.48 0 10.678.678.48.48 0 00-.678-.678M23.302 121.202a.48.48 0 10.679.678.48.48 0 00-.679-.678M22.43 120.33a.48.48 0 10.678.678.48.48 0 00-.678-.678M21.558 119.458a.48.48 0 10.678.678.48.48 0 00-.678-.678M20.686 118.586a.48.48 0 10.678.678.48.48 0 00-.678-.678M19.814 117.714a.48.48 0 10.678.678.48.48 0 00-.678-.678M23.309 122.94a.48.48 0 10.678.678.48.48 0 00-.678-.678M22.437 122.068a.48.48 0 10.678.678.48.48 0 00-.678-.678M21.565 121.196a.48.48 0 10.678.678.48.48 0 00-.678-.678M20.692 120.324a.48.48 0 10.679.678.48.48 0 00-.679-.678M19.82 119.452a.48.48 0 10.678.677.48.48 0 00-.678-.677M22.443 123.806a.48.48 0 10.679.678.48.48 0 00-.679-.678M21.571 122.933a.48.48 0 10.678.678.48.48 0 00-.678-.678M20.699 122.061a.48.48 0 10.678.678.48.48 0 00-.678-.678M19.827 121.19a.48.48 0 10.678.677.48.48 0 00-.678-.678M21.578 124.671a.48.48 0 10.678.678.48.48 0 00-.678-.678M20.706 123.8a.48.48 0 10.678.677.48.48 0 00-.678-.678M19.834 122.927a.48.48 0 10.678.678.48.48 0 00-.678-.678M20.712 125.537a.48.48 0 10.679.678.48.48 0 00-.679-.678M19.84 124.665a.48.48 0 10.678.678.48.48 0 00-.678-.678M19.847 126.402a.48.48 0 10.678.678.48.48 0 00-.678-.678" transform="translate(5.272 7.139)"/>
            <path fill="#DB6B46" d="M0.295 109.816L16.276 125.798 16.276 93.834z" transform="translate(5.272 7.139)"/>
            <path fill="#FF813A" d="M103.487 115.813L90.102 129.198 90.102 102.427z" transform="translate(5.272 7.139)"/>
            <path fill="#FF9D26" d="M26.424 83.624L17.167 92.881 17.167 74.367z" transform="translate(5.272 7.139)"/>
            <path fill="#FFF" d="M4.456 83.97v17.251l8.626-8.626-8.626-8.626zm-.523 18.513V82.707l9.889 9.888-9.889 9.888zM95.378 104.154l9.278 9.278V94.876l-9.278 9.278zm9.8 10.54l-10.54-10.54 10.54-10.54v21.08z" transform="translate(5.272 7.139)"/>
            <path fill="#FE5858" d="M90.799 131.682L104.184 145.067 104.184 118.296zM8.786 84.485L15.056 90.755 15.056 78.216zM5.922 18.449L12.191 24.719 12.191 12.18z" transform="translate(5.272 7.139)"/>
            <path fill="#FFF" d="M8.407 6.14a2.214 2.214 0 110-4.427 2.214 2.214 0 010 4.427m0-5.772a3.558 3.558 0 100 7.116 3.558 3.558 0 000-7.116M76.064 101.397a2.214 2.214 0 110-4.428 2.214 2.214 0 010 4.428m0-5.772a3.558 3.558 0 100 7.116 3.558 3.558 0 000-7.116M7.258 50.182a2.214 2.214 0 110-4.428 2.214 2.214 0 010 4.428m0-5.772a3.558 3.558 0 100 7.116 3.558 3.558 0 000-7.116M30.16 153.776a2.214 2.214 0 110-4.428 2.214 2.214 0 010 4.428m0-5.772a3.558 3.558 0 100 7.116 3.558 3.558 0 000-7.116M95.214 8.401a2.44 2.44 0 110-4.882 2.44 2.44 0 010 4.882m0-6.364a3.923 3.923 0 100 7.846 3.923 3.923 0 000-7.846M93.431 150.173a2.44 2.44 0 110-4.88 2.44 2.44 0 010 4.88m0-6.364a3.923 3.923 0 100 7.846 3.923 3.923 0 000-7.846M28.652 42.226a2.44 2.44 0 110-4.882 2.44 2.44 0 010 4.882m0-6.365a3.923 3.923 0 100 7.847 3.923 3.923 0 000-7.847" transform="translate(5.272 7.139)"/>
            <path fill="#2ED8CD" d="M81.648 2.037a1.313 1.313 0 11-2.625 0 1.313 1.313 0 012.625 0M4.671 70.397a1.313 1.313 0 11-2.627 0 1.313 1.313 0 012.627 0M64.763 109.364a1.313 1.313 0 11-2.626 0 1.313 1.313 0 012.626 0M10.912 148.595a1.313 1.313 0 11-2.626 0 1.313 1.313 0 012.626 0M105.217 31.098a.938.938 0 11-1.875-.001.938.938 0 011.875 0M9.994 35.152a.937.937 0 11-1.874 0 .937.937 0 011.874 0M40.593 103.233a.937.937 0 11-1.874 0 .937.937 0 011.874 0M79.96 147.732a.937.937 0 11-1.875 0 .937.937 0 011.875 0" transform="translate(5.272 7.139)"/>
        </g>
        <path fill="#FFF" fill-rule="nonzero" d="M42.04 96.783c3.458 0 6.182-.9 8.17-2.701 1.988-1.802 2.983-4.503 2.983-8.105V67.432H44.46v18.415c0 1.009-.295 1.801-.886 2.377-.591.577-1.362.865-2.313.865-1.21 0-2.45-.432-3.717-1.297L34 94.45c2.017 1.556 4.697 2.334 8.04 2.334zm28.011 0c3.458 0 6.319-.958 8.58-2.874 2.263-1.917 3.394-4.417 3.394-7.5 0-2.94-1.009-5.267-3.026-6.981-2.017-1.715-4.409-2.572-7.176-2.572-2.939 0-5.172.98-6.7 2.94v-.087c0-1.614.649-2.853 1.946-3.718 1.296-.864 2.752-1.297 4.365-1.297 2.075 0 3.848.52 5.317 1.557l3.675-6.744C77.976 67.836 74.979 67 71.434 67c-4.582 0-8.249 1.304-11 3.912-2.753 2.608-4.129 6.275-4.129 11.001 0 4.438 1.16 8.026 3.48 10.764 2.32 2.737 5.742 4.106 10.266 4.106zm-.562-7.694c-1.412 0-2.478-.346-3.199-1.038-.72-.691-1.123-1.57-1.21-2.636 1.009-.778 2.363-1.167 4.063-1.167 1.038 0 1.967.208 2.789.626.82.418 1.232 1.045 1.232 1.88 0 .635-.346 1.182-1.038 1.643-.692.461-1.57.692-2.637.692z"/>
    </g>
</svg>
