<?xml version="1.0" encoding="UTF-8"?>
<svg width="116px" height="165px" viewBox="0 0 116 165" version="1.1" xmlns="http://www.w3.org/2000/svg" xmlns:xlink="http://www.w3.org/1999/xlink">
    <!-- Generator: Sketch 63.1 (92452) - https://sketch.com -->
    <title>Group 30</title>
    <desc>Created with Sketch.</desc>
    <defs>
        <linearGradient x1="50%" y1="0%" x2="50%" y2="100%" id="linearGradient-1">
            <stop stop-color="#D86868" offset="0%"></stop>
            <stop stop-color="#4437B0" offset="100%"></stop>
        </linearGradient>
    </defs>
    <g id="Page-1" stroke="none" stroke-width="1" fill="none" fill-rule="evenodd">
        <g id="Group-30">
            <g id="Group-14-Copy-2" fill="url(#linearGradient-1)">
                <g id="Group-143">
                    <polygon id="Fill-1" points="0 164.758562 115.230623 164.758562 115.230623 0 0 0"></polygon>
                </g>
            </g>
            <path d="M42.184,96.528 C45.704,96.528 48.476,95.6113333 50.5,93.778 C52.524,91.9446667 53.536,89.1946667 53.536,85.528 L53.536,85.528 L53.536,66.652 L44.648,66.652 L44.648,85.396 C44.648,86.4226667 44.3473333,87.2293333 43.746,87.816 C43.1446667,88.4026667 42.36,88.696 41.392,88.696 C40.16,88.696 38.8986667,88.256 37.608,87.376 L37.608,87.376 L34,94.152 C36.0533333,95.736 38.7813333,96.528 42.184,96.528 Z M70.916,96 L80.684,72.812 L80.684,66.652 L56.704,66.652 L56.704,74.396 L70.476,74.396 L61.192,96 L70.916,96 Z" id="J7" fill="#FFFFFF" fill-rule="nonzero"></path>
            <g id="Group-12" transform="translate(5.000000, 5.000000)">
                <g id="Group-74">
                    <g id="Group-73" transform="translate(0.000000, 0.284809)">
                        <path d="M37.6088487,142.989151 C37.6088487,145.45732 35.6073041,147.458865 33.1391354,147.458865 C30.6704411,147.458865 28.669422,145.45732 28.669422,142.989151 C28.669422,140.520982 30.6704411,138.519438 33.1391354,138.519438 C35.6073041,138.519438 37.6088487,140.520982 37.6088487,142.989151" id="Fill-2" fill="#F14BF3"></path>
                        <path d="M104.590809,133.093355 C104.590809,133.435441 104.313882,133.712893 103.971271,133.712893 C103.62971,133.712893 103.352258,133.435441 103.352258,133.093355 C103.352258,132.751795 103.62971,132.473817 103.971271,132.473817 C104.313882,132.473817 104.590809,132.751795 104.590809,133.093355" id="Fill-4" fill="#FFFFFF"></path>
                        <path d="M47.847414,19.5152373 C47.847414,19.8573232 47.5704873,20.1347755 47.2278758,20.1347755 C46.8863153,20.1347755 46.6088631,19.8573232 46.6088631,19.5152373 C46.6088631,19.1731513 46.8863153,18.895699 47.2278758,18.895699 C47.5704873,18.895699 47.847414,19.1731513 47.847414,19.5152373" id="Fill-6" fill="#FFFFFF"></path>
                        <path d="M22.7666258,76.8998201 C22.7666258,77.2419061 22.489699,77.5188328 22.1470876,77.5188328 C21.8050016,77.5188328 21.5280748,77.2419061 21.5280748,76.8998201 C21.5280748,76.5577341 21.8050016,76.2802818 22.1470876,76.2802818 C22.489699,76.2802818 22.7666258,76.5577341 22.7666258,76.8998201" id="Fill-8" fill="#FFFFFF"></path>
                        <path d="M56.2412373,141.860688 C56.2412373,142.202248 55.963785,142.480226 55.621699,142.480226 C55.2796131,142.480226 55.0026863,142.202248 55.0026863,141.860688 C55.0026863,141.518602 55.2796131,141.24115 55.621699,141.24115 C55.963785,141.24115 56.2412373,141.518602 56.2412373,141.860688" id="Fill-10" fill="#FFFFFF"></path>
                        <path d="M89.3981449,59.1741433 C89.3981449,59.5162293 89.1212182,59.7936815 88.7786067,59.7936815 C88.4370462,59.7936815 88.1595939,59.5162293 88.1595939,59.1741433 C88.1595939,58.8320573 88.4370462,58.5546051 88.7786067,58.5546051 C89.1212182,58.5546051 89.3981449,58.8320573 89.3981449,59.1741433" id="Fill-12" fill="#FFFFFF"></path>
                        <polygon id="Fill-14" fill="#FFFFFF" points="5.71991879 115.314815 7.26639968 116.861296 8.81288057 115.314815 7.26639968 113.76886"></polygon>
                        <polygon id="Fill-16" fill="#FFFFFF" points="13.5528471 115.314815 15.0988025 116.861296 16.6452834 115.314815 15.0988025 113.76886"></polygon>
                        <polygon id="Fill-18" fill="#FFFFFF" points="24.4780541 115.314815 22.9315732 113.76886 21.3850924 115.314815 22.9315732 116.861296"></polygon>
                        <polygon id="Fill-20" fill="#FFFFFF" points="5.71991879 123.431029 7.26639968 124.976984 8.81288057 123.431029 7.26639968 121.885073"></polygon>
                        <polygon id="Fill-22" fill="#FFFFFF" points="13.5528471 123.431029 15.0988025 124.976984 16.6452834 123.431029 15.0988025 121.885073"></polygon>
                        <polygon id="Fill-24" fill="#FFFFFF" points="21.3851975 123.431029 22.9311529 124.976984 24.4781592 123.431029 22.9311529 121.885073"></polygon>
                        <polygon id="Fill-26" fill="#FFFFFF" points="5.71991879 131.547189 7.26639968 133.093145 8.81288057 131.547189 7.26639968 130.001234"></polygon>
                        <polygon id="Fill-28" fill="#FFFFFF" points="13.5528471 131.547189 15.0988025 133.093145 16.6452834 131.547189 15.0988025 130.001234"></polygon>
                        <polygon id="Fill-30" fill="#FFFFFF" points="21.3851975 131.547189 22.9311529 133.093145 24.4781592 131.547189 22.9311529 130.001234"></polygon>
                        <path d="M14.0575159,106.552054 L21.0069586,106.552054 L21.0069586,99.6031369 L14.0575159,99.6031369 L14.0575159,106.552054 Z M13.0154936,107.594076 L22.0489809,107.594076 L22.0489809,98.5605892 L13.0154936,98.5605892 L13.0154936,107.594076 Z" id="Fill-32" fill="#FFFFFF"></path>
                        <path d="M62.3457643,136.567866 L69.2946815,136.567866 L69.2946815,129.618424 L62.3457643,129.618424 L62.3457643,136.567866 Z M61.303742,137.610414 L70.3372293,137.610414 L70.3372293,128.576927 L61.303742,128.576927 L61.303742,137.610414 Z" id="Fill-34" fill="#FFFFFF"></path>
                        <path d="M43.0425478,135.36672 L46.6520541,135.36672 L46.6520541,131.757213 L43.0425478,131.757213 L43.0425478,135.36672 Z M42,136.409268 L47.6940764,136.409268 L47.6940764,130.715191 L42,130.715191 L42,136.409268 Z" id="Fill-35" fill="#FFFFFF"></path>
                        <path d="M69.2920541,11.043328 L72.9015605,11.043328 L72.9015605,7.43382166 L69.2920541,7.43382166 L69.2920541,11.043328 Z M68.2495064,12.0858758 L73.9435828,12.0858758 L73.9435828,6.39179936 L68.2495064,6.39179936 L68.2495064,12.0858758 Z" id="Fill-36" fill="#FFFFFF"></path>
                        <path d="M15.8189172,70.7969745 L19.4284236,70.7969745 L19.4284236,67.1874682 L15.8189172,67.1874682 L15.8189172,70.7969745 Z M14.7768949,71.8389968 L20.4714968,71.8389968 L20.4714968,66.1449204 L14.7768949,66.1449204 L14.7768949,71.8389968 Z" id="Fill-37" fill="#FFFFFF"></path>
                        <path d="M21.0032803,32.0377389 L27.9527229,32.0377389 L27.9527229,25.0888217 L21.0032803,25.0888217 L21.0032803,32.0377389 Z M19.961258,33.0802866 L28.9947452,33.0802866 L28.9947452,24.0467994 L19.961258,24.0467994 L19.961258,33.0802866 Z" id="Fill-38" fill="#FFFFFF"></path>
                        <path d="M90.4698567,46.2697771 L101.761847,46.2697771 L101.761847,34.9777866 L90.4698567,34.9777866 L90.4698567,46.2697771 Z M89.4273089,47.3123248 L102.803869,47.3123248 L102.803869,33.9352389 L89.4273089,33.9352389 L89.4273089,47.3123248 Z" id="Fill-39" fill="#FFFFFF"></path>
                        <path d="M83.7889331,122.190271 L95.0809236,122.190271 L95.0809236,110.89828 L83.7889331,110.89828 L83.7889331,122.190271 Z M82.7463854,123.232293 L96.1229459,123.232293 L96.1229459,109.855732 L82.7463854,109.855732 L82.7463854,123.232293 Z" id="Fill-40" fill="#FFFFFF"></path>
                        <path d="M98.2710987,50.0080255 L104.705048,50.0080255 L104.705048,43.5746019 L98.2710987,43.5746019 L98.2710987,50.0080255 Z M97.2290764,51.0500478 L105.747596,51.0500478 L105.747596,42.5320541 L97.2290764,42.5320541 L97.2290764,51.0500478 Z" id="Fill-41" fill="#FFFFFF"></path>
                        <path d="M40.4811624,10.5914172 L46.914586,10.5914172 L46.914586,4.15746815 L40.4811624,4.15746815 L40.4811624,10.5914172 Z M39.4380892,11.633965 L47.9566083,11.633965 L47.9566083,3.11544586 L39.4380892,3.11544586 L39.4380892,11.633965 Z" id="Fill-42" fill="#FFFFFF"></path>
                        <path d="M19.382707,148.635462 L30.6746975,148.635462 L30.6746975,137.343471 L19.382707,137.343471 L19.382707,148.635462 Z M18.3406847,149.677484 L31.7177707,149.677484 L31.7177707,136.300398 L18.3406847,136.300398 L18.3406847,149.677484 Z" id="Fill-43" fill="#FFFFFF"></path>
                        <path d="M5.71871019,101.340366 L17.0107006,101.340366 L17.0107006,90.0483758 L5.71871019,90.0483758 L5.71871019,101.340366 Z M4.67616242,102.382389 L18.0532484,102.382389 L18.0532484,89.005828 L4.67616242,89.005828 L4.67616242,102.382389 Z" id="Fill-44" fill="#FFFFFF"></path>
                        <path d="M98.7925828,72.7788662 C97.4410541,72.7788662 96.3454331,71.6832452 96.3454331,70.3317166 C96.3454331,68.9801879 97.4410541,67.8845669 98.7925828,67.8845669 C100.143586,67.8845669 101.239732,68.9801879 101.239732,70.3317166 C101.239732,71.6832452 100.143586,72.7788662 98.7925828,72.7788662 M98.7925828,66.3985159 C96.620258,66.3985159 94.8593822,68.1593917 94.8593822,70.3317166 C94.8593822,72.5040414 96.620258,74.2649172 98.7925828,74.2649172 C100.964908,74.2649172 102.725783,72.5040414 102.725783,70.3317166 C102.725783,68.1593917 100.964908,66.3985159 98.7925828,66.3985159" id="Fill-45" fill="#7137B0"></path>
                        <path d="M89.9332006,94.0955414 C88.581672,94.0955414 87.486051,92.9999204 87.486051,91.6483917 C87.486051,90.2968631 88.581672,89.201242 89.9332006,89.201242 C91.2842038,89.201242 92.3803503,90.2968631 92.3803503,91.6483917 C92.3803503,92.9999204 91.2842038,94.0955414 89.9332006,94.0955414 M89.9332006,87.7151911 C87.7608758,87.7151911 86,89.4760669 86,91.6483917 C86,93.8207166 87.7608758,95.5815924 89.9332006,95.5815924 C92.1055255,95.5815924 93.8664013,93.8207166 93.8664013,91.6483917 C93.8664013,89.4760669 92.1055255,87.7151911 89.9332006,87.7151911" id="Fill-45-Copy" fill="#7137B0"></path>
                        <path d="M27.9332006,48.0960669 C26.581672,48.0960669 25.486051,47.0004459 25.486051,45.6489172 C25.486051,44.2973885 26.581672,43.2017675 27.9332006,43.2017675 C29.2842038,43.2017675 30.3798248,44.2973885 30.3798248,45.6489172 C30.3798248,47.0004459 29.2842038,48.0960669 27.9332006,48.0960669 M27.9332006,41.7151911 C25.7603503,41.7151911 24,43.4765924 24,45.6489172 C24,47.821242 25.7603503,49.5821178 27.9332006,49.5821178 C30.1055255,49.5821178 31.8658758,47.821242 31.8658758,45.6489172 C31.8658758,43.4765924 30.1055255,41.7151911 27.9332006,41.7151911" id="Fill-46" fill="#7137B0"></path>
                        <path d="M7.1998742,43.0711417 C5.84834554,43.0711417 4.75325,41.9755207 4.75325,40.623992 C4.75325,39.2724634 5.84834554,38.1768424 7.1998742,38.1768424 C8.55140287,38.1768424 9.64702389,39.2724634 9.64702389,40.623992 C9.64702389,41.9755207 8.55140287,43.0711417 7.1998742,43.0711417 M7.1998742,36.6907914 C5.02754936,36.6907914 3.26667357,38.4516672 3.26667357,40.623992 C3.26667357,42.7963169 5.02754936,44.5571927 7.1998742,44.5571927 C9.37219904,44.5571927 11.1330748,42.7963169 11.1330748,40.623992 C11.1330748,38.4516672 9.37219904,36.6907914 7.1998742,36.6907914" id="Fill-47" fill="#7137B0"></path>
                        <path d="M87.404535,153.458664 C87.404535,150.502326 89.8017643,148.105097 92.7581019,148.105097 C95.7144395,148.105097 98.1116688,150.502326 98.1116688,153.458664 L101.362799,153.458664 C101.362799,148.706244 97.5105223,144.853967 92.7581019,144.853967 C88.006207,144.853967 84.1534045,148.706244 84.1534045,153.458664 L87.404535,153.458664 Z" id="Fill-48" fill="#FFFFFF"></path>
                        <path d="M0.109025478,62.9415557 C3.06588854,62.9415557 5.46259236,65.3382596 5.46259236,68.2951226 C5.46259236,71.2514602 3.06588854,73.648164 0.109025478,73.648164 L0.109025478,76.8998201 C4.86144586,76.8998201 8.71372293,73.0470175 8.71372293,68.2951226 C8.71372293,63.5427022 4.86144586,59.6904252 0.109025478,59.6904252 L0.109025478,62.9415557 Z" id="Fill-49" fill="#7137B0"></path>
                        <path d="M73.1751274,38.8355924 C73.1751274,41.8255605 70.7510987,44.2495892 67.7606051,44.2495892 C64.7706369,44.2495892 62.3466083,41.8255605 62.3466083,38.8355924 C62.3466083,35.8456242 64.7706369,33.4210701 67.7606051,33.4210701 C70.7510987,33.4210701 73.1751274,35.8456242 73.1751274,38.8355924" id="Fill-50" fill="#F14BF3"></path>
                        <path d="M65.2269427,102.828662 C65.2269427,103.995748 64.2805573,104.941608 63.1139968,104.941608 C61.9463854,104.941608 61,103.995748 61,102.828662 C61,101.661051 61.9463854,100.715191 63.1139968,100.715191 C64.2805573,100.715191 65.2269427,101.661051 65.2269427,102.828662" id="Fill-51" fill="#F14BF3"></path>
                        <path d="M75.5360955,147.45876 C75.5360955,148.626371 74.5897102,149.571705 73.4231497,149.571705 C72.2555382,149.571705 71.3091529,148.626371 71.3091529,147.45876 C71.3091529,146.291148 72.2555382,145.345814 73.4231497,145.345814 C74.5897102,145.345814 75.5360955,146.291148 75.5360955,147.45876" id="Fill-52" fill="#F14BF3"></path>
                        <path d="M22.4361529,7.61758121 C22.4361529,10.0500175 20.464035,12.0221354 18.0315987,12.0221354 C15.5986369,12.0221354 13.6265191,10.0500175 13.6265191,7.61758121 C13.6265191,5.1851449 15.5986369,3.21302707 18.0315987,3.21302707 C20.464035,3.21302707 22.4361529,5.1851449 22.4361529,7.61758121" id="Fill-53" fill="#F14BF3"></path>
                        <path d="M79.429465,127.489083 C79.429465,128.876344 78.3049427,130.000866 76.9176815,130.000866 C75.5304204,130.000866 74.4058981,128.876344 74.4058981,127.489083 C74.4058981,126.101822 75.5304204,124.977299 76.9176815,124.977299 C78.3049427,124.977299 79.429465,126.101822 79.429465,127.489083" id="Fill-54" fill="#FFFFFF"></path>
                        <path d="M37.2537309,119.372922 C37.2537309,120.760709 36.1286831,121.884705 34.7419475,121.884705 C33.3546863,121.884705 32.2296385,120.760709 32.2296385,119.372922 C32.2296385,117.985661 33.3546863,116.861664 34.7419475,116.861664 C36.1286831,116.861664 37.2537309,117.985661 37.2537309,119.372922" id="Fill-55" fill="#7137B0"></path>
                        <path d="M85.4622118,28.5632803 C85.4622118,29.2863376 84.8763041,29.8722452 84.1537723,29.8722452 C83.430715,29.8722452 82.8448073,29.2863376 82.8448073,28.5632803 C82.8448073,27.8407484 83.430715,27.2543153 84.1537723,27.2543153 C84.8763041,27.2543153 85.4622118,27.8407484 85.4622118,28.5632803" id="Fill-56" fill="#7137B0"></path>
                        <path d="M52.6814411,115.314815 C52.6814411,116.037873 52.0955334,116.62378 51.3730016,116.62378 C50.6499443,116.62378 50.0640366,116.037873 50.0640366,115.314815 C50.0640366,114.592283 50.6499443,114.006376 51.3730016,114.006376 C52.0955334,114.006376 52.6814411,114.592283 52.6814411,115.314815" id="Fill-57" fill="#7137B0"></path>
                        <path d="M11.923551,140.551618 C11.923551,141.274675 11.3376433,141.860583 10.614586,141.860583 C9.89152866,141.860583 9.3061465,141.274675 9.3061465,140.551618 C9.3061465,139.828561 9.89152866,139.243178 10.614586,139.243178 C11.3376433,139.243178 11.923551,139.828561 11.923551,140.551618" id="Fill-58" fill="#7137B0"></path>
                        <path d="M33.3049236,18.9009538 C33.3049236,19.6234857 32.7190159,20.2099188 31.9959586,20.2099188 C31.2734268,20.2099188 30.6875191,19.6234857 30.6875191,18.9009538 C30.6875191,18.178422 31.2734268,17.5919889 31.9959586,17.5919889 C32.7190159,17.5919889 33.3049236,18.178422 33.3049236,18.9009538" id="Fill-59" fill="#7137B0"></path>
                        <path d="M22.8364618,84.9443583 C22.8364618,85.3600111 22.4996306,85.6968424 22.0839777,85.6968424 C21.6688503,85.6968424 21.3320191,85.3600111 21.3320191,84.9443583 C21.3320191,84.5292309 21.6688503,84.1918742 22.0839777,84.1918742 C22.4996306,84.1918742 22.8364618,84.5292309 22.8364618,84.9443583" id="Fill-60" fill="#7137B0"></path>
                        <path d="M101.41025,107.073486 C101.41025,107.796543 100.824342,108.382451 100.101285,108.382451 C99.3787532,108.382451 98.7928455,107.796543 98.7928455,107.073486 C98.7928455,106.350428 99.3787532,105.764521 100.101285,105.764521 C100.824342,105.764521 101.41025,106.350428 101.41025,107.073486" id="Fill-61" fill="#7137B0"></path>
                        <polygon id="Fill-62" fill="#FFFFFF" points="83.0190557 4.21506051 84.5650111 5.7615414 86.1120175 4.21506051 84.5650111 2.6691051"></polygon>
                        <polygon id="Fill-63" fill="#FFFFFF" points="90.8514061 4.21506051 92.3978869 5.7615414 93.9443678 4.21506051 92.3978869 2.6691051"></polygon>
                        <polygon id="Fill-64" fill="#FFFFFF" points="101.776613 4.21506051 100.230658 2.6691051 98.6841768 4.21506051 100.230658 5.7615414"></polygon>
                        <polygon id="Fill-65" fill="#FFFFFF" points="83.0190557 12.3312213 84.5650111 13.8771768 86.1120175 12.3312213 84.5650111 10.7852659"></polygon>
                        <polygon id="Fill-66" fill="#FFFFFF" points="90.8514061 12.3312213 92.3978869 13.8771768 93.9443678 12.3312213 92.3978869 10.7852659"></polygon>
                        <polygon id="Fill-67" fill="#FFFFFF" points="98.6843344 12.3312213 100.23029 13.8771768 101.776771 12.3312213 100.23029 10.7852659"></polygon>
                        <polygon id="Fill-68" fill="#FFFFFF" points="83.0190557 20.4473822 84.5650111 21.9933376 86.1120175 20.4473822 84.5650111 18.9009013"></polygon>
                        <polygon id="Fill-69" fill="#FFFFFF" points="90.8514061 20.4473822 92.3978869 21.9933376 93.9443678 20.4473822 92.3978869 18.9009013"></polygon>
                        <polygon id="Fill-70" fill="#FFFFFF" points="98.6843344 20.4473822 100.23029 21.9933376 101.776771 20.4473822 100.23029 18.9009013"></polygon>
                        <path d="M10.9890939,12.9952675 C8.01909395,12.9952675 5.6113551,10.5875287 5.6113551,7.61752866 C5.6113551,4.64752866 8.01909395,2.23978981 10.9890939,2.23978981 C13.9590939,2.23978981 16.3668328,4.64752866 16.3668328,7.61752866 C16.3668328,10.5875287 13.9590939,12.9952675 10.9890939,12.9952675 M10.9890939,0.543547771 C7.0821672,0.543547771 3.91511306,3.71112739 3.91511306,7.61752866 C3.91511306,11.5244554 7.0821672,14.6915096 10.9890939,14.6915096 C14.8960207,14.6915096 18.0630748,11.5244554 18.0630748,7.61752866 C18.0630748,3.71112739 14.8960207,0.543547771 10.9890939,0.543547771" id="Fill-71" fill="#FFFFFF"></path>
                        <path d="M57.6945541,45.0197293 C54.0440605,45.0197293 51.0845701,42.0602389 51.0845701,38.4097452 C51.0845701,34.7592516 54.0440605,31.7997611 57.6945541,31.7997611 C61.3455732,31.7997611 64.3050637,34.7592516 64.3050637,38.4097452 C64.3050637,42.0602389 61.3455732,45.0197293 57.6945541,45.0197293 M57.6945541,29.7151911 C52.8927389,29.7151911 49,33.6079299 49,38.4097452 C49,43.212086 52.8927389,47.1048248 57.6945541,47.1048248 C62.4968949,47.1048248 66.3896338,43.212086 66.3896338,38.4097452 C66.3896338,33.6079299 62.4968949,29.7151911 57.6945541,29.7151911" id="Fill-72" fill="#FFFFFF"></path>
                    </g>
                </g>
            </g>
        </g>
    </g>
</svg>