<?xml version="1.0" encoding="UTF-8"?>
<svg width="115px" height="165px" viewBox="0 0 115 165" version="1.1" xmlns="http://www.w3.org/2000/svg" xmlns:xlink="http://www.w3.org/1999/xlink">
    <!-- Generator: Sketch 63.1 (92452) - https://sketch.com -->
    <title>Group 29</title>
    <desc>Created with Sketch.</desc>
    <defs>
        <linearGradient x1="50.0001127%" y1="100%" x2="50.0001127%" y2="0.00010014654%" id="linearGradient-1">
            <stop stop-color="#F7498D" offset="0%"></stop>
            <stop stop-color="#FF9E2D" offset="100%"></stop>
        </linearGradient>
    </defs>
    <g id="Page-1" stroke="none" stroke-width="1" fill="none" fill-rule="evenodd">
        <g id="Group-29">
            <g id="Group-15-Copy-2">
                <g id="Group-161">
                    <polygon id="Fill-1" fill="#FFFFFF" points="0 164.759331 114.863646 164.759331 114.863646 0.525477707 0 0.525477707"></polygon>
                    <g id="Group-160" transform="translate(0.000000, 0.284809)" fill="url(#linearGradient-1)">
                        <polygon id="Fill-2" points="0 164.233854 114.863646 164.233854 114.863646 0 0 0"></polygon>
                    </g>
                </g>
            </g>
            <g id="Group-27" transform="translate(57.688538, 84.537707) scale(-1, -1) translate(-57.688538, -84.537707) translate(3.688538, 8.037707)">
                <path d="M87.1213662,43.3738758 C85.6847102,43.3738758 84.5155223,44.5430637 84.5155223,45.9797197 C84.5155223,47.4163758 85.6847102,48.5855637 87.1213662,48.5855637 C88.5580223,48.5855637 89.7266847,47.4163758 89.7266847,45.9797197 C89.7266847,44.5430637 88.5580223,43.3738758 87.1213662,43.3738758 M87.1213662,49.2802452 C85.3011115,49.2802452 83.8208408,47.799449 83.8208408,45.9797197 C83.8208408,44.159465 85.3011115,42.6791943 87.1213662,42.6791943 C88.9410955,42.6791943 90.4213662,44.159465 90.4213662,45.9797197 C90.4213662,47.799449 88.9410955,49.2802452 87.1213662,49.2802452" id="Fill-4" fill="#FFFFFF"></path>
                <path d="M107.585255,105.373046 C107.585255,110.175387 103.692516,114.0676 98.8901752,114.0676 C94.0878344,114.0676 90.1950955,110.175387 90.1950955,105.373046 C90.1950955,100.570705 94.0878344,96.6779666 98.8901752,96.6779666 C103.692516,96.6779666 107.585255,100.570705 107.585255,105.373046" id="Fill-6" fill="#FFFFFF"></path>
                <path d="M8.92576433,49.4753551 C8.92576433,51.9398455 6.92737261,53.9382373 4.46288217,53.9382373 C1.99786624,53.9382373 5.59552404e-14,51.9398455 5.59552404e-14,49.4753551 C5.59552404e-14,47.0108646 1.99786624,45.0124729 4.46288217,45.0124729 C6.92737261,45.0124729 8.92576433,47.0108646 8.92576433,49.4753551" id="Fill-8" fill="#FFFFFF"></path>
                <path d="M20.9760717,91.2195143 C20.9760717,95.8037818 17.2604188,99.5194347 12.6766768,99.5194347 C8.09240924,99.5194347 4.37675637,95.8037818 4.37675637,91.2195143 C4.37675637,86.6357723 8.09240924,82.9201194 12.6766768,82.9201194 C17.2604188,82.9201194 20.9760717,86.6357723 20.9760717,91.2195143" id="Fill-10" fill="#F14BF3"></path>
                <path d="M79.6158631,127.859814 C79.6158631,130.28647 77.6484745,132.254384 75.221293,132.254384 C72.7946369,132.254384 70.8261975,130.28647 70.8261975,127.859814 C70.8261975,125.432632 72.7946369,123.465244 75.221293,123.465244 C77.6484745,123.465244 79.6158631,125.432632 79.6158631,127.859814" id="Fill-12" fill="#F14BF3"></path>
                <path d="M102.209355,6.73047611 C102.209355,9.01420223 100.358097,10.8654602 98.074371,10.8654602 C95.7906449,10.8654602 93.9399124,9.01420223 93.9399124,6.73047611 C93.9399124,4.44675 95.7906449,2.59601752 98.074371,2.59601752 C100.358097,2.59601752 102.209355,4.44675 102.209355,6.73047611" id="Fill-14" fill="#F14BF3"></path>
                <path d="M99.897043,139.26021 C99.897043,140.267025 99.0809761,141.083092 98.0741608,141.083092 C97.067871,141.083092 96.2518041,140.267025 96.2518041,139.26021 C96.2518041,138.25392 97.067871,137.437854 98.0741608,137.437854 C99.0809761,137.437854 99.897043,138.25392 99.897043,139.26021" id="Fill-16" fill="#F14BF3"></path>
                <path d="M50.39925,133.035559 C50.39925,134.041849 49.5831831,134.857916 48.5768933,134.857916 C47.570078,134.857916 46.7540111,134.041849 46.7540111,133.035559 C46.7540111,132.029269 47.570078,131.213202 48.5768933,131.213202 C49.5831831,131.213202 50.39925,132.029269 50.39925,133.035559" id="Fill-18" fill="#F14BF3"></path>
                <path d="M72.0308025,6.45239331 C72.0308025,7.33256847 71.3172038,8.04564172 70.4370287,8.04564172 C69.5568535,8.04564172 68.8437803,7.33256847 68.8437803,6.45239331 C68.8437803,5.57221815 69.5568535,4.85861943 70.4370287,4.85861943 C71.3172038,4.85861943 72.0308025,5.57221815 72.0308025,6.45239331" id="Fill-20" fill="#FFFFFF"></path>
                <path d="M90.7632946,145.613131 C90.7632946,146.493306 90.0502213,147.206379 89.1700462,147.206379 C88.2893455,147.206379 87.5762723,146.493306 87.5762723,145.613131 C87.5762723,144.732955 88.2893455,144.019882 89.1700462,144.019882 C90.0502213,144.019882 90.7632946,144.732955 90.7632946,145.613131" id="Fill-22" fill="#7137B0"></path>
                <path d="M41.8584506,125.058439 C41.8584506,125.938615 41.1448519,126.651688 40.2646768,126.651688 C39.3845016,126.651688 38.6714283,125.938615 38.6714283,125.058439 C38.6714283,124.178264 39.3845016,123.465191 40.2646768,123.465191 C41.1448519,123.465191 41.8584506,124.178264 41.8584506,125.058439" id="Fill-24" fill="#FFFFFF"></path>
                <path d="M8.68562102,74.3051752 C8.68562102,75.1858758 7.97254777,75.898949 7.09184713,75.898949 C6.21167197,75.898949 5.49859873,75.1858758 5.49859873,74.3051752 C5.49859873,73.425 6.21167197,72.7119268 7.09184713,72.7119268 C7.97254777,72.7119268 8.68562102,73.425 8.68562102,74.3051752" id="Fill-26" fill="#7137B0"></path>
                <path d="M7.56383121,1.59324841 C7.56383121,2.47342357 6.85075796,3.18649682 5.9705828,3.18649682 C5.08988217,3.18649682 4.37680892,2.47342357 4.37680892,1.59324841 C4.37680892,0.713073248 5.08988217,8.41549053e-14 5.9705828,8.41549053e-14 C6.85075796,8.41549053e-14 7.56383121,0.713073248 7.56383121,1.59324841" id="Fill-28" fill="#7137B0"></path>
                <path d="M13.0818726,136.460885 C13.0818726,137.341586 12.3682739,138.054659 11.4880987,138.054659 C10.6079236,138.054659 9.89485032,137.341586 9.89485032,136.460885 C9.89485032,135.58071 10.6079236,134.867637 11.4880987,134.867637 C12.3682739,134.867637 13.0818726,135.58071 13.0818726,136.460885" id="Fill-30" fill="#FFFFFF"></path>
                <path d="M18.5793678,8.04574682 C18.5793678,8.66896338 18.0743838,9.17342197 17.4516927,9.17342197 C16.8290016,9.17342197 16.3240175,8.66896338 16.3240175,8.04574682 C16.3240175,7.42305573 16.8290016,6.91807166 17.4516927,6.91807166 C18.0743838,6.91807166 18.5793678,7.42305573 18.5793678,8.04574682" id="Fill-32" fill="#F14BF3"></path>
                <path d="M106.65847,60.9399124 C106.65847,61.3702787 106.309553,61.7197213 105.878661,61.7197213 C105.447769,61.7197213 105.098326,61.3702787 105.098326,60.9399124 C105.098326,60.5090207 105.447769,60.1601035 105.878661,60.1601035 C106.309553,60.1601035 106.65847,60.5090207 106.65847,60.9399124" id="Fill-34" fill="#F14BF3"></path>
                <path d="M98.854285,54.1774347 C98.854285,54.607801 98.5053678,54.9572436 98.0744761,54.9572436 C97.6435844,54.9572436 97.2941417,54.607801 97.2941417,54.1774347 C97.2941417,53.746543 97.6435844,53.3976258 98.0744761,53.3976258 C98.5053678,53.3976258 98.854285,53.746543 98.854285,54.1774347" id="Fill-36" fill="#F14BF3"></path>
                <path d="M26.5713583,46.4713041 C26.5713583,46.9016704 26.2219156,47.2511131 25.7915494,47.2511131 C25.3606576,47.2511131 25.011215,46.9016704 25.011215,46.4713041 C25.011215,46.0404124 25.3606576,45.6909697 25.7915494,45.6909697 C26.2219156,45.6909697 26.5713583,46.0404124 26.5713583,46.4713041" id="Fill-38" fill="#F14BF3"></path>
                <path d="M34.8721306,30.7421019 C34.8721306,31.1724682 34.5226879,31.5219108 34.0917962,31.5219108 C33.6609045,31.5219108 33.3114618,31.1724682 33.3114618,30.7421019 C33.3114618,30.3112102 33.6609045,29.962293 34.0917962,29.962293 C34.5226879,29.962293 34.8721306,30.3112102 34.8721306,30.7421019" id="Fill-40" fill="#F14BF3"></path>
                <path d="M8.92576433,116.929982 C8.92576433,117.360349 8.57632166,117.709791 8.14542994,117.709791 C7.71453822,117.709791 7.36562102,117.360349 7.36562102,116.929982 C7.36562102,116.499091 7.71453822,116.150174 8.14542994,116.150174 C8.57632166,116.150174 8.92576433,116.499091 8.92576433,116.929982" id="Fill-42" fill="#F14BF3"></path>
                <path d="M99.6348296,150.157725 C99.6348296,150.588091 99.2853869,150.937533 98.8544952,150.937533 C98.4236035,150.937533 98.0741608,150.588091 98.0741608,150.157725 C98.0741608,149.726833 98.4236035,149.37739 98.8544952,149.37739 C99.2853869,149.37739 99.6348296,149.726833 99.6348296,150.157725" id="Fill-44" fill="#F14BF3"></path>
                <path d="M75.5668121,52.0899682 C75.5668121,52.7126592 75.061828,53.2176433 74.4391369,53.2176433 C73.8164459,53.2176433 73.3114618,52.7126592 73.3114618,52.0899682 C73.3114618,51.4672771 73.8164459,50.962293 74.4391369,50.962293 C75.061828,50.962293 75.5668121,51.4672771 75.5668121,52.0899682" id="Fill-46" fill="#F14BF3"></path>
                <path d="M103.336768,30.8901545 C103.336768,31.513371 102.831783,32.0178296 102.209092,32.0178296 C101.586401,32.0178296 101.081943,31.513371 101.081943,30.8901545 C101.081943,30.2674634 101.586401,29.7624793 102.209092,29.7624793 C102.831783,29.7624793 103.336768,30.2674634 103.336768,30.8901545" id="Fill-48" fill="#F14BF3"></path>
                <polygon id="Fill-50" fill="#F14BF3" points="78.2446815 89.8150175 79.7906369 91.3609729 81.3371178 89.8150175 79.7906369 88.2690621"></polygon>
                <polygon id="Fill-52" fill="#F14BF3" points="86.0770844 89.8150175 87.6230398 91.3609729 89.1700462 89.8150175 87.6230398 88.2690621"></polygon>
                <polygon id="Fill-54" fill="#F14BF3" points="97.0022914 89.8150175 95.456336 88.2690621 93.9093296 89.8150175 95.456336 91.3609729"></polygon>
                <polygon id="Fill-56" fill="#F14BF3" points="78.2446815 97.9311783 79.7906369 99.4771338 81.3371178 97.9311783 79.7906369 96.3846975"></polygon>
                <polygon id="Fill-58" fill="#F14BF3" points="86.0770844 97.9311783 87.6230398 99.4771338 89.1700462 97.9311783 87.6230398 96.3846975"></polygon>
                <polygon id="Fill-60" fill="#F14BF3" points="93.9094873 97.9311783 95.4559682 99.4771338 97.002449 97.9311783 95.4559682 96.3846975"></polygon>
                <polygon id="Fill-62" fill="#F14BF3" points="78.2446815 106.047339 79.7906369 107.593295 81.3371178 106.047339 79.7906369 104.500858"></polygon>
                <polygon id="Fill-64" fill="#F14BF3" points="86.0770844 106.047339 87.6230398 107.593295 89.1700462 106.047339 87.6230398 104.500858"></polygon>
                <polygon id="Fill-66" fill="#F14BF3" points="93.9094873 106.047339 95.4559682 107.593295 97.002449 106.047339 95.4559682 104.500858"></polygon>
                <polygon id="Fill-68" fill="#FFFFFF" points="16.0487197 83.5272038 16.9241656 84.4021242 17.7996115 83.5272038 16.9241656 82.651758"></polygon>
                <polygon id="Fill-70" fill="#FFFFFF" points="20.4824379 83.5272038 21.3578838 84.4021242 22.2333296 83.5272038 21.3578838 82.651758"></polygon>
                <polygon id="Fill-72" fill="#FFFFFF" points="26.666785 83.5272038 25.7913392 82.651758 24.9158933 83.5272038 25.7913392 84.4021242"></polygon>
                <polygon id="Fill-74" fill="#FFFFFF" points="16.0487197 88.121035 16.9241656 88.9964809 17.7996115 88.121035 16.9241656 87.2461146"></polygon>
                <polygon id="Fill-76" fill="#FFFFFF" points="20.4824379 88.121035 21.3578838 88.9964809 22.2333296 88.121035 21.3578838 87.2461146"></polygon>
                <polygon id="Fill-78" fill="#FFFFFF" points="24.9161561 88.121035 25.7916019 88.9964809 26.6670478 88.121035 25.7916019 87.2461146"></polygon>
                <polygon id="Fill-80" fill="#FFFFFF" points="16.0487197 92.7153917 16.9241656 93.5908376 17.7996115 92.7153917 16.9241656 91.8404713"></polygon>
                <polygon id="Fill-82" fill="#FFFFFF" points="20.4824379 92.7153917 21.3578838 93.5908376 22.2333296 92.7153917 21.3578838 91.8404713"></polygon>
                <polygon id="Fill-84" fill="#FFFFFF" points="24.9161561 92.7153917 25.7916019 93.5908376 26.6670478 92.7153917 25.7916019 91.8404713"></polygon>
                <polygon id="Fill-86" fill="#FFFFFF" points="49.0873392 25.4783041 49.9622596 26.3532245 50.8377054 25.4783041 49.9622596 24.6028583"></polygon>
                <polygon id="Fill-88" fill="#FFFFFF" points="53.5210573 25.4783041 54.3959777 26.3532245 55.2714236 25.4783041 54.3959777 24.6028583"></polygon>
                <polygon id="Fill-90" fill="#FFFFFF" points="59.7051417 25.4783041 58.8296959 24.6028583 57.9547755 25.4783041 58.8296959 26.3532245"></polygon>
                <polygon id="Fill-92" fill="#FFFFFF" points="49.0873392 30.0721354 49.9622596 30.9475812 50.8377054 30.0721354 49.9622596 29.197215"></polygon>
                <polygon id="Fill-94" fill="#FFFFFF" points="53.5210573 30.0721354 54.3959777 30.9475812 55.2714236 30.0721354 54.3959777 29.197215"></polygon>
                <polygon id="Fill-96" fill="#FFFFFF" points="57.9547755 30.0721354 58.8296959 30.9475812 59.7051417 30.0721354 58.8296959 29.197215"></polygon>
                <polygon id="Fill-98" fill="#FFFFFF" points="49.0873392 34.6664395 49.9622596 35.5418854 50.8377054 34.6664395 49.9622596 33.7915191"></polygon>
                <polygon id="Fill-100" fill="#FFFFFF" points="53.5210573 34.6664395 54.3959777 35.5418854 55.2714236 34.6664395 54.3959777 33.7915191"></polygon>
                <polygon id="Fill-102" fill="#FFFFFF" points="57.9547755 34.6664395 58.8296959 35.5418854 59.7051417 34.6664395 58.8296959 33.7915191"></polygon>
                <polygon id="Fill-104" fill="#FFFFFF" points="22.2330669 124.722344 23.1085127 125.59779 23.9834331 124.722344 23.1085127 123.846898"></polygon>
                <polygon id="Fill-106" fill="#FFFFFF" points="26.666785 124.722344 27.5422309 125.59779 28.4171513 124.722344 27.5422309 123.846898"></polygon>
                <polygon id="Fill-108" fill="#FFFFFF" points="32.850922 124.722344 31.9754761 123.846898 31.1005557 124.722344 31.9754761 125.59779"></polygon>
                <polygon id="Fill-110" fill="#FFFFFF" points="22.2330669 129.316648 23.1085127 130.191568 23.9834331 129.316648 23.1085127 128.441202"></polygon>
                <polygon id="Fill-112" fill="#FFFFFF" points="26.666785 129.316648 27.5422309 130.191568 28.4171513 129.316648 27.5422309 128.441202"></polygon>
                <polygon id="Fill-114" fill="#FFFFFF" points="31.1005032 129.316648 31.975949 130.191568 32.8508694 129.316648 31.975949 128.441202"></polygon>
                <polygon id="Fill-116" fill="#FFFFFF" points="22.2330669 133.911005 23.1085127 134.785925 23.9834331 133.911005 23.1085127 133.035559"></polygon>
                <polygon id="Fill-118" fill="#FFFFFF" points="26.666785 133.911005 27.5422309 134.785925 28.4171513 133.911005 27.5422309 133.035559"></polygon>
                <polygon id="Fill-120" fill="#FFFFFF" points="31.1005032 133.911005 31.975949 134.785925 32.8508694 133.911005 31.975949 133.035559"></polygon>
                <polygon id="Fill-122" fill="#FFFFFF" points="78.6603344 12.4568694 79.5357803 13.3317898 80.4107006 12.4568694 79.5357803 11.5814236"></polygon>
                <polygon id="Fill-124" fill="#FFFFFF" points="83.0940525 12.4568694 83.9694984 13.3317898 84.8444188 12.4568694 83.9694984 11.5814236"></polygon>
                <polygon id="Fill-126" fill="#FFFFFF" points="89.2781895 12.4568694 88.4032691 11.5814236 87.5278232 12.4568694 88.4032691 13.3317898"></polygon>
                <polygon id="Fill-128" fill="#FFFFFF" points="78.6603344 17.0507006 79.5357803 17.9261465 80.4107006 17.0507006 79.5357803 16.1757803"></polygon>
                <polygon id="Fill-130" fill="#FFFFFF" points="83.0940525 17.0507006 83.9694984 17.9261465 84.8444188 17.0507006 83.9694984 16.1757803"></polygon>
                <polygon id="Fill-132" fill="#FFFFFF" points="87.5277707 17.0507006 88.4032166 17.9261465 89.2781369 17.0507006 88.4032166 16.1757803"></polygon>
                <polygon id="Fill-134" fill="#FFFFFF" points="78.6603344 21.6450573 79.5357803 22.5205032 80.4107006 21.6450573 79.5357803 20.7701369"></polygon>
                <polygon id="Fill-136" fill="#FFFFFF" points="83.0940525 21.6450573 83.9694984 22.5205032 84.8444188 21.6450573 83.9694984 20.7701369"></polygon>
                <polygon id="Fill-138" fill="#FFFFFF" points="87.5277707 21.6450573 88.4032166 22.5205032 89.2781369 21.6450573 88.4032166 20.7701369"></polygon>
                <path d="M91.4052707,80.7797436 C90.1052389,80.7797436 89.0521815,79.7261608 89.0521815,78.4266545 C89.0521815,77.1271481 90.1052389,76.0740908 91.4052707,76.0740908 C92.7047771,76.0740908 93.7583599,77.1271481 93.7583599,78.4266545 C93.7583599,79.7261608 92.7047771,80.7797436 91.4052707,80.7797436 M91.4052707,74.6447914 C89.3164968,74.6447914 87.6234076,76.3384061 87.6234076,78.4266545 C87.6234076,80.5154283 89.3164968,82.2085175 91.4052707,82.2085175 C93.4940446,82.2085175 95.1866083,80.5154283 95.1866083,78.4266545 C95.1866083,76.3384061 93.4940446,74.6447914 91.4052707,74.6447914" id="Fill-140" fill="#FFFFFF"></path>
                <path d="M33.6963631,7.95131847 C32.3968567,7.95131847 31.3432739,6.89826115 31.3432739,5.5982293 C31.3432739,4.29924841 32.3968567,3.24566561 33.6963631,3.24566561 C34.9958694,3.24566561 36.0494522,4.29924841 36.0494522,5.5982293 C36.0494522,6.89826115 34.9958694,7.95131847 33.6963631,7.95131847 M33.6963631,1.81689172 C31.6075892,1.81689172 29.9145,3.50998089 29.9145,5.5982293 C29.9145,7.68700318 31.6075892,9.38061783 33.6963631,9.38061783 C35.7851369,9.38061783 37.4777006,7.68700318 37.4777006,5.5982293 C37.4777006,3.50998089 35.7851369,1.81689172 33.6963631,1.81689172" id="Fill-142" fill="#FFFFFF"></path>
                <path d="M23.8110764,111.190768 C22.8047866,111.190768 21.9887197,110.374701 21.9887197,109.368411 C21.9887197,108.362121 22.8047866,107.546054 23.8110764,107.546054 C24.8173662,107.546054 25.6334331,108.362121 25.6334331,109.368411 C25.6334331,110.374701 24.8173662,111.190768 23.8110764,111.190768 M23.8110764,106.439398 C22.1936561,106.439398 20.8820637,107.75099 20.8820637,109.368411 C20.8820637,110.985831 22.1936561,112.296898 23.8110764,112.296898 C25.4284968,112.296898 26.7400892,110.985831 26.7400892,109.368411 C26.7400892,107.75099 25.4284968,106.439398 23.8110764,106.439398" id="Fill-144" fill="#FFFFFF"></path>
                <path d="M89.684121,123.757567 C87.9227197,123.757567 86.4955223,122.329844 86.4955223,120.568968 C86.4955223,118.807567 87.9227197,117.379844 89.684121,117.379844 L89.684121,115.443459 C86.8533726,115.443459 84.5586115,117.73822 84.5586115,120.568968 C84.5586115,123.399191 86.8533726,125.694478 89.684121,125.694478 L89.684121,123.757567 Z" id="Fill-146" fill="#FFFFFF"></path>
                <path d="M21.0502691,12.7483519 C21.0502691,15.705215 18.6535653,18.1019188 15.6967022,18.1019188 C12.7403646,18.1019188 10.3436608,15.705215 10.3436608,12.7483519 L7.09200478,12.7483519 C7.09200478,17.5007723 10.9448073,21.3530494 15.6967022,21.3530494 C20.4491226,21.3530494 24.3013997,17.5007723 24.3013997,12.7483519 L21.0502691,12.7483519 Z" id="Fill-148" fill="#7137B0"></path>
                <path d="M56.1874395,152.910807 C56.1874395,149.953944 58.5841433,147.55724 61.5410064,147.55724 C64.4973439,147.55724 66.8945732,149.953944 66.8945732,152.910807 L70.1451783,152.910807 C70.1451783,148.158387 66.2929013,144.30611 61.5410064,144.30611 C56.7891115,144.30611 52.9363089,148.158387 52.9363089,152.910807 L56.1874395,152.910807 Z" id="Fill-150" fill="#7137B0"></path>
                <path d="M101.883506,65.9519713 C101.883506,68.0554586 100.178331,69.7611592 98.0743185,69.7611592 C95.9708312,69.7611592 94.2651306,68.0554586 94.2651306,65.9519713 L91.9525032,65.9519713 C91.9525032,69.3334204 94.6928694,72.0743121 98.0743185,72.0743121 C101.455768,72.0743121 104.196659,69.3334204 104.196659,65.9519713 L101.883506,65.9519713 Z" id="Fill-152" fill="#2EC4FF"></path>
                <path d="M16.6246146,50.0846338 C16.6246146,47.980621 18.3297898,46.2754459 20.4338025,46.2754459 C22.5372898,46.2754459 24.2429904,47.980621 24.2429904,50.0846338 L26.5561433,50.0846338 C26.5561433,46.7031847 23.8152516,43.962293 20.4338025,43.962293 C17.0523535,43.962293 14.3114618,46.7031847 14.3114618,50.0846338 L16.6246146,50.0846338 Z" id="Fill-154" fill="#7137B0"></path>
                <path d="M18.1688646,145.613131 C18.1688646,143.851729 19.5965876,142.424532 21.3574634,142.424532 C23.1188646,142.424532 24.5465876,143.851729 24.5465876,145.613131 L26.4829729,145.613131 C26.4829729,142.782382 24.1882118,140.487621 21.3574634,140.487621 C18.5272404,140.487621 16.2324793,142.782382 16.2324793,145.613131 L18.1688646,145.613131 Z" id="Fill-156" fill="#FFFFFF"></path>
                <path d="M8.92576433,38.6127325 C10.6866401,38.6127325 12.1143631,37.1850096 12.1143631,35.4241338 C12.1143631,33.6627325 10.6866401,32.2350096 8.92576433,32.2350096 L8.92576433,30.2991497 C11.7565127,30.2991497 14.0507484,32.5933854 14.0507484,35.4241338 C14.0507484,38.2543567 11.7565127,40.5496433 8.92576433,40.5496433 L8.92576433,38.6127325 Z" id="Fill-158" fill="#FFFFFF"></path>
            </g>
            <path d="M41.184,97.528 C44.704,97.528 47.476,96.6113333 49.5,94.778 C51.524,92.9446667 52.536,90.1946667 52.536,86.528 L52.536,86.528 L52.536,67.652 L43.648,67.652 L43.648,86.396 C43.648,87.4226667 43.3473333,88.2293333 42.746,88.816 C42.1446667,89.4026667 41.36,89.696 40.392,89.696 C39.16,89.696 37.8986667,89.256 36.608,88.376 L36.608,88.376 L33,95.152 C35.0533333,96.736 37.7813333,97.528 41.184,97.528 Z M68.772,97.528 C71.0893333,97.528 73.1866667,97.264 75.064,96.736 C76.9706667,96.1786667 78.5766667,95.2546667 79.882,93.964 C81.1873333,92.6733333 81.84,91.0746667 81.84,89.168 C81.84,87.6133333 81.3266667,86.1833333 80.3,84.878 C79.2733333,83.5726667 77.9093333,82.568 76.208,81.864 C79.64,80.456 81.356,78.1973333 81.356,75.088 C81.356,73.2693333 80.7033333,71.744 79.398,70.512 C78.0926667,69.28 76.538,68.422 74.734,67.938 C72.93,67.454 70.9426667,67.212 68.772,67.212 C66.6013333,67.212 64.614,67.454 62.81,67.938 C61.006,68.422 59.4513333,69.28 58.146,70.512 C56.8406667,71.744 56.188,73.2693333 56.188,75.088 C56.188,78.1973333 57.8893333,80.456 61.292,81.864 C59.5906667,82.568 58.234,83.5726667 57.222,84.878 C56.21,86.1833333 55.704,87.6133333 55.704,89.168 C55.704,91.0746667 56.3566667,92.6733333 57.662,93.964 C58.9673333,95.2546667 60.566,96.1713333 62.458,96.714 C64.35,97.2566667 66.4546667,97.528 68.772,97.528 Z M68.772,78.432 C67.8333333,78.2853333 67.0046667,78.0213333 66.286,77.64 C65.5673333,77.2586667 65.208,76.848 65.208,76.408 C65.208,75.8213333 65.5233333,75.3446667 66.154,74.978 C66.7846667,74.6113333 67.6573333,74.428 68.772,74.428 C69.8573333,74.428 70.7153333,74.6113333 71.346,74.978 C71.9766667,75.3446667 72.292,75.8213333 72.292,76.408 C72.292,76.848 71.94,77.2586667 71.236,77.64 C70.532,78.0213333 69.7106667,78.2853333 68.772,78.432 Z M68.772,90.312 C67.54,90.312 66.5573333,90.1066667 65.824,89.696 C65.0906667,89.2853333 64.724,88.772 64.724,88.156 C64.724,87.628 65.1346667,87.1513333 65.956,86.726 C66.7773333,86.3006667 67.716,86.0146667 68.772,85.868 C69.7986667,86.0146667 70.73,86.3006667 71.566,86.726 C72.402,87.1513333 72.82,87.628 72.82,88.156 C72.82,88.772 72.446,89.2853333 71.698,89.696 C70.95,90.1066667 69.9746667,90.312 68.772,90.312 Z" id="J8" fill="#FFFFFF" fill-rule="nonzero"></path>
        </g>
    </g>
</svg>