<?xml version="1.0" encoding="UTF-8"?>
<svg width="116px" height="165px" viewBox="0 0 116 165" version="1.1" xmlns="http://www.w3.org/2000/svg" xmlns:xlink="http://www.w3.org/1999/xlink">
    <!-- Generator: Sketch 63.1 (92452) - https://sketch.com -->
    <title>Group 28</title>
    <desc>Created with Sketch.</desc>
    <defs>
        <linearGradient x1="50.0001127%" y1="100%" x2="50.0001127%" y2="-0.000219811161%" id="linearGradient-1">
            <stop stop-color="#00C9FF" offset="0%"></stop>
            <stop stop-color="#24F291" offset="100%"></stop>
        </linearGradient>
    </defs>
    <g id="Page-1" stroke="none" stroke-width="1" fill="none" fill-rule="evenodd">
        <g id="Group-28">
            <g id="Group-16-Copy-2">
                <g id="Group-512">
                    <g id="Group-25">
                        <polygon id="Fill-1" fill="url(#linearGradient-1)" points="2.62900812e-13 164.758035 115.230623 164.758035 115.230623 7.10542736e-14 2.62900812e-13 7.10542736e-14"></polygon>
                        <polygon id="Fill-3" fill="#FFFFFF" points="88.6830192 146.192688 87.4863738 147.389334 86.2902556 146.192688 87.4863738 144.996043"></polygon>
                        <polygon id="Fill-4" fill="#FFFFFF" points="91.7800639 146.192688 90.5834185 147.389334 89.3873003 146.192688 90.5834185 144.996043"></polygon>
                        <polygon id="Fill-5" fill="#FFFFFF" points="94.8776358 146.192688 93.6809904 147.389334 92.4848722 146.192688 93.6809904 144.996043"></polygon>
                        <polygon id="Fill-6" fill="#FFFFFF" points="28.7496422 112.967171 27.5529968 114.163816 26.3563514 112.967171 27.5529968 111.770526"></polygon>
                        <polygon id="Fill-7" fill="#FFFFFF" points="31.8468978 112.967171 30.6502524 114.163816 29.4541342 112.967171 30.6502524 111.770526"></polygon>
                        <polygon id="Fill-8" fill="#FFFFFF" points="34.9444696 112.967171 33.7478243 114.163816 32.5511789 112.967171 33.7478243 111.770526"></polygon>
                        <polygon id="Fill-9" fill="#FFFFFF" points="18.354484 64.5680847 17.1578387 65.76473 15.9617204 64.5680847 17.1578387 63.3714393"></polygon>
                        <polygon id="Fill-10" fill="#FFFFFF" points="21.4517923 64.5680847 20.255147 65.76473 19.0590288 64.5680847 20.255147 63.3714393"></polygon>
                        <polygon id="Fill-11" fill="#FFFFFF" points="24.5493642 64.5680847 23.3527188 65.76473 22.1566006 64.5680847 23.3527188 63.3714393"></polygon>
                        <polygon id="Fill-15" fill="#FFFFFF" points="30.4345399 15.8197572 29.2378946 17.0164026 28.0417764 15.8197572 29.2378946 14.6231118"></polygon>
                        <polygon id="Fill-16" fill="#FFFFFF" points="33.5321118 15.8197572 32.3354665 17.0164026 31.1393482 15.8197572 32.3354665 14.6231118"></polygon>
                        <polygon id="Fill-17" fill="#FFFFFF" points="36.6294201 15.8197572 35.4327748 17.0164026 34.2366565 15.8197572 35.4327748 14.6231118"></polygon>
                    </g>
                    <g id="Group-511" transform="translate(7.271565, 7.138754)">
                        <path d="M89.420754,59.951353 C89.420754,60.2945319 89.1429425,60.5728706 88.7992364,60.5728706 C88.4560575,60.5728706 88.178246,60.2945319 88.178246,59.951353 C88.178246,59.6081741 88.4560575,59.3298355 88.7992364,59.3298355 C89.1429425,59.3298355 89.420754,59.6081741 89.420754,59.951353" id="Fill-21" fill="#FFFFFF"></path>
                        <path d="M9.97019649,67.5910112 C9.97019649,67.9341901 9.69185783,68.2125288 9.34867891,68.2125288 C9.0055,68.2125288 8.7276885,67.9341901 8.7276885,67.5910112 C8.7276885,67.2478323 9.0055,66.9694936 9.34867891,66.9694936 C9.69185783,66.9694936 9.97019649,67.2478323 9.97019649,67.5910112" id="Fill-23" fill="#FFFFFF"></path>
                        <path d="M73.3311454,131.681703 C73.3311454,132.024882 73.0528067,132.30322 72.7096278,132.30322 C72.3664489,132.30322 72.0886374,132.024882 72.0886374,131.681703 C72.0886374,131.338524 72.3664489,131.060185 72.7096278,131.060185 C73.0528067,131.060185 73.3311454,131.338524 73.3311454,131.681703" id="Fill-25" fill="#FFFFFF"></path>
                        <path d="M78.3828866,11.80973 C78.3828866,12.1529089 78.1045479,12.4312476 77.761369,12.4312476 C77.4181901,12.4312476 77.1398514,12.1529089 77.1398514,11.80973 C77.1398514,11.4665511 77.4181901,11.1882125 77.761369,11.1882125 C78.1045479,11.1882125 78.3828866,11.4665511 78.3828866,11.80973" id="Fill-27" fill="#FFFFFF"></path>
                        <path d="M1.97945208,30.1005863 C1.97945208,30.4437652 1.70111342,30.7221038 1.3579345,30.7221038 C1.01475559,30.7221038 0.736944089,30.4437652 0.736944089,30.1005863 C0.736944089,29.7574073 1.01475559,29.4790687 1.3579345,29.4790687 C1.70111342,29.4790687 1.97945208,29.7574073 1.97945208,30.1005863" id="Fill-29" fill="#FFFFFF"></path>
                        <polygon id="Fill-31" fill="#FFFFFF" points="44.4632125 21.7130064 46.014107 23.263901 47.5655288 21.7130064 46.014107 20.1615847"></polygon>
                        <polygon id="Fill-33" fill="#FFFFFF" points="52.3205863 21.7130064 53.8714808 23.263901 55.4234297 21.7130064 53.8714808 20.1615847"></polygon>
                        <polygon id="Fill-35" fill="#FFFFFF" points="63.2806981 21.7130064 61.7298035 20.1615847 60.1778546 21.7130064 61.7298035 23.263901"></polygon>
                        <polygon id="Fill-37" fill="#FFFFFF" points="44.4632125 29.8548866 46.014107 31.4063083 47.5655288 29.8548866 46.014107 28.303992"></polygon>
                        <polygon id="Fill-39" fill="#FFFFFF" points="52.3205863 29.8548866 53.8714808 31.4063083 55.4234297 29.8548866 53.8714808 28.303992"></polygon>
                        <polygon id="Fill-41" fill="#FFFFFF" points="60.1780128 29.8548866 61.7294345 31.4063083 63.2808562 29.8548866 61.7294345 28.303992"></polygon>
                        <polygon id="Fill-43" fill="#FFFFFF" points="44.4632125 37.9969776 46.014107 39.5478722 47.5655288 37.9969776 46.014107 36.4460831"></polygon>
                        <polygon id="Fill-45" fill="#FFFFFF" points="52.3205863 37.9969776 53.8714808 39.5478722 55.4234297 37.9969776 53.8714808 36.4460831"></polygon>
                        <polygon id="Fill-47" fill="#FFFFFF" points="60.1780128 37.9969776 61.7294345 39.5478722 63.2808562 37.9969776 61.7294345 36.4460831"></polygon>
                        <path d="M2.45642332,83.9693962 L2.45642332,101.221121 L11.0822859,92.5952588 L2.45642332,83.9693962 Z M1.93348403,102.483134 L1.93348403,82.7068562 L11.8218866,92.5952588 L1.93348403,102.483134 Z" id="Fill-471" fill="#FFFFFF"></path>
                        <path d="M93.3780128,104.153746 L102.655968,113.431701 L102.655968,94.8757907 L93.3780128,104.153746 Z M103.17838,114.693714 L92.6389393,104.153746 L103.17838,93.613778 L103.17838,114.693714 Z" id="Fill-473" fill="#FFFFFF"></path>
                        <polygon id="Fill-479" fill="#B0FFD8" points="3.92202396 18.4491086 10.1914968 24.7185815 10.1914968 12.1796358"></polygon>
                        <path d="M6.40698722,6.14021406 C5.18398403,6.14021406 4.19292971,5.14915974 4.19292971,3.92615655 C4.19292971,2.70315335 5.18398403,1.71209904 6.40698722,1.71209904 C7.62946326,1.71209904 8.62104473,2.70315335 8.62104473,3.92615655 C8.62104473,5.14915974 7.62946326,6.14021406 6.40698722,6.14021406 M6.40698722,0.36784984 C4.44122045,0.36784984 2.84868051,1.96091693 2.84868051,3.92615655 C2.84868051,5.89139617 4.44122045,7.48446326 6.40698722,7.48446326 C8.37222684,7.48446326 9.96529393,5.89139617 9.96529393,3.92615655 C9.96529393,1.96091693 8.37222684,0.36784984 6.40698722,0.36784984" id="Fill-481" fill="#FFFFFF"></path>
                        <path d="M74.0642093,101.397244 C72.8417332,101.397244 71.8501518,100.40619 71.8501518,99.1831869 C71.8501518,97.9607109 72.8417332,96.9696565 74.0642093,96.9696565 C75.2866853,96.9696565 76.2777396,97.9607109 76.2777396,99.1831869 C76.2777396,100.40619 75.2866853,101.397244 74.0642093,101.397244 M74.0642093,95.6248802 C72.0984425,95.6248802 70.5059026,97.2179473 70.5059026,99.1831869 C70.5059026,101.148427 72.0984425,102.741494 74.0642093,102.741494 C76.0294489,102.741494 77.622516,101.148427 77.622516,99.1831869 C77.622516,97.2179473 76.0294489,95.6248802 74.0642093,95.6248802" id="Fill-483" fill="#FFFFFF"></path>
                        <path d="M5.25794409,50.182246 C4.03546805,50.182246 3.04388658,49.1911917 3.04388658,47.9681885 C3.04388658,46.7457125 4.03546805,45.7546581 5.25794409,45.7546581 C6.48094728,45.7546581 7.4720016,46.7457125 7.4720016,47.9681885 C7.4720016,49.1911917 6.48094728,50.182246 5.25794409,50.182246 M5.25794409,44.4098818 C3.29270447,44.4098818 1.69963738,46.0029489 1.69963738,47.9681885 C1.69963738,49.9334281 3.29270447,51.5264952 5.25794409,51.5264952 C7.22318371,51.5264952 8.8162508,49.9334281 8.8162508,47.9681885 C8.8162508,46.0029489 7.22318371,44.4098818 5.25794409,44.4098818" id="Fill-485" fill="#FFFFFF"></path>
                        <path d="M93.2138035,8.40097764 C91.8653371,8.40097764 90.7725415,7.30818211 90.7725415,5.96024281 C90.7725415,4.61230351 91.8653371,3.51898083 93.2138035,3.51898083 C94.5617428,3.51898083 95.6545383,4.61230351 95.6545383,5.96024281 C95.6545383,7.30818211 94.5617428,8.40097764 93.2138035,8.40097764 M93.2138035,2.03661661 C91.0471901,2.03661661 89.2907045,3.79310224 89.2907045,5.96024281 C89.2907045,8.12685623 91.0471901,9.88334185 93.2138035,9.88334185 C95.3804169,9.88334185 97.1369026,8.12685623 97.1369026,5.96024281 C97.1369026,3.79310224 95.3804169,2.03661661 93.2138035,2.03661661" id="Fill-489" fill="#FFFFFF"></path>
                        <path d="M91.4310655,150.173142 C90.082599,150.173142 88.9903307,149.080347 88.9903307,147.732407 C88.9903307,146.384468 90.082599,145.291145 91.4310655,145.291145 C92.7795319,145.291145 93.8718003,146.384468 93.8718003,147.732407 C93.8718003,149.080347 92.7795319,150.173142 91.4310655,150.173142 M91.4310655,143.808781 C89.2644521,143.808781 87.5079665,145.565267 87.5079665,147.732407 C87.5079665,149.899021 89.2644521,151.655506 91.4310655,151.655506 C93.5976789,151.655506 95.3541645,149.899021 95.3541645,147.732407 C95.3541645,145.565267 93.5976789,143.808781 91.4310655,143.808781" id="Fill-491" fill="#FFFFFF"></path>
                        <path d="M26.6515335,42.225607 C25.3035942,42.225607 24.2107987,41.1328115 24.2107987,39.7848722 C24.2107987,38.4369329 25.3035942,37.3436102 26.6515335,37.3436102 C27.9994728,37.3436102 29.0922684,38.4369329 29.0922684,39.7848722 C29.0922684,41.1328115 27.9994728,42.225607 26.6515335,42.225607 M26.6515335,35.861246 C24.4849201,35.861246 22.7284345,37.6177316 22.7284345,39.7848722 C22.7284345,41.9514856 24.4849201,43.7079712 26.6515335,43.7079712 C28.818147,43.7079712 30.5746326,41.9514856 30.5746326,39.7848722 C30.5746326,37.6177316 28.818147,35.861246 26.6515335,35.861246" id="Fill-493" fill="#FFFFFF"></path>
                        <path d="M79.6482732,2.03672204 C79.6482732,2.76208946 79.0604936,3.34986901 78.3356534,3.34986901 C77.6102859,3.34986901 77.0225064,2.76208946 77.0225064,2.03672204 C77.0225064,1.31188179 77.6102859,0.72357508 78.3356534,0.72357508 C79.0604936,0.72357508 79.6482732,1.31188179 79.6482732,2.03672204" id="Fill-495" fill="#2ED8CD"></path>
                        <path d="M2.67108147,70.3972236 C2.67108147,71.1220639 2.08330192,71.7103706 1.3579345,71.7103706 C0.632567093,71.7103706 0.0453146965,71.1220639 0.0453146965,70.3972236 C0.0453146965,69.6718562 0.632567093,69.0840767 1.3579345,69.0840767 C2.08330192,69.0840767 2.67108147,69.6718562 2.67108147,70.3972236" id="Fill-497" fill="#2ED8CD"></path>
                        <path d="M62.7632907,109.364056 C62.7632907,110.089423 62.1755112,110.677203 61.4501438,110.677203 C60.7253035,110.677203 60.137524,110.089423 60.137524,109.364056 C60.137524,108.639216 60.7253035,108.050909 61.4501438,108.050909 C62.1755112,108.050909 62.7632907,108.639216 62.7632907,109.364056" id="Fill-499" fill="#2ED8CD"></path>
                        <path d="M103.217442,31.0975447 C103.217442,31.6152125 102.797299,32.0348291 102.280158,32.0348291 C101.761963,32.0348291 101.341819,31.6152125 101.341819,31.0975447 C101.341819,30.579877 101.761963,30.1602604 102.280158,30.1602604 C102.797299,30.1602604 103.217442,30.579877 103.217442,31.0975447" id="Fill-503" fill="#2ED8CD"></path>
                        <path d="M7.99436102,35.151853 C7.99436102,35.6695208 7.57474441,36.0891374 7.05707668,36.0891374 C6.53888179,36.0891374 6.11926518,35.6695208 6.11926518,35.151853 C6.11926518,34.6341853 6.53888179,34.2140415 7.05707668,34.2140415 C7.57474441,34.2140415 7.99436102,34.6341853 7.99436102,35.151853" id="Fill-505" fill="#2ED8CD"></path>
                        <path d="M38.5931629,103.232751 C38.5931629,103.750419 38.1735463,104.170035 37.6558786,104.170035 C37.1376837,104.170035 36.7180671,103.750419 36.7180671,103.232751 C36.7180671,102.715083 37.1376837,102.294939 37.6558786,102.294939 C38.1735463,102.294939 38.5931629,102.715083 38.5931629,103.232751" id="Fill-507" fill="#2ED8CD"></path>
                        <path d="M77.959738,147.732196 C77.959738,148.249864 77.5401214,148.669481 77.0224537,148.669481 C76.5042588,148.669481 76.0846422,148.249864 76.0846422,147.732196 C76.0846422,147.214529 76.5042588,146.794912 77.0224537,146.794912 C77.5401214,146.794912 77.959738,147.214529 77.959738,147.732196" id="Fill-509" fill="#2ED8CD"></path>
                    </g>
                </g>
            </g>
            <path d="M43.184,97.528 C46.704,97.528 49.476,96.6113333 51.5,94.778 C53.524,92.9446667 54.536,90.1946667 54.536,86.528 L54.536,86.528 L54.536,67.652 L45.648,67.652 L45.648,86.396 C45.648,87.4226667 45.3473333,88.2293333 44.746,88.816 C44.1446667,89.4026667 43.36,89.696 42.392,89.696 C41.16,89.696 39.8986667,89.256 38.608,88.376 L38.608,88.376 L35,95.152 C37.0533333,96.736 39.7813333,97.528 43.184,97.528 Z M68.22,97.484 C72.884,97.484 76.6166667,96.1566667 79.418,93.502 C82.2193333,90.8473333 83.62,87.1146667 83.62,82.304 C83.62,77.7866667 82.4393333,74.1346667 80.078,71.348 C77.7166667,68.5613333 74.2333333,67.168 69.628,67.168 C66.108,67.168 63.1966667,68.1433333 60.894,70.094 C58.5913333,72.0446667 57.44,74.5893333 57.44,77.728 C57.44,80.72 58.4666667,83.0886667 60.52,84.834 C62.5733333,86.5793333 65.008,87.452 67.824,87.452 C70.816,87.452 73.0893333,86.4546667 74.644,84.46 L74.644,84.46 L74.644,84.592 C74.644,86.0293333 74.0353333,87.232 72.818,88.2 C71.6006667,89.168 70.068,89.652 68.22,89.652 C66.108,89.652 64.304,89.124 62.808,88.068 L62.808,88.068 L59.068,94.932 C61.5613333,96.6333333 64.612,97.484 68.22,97.484 Z M70.552,79.928 C69.496,79.928 68.55,79.7153333 67.714,79.29 C66.878,78.8646667 66.46,78.2266667 66.46,77.376 C66.46,76.7306667 66.812,76.1733333 67.516,75.704 C68.22,75.2346667 69.1,75 70.156,75 C71.6226667,75 72.7226667,75.352 73.456,76.056 C74.1893333,76.76 74.6,77.6546667 74.688,78.74 C73.6613333,79.532 72.2826667,79.928 70.552,79.928 Z" id="J9" fill="#FFFFFF" fill-rule="nonzero"></path>
            <g id="Group-23" transform="translate(6.000000, 29.000000)">
                <polygon id="Fill-42" fill="#FFFFFF" points="2.44331369 133.172874 1.24995382 134.365709 0.0576449045 133.172874 1.24995382 131.98004"></polygon>
                <polygon id="Fill-44" fill="#FFFFFF" points="5.53049522 133.172874 4.33766083 134.365709 3.14535191 133.172874 4.33766083 131.98004"></polygon>
                <polygon id="Fill-46" fill="#FFFFFF" points="8.61814968 133.172874 7.42531529 134.365709 6.23300637 133.172874 7.42531529 131.98004"></polygon>
                <path d="M2.50074841,95.3392675 C2.50074841,96.0297452 1.94111465,96.5899045 1.25011146,96.5899045 C0.560159236,96.5899045 0,96.0297452 0,95.3392675 C0,94.6487898 0.560159236,94.0886306 1.25011146,94.0886306 C1.94111465,94.0886306 2.50074841,94.6487898 2.50074841,95.3392675" id="Fill-50" fill="#FFFFFF"></path>
                <path d="M57.7164745,131.722451 C57.7164745,132.176989 57.3486401,132.544823 56.8941019,132.544823 C56.4395637,132.544823 56.0712038,132.176989 56.0712038,131.722451 C56.0712038,131.267912 56.4395637,130.899553 56.8941019,130.899553 C57.3486401,130.899553 57.7164745,131.267912 57.7164745,131.722451" id="Fill-62" fill="#FFFFFF"></path>
                <path d="M11.7453726,89.1471959 C10.9203726,89.1471959 10.250914,88.4782627 10.250914,87.6527373 C10.250914,86.8277373 10.9203726,86.1588041 11.7453726,86.1588041 C12.5708981,86.1588041 13.2398312,86.8277373 13.2398312,87.6527373 C13.2398312,88.4782627 12.5708981,89.1471959 11.7453726,89.1471959 M11.7453726,85.2507787 C10.4190669,85.2507787 9.34393949,86.3264315 9.34393949,87.6527373 C9.34393949,88.9795685 10.4190669,90.0552213 11.7453726,90.0552213 C13.0716783,90.0552213 14.1473312,88.9795685 14.1473312,87.6527373 C14.1473312,86.3264315 13.0716783,85.2507787 11.7453726,85.2507787" id="Fill-76" fill="#FFFFFF"></path>
                <path d="M43.6332516,128.737107 C42.2890796,128.737107 41.2002898,127.647791 41.2002898,126.304145 C41.2002898,124.960498 42.2890796,123.870658 43.6332516,123.870658 C44.9774236,123.870658 46.0667389,124.960498 46.0667389,126.304145 C46.0667389,127.647791 44.9774236,128.737107 43.6332516,128.737107 M43.6332516,122.393014 C41.4735382,122.393014 39.7226465,124.144432 39.7226465,126.304145 C39.7226465,128.463858 41.4735382,130.21475 43.6332516,130.21475 C45.792965,130.21475 47.5438567,128.463858 47.5438567,126.304145 C47.5438567,124.144432 45.792965,122.393014 43.6332516,122.393014" id="Fill-86" fill="#FFFFFF"></path>
                <path d="M27.4958312,91.9551911 C27.4958312,89.9725637 29.103793,88.3646019 31.0864204,88.3646019 C33.0690478,88.3646019 34.6770096,89.9725637 34.6770096,91.9551911 L36.8572166,91.9551911 C36.8572166,88.7681688 34.2734427,86.1843949 31.0864204,86.1843949 C27.8993981,86.1843949 25.3156242,88.7681688 25.3156242,91.9551911 L27.4958312,91.9551911 Z" id="Fill-88" fill="#9DFFEC"></path>
                <path d="M2.8733121,83.954793 C2.8733121,84.4823726 2.44609873,84.909586 1.91851911,84.909586 C1.39093949,84.909586 0.963200637,84.4823726 0.963200637,83.954793 C0.963200637,83.4277389 1.39093949,83 1.91851911,83 C2.44609873,83 2.8733121,83.4277389 2.8733121,83.954793" id="Fill-102" fill="#7137B0"></path>
                <g id="Group-24" transform="translate(6.711611, 97.098777)" fill="#FFFFFF">
                    <path d="M7.17855096,21.0338217 L27.5176911,21.0338217 L27.5176911,0.694681529 L7.17855096,0.694681529 L7.17855096,21.0338217 Z M6.48386943,21.7290287 L28.2128981,21.7290287 L28.2128981,-8.70414851e-14 L6.48386943,-8.70414851e-14 L6.48386943,21.7290287 Z" id="Fill-111"></path>
                    <path d="M0.695207006,25.4819904 L21.0343471,25.4819904 L21.0343471,5.14285032 L0.695207006,5.14285032 L0.695207006,25.4819904 Z M3.67705866e-13,26.176672 L21.7290287,26.176672 L21.7290287,4.44764331 L3.67705866e-13,4.44764331 L3.67705866e-13,26.176672 Z" id="Fill-112"></path>
                    <polygon id="Fill-113" points="0.544132166 5.08168471 0.151074841 4.50891401 6.63494427 0.0612707006 7.02800159 0.634041401"></polygon>
                    <polygon id="Fill-114" points="0.544132166 26.1157166 0.151074841 25.5429459 6.63494427 21.0947771 7.02800159 21.6680732"></polygon>
                    <polygon id="Fill-115" points="21.5781115 26.1157166 21.1850541 25.5429459 27.6689236 21.0947771 28.0619809 21.6680732"></polygon>
                    <polygon id="Fill-116" points="21.5781115 5.08168471 21.1850541 4.50891401 27.6689236 0.0612707006 28.0619809 0.634041401"></polygon>
                </g>
                <g id="Group-24-Copy" transform="translate(72.000000, 0.000000)" fill="#FFFFFF">
                    <path d="M7.17855096,21.0338217 L27.5176911,21.0338217 L27.5176911,0.694681529 L7.17855096,0.694681529 L7.17855096,21.0338217 Z M6.48386943,21.7290287 L28.2128981,21.7290287 L28.2128981,-8.70414851e-14 L6.48386943,-8.70414851e-14 L6.48386943,21.7290287 Z" id="Fill-111"></path>
                    <path d="M0.695207006,25.4819904 L21.0343471,25.4819904 L21.0343471,5.14285032 L0.695207006,5.14285032 L0.695207006,25.4819904 Z M3.67705866e-13,26.176672 L21.7290287,26.176672 L21.7290287,4.44764331 L3.67705866e-13,4.44764331 L3.67705866e-13,26.176672 Z" id="Fill-112"></path>
                    <polygon id="Fill-113" points="0.544132166 5.08168471 0.151074841 4.50891401 6.63494427 0.0612707006 7.02800159 0.634041401"></polygon>
                    <polygon id="Fill-114" points="0.544132166 26.1157166 0.151074841 25.5429459 6.63494427 21.0947771 7.02800159 21.6680732"></polygon>
                    <polygon id="Fill-115" points="21.5781115 26.1157166 21.1850541 25.5429459 27.6689236 21.0947771 28.0619809 21.6680732"></polygon>
                    <polygon id="Fill-116" points="21.5781115 5.08168471 21.1850541 4.50891401 27.6689236 0.0612707006 28.0619809 0.634041401"></polygon>
                </g>
                <path d="M52.6736226,84.9972357 C52.6736226,85.5726338 52.2064729,86.039258 51.6310748,86.039258 C51.0556768,86.039258 50.5885271,85.5726338 50.5885271,84.9972357 C50.5885271,84.4213121 51.0556768,83.9546879 51.6310748,83.9546879 C52.2064729,83.9546879 52.6736226,84.4213121 52.6736226,84.9972357" id="Fill-147" fill="#FFFFFF"></path>
                <path d="M55.7428328,89.0099411 C55.7428328,89.5858646 55.2756831,90.0519634 54.700285,90.0519634 C54.1248869,90.0519634 53.6577373,89.5858646 53.6577373,89.0099411 C53.6577373,88.4340175 54.1248869,87.9673933 54.700285,87.9673933 C55.2756831,87.9673933 55.7428328,88.4340175 55.7428328,89.0099411" id="Fill-155" fill="#FFFFFF"></path>
                <path d="M52.6736226,93.0464506 C52.6736226,93.6218487 52.2064729,94.0884729 51.6310748,94.0884729 C51.0556768,94.0884729 50.5885271,93.6218487 50.5885271,93.0464506 C50.5885271,92.4705271 51.0556768,92.0039029 51.6310748,92.0039029 C52.2064729,92.0039029 52.6736226,92.4705271 52.6736226,93.0464506" id="Fill-162" fill="#FFFFFF"></path>
                <path d="M55.7428328,97.0591035 C55.7428328,97.6350271 55.2756831,98.1016513 54.700285,98.1016513 C54.1248869,98.1016513 53.6577373,97.6350271 53.6577373,97.0591035 C53.6577373,96.4837054 54.1248869,96.0170812 54.700285,96.0170812 C55.2756831,96.0170812 55.7428328,96.4837054 55.7428328,97.0591035" id="Fill-170" fill="#FFFFFF"></path>
                <path d="M52.6736226,101.095666 C52.6736226,101.671064 52.2064729,102.137688 51.6310748,102.137688 C51.0556768,102.137688 50.5885271,101.671064 50.5885271,101.095666 C50.5885271,100.519742 51.0556768,100.053118 51.6310748,100.053118 C52.2064729,100.053118 52.6736226,100.519742 52.6736226,101.095666" id="Fill-177" fill="#FFFFFF"></path>
                <path d="M55.7428328,105.108318 C55.7428328,105.684242 55.2756831,106.150866 54.700285,106.150866 C54.1248869,106.150866 53.6577373,105.684242 53.6577373,105.108318 C53.6577373,104.53292 54.1248869,104.066296 54.700285,104.066296 C55.2756831,104.066296 55.7428328,104.53292 55.7428328,105.108318" id="Fill-185" fill="#FFFFFF"></path>
                <path d="M52.6736226,109.144881 C52.6736226,109.720804 52.2064729,110.187428 51.6310748,110.187428 C51.0556768,110.187428 50.5885271,109.720804 50.5885271,109.144881 C50.5885271,108.568957 51.0556768,108.102333 51.6310748,108.102333 C52.2064729,108.102333 52.6736226,108.568957 52.6736226,109.144881" id="Fill-192" fill="#FFFFFF"></path>
                <path d="M55.7428328,113.157533 C55.7428328,113.733457 55.2756831,114.200081 54.700285,114.200081 C54.1248869,114.200081 53.6577373,113.733457 53.6577373,113.157533 C53.6577373,112.582135 54.1248869,112.115511 54.700285,112.115511 C55.2756831,112.115511 55.7428328,112.582135 55.7428328,113.157533" id="Fill-200" fill="#FFFFFF"></path>
                <path d="M52.6736226,117.194043 C52.6736226,117.769967 52.2064729,118.236591 51.6310748,118.236591 C51.0556768,118.236591 50.5885271,117.769967 50.5885271,117.194043 C50.5885271,116.618645 51.0556768,116.152021 51.6310748,116.152021 C52.2064729,116.152021 52.6736226,116.618645 52.6736226,117.194043" id="Fill-207" fill="#FFFFFF"></path>
            </g>
            <path d="M100.175127,128.120401 C100.175127,131.110369 97.7510987,133.534398 94.7606051,133.534398 C91.7706369,133.534398 89.3466083,131.110369 89.3466083,128.120401 C89.3466083,125.130433 91.7706369,122.705879 94.7606051,122.705879 C97.7510987,122.705879 100.175127,125.130433 100.175127,128.120401" id="Fill-50-Copy" fill="#73FFB9"></path>
            <path d="M84.6945541,134.304538 C81.0440605,134.304538 78.0845701,131.345048 78.0845701,127.694554 C78.0845701,124.044061 81.0440605,121.08457 84.6945541,121.08457 C88.3455732,121.08457 91.3050637,124.044061 91.3050637,127.694554 C91.3050637,131.345048 88.3455732,134.304538 84.6945541,134.304538 M84.6945541,119 C79.8927389,119 76,122.892739 76,127.694554 C76,132.496895 79.8927389,136.389634 84.6945541,136.389634 C89.4968949,136.389634 93.3896338,132.496895 93.3896338,127.694554 C93.3896338,122.892739 89.4968949,119 84.6945541,119" id="Fill-72-Copy" fill="#FFFFFF"></path>
        </g>
    </g>
</svg>