<svg width="1200" height="628" fill="none" xmlns="http://www.w3.org/2000/svg"><path fill="#5440D8" d="M0 0h1200v628H0z"/><path d="M303.513 194.4c-4.534-1.867-9.6-3.2-15.2-4-5.334-1.067-11.867-1.6-19.6-1.6-10.934 0-21.734 2-32.4 6-10.4 4-19.734 10.533-28 19.6-8 9.067-14.534 20.933-19.6 35.6-4.8 14.667-7.2 32.667-7.2 54 0 19.2 2.133 36 6.4 50.4 4.533 14.4 10.666 26.4 18.4 36 8 9.6 17.466 16.8 28.4 21.6 11.2 4.8 23.6 7.2 37.2 7.2 6.933 0 13.333-.533 19.2-1.6 6.133-1.333 11.733-3.067 16.8-5.2v-40h29.6v54l.4.8c-8 6.133-18.134 11.333-30.4 15.6-12.267 4-27.2 6-44.8 6-16.8 0-32.4-2.8-46.8-8.4-14.134-5.867-26.4-14.667-36.801-26.4-10.399-11.733-18.533-26.667-24.399-44.8-5.6-18.4-8.4-40.133-8.4-65.2 0-26.133 3.2-48.267 9.6-66.4 6.4-18.4 15.066-33.333 26-44.8 10.933-11.733 23.6-20.267 38-25.6 14.666-5.333 30.266-8 46.8-8 9.066 0 16.933.4 23.6 1.2 6.666.533 12.533 1.467 17.6 2.8 5.066 1.067 9.466 2.533 13.2 4.4 4 1.867 7.866 4 11.6 6.4h.4v63.2h-29.6v-42.8zM382.156 304c0-22.667 2-42.933 6-60.8 4-18.133 10-33.333 18-45.6 8-12.533 18.134-22 30.4-28.4 12.267-6.667 26.8-10 43.6-10 17.867 0 32.934 3.2 45.2 9.6 12.534 6.4 22.667 15.733 30.4 28 7.734 12.267 13.334 27.467 16.8 45.6 3.467 17.867 5.2 38.4 5.2 61.6 0 22.667-2 43.067-6 61.2-4 17.867-10 33.067-18 45.6-8 12.267-18.133 21.733-30.4 28.4-12.266 6.4-26.8 9.6-43.6 9.6-17.6 0-32.666-3.467-45.2-10.4-12.266-7.2-22.4-17.2-30.4-30-7.733-12.8-13.333-28-16.8-45.6-3.466-17.867-5.2-37.467-5.2-58.8zm162.8 0c0-14.133-.8-27.6-2.4-40.4L423.756 372c4.534 15.2 11.334 27.333 20.4 36.4 9.067 9.067 20.934 13.6 35.6 13.6 23.467 0 40.134-9.733 50-29.2 10.134-19.467 15.2-49.067 15.2-88.8zm-129.6 0c0 6.667.134 13.067.4 19.2a4825.44 4825.44 0 001.6 18l119.2-108c-4.533-14.4-11.333-25.867-20.4-34.4-8.8-8.533-20.8-12.8-36-12.8-23.733 0-40.533 9.867-50.4 29.6-9.6 19.467-14.4 48.933-14.4 88.4zM632 164c10.133-1.333 20.667-2.133 31.6-2.4 11.2-.533 20.667-.8 28.4-.8 24.267 0 44.533 3.467 60.8 10.4 16.533 6.933 29.733 16.667 39.6 29.2 10.133 12.267 17.333 27.067 21.6 44.4 4.533 17.333 6.8 36.4 6.8 57.2 0 18.933-2 37.2-6 54.8-4 17.333-10.933 32.8-20.8 46.4-9.867 13.333-23.2 24.133-40 32.4-16.533 8-37.333 12-62.4 12-3.467 0-8-.133-13.6-.4-5.6 0-11.333-.267-17.2-.8-5.867-.267-11.467-.533-16.8-.8s-9.333-.667-12-1.2V164zm61.6 26.4c-3.733 0-8.533.133-14.4.4-5.6.267-10.267.8-14 1.6v224c1.333.267 3.2.533 5.6.8 2.667 0 5.333.133 8 .4 2.667 0 5.2.133 7.6.4h6.4c19.467 0 35.2-3.2 47.2-9.6 12.267-6.4 21.733-14.933 28.4-25.6 6.667-10.933 11.2-23.333 13.6-37.2 2.4-14.133 3.6-28.667 3.6-43.6 0-13.067-1.067-26.133-3.2-39.2-2.133-13.333-6.533-25.333-13.2-36-6.4-10.667-15.733-19.333-28-26-12-6.933-27.867-10.4-47.6-10.4zm245.444 230.8c10.666 0 20.4-1.333 29.2-4 9.066-2.933 16.933-6.933 23.6-12 6.666-5.067 11.866-11.2 15.596-18.4 3.74-7.2 5.6-15.2 5.6-24 0-18.4-6.53-31.467-19.596-39.2-12.8-8-30.134-12-52-12h-25.6v-19.2l78.8-99.6h-119.6V164h157.996v28.8l-78.796 92.4h6.4c12.266 0 23.466 1.733 33.6 5.2 10.136 3.467 18.936 8.4 26.396 14.8 7.47 6.4 13.2 14.133 17.2 23.2 4.27 9.067 6.4 19.333 6.4 30.8 0 14.4-2.8 27.2-8.4 38.4-5.6 11.2-13.2 20.667-22.8 28.4-9.6 7.467-20.93 13.2-33.996 17.2-12.8 3.733-26.534 5.6-41.2 5.6-13.6 0-25.467-1.067-35.6-3.2-9.867-1.867-18.934-4.267-27.2-7.2l8-28c6.933 3.2 15.066 5.867 24.4 8 9.333 1.867 19.866 2.8 31.6 2.8z" fill="#fff"/></svg>