<svg width="71" height="71" fill="none" xmlns="http://www.w3.org/2000/svg"><path fill="#fff" d="M15 23h40v25H15z"/><path d="M68.55 17.817S66.286 7.013 56.506 3.218c-4.6-1.75-12.993-2.629-21.242-2.7-8.32.074-16.714.876-21.313 2.7C4.17 7.013 1.907 17.817 1.907 17.817c-1.46 6.13-1.97 12.334-1.9 17.809-.073 5.474.366 11.753 1.9 17.809 0 0 2.264 10.803 12.044 14.598 4.599 1.75 12.993 2.629 21.242 2.7 8.249-.074 16.643-.875 21.242-2.7 9.78-3.795 12.044-14.599 12.044-14.599 1.46-6.13 1.97-12.334 1.899-17.808.069-5.472-.368-11.676-1.828-17.81zM25.12 42.563l-9.27-7.52 9.344-6.788 2.19 3.065-5.4 3.87 5.474 4.379-2.339 2.994zm8.028 5.035-3.575-1.24 7.955-22.993 3.575 1.24-7.955 22.993zm11.97-5.035-2.41-2.92 5.475-4.38-5.4-3.868 2.19-3.066 9.414 6.715-9.27 7.519z" fill="#5438DC"/></svg>