<svg version="1.1" id="Layer_1" xmlns="http://www.w3.org/2000/svg" xmlns:xlink="http://www.w3.org/1999/xlink" x="0px" y="0px" viewBox="0 0 1080 1080" enable-background="new 0 0 1080 1080" xml:space="preserve" ml-update="aware">
<path xmlns="http://www.w3.org/2000/svg" opacity="0.07" fill="#2A94F4" d="M216.861,768.599c0-189.286,153.447-342.733,342.733-342.733  s342.733,153.447,342.733,342.733"/>
<g xmlns="http://www.w3.org/2000/svg" opacity="0.2">
	<g>
		<path fill="#2A94F4" d="M224.499,770.302c0,0,79.44-189.446,107.912-171.925c28.472,17.521,95.727,171.925,95.727,171.925H224.499    z"/>
	</g>
</g>
<g xmlns="http://www.w3.org/2000/svg" opacity="0.2">
	<g>
		<path fill="#2A94F4" d="M908.92,770.302c0,0-72.622-181.361-98.65-164.587c-26.028,16.773-87.511,164.587-87.511,164.587H908.92z"/>
	</g>
</g>
<g xmlns="http://www.w3.org/2000/svg">
	<path fill="#5E349D" d="M574.925,773.586h-50.373c-1.815,0-3.285-1.472-3.285-3.285c0-1.814,1.47-3.285,3.285-3.285h50.373   c1.814,0,3.285,1.471,3.285,3.285C578.21,772.115,576.739,773.586,574.925,773.586z"/>
</g>
<g xmlns="http://www.w3.org/2000/svg">
	<path fill="#D3D3D3" d="M546.591,513.852c0,1.228-0.996,2.224-2.224,2.224c-1.228,0-2.224-0.996-2.224-2.224   c0-1.228,0.996-2.224,2.224-2.224C545.595,511.628,546.591,512.624,546.591,513.852z"/>
</g>
<g xmlns="http://www.w3.org/2000/svg" opacity="0.4">
	<path fill="#D3D3D3" d="M906.013,422.177H678.659c-7.83,0-14.236-6.406-14.236-14.236l0,0c0-7.83,6.406-14.236,14.236-14.236   h227.355c7.83,0,14.236,6.406,14.236,14.236l0,0C920.249,415.771,913.843,422.177,906.013,422.177z"/>
</g>
<g xmlns="http://www.w3.org/2000/svg" opacity="0.4">
	<path fill="#D3D3D3" d="M402.144,384.162H264.576c-7.83,0-14.236-6.406-14.236-14.236l0,0c0-7.83,6.406-14.236,14.236-14.236   h137.567c7.83,0,14.236,6.406,14.236,14.236l0,0C416.379,377.756,409.973,384.162,402.144,384.162z"/>
</g>
<g xmlns="http://www.w3.org/2000/svg" opacity="0.4">
	<path fill="#D3D3D3" d="M845.123,369.927H707.556c-7.83,0-14.236-6.406-14.236-14.236l0,0c0-7.83,6.406-14.236,14.236-14.236   h137.567c7.83,0,14.236,6.406,14.236,14.236l0,0C859.359,363.52,852.953,369.927,845.123,369.927z"/>
</g>
<g xmlns="http://www.w3.org/2000/svg" opacity="0.4">
	<path fill="#D3D3D3" d="M278.466,436.413H140.899c-7.83,0-14.236-6.406-14.236-14.236l0,0c0-7.83,6.406-14.236,14.236-14.236   h137.567c7.83,0,14.236,6.406,14.236,14.236l0,0C292.702,430.007,286.296,436.413,278.466,436.413z"/>
</g>
<g xmlns="http://www.w3.org/2000/svg" opacity="0.4">
	<path fill="#D3D3D3" d="M869.087,540H731.519c-7.83,0-14.236-6.406-14.236-14.236l0,0c0-7.83,6.406-14.236,14.236-14.236h137.567   c7.83,0,14.236,6.406,14.236,14.236l0,0C883.323,533.594,876.916,540,869.087,540z"/>
</g>
<g xmlns="http://www.w3.org/2000/svg" opacity="0.4">
	<path fill="#D3D3D3" d="M387.179,554.236H212.134c-6.927,0-12.594-5.667-12.594-12.594v-3.283c0-6.927,5.667-12.595,12.594-12.595   h175.045c6.927,0,12.595,5.668,12.595,12.595v3.283C399.774,548.568,394.106,554.236,387.179,554.236z"/>
</g>
<path xmlns="http://www.w3.org/2000/svg" fill="#D3D3D3" d="M981.068,783.595c0,10.76-8.723,19.483-19.483,19.483H180.092c-10.76,0-19.483-8.723-19.483-19.483l0,0  c0-10.76,8.723-19.483,19.483-19.483h781.494C972.346,764.112,981.068,772.835,981.068,783.595L981.068,783.595z"/>
<path xmlns="http://www.w3.org/2000/svg" opacity="0.4" fill="#2A94F4" d="M263.498,683.959c0,0-15.523,54.903,22.55,56.774s32.149-36.304,25.534-51.27  c-6.615-14.966,43.571-67.686-11.034-96.142C245.944,564.867,226.923,670.823,263.498,683.959z"/>
<path xmlns="http://www.w3.org/2000/svg" opacity="0.4" fill="#2A94F4" d="M198.031,705.404c0,0-11.147,31.814,11.237,34.299c22.384,2.486,20.277-20.242,16.919-29.308  c-3.358-9.066,28.152-38.334-3.017-57.097S176.939,696.329,198.031,705.404z"/>
<line xmlns="http://www.w3.org/2000/svg" fill="none" stroke="#4D4D4D" stroke-miterlimit="10" x1="211.073" y1="676.203" x2="211.44" y2="767.016"/>
<polyline xmlns="http://www.w3.org/2000/svg" fill="none" stroke="#4D4D4D" stroke-miterlimit="10" points="221.062,697.781 211.209,709.943 200.768,699.078 "/>
<line xmlns="http://www.w3.org/2000/svg" fill="none" stroke="#4D4D4D" stroke-miterlimit="10" x1="283.103" y1="626.509" x2="284.525" y2="764.112"/>
<polyline xmlns="http://www.w3.org/2000/svg" fill="none" stroke="#4D4D4D" stroke-miterlimit="10" points="300.345,644.196 283.447,659.779 268.141,645.477 "/>
<polyline xmlns="http://www.w3.org/2000/svg" fill="none" stroke="#4D4D4D" stroke-miterlimit="10" points="300.252,673.124 283.354,688.708 268.048,674.405 "/>
<path xmlns="http://www.w3.org/2000/svg" opacity="0.4" fill="#2A94F4" d="M891.105,683.959c0,0-15.523,54.903,22.55,56.774c38.073,1.871,32.149-36.304,25.534-51.27  c-6.615-14.966,43.571-67.686-11.034-96.142C873.551,564.867,854.53,670.823,891.105,683.959z"/>
<path xmlns="http://www.w3.org/2000/svg" opacity="0.4" fill="#2A94F4" d="M825.638,705.404c0,0-11.147,31.814,11.237,34.299c22.384,2.486,20.277-20.242,16.919-29.308  s28.152-38.334-3.017-57.097S804.546,696.329,825.638,705.404z"/>
<line xmlns="http://www.w3.org/2000/svg" fill="none" stroke="#4D4D4D" stroke-miterlimit="10" x1="838.679" y1="676.203" x2="839.047" y2="767.016"/>
<polyline xmlns="http://www.w3.org/2000/svg" fill="none" stroke="#4D4D4D" stroke-miterlimit="10" points="848.668,697.781 838.816,709.943 828.375,699.078 "/>
<line xmlns="http://www.w3.org/2000/svg" fill="none" stroke="#4D4D4D" stroke-miterlimit="10" x1="910.709" y1="626.509" x2="912.132" y2="764.112"/>
<polyline xmlns="http://www.w3.org/2000/svg" fill="none" stroke="#4D4D4D" stroke-miterlimit="10" points="927.951,644.196 911.053,659.779 895.748,645.477 "/>
<polyline xmlns="http://www.w3.org/2000/svg" fill="none" stroke="#4D4D4D" stroke-miterlimit="10" points="927.858,673.124 910.96,688.708 895.655,674.405 "/>
<g xmlns="http://www.w3.org/2000/svg">
	<g>
		<polygon fill="#FAB9AF" points="587.396,638.962 577.079,566.468 549.245,562.648 534.768,638.438   "/>
		<path fill="#0E538C" d="M565.882,751.291l0.03,8.171c0.006,1.662-0.22,3.317-0.671,4.917l-0.71,2.517    c-0.583,2.066,0.97,4.117,3.117,4.109c5.565-0.02,15.077-0.005,17.529-0.001c0.401,0.001,0.794-0.27,0.829-0.67    c0.207-2.386-6.684-3.983-11.874-5.992c-3.953-1.53-3.742-8.636-3.255-12.785c0.184-1.568-1.123-2.902-2.696-2.771l0,0    C566.878,748.894,565.878,749.985,565.882,751.291z"/>
		<path fill="#0E538C" d="M527.632,748.999l-2.816,9.348c-0.124,0.413-0.31,0.805-0.551,1.163l-1.996,2.964    c-1.267,1.882-0.355,4.452,1.815,5.114c0,0,4.024,1.416,8.173,2.779c4.247,1.395,9.588,0.229,9.588-0.891    c0-2.49-2.321-0.514-6.209-3.114c-1.303-0.871-2.648-1.783-3.847-2.724c-3.346-2.627-0.424-9.277,1.624-13.023    c0.737-1.347-0.045-3.019-1.547-3.339l-0.97-0.207C529.472,746.765,528.052,747.605,527.632,748.999z"/>
		<path fill="#4e45de" d="M556.39,639.663l30.843-2.589c0,0,3.106,22.448-4.689,63.085c-3.656,19.056-11.274,55.471-11.274,55.471    c-1.888,0.826-3.808,1.034-5.763,0.546c0,0-0.579-16.063-0.932-33.361c-0.339-16.59-0.431-34.317-1.488-40.117    C560.927,670.851,556.39,639.663,556.39,639.663z"/>
		<path opacity="0.07" d="M556.39,639.663l30.843-2.589c0,0,3.106,22.448-4.689,63.085c-3.656,19.056-11.274,55.471-11.274,55.471    c-1.888,0.826-3.808,1.034-5.763,0.546c0,0-0.579-16.063-0.932-33.361c-0.339-16.59-0.431-34.317-1.488-40.117    C560.927,670.851,556.39,639.663,556.39,639.663z"/>
		<path fill="#4e45de" d="M562.757,640.054c3.184,17.09,10.298,42.645-3.405,66.653c-13.703,24.007-28.094,48.966-28.094,48.966    c-1.854,0.076-3.536-0.597-5.099-1.783c0,0,2.403-10.884,5.876-23.592c3.973-14.538,9.006-31.639,7.572-40.555    c-2.687-16.71-5.774-38.964-4.838-49.772C535.704,629.165,561.082,631.068,562.757,640.054z"/>
		<path opacity="0.07" d="M562.757,640.054c3.184,17.09,10.298,42.645-3.405,66.653c-13.703,24.007-28.094,48.966-28.094,48.966    c-1.854,0.076-3.536-0.597-5.099-1.783c0,0,2.403-10.884,5.876-23.592c3.973-14.538,9.006-31.639,7.572-40.555    c-2.687-16.71-5.774-38.964-4.838-49.772C535.704,629.165,561.082,631.068,562.757,640.054z"/>
		<path fill="#FFFFFF" d="M588.462,637.116l-11.382-70.647l-27.834-3.82l-14.959,74.599c-0.281,1.402,0.627,2.763,2.032,3.03    c5.182,0.982,17.682,3.034,31.671,3.034c10.443,0,16.312-2.031,18.982-3.316C588.053,639.473,588.653,638.301,588.462,637.116z"/>
		<path fill="#4e45de" d="M557.941,567.048c0,5.089-0.925,10.13-2.663,14.913c-3.401,9.358-8.502,27.052-5.471,42.642    c4.365,22.449,9.977,31.524,2.702,36.755c-7.275,5.232-21.228-3.498-21.63-6.408c-0.403-2.91,2.715-38.658,6.249-54.145    c3.534-15.487,13.431-37.752,13.431-37.752l4.193,0.448C556.565,563.695,557.941,565.225,557.941,567.048L557.941,567.048z"/>
		<path fill="#4e45de" d="M569.528,565.432c0,0,4.827,10.433,3.144,25.422c-1.684,14.989-5.585,60.633,8.055,67.525    c4.319,2.183,14.183-7.483,14.183-11.068c0-3.586-3.292-15.589-6.411-26.502c-3.119-10.913-10.637-54.234-10.637-54.234    L569.528,565.432z"/>
		<g>
			<path fill="#FAB9AF" d="M565.642,533.098c-6.212,0-8.53,4.422-8.648,12.602c-0.044,3.063,1.334,6.099,2.443,8.037     c0.824,1.44,1.05,3.145,0.58,4.736l-1.364,4.617c-0.927,4.283,1.107,6.632,4.109,7.485c1.487,0.422,3.27,0.095,4.568-0.744     c1.544-0.998,1.671-3.144,1.384-4.961l-0.352-1.316c-0.475-1.773,0.553-3.685,2.347-4.077c4.783-1.046,5.468-6.032,6.75-13.776     C578.794,537.629,571.854,533.098,565.642,533.098z"/>
			<path fill="#0E538C" d="M565.413,528.551c-4.308,0-11.424,2.433-10.525,8.65l0.794,4.397c0.317,1.756,1.782,3.071,3.56,3.223l0,0     c0.165,0.608,0.716,1.03,1.346,1.03c0.77,0,1.394-0.624,1.394-1.394l0,0c0-1.983,1.392-3.675,3.327-4.11     c2.373-0.533,4.908-0.66,7.561,0.053c4.866,1.307,10.642-6.75,10.65-6.831c0,0-2.464,1.886-7.338,0.096     C571.309,531.875,573.341,528.31,565.413,528.551z"/>
			<path fill="#FAB9AF" d="M560.418,545.851c0,1.897-0.706,3.434-2.532,3.434s-2.998-2.608-2.998-4.505     c0-1.897,1.172-2.363,2.998-2.363S560.418,543.954,560.418,545.851z"/>
		</g>
		<path fill="#4e45de" d="M551.007,542.954c0,0-0.659,1.556-2.231,3.745c-0.783,1.099-1.8,2.35-3.048,3.69    c-1.231,1.359-2.622,2.88-4.162,4.507c-1.528,1.638-3.214,3.375-4.909,5.279c-1.712,1.885-3.396,3.975-4.968,6.211    c-1.534,2.255-3.023,4.632-4.14,7.061c-0.545,1.211-1.017,2.435-1.289,3.572c-0.283,1.129-0.363,2.192-0.219,2.836    c0.072,0.318,0.178,0.526,0.274,0.645c0.111,0.109,0.22,0.153,0.353,0.243c0.273,0.16,0.868,0.487,1.842,0.678l0.546,0.136    c0.083,0.018,0.2,0.055,0.255,0.058l0.158,0.007l0.629,0.048l0.735,0.032l0.703-0.047c0.915-0.127,1.713-0.399,2.399-0.785    c1.366-0.78,2.364-1.756,3.587-2.74c1.195-1.013,2.516-2.174,3.722-3.49c2.412-2.636,4.479-5.61,6.025-7.849    c0.8-1.177,1.429-2.101,1.858-2.731c0.456-0.661,0.734-1.029,0.734-1.029l1.399,0.045c0,0,0.239,0.39,0.621,1.151    c0.351,0.759,0.849,1.898,1.236,3.406c0.769,2.99,1.258,7.587-0.604,13.037c-0.946,2.69-2.485,5.637-5.124,8.182    c-1.326,1.256-2.923,2.39-4.757,3.242c-1.827,0.861-3.889,1.406-5.984,1.625c-4.211,0.421-8.454-0.523-11.827-2.107    c-0.891-0.399-1.927-0.899-2.895-1.53c-0.985-0.674-1.979-1.443-2.85-2.511c-0.871-1.039-1.576-2.299-2.012-3.608    c-0.42-1.311-0.568-2.616-0.552-3.814c0.059-2.403,0.692-4.347,1.403-6.067c0.723-1.723,1.594-3.212,2.497-4.614    c1.808-2.791,3.764-5.209,5.74-7.436c1.953-2.239,3.89-4.303,5.708-6.264c1.837-1.942,3.599-3.739,5.305-5.311    c1.698-1.58,3.33-2.94,4.811-4.102c1.463-1.182,2.843-2.092,4.049-2.757c2.406-1.338,4.087-1.72,4.087-1.72L551.007,542.954z"/>
		<path fill="#4e45de" d="M599.345,643.368c0,0-0.934-1.232-1.702-3.467c-0.408-1.115-0.68-2.492-1.011-4.068    c-0.307-1.579-0.622-3.362-0.888-5.316c-0.284-1.951-0.558-4.069-0.964-6.29c-0.409-2.22-0.962-4.541-1.525-6.929    c-0.581-2.385-1.246-4.832-1.967-7.266c-0.342-1.229-0.762-2.416-1.125-3.627c-0.404-1.183-0.776-2.308-1.254-3.583    c-0.443-1.205-0.921-2.414-1.395-3.6c-0.514-1.173-1.025-2.333-1.578-3.45c-1.089-2.243-2.239-4.351-3.191-6.394    c-0.973-2.039-1.795-4.006-2.579-5.888c-0.81-1.863-1.584-3.631-2.365-5.268c-0.784-1.632-1.529-3.168-2.254-4.536    c-0.724-1.366-1.373-2.617-1.95-3.645c-0.579-1.069-1.034-1.908-1.345-2.481c-0.319-0.588-0.48-0.929-0.48-0.929l0.692-0.981    c0,0,0.373,0.048,1.054,0.19c0.35,0.059,0.759,0.167,1.238,0.307c0.483,0.135,1.047,0.288,1.644,0.519    c1.214,0.434,2.653,1.067,4.208,1.976c1.55,0.91,3.246,2.075,4.897,3.572c1.653,1.49,3.319,3.267,4.807,5.323    c1.503,2.042,2.865,4.346,3.86,6.855c1.037,2.496,1.678,5.191,2.242,7.88c0.524,2.654,1.056,5.35,1.588,8.047    c0.248,1.267,0.498,2.711,0.734,4.081c0.191,1.362,0.378,2.727,0.508,4.057c0.295,2.669,0.489,5.27,0.685,7.779    c0.221,2.504,0.353,4.924,0.567,7.203c0.215,2.279,0.494,4.419,0.698,6.402c0.223,1.98,0.336,3.805,0.393,5.426    c0.037,1.624,0.072,3.038-0.092,4.223c-0.276,2.363-0.957,3.762-0.957,3.762L599.345,643.368z"/>
		<path fill="#FAB9AF" d="M558.623,542.232c-1.669,0.849-3.25,1.884-3.946,2.152c-0.29,0.112-1.157,0.175-1.407,0.211    c-0.734,0.105-1.887,0.152-2.454,0.63l-2.418,1.969c-1.153,0.971-2.496,1.15-3.467-0.002l0,0    c-1.052-1.248-0.464-2.713,0.897-3.613l1.669-1.406c1.09-0.721,1.75-1.863,2.458-2.961c1.44-2.234,4.155-3.673,6.44-4.624    c1.434-0.597,3.342,0.262,5.819,1.544c1.217,0.63,2.916,1.97,1.227,2.329c-1.415,0.301-5.291-1.393-7.633,2.064    c-0.115,0.17-0.379,0.627-0.223,0.824c0.466,0.588,1.828-0.38,2.681-0.628c1.197-0.349,2.065-0.035,2.287,0.417    C560.791,541.616,559.815,541.625,558.623,542.232z"/>
		<path fill="#FAB9AF" d="M597.181,651.546c0.037-1.873-0.132-3.754-0.04-4.494c0.038-0.309,0.39-1.103,0.477-1.34    c0.253-0.697,0.755-1.736,0.6-2.462l-0.598-3.06c-0.314-1.474,0.161-2.744,1.635-3.057l0,0c1.596-0.34,2.612,0.868,2.765,2.493    l0.454,2.135c0.123,1.301,0.819,2.421,1.454,3.563c1.292,2.323,1.283,5.395,1.045,7.859c-0.149,1.546-1.805,2.825-4.102,4.406    c-1.129,0.777-3.111,1.644-2.633-0.014c0.401-1.39,3.72-4.011,1.773-7.706c-0.096-0.182-0.375-0.63-0.622-0.585    c-0.739,0.134-0.526,1.792-0.709,2.661c-0.256,1.22-0.942,1.838-1.445,1.822C596.703,653.748,597.155,652.883,597.181,651.546z"/>
	</g>
	<path fill="#E8948B" d="M559.663,554.176c0,0,4.64,6.378,10.413,5.514c0,0-1.199,0.573-1.49,1.505   C568.585,561.195,563.102,560.79,559.663,554.176z"/>
</g>
<g xmlns="http://www.w3.org/2000/svg">
	<path fill="#4e45de" d="M564.661,504.723c0.164-0.666,0.61-0.936,1.275-0.773l4.815,1.183c0.667,0.164,0.938,0.61,0.773,1.276   l-1.157,4.713c-0.164,0.666-0.61,0.937-1.277,0.773l-4.815-1.183c-0.665-0.164-0.936-0.61-0.771-1.276L564.661,504.723z    M580.387,471.216c4.764,1.17,6.748,4.374,5.565,9.188l-2.479,10.092c-0.138,0.563-0.38,0.884-0.878,1.142l-8.041,4.652   c-0.446,0.271-0.688,0.591-0.826,1.155l-0.554,2.253c-0.163,0.667-0.609,0.937-1.276,0.773l-4.815-1.183   c-0.665-0.164-0.936-0.61-0.772-1.276l1.107-4.507c0.126-0.513,0.367-0.833,0.813-1.104l8.666-5.205l1.736-7.07   c0.327-1.332-0.266-2.237-1.547-2.552l-2.458-0.604c-1.384-0.34-2.225,0.214-2.552,1.546l-0.981,3.996   c-0.126,0.512-0.509,0.744-1.021,0.618l-5.328-1.309c-0.563-0.138-0.744-0.508-0.618-1.021l1.334-5.43   c1.183-4.815,4.373-6.747,9.188-5.564L580.387,471.216z"/>
</g>
</svg>