<svg width="1200" height="628" viewBox="0 0 1200 628" fill="none" xmlns="http://www.w3.org/2000/svg">
<rect width="1200" height="628" fill="#5440D8"/>
<path d="M303.513 194.4C298.979 192.533 293.913 191.2 288.313 190.4C282.979 189.333 276.446 188.8 268.713 188.8C257.779 188.8 246.979 190.8 236.313 194.8C225.913 198.8 216.579 205.333 208.313 214.4C200.313 223.467 193.779 235.333 188.713 250C183.913 264.667 181.513 282.667 181.513 304C181.513 323.2 183.646 340 187.913 354.4C192.446 368.8 198.579 380.8 206.313 390.4C214.313 400 223.779 407.2 234.713 412C245.913 416.8 258.313 419.2 271.913 419.2C278.846 419.2 285.246 418.667 291.113 417.6C297.246 416.267 302.846 414.533 307.913 412.4V372.4H337.513V426.4L337.913 427.2C329.913 433.333 319.779 438.533 307.513 442.8C295.246 446.8 280.313 448.8 262.713 448.8C245.913 448.8 230.313 446 215.913 440.4C201.779 434.533 189.513 425.733 179.112 414C168.713 402.267 160.579 387.333 154.713 369.2C149.113 350.8 146.313 329.067 146.313 304C146.313 277.867 149.513 255.733 155.913 237.6C162.313 219.2 170.979 204.267 181.913 192.8C192.846 181.067 205.513 172.533 219.913 167.2C234.579 161.867 250.179 159.2 266.713 159.2C275.779 159.2 283.646 159.6 290.313 160.4C296.979 160.933 302.846 161.867 307.913 163.2C312.979 164.267 317.379 165.733 321.113 167.6C325.113 169.467 328.979 171.6 332.713 174H333.113V237.2H303.513V194.4ZM382.156 304C382.156 281.333 384.156 261.067 388.156 243.2C392.156 225.067 398.156 209.867 406.156 197.6C414.156 185.067 424.29 175.6 436.556 169.2C448.823 162.533 463.356 159.2 480.156 159.2C498.023 159.2 513.09 162.4 525.356 168.8C537.89 175.2 548.023 184.533 555.756 196.8C563.49 209.067 569.09 224.267 572.556 242.4C576.023 260.267 577.756 280.8 577.756 304C577.756 326.667 575.756 347.067 571.756 365.2C567.756 383.067 561.756 398.267 553.756 410.8C545.756 423.067 535.623 432.533 523.356 439.2C511.09 445.6 496.556 448.8 479.756 448.8C462.156 448.8 447.09 445.333 434.556 438.4C422.29 431.2 412.156 421.2 404.156 408.4C396.423 395.6 390.823 380.4 387.356 362.8C383.89 344.933 382.156 325.333 382.156 304ZM544.956 304C544.956 289.867 544.156 276.4 542.556 263.6L423.756 372C428.29 387.2 435.09 399.333 444.156 408.4C453.223 417.467 465.09 422 479.756 422C503.223 422 519.89 412.267 529.756 392.8C539.89 373.333 544.956 343.733 544.956 304ZM415.356 304C415.356 310.667 415.49 317.067 415.756 323.2C416.29 329.333 416.823 335.333 417.356 341.2L536.556 233.2C532.023 218.8 525.223 207.333 516.156 198.8C507.356 190.267 495.356 186 480.156 186C456.423 186 439.623 195.867 429.756 215.6C420.156 235.067 415.356 264.533 415.356 304ZM632 164C642.133 162.667 652.667 161.867 663.6 161.6C674.8 161.067 684.267 160.8 692 160.8C716.267 160.8 736.533 164.267 752.8 171.2C769.333 178.133 782.533 187.867 792.4 200.4C802.533 212.667 809.733 227.467 814 244.8C818.533 262.133 820.8 281.2 820.8 302C820.8 320.933 818.8 339.2 814.8 356.8C810.8 374.133 803.867 389.6 794 403.2C784.133 416.533 770.8 427.333 754 435.6C737.467 443.6 716.667 447.6 691.6 447.6C688.133 447.6 683.6 447.467 678 447.2C672.4 447.2 666.667 446.933 660.8 446.4C654.933 446.133 649.333 445.867 644 445.6C638.667 445.333 634.667 444.933 632 444.4V164ZM693.6 190.4C689.867 190.4 685.067 190.533 679.2 190.8C673.6 191.067 668.933 191.6 665.2 192.4V416.4C666.533 416.667 668.4 416.933 670.8 417.2C673.467 417.2 676.133 417.333 678.8 417.6C681.467 417.6 684 417.733 686.4 418C689.067 418 691.2 418 692.8 418C712.267 418 728 414.8 740 408.4C752.267 402 761.733 393.467 768.4 382.8C775.067 371.867 779.6 359.467 782 345.6C784.4 331.467 785.6 316.933 785.6 302C785.6 288.933 784.533 275.867 782.4 262.8C780.267 249.467 775.867 237.467 769.2 226.8C762.8 216.133 753.467 207.467 741.2 200.8C729.2 193.867 713.333 190.4 693.6 190.4ZM939.044 421.2C949.71 421.2 959.444 419.867 968.244 417.2C977.31 414.267 985.177 410.267 991.844 405.2C998.51 400.133 1003.71 394 1007.44 386.8C1011.18 379.6 1013.04 371.6 1013.04 362.8C1013.04 344.4 1006.51 331.333 993.444 323.6C980.644 315.6 963.31 311.6 941.444 311.6H915.844V292.4L994.644 192.8H875.044V164H1033.04V192.8L954.244 285.2H960.644C972.91 285.2 984.11 286.933 994.244 290.4C1004.38 293.867 1013.18 298.8 1020.64 305.2C1028.11 311.6 1033.84 319.333 1037.84 328.4C1042.11 337.467 1044.24 347.733 1044.24 359.2C1044.24 373.6 1041.44 386.4 1035.84 397.6C1030.24 408.8 1022.64 418.267 1013.04 426C1003.44 433.467 992.11 439.2 979.044 443.2C966.244 446.933 952.51 448.8 937.844 448.8C924.244 448.8 912.377 447.733 902.244 445.6C892.377 443.733 883.31 441.333 875.044 438.4L883.044 410.4C889.977 413.6 898.11 416.267 907.444 418.4C916.777 420.267 927.31 421.2 939.044 421.2Z" fill="white"/>
</svg>