<svg xmlns="http://www.w3.org/2000/svg" xmlns:xlink="http://www.w3.org/1999/xlink" width="146" height="152"><defs><linearGradient id="b" x1="100.001%" x2=".001%" y1="50.001%" y2="50.001%"><stop offset="0%" stop-color="#F2F2FF"/><stop offset="100%" stop-color="#F2F2FF"/></linearGradient><path id="a" d="M.46 9.616C.46 14.8 13.11 19 28.712 19c15.603 0 28.25-4.201 28.25-9.384 0-5.183-12.647-9.385-28.25-9.385C13.11.231.461 4.433.461 9.616"/></defs><g fill="none" fill-rule="evenodd"><g transform="translate(58 133)"><mask id="c" fill="#fff"><use xlink:href="#a"/></mask><path fill="url(#b)" d="M.46 9.616C.46 14.8 13.11 19 28.712 19c15.603 0 28.25-4.201 28.25-9.384 0-5.183-12.647-9.385-28.25-9.385C13.11.231.461 4.433.461 9.616" mask="url(#c)"/></g><path fill="#5438DC" d="M79.281.626v39.497a214.352 214.352 0 00-18.022.25c-9.58.529-18.523 1.694-26.422 3.366-.742.159-1.472.318-2.19.483a112.038 112.038 0 00-9.832 2.695C9.595 51.261 1.394 57.299 1.394 63.967l.205-37.694.017-3.69v-.006C4.508 10.251 35.453.54 73.202.54c2.047 0 4.078.029 6.08.086"/><path fill="#DEFFFE" d="M12.104 23.643v19.14c5.281-3.314 28.233-11.336 47.587-12.395v-20.02s-34.801 3.28-47.587 13.274"/><path fill="#85ACFF" d="M45.078 17.155l-1.188-1.09 1.092-1.183 1.189 1.088zM20.25 30.917l.704-1.76 1.766.702-.705 1.76z"/><path fill="#FCABD8" d="M19.71 24.977l-2.065-.61.613-2.059 2.064.611z"/><path fill="#FFF" d="M18.767 36.01l-1.11-1.539 1.543-1.106 1.11 1.538zm-6.989-9.908l-1.668-2.314 2.32-1.665 1.67 2.315z"/><path fill="#85ACFF" d="M39.172 9.455h-1.169V8.29a.621.621 0 00-.623-.621.621.621 0 00-.622.62v1.166h-1.17a.621.621 0 100 1.242h1.17v1.166a.622.622 0 001.245 0v-1.166h1.17a.622.622 0 100-1.242M30.639 39.47h-1.17v-1.165a.622.622 0 00-1.245 0v1.165h-1.17a.621.621 0 100 1.242h1.17v1.165a.622.622 0 001.246 0v-1.165h1.169a.622.622 0 100-1.242"/><path fill="#FCBAEE" d="M45.435 21.705h-1.169V20.54a.622.622 0 00-1.246 0v1.165h-1.169a.622.622 0 100 1.241h1.17v1.166a.622.622 0 001.245 0v-1.166h1.17a.621.621 0 100-1.241"/><path fill="#FFF" d="M22.702 16.55h-1.169v-1.165a.623.623 0 00-1.245 0v1.165h-1.17a.622.622 0 100 1.242h1.17v1.165a.622.622 0 001.245 0v-1.165h1.17a.621.621 0 100-1.242"/><path fill="#FFD3B3" d="M87.074 124.5s2.045 4.48 2.698 4.597c.653.113 2.346-4.054 1.266-6.836-1.083-2.78-4.07-1.977-4.07-1.977l.106 4.216z"/><path fill="#294287" d="M88.12 126.644s2.133 7.486 3.403 7.852c1.244.359 2.28-3.296 1.16-10.795a1.464 1.464 0 00-.693-1.05 4.292 4.292 0 00-.952-.39s.067 4.56-.958 5.773c-.901 1.065-1.96-1.39-1.96-1.39"/><path fill="#FFD3B3" d="M102.702 132.322s3.21 3.74 3.871 3.67c.66-.071 1.126-4.543-.686-6.915-1.812-2.375-4.46-.778-4.46-.778l1.275 4.023z"/><path fill="#294287" d="M104.472 134.015s3.964 6.68 5.285 6.68c1.307 0 1.275-3.86-1.97-10.869a1.053 1.053 0 00-.53-.525c-.272-.117-.703-.225-1.37-.225 0 0 1.326 4.357.686 5.81-.641 1.451-2.101-.87-2.101-.87"/><path fill="#80407C" d="M66.981 72.815s-3.328 20.225-3.33 24.85c0 3.655 23.313 27.842 23.313 27.842s4.54-2.417 5.957-5.558c0 0-13.755-17.266-17.806-21.529a2.398 2.398 0 01-.641-1.918l2.841-15.223-2.526-9.392-7.808.928z"/><path fill="#944A90" d="M90.02 73.187c2.901 2.951 2.901 9.409 2.096 16.183-.583 4.901-3.641 22.344-3.641 22.344l17.71 15.391a.486.486 0 01.15.248c.924 4.007-.925 7.533-2.04 8.802-.335.379-.812.366-.812.366s-22.37-19.018-23.22-19.583c-.85-.565-1.887-1.975-1.975-4.6-.087-2.625-.29-28.494-.29-28.494l-2.356-1.066-2.174-8.23 16.552-1.36z"/><path fill="#FFD3B3" d="M37.758 38.881s11.785 14.194 12.776 14.547c.99.354 13.094-5.504 13.094-5.504l-3.918-8.2-7.62 6.013-10.476-9.738-3.856 2.882z"/><path fill="#FC4646" d="M54.484 43.213s3.506 3.064 4.544 7.205c0 0 6.04-1.882 9.437-7.81 0 0 4.065-6.433.33-7.667-2.988-.989-14.31 8.272-14.31 8.272"/><path fill="#944A90" d="M43.642 37.431c-.473 2.45-4.152 3.764-4.152 3.764s-.77-1.029-1.556-2.075l-.394-.529-.781-1.052c-.189-.25-.496-.665-.747-.995a2.29 2.29 0 00-1.038-.784c-.964-.353-2.333-.74-2.75-.927-1.83-.847-.872-4.571-.73-6.1.086-.882.736-1.462 1.415-1.797.713-.358.981-.785.981-.785s-1.106-2.547-1.158-3.28c-.051-.682.884-.915 1.306-.387.485.609 2.179 3.957 2.179 3.957.142.279.37.5.644.649.645.358 1.637-.086 2.259 2.58.32 1.4.085 2.963 1.032 3.81.337.301.878.887 1.432 1.524a107.8 107.8 0 012.059 2.428"/><path fill="#FFF" d="M42.04 35.526c-1.027 1.82-3.194 3.11-4.106 3.594l-.394-.53c.822-.431 3.148-1.762 4.044-3.587.154.17.308.347.456.523m-.426 2.943a.566.566 0 11-1.132-.002.566.566 0 011.132.002"/><path fill="#FFC194" d="M70.934 32.597s.778 2.234.487 3.023c0 0-1.112 2.012-1.387 3.377-.156.778-2.194 4.588-.424 5.724 1.512.972 5.259-2.552 6.122-3.13 2.649-1.772 4.108-4.181 4.108-4.181s-1.795-1.764-2.283-6.076l-6.623 1.263z"/><path fill="#FF6161" d="M91.55 76.667c-.472.301-1.048.63-1.38.682-10.784 1.706-19.026-1.393-22.059-3.127-2.886-1.649-.171-7.203-1.295-11.479-1.488-5.646-4.899-9.625-4.248-12.986.752-3.906 1.756-7.18 2.76-9.648.006-.011.006-.017.006-.017 1.34-3.297 2.692-5.15 3.461-5.15.68 0 2.624.676 2.624.676s-1.99 4.326-1.54 7.891c.046.358.416.58.753.455 1.152-.42 3.621-1.433 5.207-2.849 2.673-2.382 3.644-4.252 3.644-4.252s1.888.568 6.204 2.831c4.027 2.104 3.81 3.337 2.322 9.967-.24 1.069-.514 2.28-.81 3.656-2.121 9.904-.97 11.035.143 12.49 2.304 3.014 4.083 7.534 4.71 9.45a1.211 1.211 0 01-.501 1.41"/><path fill="#FC4646" d="M91.55 76.667c-.472.301-1.048.63-1.38.682-10.784 1.706-19.026-1.393-22.059-3.127-1.74-.993-1.444-3.404-1.182-6.1 3.042 4.624 10.159 5.065 13.914 2.232 3.333-2.516 3.475-7.165 2.353-12.502-1.046-4.972-2.476-6.995-2.476-6.995l7.29-1.196c-.24 1.069-.515 2.28-.81 3.656-2.122 9.904-.97 11.035.142 12.49 2.304 3.014 4.083 7.534 4.71 9.45a1.211 1.211 0 01-.501 1.41"/><path fill="#FFD3B3" d="M76.865 49.147s-5.43 4.705-6.537 4.775c-1.107.071-15.453-3.128-15.453-3.128l-1.108 3.247s12.811 6.586 17.5 6.586c3.193-.001 11.319-6.28 11.319-6.28l-5.72-5.2z"/><path fill="#FC4646" d="M74.233 50.418s3.649 3.294 4.687 7.434c0 0 5.024-2.024 8.777-6.798 1.3-1.655 4.419-7.552.251-9.857-5.283-2.922-13.715 9.221-13.715 9.221"/><path fill="#944A90" d="M57.034 56.194c-.594-.24-1.386-.626-2.168-1.03-.194-.102-.387-.199-.57-.3-1.17-.615-2.161-1.183-2.161-1.183-.474.068-1.517.05-2.39-.12-1.528-.296-1.893-.392-2.452-.563-.61-.187-2.27-.403-3.445-.517-.462-.046-1.067-.102-1.06-.586 0-.216.079-.398.324-.426l2.966-.046s-3.941-.33-4.255-1.086c-.165-.398-.097-.63.297-.722-.291-.034-.508-.068-.588-.096-.456-.148-.427-.802.109-1.063.142-.069 1.477-.066 2.002-.038l-2.19-.15-.172-.023s-.29-.09-.222-.517c.069-.42.582-.54.582-.54s3.718-.233 6.798.426c0 0 .16-.313-.086-.637-.387-.5-1.249-1.17-1.328-1.882-.137-1.17 1.34.25 2.161.75 1.192.734 1.546 1.075 2.025 1.519 1.494 1.387 1.249 1.444 2.292 2.268.445.353 1.164.575 1.974.785.21.051.433.102.655.154.713.176 1.455.346 2.14.59 0 0 .05 2.758-1.238 5.033"/><path fill="#FFF" d="M56.132 50.57c0 .945-.154 2.832-1.266 4.595-.194-.103-.387-.2-.57-.302 1.106-1.728 1.203-3.644 1.18-4.446.212.051.434.103.656.154m1.272 2.873a.566.566 0 11-1.132-.002.566.566 0 011.132.002"/><path fill="#80407C" d="M78.281 14.63s1.037-3.365 5.286-2.825c4.24.539 6.323 5.798 5.756 15.561-.305 5.265 4.268 8.267 7.16 7.707a.33.33 0 01.386.38c-.289 1.588-4.336 4.599-8.017 3.58-7.668-2.122-12.251-8.41-10.814-20.56l.243-3.843z"/><path fill="#FC4646" d="M76.584 15.46s.522-.784 1.697-.83c1.415-.056 2.681 1.383 3.667 3.57.562 1.25-.44 3.062-1.77 2.116-1.331-.948-4.066-3.31-3.594-4.857"/><path fill="#FFD3B3" d="M65.681 22.196s-.164 6.479 2.831 10.016c2.323 2.742 4.123 3.009 7.461.843C79.06 31.052 79 28.543 79 28.543s.421.114.84-.16c.513-.336 1.098-1.192.798-2.046-.505-1.43-1.838-1.135-1.956 0 .402-2.381-2.87-5.828-5.721-7.587-2.67-1.647-4.586.681-7.28 3.446"/><path fill="#80407C" d="M65.442 18.932c-.39.758-.319 3.175-.319 3.175s7.584 3.63 11.326 2.433c1.043-.333 2.052.289 2.197 1.371.034.255.036.426.036.426s.185-1.306 1.315-.844c.844.345 1.08 2.98-.996 3.05 0 0 .096 1.168-1.411 3.145l.106.628s2.644-1.556 3.736-5.438c1.166-4.154-.176-7.153-.697-7.98-.95-1.507-1.396-2.944-5.481-3.763-4.926-.988-8.526 1.31-9.812 3.797"/><path fill="#294287" d="M74.15 26.011c2.27.166 6.957-1.659 7.744-2.358.107-.093.185.08.191.22a7.423 7.423 0 01-.445 2.79c-.043.114-.15.183-.265.228-.795.314-2.614 1.564-7.01 2.05l-.214-2.93z"/><path fill="#294287" d="M74.43 27.045a2.575 2.575 0 00-1.303-2.103c-2.433-1.382-7.603-3.825-7.603-3.825-.353-.202-1.002-.125-1.387.013-.516.184-2.052.776-2.052.776l7.767 4.207-6.166.708c.484.764.416 1.263 1.177 1.723 1.37.827 4.097 2.247 5.517 2.978.57.293.95.209 1.522-.08 0 0 1.785-1.018 1.886-1.085.577-.382.74-.956.714-1.559l-.072-1.753z"/><path fill="#AABDF2" d="M69.866 30.273L63.7 26.878c-1.18-.65-2.158-2.267-2.183-3.611-.027-1.345.91-1.908 2.09-1.258l6.168 3.397c1.181.649 2.158 2.266 2.183 3.611.026 1.344-.91 1.907-2.09 1.256"/><path fill="#D6FFFE" d="M70.806 29.975c-.19.004-.42-.066-.664-.199l-6.166-3.396c-1.003-.552-1.869-1.982-1.891-3.125-.005-.28.04-.937.582-.947.19-.004.421.065.664.199l6.168 3.395c1.001.553 1.867 1.985 1.89 3.126.004.281-.041.937-.583.947"/><path fill="#856CFF" d="M145.004 24.47v39.497c0 9.785-17.622 18.2-42.87 21.907V46.376c25.248-3.706 42.87-12.121 42.87-21.906"/><path fill="#AAE6FF" d="M108.45 56.784a1.612 1.612 0 01-.212-3.209c4.837-.643 24.246-4.638 31.613-10.12a1.621 1.621 0 012.263.326 1.61 1.61 0 01-.328 2.256c-8.451 6.288-29.582 10.262-33.12 10.733a1.71 1.71 0 01-.215.014"/><path fill="#50C7F9" d="M108.45 64.353a1.613 1.613 0 01-.119-3.22c.09-.005 8.889-.698 17.552-4.246a1.611 1.611 0 111.228 2.981c-9.154 3.751-18.16 4.453-18.54 4.48-.04.003-.08.005-.12.005"/><path fill="#856CFF" d="M22.815 41.516v39.497C9.589 76.68 1.394 70.643 1.394 63.968l.218-40.325c0 6.675 7.977 13.54 21.203 17.873m38.445 6.555v39.492c-9.582-.53-18.524-1.695-26.423-3.366V44.705c7.899 1.666 16.836 2.832 26.423 3.366m14.451.319v39.49a205.55 205.55 0 01-8.463-.068V48.316a205.3 205.3 0 005.954.086c.838 0 1.677-.006 2.51-.012"/><path fill="#50C7F9" d="M65.335 66.315c-44.13 0-63.889-15.589-64.737-16.277a1.608 1.608 0 01-.235-2.267 1.62 1.62 0 012.272-.237c.207.168 21.294 16.696 67.622 15.493h.042c.874 0 1.593.693 1.617 1.568a1.616 1.616 0 01-1.575 1.654c-1.7.044-3.372.066-5.006.066"/><path fill="#A6E3FC" d="M65.225 73.665c-15.018 0-28.823-1.817-41.105-5.417a1.61 1.61 0 01-1.095-2 1.616 1.616 0 012.008-1.092c13.3 3.898 28.471 5.652 45.08 5.222l.042-.001a1.61 1.61 0 01.042 3.222c-1.67.045-3.33.066-4.972.066"/><path fill="#AAE6FF" d="M65.603 58.564c-6.546 0-12.909-.347-18.977-1.036a1.612 1.612 0 01-1.422-1.783 1.618 1.618 0 011.79-1.42c7.424.843 15.308 1.163 23.432.953.014-.002.029-.002.043-.002.872 0 1.592.695 1.616 1.57.023.89-.682 1.63-1.574 1.653-1.646.043-3.283.065-4.908.065m-27.9-2.354c-.095 0-.191-.008-.288-.027a124.665 124.665 0 01-12.982-3.036 1.612 1.612 0 11.913-3.092 120.977 120.977 0 0012.642 2.956c.88.16 1.463.996 1.305 1.873a1.616 1.616 0 01-1.59 1.326"/></g></svg>