<svg xmlns="http://www.w3.org/2000/svg" xmlns:xlink="http://www.w3.org/1999/xlink" width="96" height="174" viewBox="0 0 96 174">
    <defs>
        <path id="a" d="M.697 8.762c0 4.55 10.708 8.238 23.92 8.238 13.211 0 23.92-3.688 23.92-8.238 0-4.55-10.709-8.238-23.92-8.238C11.405.524.697 4.213.697 8.762"/>
        <linearGradient id="b" x1="0%" x2="100.001%" y1="50.001%" y2="50.001%">
            <stop offset="0%" stop-color="#F2F2FF"/>
            <stop offset="100%" stop-color="#F2F2FF"/>
        </linearGradient>
        <path id="d" d="M.848.881h24.536v19.46H.848z"/>
        <path id="f" d="M0 10.499c0 5.456 11.363 9.88 25.381 9.88s25.381-4.424 25.381-9.88c0-5.457-11.363-9.88-25.381-9.88S0 5.041 0 10.498"/>
        <linearGradient id="g" x1="0%" x2="99.999%" y1="50%" y2="50%">
            <stop offset="0%" stop-color="#F2F2FF"/>
            <stop offset="100%" stop-color="#F2F2FF"/>
        </linearGradient>
        <path id="i" d="M.624.881h46.638v53.64H.624z"/>
        <path id="k" d="M.154.562h26.504V31.23H.154z"/>
    </defs>
    <g fill="none" fill-rule="evenodd">
        <g transform="translate(41 157)">
            <mask id="c" fill="#fff">
                <use xlink:href="#a"/>
            </mask>
            <path fill="url(#b)" d="M.697 8.762c0 4.55 10.708 8.238 23.92 8.238 13.211 0 23.92-3.688 23.92-8.238 0-4.55-10.709-8.238-23.92-8.238C11.405.524.697 4.213.697 8.762" mask="url(#c)"/>
        </g>
        <path fill="#FFD3B3" d="M53.3 156.777s-.765 4.62-.524 5.683c.242 1.061 6.346-.26 6.26-.69-.045-.228-1.29-1.055-1.748-1.19l.555-5.94-4.543 2.137z"/>
        <path fill="#80407C" d="M55.878 162.031c-2.091.524-2.753-.261-3.158-.721 0 0-.806.146-.42 2.77.172 1.171 2.93 1.036 5.352 0 1.388-.593 2.835-1.129 3.999-2.123.756-.646.604-1.689-.32-2.21-.806-.457-2.294-.137-4.01.472.003.097-.064.645-.047.498 0 0 .09.942-1.396 1.314"/>
        <path fill="#FFD3B3" d="M66.985 162.025s-.244 5.11 0 6.181c.244 1.072 6.355-.93 6.27-1.365-.046-.23-1.303-1.066-1.767-1.202l.56-5.996-5.063 2.382z"/>
        <path fill="#80407C" d="M70.065 167.104c-2.1.573-2.778-.264-3.188-.727 0 0-1.046-.074-.641 2.574.235 1.54 3.058 1.431 5.537.77 1.024-.274 3.336-1.092 4.58-2.311 1.039-1.02-.427-3.029-4.865-1.77 0 0 1.31.72-1.423 1.464"/>
        <path fill="#294287" d="M51.177 104.376s-.927 7.893-.33 14.505c.645 7.138 2.33 13.207 2.23 15.46-.103 2.252-2.23 23.035-2.23 23.035s.542 1.877 4.32 2.185c0 0 3.17-.035 3.576-.752 0 0 2.81-21.776 2.732-23.24-.252-4.704-.44-15.213-.44-15.213l1.162.368s4.137 14.538 4.339 17.814c.202 3.277-2.018 24.997-1.31 25.303.709.308 5.465 1.946 7.59 0 0 0 2.019-23.46 1.815-26.224-.143-1.973.55-12.764-.876-21.5-.53-3.247-1.537-6.784-2.206-8.22l-20.372-3.52z"/>
        <path fill="#FFD3B3" d="M66.385 84.789s6.163-4.206 8.528-6.446c0 0 2.802.09 3.705 1.338 0 0-1.622 3.443-2.252 3.92-.63.477-1.474.529-1.861.625l-4.231 4.373-3.89-3.81z"/>
        <path fill="#640487" d="M56.685 75.186s-.22-.086-.877-.361c-.69-.29-1.887-1.099-3.575 1.355-3.172 4.617-8.442 19.218-4.252 21.646 3.49 2.021 7.773 1.267 7.773 1.267l.931-23.907z"/>
        <path fill="#8215AA" d="M71.656 103.869c.781 3.117 2.36 6.012 1.389 7.13-4.72 5.458-22.69-.508-23.479-2.457-.778-1.917.554-5.378 1.46-10.366.58-3.181.989-6.99.565-11.409-1.02-10.601 1.112-11.565 2.218-12.305 1.137-.766 3.408-.074 4.594.536.267.131.478.263.61.373 0 0-.242.573-.424.92-.356.697-.744 1.688-.08 2.545.189.25.469.483.857.7.085.049.175.09.264.13 2.396 1.152 5.48.456 5.735-1.22l.017.004c.101.03.688.189 1.494.48 1.765.634 4.578 1.884 5.626 3.693 1.507 2.597.75 7.125-.052 11.544-.672 3.723-1.38 7.363-.794 9.702"/>
        <path fill="#640487" d="M73.045 110.999c-4.72 5.458-22.69-.508-23.479-2.457-.777-1.917.555-5.378 1.46-10.366-.38 9.751 14.928 12.204 17.332 8.318 2.732-4.419-4.656-14.187-1.974-19.647.867-1.764 4.03 4.09 6.065 7.32-.671 3.723-1.38 7.363-.792 9.702.78 3.117 2.36 6.012 1.388 7.13"/>
        <path fill="#294287" d="M72.203 81.393l13.756 8.548c.668.44 1.561.25 1.997-.426l7.661-8.066a1.47 1.47 0 0 0-.42-2.02l-13.993-8.472a1.434 1.434 0 0 0-1.996.425l-7.426 7.991a1.47 1.47 0 0 0 .421 2.02"/>
        <g transform="translate(70.468 69.838)">
            <mask id="e" fill="#fff">
                <use xlink:href="#d"/>
            </mask>
            <path fill="#294287" d="M1.503 11.361l13.987 8.742c.669.44 1.562.249 1.997-.426l7.663-8.066a1.47 1.47 0 0 0-.42-2.02L10.736 1.118a1.432 1.432 0 0 0-1.996.425l-7.658 7.8a1.47 1.47 0 0 0 .421 2.018" mask="url(#e)"/>
        </g>
        <path fill="#C7F2FF" d="M87.26 88.176l6.584-6.966a.634.634 0 0 0-.129-.977L80.848 72.44a.617.617 0 0 0-.774.11l-6.75 6.952a.538.538 0 0 0 .097.827l12.693 7.994a.95.95 0 0 0 1.146-.147"/>
        <path fill="#A0D1FF" d="M79.238 75.658l7.726 4.965a.485.485 0 0 0 .586-.046.499.499 0 0 0-.06-.79l-7.726-4.965a.485.485 0 0 0-.6.058.499.499 0 0 0 .074.778M78.034 76.854l7.727 4.965c.183.119.421.1.585-.045a.499.499 0 0 0-.06-.79l-7.726-4.966a.485.485 0 0 0-.6.058.499.499 0 0 0 .074.778M80.345 74.438l7.725 4.965c.184.119.423.1.585-.045a.5.5 0 0 0-.06-.791l-7.725-4.966a.486.486 0 0 0-.6.059.499.499 0 0 0 .075.778M82.813 85.145l-7.728-4.8a.548.548 0 0 1-.103-.841l2.004-2.083a.522.522 0 0 1 .663-.077l7.514 4.895a.537.537 0 0 1 .106.806l-1.79 2.004a.523.523 0 0 1-.666.096M89.373 80.594a1.066 1.066 0 0 0 .189 1.485 1.039 1.039 0 0 0 1.468-.19 1.067 1.067 0 0 0-.189-1.485 1.039 1.039 0 0 0-1.468.19"/>
        <path fill="#A0D1FF" d="M88.546 81.146l.271-.118a.04.04 0 0 1 .055.042c-.025.209-.047.83.493 1.3.587.413 1.182.23 1.371.153.028-.012.058.012.055.042l-.024.218a.671.671 0 0 1-.602.6l-1.473.136a.279.279 0 0 1-.267-.21l-.27-1.417a.677.677 0 0 1 .39-.746"/>
        <path fill="#FFD3B3" d="M93.776 88.452c-.3 1.228-1.507 1.525-2.532 2.617-1.794 1.912-8.044 7.109-8.044 7.109l-1.564-4.22L88.7 89.34s-.017-1.725.454-3.366c.484-1.688 1.105-1.277 1.169-.894.073.433-.103 1.406-.103 1.406s-.426 1.324 1.305-.73l1.525-1.615c.099-.195.35-.252.489-.102.478.512.455 3.516.236 4.413"/>
        <path fill="#8215AA" d="M68.27 81.192c1.961-.934 4.832-1.85 8.428 13.296.184.775 1.074 1.131 1.73.689l9.527-5.662s2.277 1.209 2.835 3.47c0 0-3.97 3.587-9.775 7.892-2.336 1.732-4.873 4.034-6.442 2.848-3.84-2.897-13.287-19.209-6.303-22.533"/>
        <path fill="#FFC194" d="M59.502 74.04s-.936 2.982-2.345 3.975c0 0 2.884 5.529 8.068 1.963 0 0 .179-3.142.754-4.3.273-.549-6.477-1.638-6.477-1.638"/>
        <path fill="#FFF" d="M66.875 78.93s-3.072 4.976-8.1 2.313c-3.962-2.105-.98-5.594-.372-6.245.267.131.478.262.61.372l.32.3s-1.708 1.835-.825 3.166c.203.31.546.593 1.089.818l.033.013c3.903 1.727 5.736-1.22 5.736-1.22l.016.004s.326-.107 1.493.478"/>
        <path fill="#FFD3B3" d="M71.562 65.27s-.675 1.638 0 3.821c.674 2.185-1.93 8.026-3.103 7.918-.673-.062-3.103.819-5.803-2.048-2.698-2.866-3.373-13.24 8.906-9.691"/>
        <path fill="#80407C" d="M66.498 68.411c.152-.635.885-.941 1.507-.767 1.505.42 3.127.589 4.496-1.56 1.712-2.688 3.936-8.918-2.435-7.653-4.238.84-8.36-1.044-11.952 1.773-3.57 2.798-1.45 8.376-.444 10.063 1.456 2.44 1.832 2.852 1.343 5.104 0 0 .078.174.322.3 2.015 1.026 3.776 1.53 5.571.552l.063-.033s1.377-4.3.325-4.437c0 0-2.232-1.223-1.085-2.594 1.01-1.208 2.137.734 2.137.734s.066-1.12.152-1.482"/>
        <g transform="translate(0 130)">
            <mask id="h" fill="#fff">
                <use xlink:href="#f"/>
            </mask>
            <path fill="url(#g)" d="M0 10.499c0 5.456 11.363 9.88 25.381 9.88s25.381-4.424 25.381-9.88c0-5.457-11.363-9.88-25.381-9.88S0 5.041 0 10.498" mask="url(#h)"/>
        </g>
        <g>
            <g transform="translate(42.386)">
                <mask id="j" fill="#fff">
                    <use xlink:href="#i"/>
                </mask>
                <path fill="#85ACFF" d="M44.938 25.097L3.592 1.198C3.112.92 2.664.831 2.293.906L2.29.908c-.309.025-1.667.838-1.667.838h.78a2.301 2.301 0 0 0-.137.797v23.732c0 1.484 1.04 3.288 2.324 4.03l41.347 23.898c1.284.742 2.324.14 2.324-1.343V29.127c0-1.483-1.04-3.288-2.324-4.03" mask="url(#j)"/>
            </g>
            <path fill="#E6EEFF" d="M86.192 54.77l-41.346-23.9c-1.284-.741-2.325-2.545-2.325-4.03l.001-23.732c0-1.484 1.04-2.085 2.324-1.343l41.346 23.899c1.284.742 2.325 2.546 2.325 4.03l-.001 23.732c0 1.484-1.04 2.085-2.324 1.343"/>
            <path fill="#FCBAEE" d="M48.35 23.77l-1.956-1.131V6.989l1.957 1.13z"/>
            <path fill="#C0B5FC" d="M50.634 25.09l-1.957-1.132v-8.704l1.957 1.131z"/>
            <path fill="#FCBAEE" d="M54.671 27.423l-1.957-1.131v-5.054l1.957 1.131z"/>
            <path fill="#C0B5FC" d="M56.955 28.743l-1.958-1.131V17.053l1.958 1.132z"/>
            <path fill="#FCBAEE" d="M60.991 31.077l-1.957-1.132v-6.65l1.957 1.131z"/>
            <path fill="#C0B5FC" d="M63.275 32.396l-1.957-1.131v-2.263l1.957 1.132zM67.43 25.667l-1.78-1.028c-.396-.229-.72-.793-.72-1.251 0-.458.324-.646.72-.417L67.43 24c.397.23.721.793.721 1.252 0 .458-.324.646-.721.416"/>
            <path fill="#FCBAEE" d="M84.985 35.814l-1.78-1.028c-.396-.229-.72-.792-.72-1.252 0-.458.324-.646.72-.416l1.78 1.028c.397.229.721.792.721 1.25 0 .46-.324.647-.721.418"/>
            <path fill="#85ACFF" d="M70.138 27.233l-.446-.258c-.397-.23-.722-.793-.722-1.252 0-.458.325-.646.722-.416l.446.258c.398.23.722.792.722 1.25 0 .46-.324.648-.722.418"/>
            <path fill="#FCBAEE" d="M81.104 33.571l-.447-.258c-.397-.23-.72-.793-.72-1.251 0-.458.323-.646.72-.418l.447.259c.397.23.722.792.722 1.25 0 .46-.325.647-.722.418"/>
            <path fill="#C0B5FC" d="M78.552 32.096l-5.982-3.458c-.397-.23-.722-.792-.722-1.251 0-.459.325-.647.722-.417l5.982 3.458c.397.229.722.792.722 1.25 0 .46-.325.647-.722.418M67.43 31.35l-1.78-1.028c-.396-.229-.72-.792-.72-1.25 0-.46.324-.647.72-.418l1.78 1.028c.397.23.721.792.721 1.252 0 .458-.324.646-.721.416"/>
            <path fill="#85ACFF" d="M84.984 41.497l-1.779-1.028c-.396-.229-.721-.793-.721-1.251 0-.458.325-.646.721-.418l1.78 1.029c.396.23.72.792.72 1.25 0 .46-.324.648-.72.418"/>
            <path fill="#C0B5FC" d="M70.138 32.916l-.447-.259c-.397-.228-.72-.792-.72-1.25 0-.459.323-.647.72-.417l.447.258c.397.23.722.792.722 1.25 0 .46-.325.647-.722.418"/>
            <path fill="#FCBAEE" d="M81.104 39.254l-.447-.258c-.397-.23-.72-.793-.72-1.251 0-.459.323-.647.72-.417l.447.258c.397.23.722.792.722 1.252 0 .458-.325.646-.722.416"/>
            <path fill="#85ACFF" d="M78.552 37.779l-5.983-3.458c-.396-.23-.721-.792-.721-1.252 0-.458.325-.646.721-.416l5.983 3.458c.397.23.721.792.721 1.25 0 .46-.325.648-.721.418M67.43 34.181l-1.78-1.028c-.396-.23-.72-.793-.72-1.251 0-.459.324-.646.72-.418l1.78 1.029c.397.23.721.792.721 1.251 0 .459-.324.647-.721.417"/>
            <path fill="#FCBAEE" d="M84.984 44.328l-1.779-1.029c-.396-.228-.721-.792-.721-1.25 0-.459.325-.647.721-.418l1.78 1.028c.396.23.72.793.72 1.252 0 .459-.324.646-.72.417"/>
            <path fill="#85ACFF" d="M70.138 35.747l-.447-.259c-.397-.229-.72-.792-.72-1.25 0-.46.323-.647.72-.417l.447.257c.397.23.722.793.722 1.251 0 .46-.325.647-.722.418"/>
            <path fill="#FCBAEE" d="M81.104 42.085l-.447-.258c-.397-.23-.72-.793-.72-1.252 0-.458.323-.646.72-.416l.447.257c.397.23.722.793.722 1.252 0 .458-.325.646-.722.417"/>
            <path fill="#C0B5FC" d="M78.552 40.61l-5.983-3.458c-.396-.23-.721-.793-.721-1.252 0-.458.325-.646.721-.417l5.983 3.458c.397.23.721.793.721 1.251v.001c0 .458-.325.646-.721.417M67.43 28.509l-1.78-1.029c-.396-.228-.72-.792-.72-1.25 0-.459.324-.647.72-.418l1.78 1.028c.397.23.721.793.721 1.252 0 .459-.324.646-.721.417"/>
            <path fill="#FCBAEE" d="M84.985 38.655l-4.328-2.5c-.397-.23-.72-.793-.72-1.252 0-.458.323-.646.72-.417l4.328 2.501c.397.23.721.792.721 1.252 0 .458-.324.646-.721.416"/>
            <path fill="#C0B5FC" d="M78.552 33.27l-5.543-3.204-.44-.254-2.877-1.664c-.397-.229-.722-.042-.722.417 0 .459.325 1.022.722 1.252l2.878 1.663.44.254 5.542 3.204c.397.23.722.042.722-.417 0-.46-.325-1.023-.722-1.252"/>
            <path fill="#85ACFF" d="M76.612 26.562l1.243-.723-.922.91-1.797 1.046zM69.309 12.102c-.165-.016-.434-.266-.17-.42.125-.073.251-.145.379-.217.384-.213.747-.138 1.125.069.462.253.913.527 1.37.791l6.02 3.48 2.408 1.393c.598.344 1.137.668 1.533 1.269.459.698.53 1.419.527 2.222l-.01 3.231-.008 3.123c0 .25.02.519-.031.763-.103.499-.522.714-.932.935 0 0-.28-.812-.279-1.366l.009-2.837.008-2.837c.002-.665.041-1.297-.22-1.93-.564-1.37-1.992-1.94-3.194-2.634l-5.219-3.017-2.386-1.38c-.41-.236-.448-.591-.93-.638"/>
            <path fill="#FF6B8F" d="M69.963 11.926c-.805-.466-1.463-.091-1.466.836l-.021 7.414c-.002.93.65 2.06 1.457 2.526l3.738 2.161 1.465 2.932 1.476-1.232 3.739 2.16c.806.467 1.463.094 1.465-.836l.022-7.414c.002-.927-.651-2.06-1.456-2.525l-10.419-6.022z"/>
            <path fill="#FFF" d="M72.896 17.343L71.61 16.6c-.15-.087-.273-.017-.273.158v3.564c0 .175.122.387.273.474l1.286.742c.151.088.272.018.272-.157v-3.564a.603.603 0 0 0-.272-.474M78.142 21.696c.28.019.477-.185.477-.555 0-.5-.363-1.121-.807-1.378l-1.903-1.1c.8-1.307-.166-2.557-.377-2.313-.214.247-.053.538-.334.91-.295.392-.675.184-1.079.412-.167.094-.178.607-.342.707-.05.03-.287-.158-.287-.158v3.134s.233.076.287.162c.222.354.547 1.27 1.256 1.678l2.012 1.164.297.172c.423.244.77.045.77-.444v-.05c0-.274-.112-.581-.284-.843.386.17.69-.033.69-.493v-.021c0-.324-.152-.696-.376-.984"/>
            <g transform="translate(69.193 39.72)">
                <mask id="l" fill="#fff">
                    <use xlink:href="#k"/>
                </mask>
                <path fill="#85ACFF" d="M26.658 16.377c0-.83-.583-1.841-1.301-2.258L2.199.736C1.872.546 1.576.52 1.35.618c-.09.038-1.195.849-1.195.849l.744.554V14.78c0 .83.583 1.84 1.301 2.256l22.348 12.917.737 1.277s1.067-.77 1.12-.823l.015-.01c.15-.16.24-.405.24-.729V16.377z" mask="url(#l)"/>
            </g>
            <path fill="#5438DC" d="M93.536 70.873L70.379 57.488c-.719-.415-1.302-1.426-1.302-2.258V41.94c0-.83.583-1.168 1.302-.753l23.157 13.385c.718.416 1.302 1.427 1.302 2.258V70.12c0 .831-.584 1.168-1.302.753"/>
            <path fill="#FFF" d="M75.946 53.605c0 .489-.296.514-.661.06-.366-.456-.663-1.221-.663-1.709s.297-.515.663-.059c.365.455.661 1.22.661 1.708M80.395 56.152c0 .488-.296.514-.662.059-.365-.456-.662-1.221-.662-1.71 0-.487.297-.514.662-.058.366.456.662 1.22.662 1.709M84.844 58.698c0 .488-.296.514-.663.059-.364-.456-.661-1.221-.661-1.708 0-.489.297-.516.661-.06.367.456.663 1.22.663 1.709M89.293 61.244c0 .489-.296.514-.663.06-.364-.456-.661-1.221-.661-1.709s.297-.515.661-.059c.367.455.663 1.22.663 1.708"/>
            <path fill="#FFD3B3" d="M28.082 141.59s-1.085-34.177 2.25-37.05c1.693-1.459 6.43-2.78 6.512-.902.314 7.152-3.174 26.992-3.174 26.992l-1.79 10.385c.006.002.954-.145.954-.145s4.796-1.117-.756 2.553c-.726.478-2.885 2.45-4.196-.708 0 0 .219-.544.2-1.125-.013-.005.013.004 0 0"/>
            <path fill="#80407C" d="M31.504 142.659c-2.277.734-3.331.467-3.421-1.07 0 0-.992.764-.562 2.425.265 1.02 1.246 1.299 3.216.787.945-.246 4.413-1.36 5.48-2.298 1.298-1.14.08-2.766-3.991-1.54 0 0 2.46-.49 2.352.013-.087.403-1.6 1.208-3.074 1.683"/>
            <path fill="#FFD3B3" d="M20.76 134.892c.087-.58.16-1.057.169-1.142.195-1.783.888-5.124 1.01-6.142.78-6.492 5.443-26.501.726-29.73-1.636-1.118-6.324 4.68-6.324 4.68-.696 6.727.19 15.184.345 21.456l.553 13.25c-.06 1.427 3.16-.021 3.19-.217.656-.339 2.327-1.285 2.095-2.245 0 0-.446-.31-1.764.09"/>
            <path fill="#80407C" d="M22.33 134.873c.162 1.641-4.252 3.677-5.106 2.033 0 0-.7.817.027 2.103.422.75 1.69.876 3.575-.28.821-.503 2.403-1.488 3.41-3.081 1.086-1.718-.469-2.29-3.477-.756 0 0 1.533-.411 1.571-.02"/>
            <path fill="#294287" d="M36.182 63.752s.996-.61 2.875 10.817c.857 5.213.397 18.586-.91 29.626-1.559 13.16-2.57 26.924-4.79 33.749 0 0-3.846.789-6.456-.666-.742-.414.4-16.74.813-30.618.29-9.732-.747-22.645-.747-22.645s-1.084-.543-1.607-.598c0 0-.054 7.827-.166 18.485-.143 13.918-2.896 30.248-2.896 30.248-4.07.242-5.788-.934-6.236-1.213 0 0-.952-27.98-1.413-33.926-.714-9.227-1.918-21.05.183-28.62 1.135-4.088 2.598-2.087 3.665-1.638 1.98.833 4.131 1.261 6.26.822l11.548-2.379-.123-1.444z"/>
            <path fill="#FFD3B3" d="M46.433 34.69s-10.05 15.694-15.578 17.772c-.633.237-2.68-.357-2.68-.357L17.927 32.726l9.27-.415 4.597 9.995 12.442-9.315 2.197 1.699z"/>
            <path fill="#FFD3B3" d="M43.577 33.934s.84-1.85 2.745-3.653c.69-.654 1.882-1.138 4.563-.471.687.17 1.7 1.107 1.204 1.675 0 0-.562.871-2.01 1.34-.985.32-.888.05-2.564 1.615-.961.896-2.377.938-3.287.097l-.65-.603z"/>
            <path fill="#FFC194" d="M30.727 27.78s-.276 2.67 1.01 5.447l-4.939 2.068-3.094-1.596s-1.327-7.417 7.023-5.92"/>
            <path fill="#FFD3B3" d="M33.042 15.769s1.431-.334 1.727 1.08c.142.673-.593 2.061-.71 3.48-.077.933.641 1.629.496 2.888-.414 3.596-.914 5.439-2.416 5.6-2.826.301-4.614-.25-6.493-1.502-3.757-2.506-.745-6.519-.745-6.519s.493-8.252 8.14-5.027"/>
            <path fill="#684CED" d="M36.63 61.832c.69 2.99 2.694 6.63 1.985 7.983-.49.939-1.36 1.543-2.323 1.789-1.461.379-3.066-.242-6.889-.903-5.352-.926-13.437-2.57-14.005-4.51-.49-1.688 0 0 1.112-5.312.543-2.602-.254-7.945-1.245-13.057-.007-.022-.013-.033-.013-.033-1.028-5.31-2.279-10.36-2.453-11.8-.349-2.823 1.47-7.242 1.47-7.242l7.24 2.327s-1.262 1.071 2.422 1.95c5.018 1.205 7.666-.73 7.666-.73l2.49 1.117c6.907 2.367 3.55 5.917 2.601 8.844-.299.91-.065 1.297.104 2.17.151.772.259 1.941-.105 4.21-.02.126-.5 11.276-.057 13.197"/>
            <path fill="#5438DC" d="M38.615 69.816c-.49.937-1.36 1.543-2.322 1.787-1.462.38-3.067-.24-6.89-.902-5.353-.927-13.437-2.57-14.005-4.51-.49-1.688 0 0 1.112-5.312.544-2.602-.254-7.944-1.245-13.056.346 1.85 1.754 12.39 3.843 14.095 2.583 2.108 8.067 2.404 11.912-1.361 3.19-3.123 3.764-12.964 1.647-18.092 1.034-1.309 2.547 1.255 4.125 1.96.15.772.259 1.942-.105 4.211-.02.125-.5 11.275-.057 13.196.69 2.991 2.694 6.63 1.985 7.984"/>
            <path fill="#294287" d="M34.682 12.324c1.274 1.238 2.375 4.127-.187 6.44-.297.268-.652-1.651-1.405-1.105-1.255.908-3.105 1.591-3.4 2.59-.462 1.574.602 3.148.602 3.148s-1.58-1.262-2.29-.176c-.563.867-.283 2.21 1.274 2.316 0 0 .31 1.971-2.8 2.682 6.358 7.892-2.578 15.572-2.578 15.572 4.943 3.454 1.484 9.2-1.337 10.768-6.793 3.778-10.583.77-12.98-2.785-2.153-3.192-3.115-8.07 2.147-9.465-4.57-3.732-3.388-12.25 3.682-14.234 1.052-.295 5.693-.778 5.693-.778-5.344-3.504-5.022-8.814-2.56-13.034 2.997-5.14 12.072-5.892 16.139-1.939"/>
            <path fill="#FC4646" d="M20.156 27.4s-.037-1.004.454-1.154c.328-.101 1.055.11 1.704.456.569.301 1.237.37 1.859.207.71-.185 1.664-.215 2.567.32.966.573.536 2.146-1.096 1.768a6.532 6.532 0 0 1-1.823-.73c-.5-.294-1.098-.317-1.643-.117-.57.208-1.748.27-2.022-.75"/>
            <path fill="#FFD3B3" d="M63.146 39.904c.357-.954.955-1.882 2.098-2.909.59-.53 1.182-.979 1.723-1.286.736-.982 1.813-2.307 2.432-2.546.168-.065.746.262.52.96-.07.212-.526.779-1.066 1.403.094.097.171.227.229.39 0 0 1.21 3.625.033 5.123-.43.548-.978.706-2.07 1.116-.832.312-1.858.634-2.556.082l-.914-.724c-.462-.365-.635-1.058-.43-1.61"/>
            <path fill="#FFD3B3" d="M50.615 47.615l13.132-8.454 1.632 3.378-11.892 10.15c-.872.706-1.674 1.64-1.89.54l-.982-5.614z"/>
            <path fill="#684CED" d="M32.688 39.703c.264-2.156 2.807-5.882 4.567-4.608 3.847 2.782 12.462 11.802 13.137 11.699 2.2-.334 2.554 2.554 2.398 4.542-.126 1.613-.321 3.14-1.959 3.29-2.355.216-5.859-.573-7.982-1.91-3.347-2.112-10.935-6.683-10.16-13.013"/>
        </g>
    </g>
</svg>
