<svg xmlns="http://www.w3.org/2000/svg" xmlns:xlink="http://www.w3.org/1999/xlink" width="212" height="139" viewBox="0 0 212 139">
    <defs>
        <path id="a" d="M.002 15.951C.002 24.572 15.818 34 46.076 34c33.743 0 45.07-9.988 45.07-16.547 0-8.622-20.403-17.11-45.573-17.11C20.405.343.002 7.33.002 15.951"/>
        <linearGradient id="b" x1="99.999%" x2="-.001%" y1="49.999%" y2="49.999%">
            <stop offset="0%" stop-color="#F2F2FF"/>
            <stop offset="100%" stop-color="#F2F2FF"/>
        </linearGradient>
        <path id="d" d="M.881.247h28.693v41.656H.88z"/>
        <path id="f" d="M0 .897h93.428v78.056H0z"/>
        <path id="h" d="M0 20.382c0 11.193 22.736 20.267 50.782 20.267 28.046 0 50.782-9.074 50.782-20.267C101.564 9.188 78.828.115 50.782.115 22.736.115 0 9.188 0 20.382"/>
        <linearGradient id="i" x1="0%" y1="50%" y2="50%">
            <stop offset="0%" stop-color="#F2F2FF"/>
            <stop offset="100%" stop-color="#F2F2FF"/>
        </linearGradient>
        <path id="k" d="M.012.583h19.424v16.296H.012z"/>
    </defs>
    <g fill="none" fill-rule="evenodd">
        <g transform="matrix(-1 0 0 1 212 104.753)">
            <mask id="c" fill="#fff">
                <use xlink:href="#a"/>
            </mask>
            <path fill="url(#b)" d="M.002 15.951C.002 24.572 15.818 34 46.076 34c33.743 0 45.07-9.988 45.07-16.547 0-8.622-20.403-17.11-45.573-17.11C20.405.343.002 7.33.002 15.951" mask="url(#c)"/>
        </g>
        <path fill="#80407C" d="M123.795 104.09s-3.977-1.746-8.217-.428a.712.712 0 0 0-.342 1.122c1.07 1.343 3.237 4 8.559 4.538v-5.231z"/>
        <path fill="#FF8C00" d="M172.148 93.675c2.943-3.37 2.362-9.692-1.637-11.698-8.33-4.179-28.645-9.8-41.905-2.014-18.19 10.683 30.936 28.153 43.542 13.713"/>
        <path fill="#80407C" d="M163.012 68.691c-4.796 1.152-1.653.35-13.446-3.83-2.1-.744-6.767-2.204-9.54-.26-5.295 3.712-7.845 10.07-7.845 10.07l7.234-1.39c3.58.313 4.272 3.836 17.707 10.48s18.575-10.567 18.575-10.567l-12.685-4.503z"/>
        <path fill="#944A90" d="M153.984 73.652c-4.677 1.566-1.617.491-13.73-2.64-2.156-.556-5.976-2.47-8.567-.292-4.952 4.162-7.892 11.586-7.892 11.586l7.085-2.017c3.594 0 4.59 3.448 18.557 8.89 13.965 5.442 17.577-12.154 17.577-12.154l-13.03-3.373z"/>
        <path fill="#FFD3B3" d="M157.646 60.123s-9.71-4.376-12.815-7.074l2.106-2.306 18.244 3.325-7.535 6.055z"/>
        <path fill="#FFC194" d="M171.11 38.995s-1.38 0-3.973.893c0 0 .391 3.325-.978 4.889-1.598 1.826 5.465 1.663 5.465 1.663l5.72-5.574-6.234-1.871z"/>
        <path fill="#FC4646" d="M154.74 73.548s2.26 4.437 11.185 4.577c8.279.135 9.71-1.578 11.419-3.96.65-8.35 4.565-11.079 5.28-16.718.077-.604.118-1.238.112-1.913-.017-2.78-1.614-11.002-1.614-11.002s-3.778-2.834-7.921-1.027c0 0-4.765 2.301-6.46.276-3.58 1.221-7.53 3.61-8.72 5.352-.716 1.044 1.752 8.608 1.097 15.057-.568 5.606-4.377 9.358-4.377 9.358"/>
        <path fill="#294287" d="M155.866 50.355l-17.82 8.892a1.78 1.78 0 0 1-2.407-.734l-8.551-10.629a1.779 1.779 0 0 1 .734-2.407l18.102-8.775a1.778 1.778 0 0 1 2.407.733l8.268 10.513a1.779 1.779 0 0 1-.733 2.407"/>
        <path fill="#5A528F" d="M156.171 50.145l-18.125 9.102a1.78 1.78 0 0 1-2.407-.734l-8.55-10.629a1.779 1.779 0 0 1 .732-2.407l18.102-8.775a1.78 1.78 0 0 1 2.408.733l8.573 10.302a1.779 1.779 0 0 1-.733 2.408"/>
        <path fill="#9DBBE0" d="M136.638 56.963l-7.344-9.176a.768.768 0 0 1 .263-1.173l16.646-8.071a.77.77 0 0 1 .94.218l7.595 9.232a.592.592 0 0 1-.19.905l-16.518 8.367c-.45.227-1.077.092-1.392-.302"/>
        <path fill="#DCEEF7" d="M147.835 42.626l-10.025 5.193a.603.603 0 1 1-.556-1.072l10.025-5.194a.603.603 0 1 1 .556 1.073M149.186 44.21l-10.025 5.193a.603.603 0 1 1-.556-1.072l10.025-5.194a.603.603 0 1 1 .556 1.073M146.607 41.024l-10.025 5.193a.603.603 0 1 1-.557-1.072l10.026-5.194a.603.603 0 1 1 .556 1.073M137.801 56.231s1.044-4.27 3.09-5.167c.497-.218 1.375-.077 2.13.118a1.523 1.523 0 0 0 1.816-.956c.36-.984.915-2.16 1.582-2.375 1.181-.379 3.481 1.216 4.12 1.008.64-.207.742-3.077.742-3.077l2.028 2.311-15.508 8.138zM134.853 47.523a1.29 1.29 0 1 1-2.174 1.394 1.292 1.292 0 0 1 2.174-1.394"/>
        <path fill="#DCEEF7" d="M135.81 48.284l-.32-.174a.05.05 0 0 0-.074.045c.01.256-.03 1.015-.744 1.525-.766.439-1.477.15-1.7.038a.049.049 0 0 0-.072.045l.005.268c.009.392.29.724.677.794l1.794.325a.343.343 0 0 0 .352-.225l.482-1.692a.822.822 0 0 0-.4-.95"/>
        <path fill="#FFD3B3" d="M158.678 69.324s-3.228 5.795-4.768 6.308c-1.54.513-3.118.182-5.022-.877-2.875-1.601-11.96-11.123-12.966-12.22-.825-.898-2.35-.996-3.64-2.408-1.916-2.098-1.426-5.253-1.476-6.976-.004-.153.178-.237.302-.146 0 0 1.722 1.88 3.185 3.154.708.616.882.109 1.134-.331.137-.238-.219-1.172-.439-1.686-.22-.513-.482-.94-.367-1.247.221-.587 1.334.213 2.508 2.12 1.173 1.908.614 2.977 2.73 4.763l10.897 7.419 3.521-5.542 4.401 7.669z"/>
        <path fill="#FF6161" d="M150.794 65.74s3.144 4.98 8.775 4.772c0 0 .23-.581.605-1.536l.21-.545c1.32-3.41 3.865-10.155 4.68-13.52.86-3.535-4.065-8.274-7.045-5.78-1.735 1.455-4.765 9.57-6.29 13.895-.105.295-.2.575-.29.83-.405 1.156-.645 1.885-.645 1.885"/>
        <path fill="#FFF" d="M151.44 63.856c2.31 3.67 7.624 4.895 8.734 5.12l.21-.545c-1.223-.146-7.37-2.19-8.655-5.405-.105.295-.2.575-.29.83"/>
        <path fill="#FFD3B3" d="M161.758 26.675s.759 3.384.465 4.532a9.22 9.22 0 0 1-.427 1.224c-.197.47-.343.995-.214 1.487.792 3 1.193 6.277 5.556 5.97 0 0 5.794.024 5.99-2.322.195-2.349 3.104-12.945-11.37-10.89"/>
        <g transform="matrix(-1 0 0 1 190 19.753)">
            <mask id="e" fill="#fff">
                <use xlink:href="#d"/>
            </mask>
            <path fill="#294287" d="M29.488 6.076c-.562-4.571-8.924-8.581-16.283-3.373-5.866 4.15-3.926 11.54-.933 14.368-2.307-.453-4.046-.3-5.155 1.548-1.54 2.567.514 4.548.514 4.548s-6.895-.221-6.748 5.94c.146 6.16 7.4 16.817 18.368 11.223 2.037-1.04 3.71-5.208 1.508-9.023 0 0 1.921-1.337 2.201-3.447.25-1.878-1.348-4.775-3.153-6.984 1.772-.095 1.751-2.958 1.882-4.14.047-.424.057-.864.057-.864-1.696 0-2.376-1.324-2.184-2.24.22-1.052 1.523-1.345 2.25-.123l.372-1.301a1.03 1.03 0 0 1 1.07-.736c.603.039 1.596-.02 3.153-.408 2.641-.66 3.453-1.967 3.081-4.988" mask="url(#e)"/>
        </g>
        <path fill="#9280E9" d="M118.548 95.6c.546 13.343 11.378 31.54 42.624 33.868 62.785 4.69 58.09-75.558 35.4-80.14-1.907-.389-4.56-.817-7.582-.559v.006c-7.903.657-18.377 5.991-24.884 28.97-5.334 18.83-15.05 17.641-24.058 12.9-7.435-3.914-11.197-14.266-16.253-12.512-5.275 1.83-5.529 10.678-5.247 17.467"/>
        <g transform="matrix(-1 0 0 1 212 50.753)">
            <mask id="g" fill="#fff">
                <use xlink:href="#f"/>
            </mask>
            <path fill="#000" fill-opacity=".209" d="M93.16 39.892c2.388 17.476-11.12 36.073-42.332 38.823C22.88 81.178 6.665 64.107 2.323 47.292-5.952 15.247 10.543.895 10.54.897-3.742 18.95 12.133 54.06 38 61.993c16.69 5.12 50.204-2.63 55.159-22.1" mask="url(#g)"/>
        </g>
        <g>
            <g transform="matrix(-1 0 0 1 102 74.417)">
                <mask id="j" fill="#fff">
                    <use xlink:href="#h"/>
                </mask>
                <path fill="url(#i)" d="M0 20.382c0 11.193 22.736 20.267 50.782 20.267 28.046 0 50.782-9.074 50.782-20.267C101.564 9.188 78.828.115 50.782.115 22.736.115 0 9.188 0 20.382" mask="url(#j)"/>
            </g>
            <path fill="#803232" d="M37.315 101.895v2.07c0 .363.211.693.541.846l3.007 1.393c.717.414 1.6.414 2.316 0l3.004-1.393a.934.934 0 0 0 .54-.847v-2.069l-4.702 2.08-4.706-2.08zM9.949 85.879v2.17c0 .307.161.59.425.745l3.123 1.845a2.317 2.317 0 0 0 2.316-.001l2.957-1.371c.358-.166.587-.525.587-.92V85.88l-4.702 2.078-4.706-2.078zM76.08 79.305v2.171c0 .306.162.59.426.746l3.123 1.844a2.315 2.315 0 0 0 2.316 0l2.957-1.373a1.01 1.01 0 0 0 .587-.917v-2.47l-4.702 2.078-4.706-2.079z"/>
            <path fill="#7365B8" d="M28.003 71.233l14.63 2.22v8.521l31.795-13.74 12.748-6.816.032 15.963c-.01 1.065-.722 2.14-2.14 2.956l-37.924 21.897c-.68.392-2.071 1.122-3.208 1.712a4.02 4.02 0 0 1-3.565.068c-1.202-.567-2.71-1.299-3.545-1.78L10.729 87.162c-1.263-.73-1.967-1.66-2.111-2.613V68.292l19.385 2.941z"/>
            <path fill="#9F94D6" d="M47.144 86.68L85.07 64.782c2.848-1.644 2.848-4.311 0-5.956l-26.099-15.07c-2.849-1.643-7.469-1.643-10.317 0L10.728 65.654c-2.849 1.645-2.849 4.312 0 5.957l26.1 15.069c2.848 1.644 7.467 1.644 10.316 0"/>
            <path fill="#FFF" d="M70.04 104.698s.588 2.626 1.104 5.15c.558 2.724-2.172 1.95-3.886.483-.781-.669-1.285-2.384-1.285-2.384l-1.234-3.249h5.3z"/>
            <path fill="#294287" d="M70.662 107.549c1.105 1.619 1.105 1.619 2.549 5.84.594 1.736.966 3.732-.391 3.982-2.038.376-3.61-1.605-5.034-3.782-1.173-1.792-1.502-2.565-1.785-3.51-.456-1.514-.362-1.902-.028-2.132 0 0 1.302 2.337 3.986 1.96 1.318-.183.735-2.212.703-2.358"/>
            <path fill="#FFF" d="M86.487 91.661s1.708 2.571 2.901 4.854c1.875 3.589-5.763-.474-5.763-.474l-1.815-2.707 4.677-1.673z"/>
            <path fill="#294287" d="M88.476 94.98c2.08.98 2.93 1.914 5.42 3.946.877.717 1.69 1.84 1.153 2.628-.806 1.188-4.417.332-7.842-1.11-2.295-.967-3.322-1.387-4.03-3.079-.612-1.46-.017-1.323.24-1.634 0 0 2.592 1.48 4.535.564 1.204-.567.594-1.185.524-1.316"/>
            <path fill="#80407C" d="M53.049 51.949s21.34 8.707 23.896 12.796c3.56 5.694 10.736 25.586 11.463 27.491.719 1.881-5.961 5.76-7.623 2.405L67.362 71.032c.058-.41-15.99-8.574-15.99-8.574l1.677-10.509z"/>
            <path fill="#944A90" d="M49.464 60.815l-1.271 1.296S64.5 67.454 66.022 72.09c.734 2.24 5.166 33.558 5.166 33.558s-1.307 2.477-6.22 1.333l-8.822-26.917S40.104 71.486 33.818 68.17c-1.093-.578-2.7-1.658-3.513-2.587-1.697-1.939-1.7-4.873-1.697-8.26 0 0 10.4-.658 21.45-8.699l-.594 12.192z"/>
            <path fill="#FFD3B3" d="M59.147 43.031l12.041 8.737s.32 2.771-1.918 4.69h-1.385S56.892 49.878 53.97 46.4l5.177-3.37z"/>
            <path fill="#5B69ED" d="M42.317 18.682c2.152-.593 2.948-.448 3.777-.189 7.474 2.34 9.918 19.768 13.177 23.792 1.023 1.261-5.187 5.952-6.09 5.221-3.4-2.752-6.448-12.17-9.378-22.093-.148-.502-.497-1.176-.497-1.705 0-.808-1.508-4.882-.989-5.026"/>
            <path fill="#FFC194" d="M42.066 15.682c-.426 1.151-.44 2.692-.29 3.093.433 1.16 1.671 3.55.715 3.997-.07.033-1.53 1.612-3.483 1.612-2.16 0-4.223-.863-5.86-2.665v-.425c2.557-2.133 2.131-5.328 2.77-8.311 1.705.852 6.148 2.699 6.148 2.699"/>
            <path fill="#727FEE" d="M25.545 26.66a8.332 8.332 0 0 0 .1.479c.007.034.016.064.025.098a25.222 25.222 0 0 0 .405 1.423c.065.198.129.405.199.616.202.629.426 1.298.642 2 .073.233.142.47.21.711.074.241.144.491.212.746.034.125.064.25.095.379.056.216.108.432.155.652.03.116.052.232.078.348.077.375.15.755.21 1.147.019.121.035.241.053.362.02.164.043.323.06.487.013.082.022.168.026.25.017.142.03.284.039.431a16.55 16.55 0 0 1 .052 1.328c0 1.354.14.543.14 1.504 0 0 .247.009.247 8.345 0 12.798-1.607 14.246 4.043 14.246 1.81 0 21.548-4.755 21.548-6.565 0-.121.03-.276-.048-.371-1.06-1.28-1.118-2.94-1.411-4.303-1.068-4.939-.485-10.524-1.83-16.304-.724-3.125-3.586-16.316-7.284-16.177-.664.025-.707.06-1.737.284 0 0 1.526 3.534-1.367 4.25-3.93.979-6.133-2.996-6.133-2.996-2.677.819-5.888 2.345-7.668 3.337-.238.147-.436.31-.591.495-.62.707-.686 1.647-.47 2.798"/>
            <path fill="#5664DA" d="M25.545 26.66c0 .009 0 .013.004.021a6.575 6.575 0 0 0 .096.458c.007.034.016.064.025.098a25.222 25.222 0 0 0 .405 1.423c.065.202.129.409.199.616.202.629.426 1.298.642 2 .073.233.142.47.21.711.074.241.144.491.212.746.03.129.064.254.095.379.056.216.108.432.155.652l.078.348c.077.375.15.755.21 1.147.019.116.035.237.053.362.02.159.043.323.06.487.013.082.022.168.026.25.017.142.03.284.039.431.009.103.017.207.02.31a17.378 17.378 0 0 1 .031 1.018c0 1.354.142.543.142 1.504 0 0 .246.009.246 8.345 0 12.798-1.607 14.246 4.043 14.246 1.81 0 21.548-4.755 21.548-6.565 0-.121-.048-.246-.048-.371-1.06-1.28-1.118-2.94-1.411-4.303-11.077 3.345-19.83-2.37-19.148-8.149 2.4-20.405-4.596-19.268-4.596-19.268-.797-.146-1.172-.103-1.47-.008-1.318.409-2.098 1.758-1.866 3.112"/>
            <path fill="#FFF" d="M32.624 20.6c.705 1.971 4.477 5.137 8.875 3.91 1.078-.3 1.74-.82 1.972-1.544.542-1.706-1.363-4.074-1.382-4.097l.457-.373c.087.106 2.125 2.637 1.487 4.648-.294.926-1.093 1.577-2.375 1.935a.187.187 0 0 0-.034.008c.44.73 1.423 2.575 2.098 5.487a.296.296 0 0 1-.288.361.297.297 0 0 1-.288-.229c-.712-3.079-1.8-4.955-2.13-5.479-.504.097-1 .144-1.483.144-3.79 0-6.814-2.755-7.465-4.572l.556-.199z"/>
            <path fill="#AABDF2" d="M59.265 53.626l-26.92 8.46.051 1.117a.305.305 0 0 0 .163.256l17.685 9.217 25.984-10.388-16.963-8.662z"/>
            <path fill="#EDFFFD" d="M59.657 52.568l-27.312 9.518 18.291 9.533 25.983-10.388z"/>
            <path fill="#D3F1F5" d="M48.431 67.314l-9.49-4.54a.433.433 0 0 1 .042-.8l18.22-6.393a2.375 2.375 0 0 1 1.95.17l7.884 4.436a.433.433 0 0 1-.062.783l-17.37 6.4a1.506 1.506 0 0 1-1.174-.056"/>
            <path fill="#FFD3B3" d="M26.692 52.303l3.188-3.135 15.404 6.805a14.158 14.158 0 0 1 3.43-.828c.41-.047.83.021 1.211.201l3.42 1.95 2.544 1.244a.505.505 0 0 1 .16.733l-.006.008a1.03 1.03 0 0 1-.966.39c-2.094-.305-3.029-.53-4.075.35-.279.233-.789 1.291-1.996 1.26-.855-.022-3.912-.89-5.12-1.066-1.459-.214-16.49-4.971-16.49-4.971a1.765 1.765 0 0 1-.704-2.94"/>
            <path fill="#727FEE" d="M26.607 23.366c.625-.278 1.444-.67 2.172-.441 3.224 1.013 3.761 3.5 3.761 6.075 0 6.835-2.243 16.932-2.376 17.867 3.487 1.019.152 4.821-1.786 6.702-.998.969-2.584 1.047-3.62.117-2.088-1.874-2.88-6.118-2.88-9.06 0-2.99-.579-18.89 4.73-21.26"/>
            <path fill="#AABDF2" d="M49.007 72.03l1.238.646 26.542-10.965 4.096-18.162c.057-.25.048-.52.048-.52-.072-.076-1.074-.638-1.074-.638a.696.696 0 0 0-.546-.026l-26.326 9.811a.834.834 0 0 0-.534.646L49.007 72.03z"/>
            <path fill="#2B4F7D" d="M50.245 72.676l26.289-9.82c.388-.145.672-.481.752-.887l3.695-18.833a.1.1 0 0 0-.134-.115l-26.575 9.806a.885.885 0 0 0-.563.673l-3.464 19.176z"/>
            <path fill="#D3F1F5" d="M65.402 58.203c.036.803.614 1.102 1.291.67.676-.433 1.195-1.434 1.158-2.235-.036-.803-.613-1.102-1.29-.67-.677.432-1.195 1.433-1.159 2.235M63.067 59.306c.021.46.352.63.74.384.386-.248.683-.821.662-1.28-.02-.46-.35-.631-.739-.383-.387.248-.684.82-.663 1.279M68.795 57.043c.02.459.352.63.739.384.387-.248.685-.821.663-1.28-.02-.46-.351-.631-.738-.383-.388.247-.685.82-.664 1.279"/>
            <path fill="#FFD3B3" d="M44.896 3.973c2.077.54 4.291 3.207 4.013 6.657-.485 5.997-4.566 9.936-8.699 8.643-4.333-1.355-4.332-6.016-4.332-6.016-2.013-.216-2.365-3.474-.07-2.99 1.101.232.75.674.75.674-.445-1.104-1.566-2.249-1.473-3.41.12-1.475 2.037-4.396 7.433-3.96.832.067 1.643.21 2.378.401"/>
            <path fill="#805D52" d="M48.06 11.878c1.072 0 1.945.873 1.945 1.946a1.948 1.948 0 0 1-1.945 1.946 1.948 1.948 0 0 1-1.946-1.946c0-1.073.873-1.946 1.946-1.946m0 4.26a2.317 2.317 0 0 0 2.314-2.314 2.317 2.317 0 0 0-2.314-2.314 2.317 2.317 0 0 0-2.315 2.314 2.318 2.318 0 0 0 2.315 2.315M42.209 10.782c1.072 0 1.945.873 1.945 1.946a1.948 1.948 0 0 1-1.945 1.946 1.948 1.948 0 0 1-1.946-1.946c0-1.073.873-1.946 1.946-1.946m0 4.261a2.317 2.317 0 0 0 2.314-2.315 2.317 2.317 0 0 0-2.314-2.314 2.317 2.317 0 0 0-2.315 2.314 2.318 2.318 0 0 0 2.315 2.315"/>
            <path fill="#805D52" d="M45.99 13.065l.328-.167c-.005-.01-.537-1.02-2.055-.338l.152.336c1.198-.539 1.571.161 1.574.17"/>
            <g transform="matrix(-1 0 0 1 52 -.583)">
                <mask id="l" fill="#fff">
                    <use xlink:href="#k"/>
                </mask>
                <path fill="#294287" d="M19.294 7.71l-.002.004c0-.307-.012-.637-.04-.995-.414-5.12-4.529-6.51-9.385-6.056C1.201 1.473-.418 6.798.098 9.092c.013.059.086.082.133.045l2.683-2.12c-.564.849-1.034 2.315-.906 3.908.033.408.292 2.23.7 2.198.407-.033 1.79-4.65 3.574-4.96.333-.057.357.736-.22 3.164-.037.15.118.279.255.209 1.888-.958 3.99-2.767 4.815-4.736a.36.36 0 0 1 .453-.211c1.574.589 2.59 1.689 2.71 3.159.118 1.48-.192 2.045-.192 2.045.006.088.59.362.881.339 0 0 .252-1.357 1.536-1.3.953.042 1.296.75 1.255 1.16-.02.222-.1 1.573-1.654 1.849l.435 3.038c2.297-1.38 2.754-3.175 2.854-5.105.098-1.876-.116-4.063-.116-4.063" mask="url(#l)"/>
            </g>
            <path fill="#805D52" d="M40.078 12.409a.188.188 0 0 0 .14-.064.186.186 0 0 0-.02-.261c-.124-.106-3.04-2.571-4.931-2.126a.184.184 0 0 0-.136.222.183.183 0 0 0 .222.137c1.705-.403 4.577 2.023 4.605 2.047.035.03.078.045.12.045"/>
        </g>
    </g>
</svg>
