<svg xmlns="http://www.w3.org/2000/svg" xmlns:xlink="http://www.w3.org/1999/xlink" width="419" height="437" viewBox="0 0 419 437">
    <defs>
        <path id="a" d="M.673.227h83.751v47.235H.673z"/>
    </defs>
    <g fill="none" fill-rule="evenodd">
        <g transform="translate(334 316)">
            <mask id="b" fill="#fff">
                <use xlink:href="#a"/>
            </mask>
            <path fill="#00274A" fill-opacity=".16" d="M.673 23.846c0 13.044 18.747 23.616 41.876 23.616 23.126 0 41.876-10.572 41.876-23.616 0-13.043-18.75-23.619-41.876-23.619C19.419.227.673 10.803.673 23.847" mask="url(#b)"/>
        </g>
        <path fill="#00274A" fill-opacity=".16" d="M0 262.502C0 275.48 18.579 286 41.5 286c22.918 0 41.5-10.52 41.5-23.498C83 249.523 64.418 239 41.5 239 18.579 239 0 249.523 0 262.502M277.286 369.535c-.325 0-.633.026-.957.029-3.83-3.277-9.016-6.004-15.179-7.86C254.971 329.128 199.36 311 133.11 311 62.719 311 14 334.976 14 370.455 14 405.935 69.34 437 139.734 437c42.112 0 73.924-15.209 97.13-31.078 1.545.099 3.105.156 4.694.156.301 0 .593-.02.889-.022 7.46 6.397 20.27 10.622 34.839 10.622 23.04 0 41.714-10.552 41.714-23.57s-18.675-23.573-41.714-23.573"/>
        <path fill="#0A1C24" d="M233.65 344.73c-2.15-5.539-13.585-6.326-25.542-1.763-11.956 4.57-19.905 12.763-17.758 18.301 2.15 5.542 13.585 6.33 25.542 1.763 11.956-4.567 19.905-12.76 17.758-18.301M187.649 328.73c-2.148-5.537-13.586-6.328-25.54-1.762-11.956 4.57-19.909 12.763-17.758 18.301 2.148 5.538 13.582 6.33 25.539 1.763 11.96-4.57 19.91-12.763 17.759-18.301"/>
        <path fill="#6B7CA1" d="M140 327v9.406s.683 2.594 9.618 2.594c10.13 0 11.382-2.424 11.382-2.424l-.354-7.334L140 327z"/>
        <path fill="#383838" d="M186 323.55L116.18 283 63 316.144 131.902 355z"/>
        <path fill="#ABB2C2" d="M193.806 344.02L193 356.478s2.028 2.707 11.043.9c9.017-1.806 10.957-5.11 10.957-5.11V341l-21.194 3.02z"/>
        <path fill="#002A3D" d="M79.024 306.688s23.01-15.044 30.8-20.707c7.79-5.664 7.85.552 30.228-13.681 28.144-17.908 40.279-8.136 41.637 13.86 5.415-5.554 12.655-6.374 16.467-6.943 10.131-1.514 17.64 3.777 21.02 13.215 2.262 6.326 2.824 51.773 2.824 51.773S217.872 351 206.984 351c-10.883 0-16.697-2.157-16.71-8.342-.039-18.13-6.419-14.227-18.672-8.287-15.438 7.49-28.652 13.347-34.908 13.347s-16.42 2.105-40.065-10.357c-23.65-12.463-16.103-21.229-17.605-30.673"/>
        <path fill="#002A3D" d="M190 320.74L123.166 278 66 310.938 129.743 356z"/>
        <path fill="#240091" d="M379 256.979L393 249v94.021L379 351z"/>
        <path fill="#5820DE" d="M365 249l14 7.979V351l-14-7.979z"/>
        <path fill="#6E80FF" d="M29 154.15L143.52 88 393 231.854 278.48 298z"/>
        <path fill="#240091" d="M278 315v-16.877L393 232v16.884z"/>
        <path fill="#240091" d="M278 314.979L292 307v94.021L278 409z"/>
        <path fill="#5820DE" d="M264 307l14 7.979V409l-14-7.979z"/>
        <path fill="#240091" d="M41.764 179.973L56 172l-.764 89.027L41 269z"/>
        <path fill="#5820DE" d="M28.764 172L43 179.973 42.236 269 28 261.027zM278 298.086V315L28 171.255V154z"/>
        <path fill="#FFFDFA" d="M163.027 153L134 136.29 170.976 115 200 131.714z"/>
        <path fill="#6ECCFF" d="M187.47 133L168 121.497l2.53-1.497L190 131.506zM181.467 137L162 125.497l2.53-1.497L184 135.506zM175.47 140L156 128.497l2.533-1.497L178 138.506zM170.467 143L151 131.497l2.53-1.497L173 141.506z"/>
        <path fill="#2085DE" d="M162.827 147.268c-1.564.976-4.094.976-5.654 0-1.564-.976-1.564-2.56 0-3.536 1.56-.976 4.09-.976 5.654 0s1.564 2.56 0 3.536M139 138h35v-4h-35z"/>
        <path fill="#004D91" d="M135 138h4v-4h-4z"/>
        <path fill="#FFE3B5" d="M174 134l7 1.998-7 2.002z"/>
        <path fill="#6E624E" d="M179.198 136.227l2.604-.728-2.604-.726z"/>
        <path fill="#004D91" d="M213.863 238L277 201.425 195.137 154 132 190.575z"/>
        <path fill="#2085DE" d="M189.327 219L203 211.24 179.673 198 166 205.76zM229.199 221L264 200.786 193.801 160 159 180.22z"/>
        <path fill="#FED1BA" d="M146 174.102s7.426-4.634 9.706-6.002c2.28-1.368 11.931-4.472 16.11 1.12 4.179 5.593 2.173 9.728-4.412 13.956C160.82 187.401 152.46 192 152.46 192L146 174.102z"/>
        <path fill="#E6411C" d="M98.88 187.036s14.466 2.365 24.561-2.67c10.095-5.03 23.327-13.205 23.327-13.205s6.058-1.26 11.61 3.27c5.55 4.53 4.552 14.594 4.552 14.594s-19.551 10.69-27.88 15.474c-8.329 4.776-22.206 5.03-34.066 4.021C89.124 207.515 76 191.16 76 191.16l22.88-4.124z"/>
        <path fill="#FED1BA" d="M224 224.27s10.77-7.514 13.028-8.883c2.265-1.368 11.803-4.94 15.947.658 4.144 5.594 1.64 12.395-4.891 16.627C241.554 236.898 232.31 244 232.31 244L224 224.27z"/>
        <path fill="#FF5730" d="M100.838 189.417c12.33 7.199 41.93 17.018 44.367 34.659 2.44 17.644 1.289 68.129 1.638 74.89.35 6.755 1.337 33.042-13.298 34.918-14.635 1.879-50.177-19.517-55.75-27.403-5.576-7.883-13.544-99.046-11.454-108.43 2.091-9.385 5.4-25.624 34.497-8.634"/>
        <path fill="#FF5730" d="M141.573 217s23.944 24.32 40.074 24.572c16.13.25 40.914-21.694 40.914-21.694s5.04-1.5 10.584 3.757c5.542 5.264 4.825 18.964 4.825 18.964s-27.706 23.513-48.123 26.02c-20.413 2.504-41.467-8.16-41.467-8.16s-15.37-7.618-15.38-24.397C132.99 217 141.573 217 141.573 217"/>
        <path fill="#D43E1E" d="M134 243.355c1.37-3.351 2.574-5.538 2.574-5.538s14.387 11.51 23.86 15.415c9.477 3.905 14.684 3.307 34.369 1.2 15.804-1.685 33.41-20.192 39.747-27.432 2.85 6.253 2.428 15.448 2.428 15.448s-27.495 23.65-47.758 26.168c-20.264 2.522-41.16-8.205-41.16-8.205s-10.556-5.442-14.06-17.056"/>
        <path fill="#D43E1E" d="M136.362 238s4.033 3.27 9.165 6.9c.582 21.64.078 49.192.32 54.063.34 6.757 1.3 33.056-12.913 34.932-.835.112-1.75.125-2.712.083.218-20.725.541-61.41-.14-70.558-.922-12.402 6.28-25.42 6.28-25.42"/>
        <path fill="#FECBAF" d="M103.568 203.996c9.735-.197 16.392-.693 19.432-3.316-5.433-2.95-11.575-7.08-18.937-7.08-6.404 0-17.587-1.802-18.934.84-1.35 2.643 8.072 9.762 18.439 9.556"/>
        <path fill="#FECBAF" d="M91 194.456c2.273-.38.85-10.093.85-10.093L117.616 182s.209 9.543.209 10.457c0 1.555 1.175 5.543 1.175 5.543l-6.54-.51-15.092-.27L91 194.456z"/>
        <path fill="#004D91" d="M195 154.608L218.107 93 301 139.656 276.405 202z"/>
        <path fill="#7DCFFF" d="M200 153.886L220.378 99 295 140.52 272.9 196z"/>
        <path fill="#270766" d="M135.945 354c1.146 2.696-16.106 75-16.106 75L109 422.934l19.312-65.433 7.633-3.501zM77.949 318c1.163 2.69-17.94 82-17.94 82L49 393.95l18.218-73.718L77.948 318zM197 402l-14.37-5.692L155 343.326 165.039 337z"/>
        <path fill="#270766" d="M146 382l-14.386-5.76L123 359.545l9.862-4.544z"/>
        <path fill="#2D0091" d="M54.543 230l60.961 32.966 14.11 93.007 60.255-35.109.131 4.671L127.147 363l-14.664-96.43L51 231.677z"/>
        <path fill="#5820DE" d="M51.143 231l-2.142 77.504a11.214 11.214 0 0 0 2.87 7.654c6.018 6.71 20.208 21.79 31.752 28.376C98.696 353.132 127 363 127 363l-14.608-96.926L51.143 231z"/>
        <path fill="#2085DE" d="M319.363 256L296 242.235 328.64 223 352 236.765z"/>
        <path fill="#2085DE" d="M352 234l-.123 2.909L295 242l.123-2.909z"/>
        <path fill="#004D91" d="M319.36 253L296 239.237 328.64 220 352 233.766z"/>
        <path fill="#C0E4FF" d="M341.46 237L323 226.23l5.54-3.23L347 233.77z"/>
        <path fill="#2085DE" d="M319 234l-5-3.002 5-2.998 5 2.998zM333.002 242L328 239.002l5.002-3.002 4.998 3.002zM326.002 238L321 234.998l5.002-2.998 4.998 2.998zM312.998 238L308 234.998l4.998-2.998 5.002 2.998zM326.998 245L322 242.002l4.998-3.002 5.002 3.002zM319.998 241L315 237.998l4.998-2.998 5.002 2.998zM307.002 241L302 237.998l5.002-2.998 4.998 2.998z"/>
        <path fill="#C0E4FF" d="M321.002 249L316 246.002l5.002-3.002 4.998 3.002z"/>
        <path fill="#2085DE" d="M314.002 245L309 242.002l5.002-3.002 4.998 3.002zM150.068 60L117 79.278l.109 33.99 1.29.732v-2.567l31.275-18.018L151 62.359z"/>
        <path fill="#52CC54" d="M149.727 60L156 63.215l-1.44.785-6.56-3.036z"/>
        <path fill="#FFF" d="M155 64.427L149.943 62 118 80.573 123.06 83z"/>
        <path fill="#FFFDFA" d="M152 94.913L121.976 116l-3.865-1.814L118 80.42 150.347 62z"/>
        <path fill="#2085DE" d="M157 96.742L123.166 116 123 82.258 156.886 63z"/>
        <path fill="#2085DE" d="M123.133 116l-1.161-.587L121.867 82l1.161.587zM154.467 62L121 81.41l1.257.59L156 62.798z"/>
        <path fill="#2085DE" d="M156.068 55L123 74.392l.112 41.872 1.29.736v-2.58l31.272-18.127L157 57.377z"/>
        <path fill="#FF9717" d="M156.727 56L163 59.218l-1.44.782-6.56-3.036z"/>
        <path fill="#FFF" d="M161 59.427L155.943 57 124 75.573 129.06 78z"/>
        <path fill="#FFFDFA" d="M158 97.792L127.973 119l-3.862-1.828L124 75.52 156.347 57z"/>
        <path fill="#FF9717" d="M163 100.63L129.162 120 129 78.367 162.886 59z"/>
        <path fill="#2085DE" d="M129.133 120l-1.161-.593L127.867 78l1.161.593zM161.467 58L128 77.41l1.257.59L163 58.798z"/>
        <path fill="#2085DE" d="M162.068 48L129 67.437v52.825l1.29.738v-2.585l31.272-18.17L163 50.382z"/>
        <path fill="#2085DE" d="M162.727 48L169 51.218l-1.44.782-6.56-3.036z"/>
        <path fill="#FFF" d="M168 52.427L162.943 50 131 68.57l5.06 2.43z"/>
        <path fill="#FFFDFA" d="M164 101.042L134.761 122 131 120.194V68.302L162.501 50z"/>
        <path fill="#004D91" d="M169 102.86L136.05 122 136 70.14 169 51z"/>
        <path fill="#6ECCFF" d="M164 73.547L141 87V73.453L164 60z"/>
        <path fill="#2085DE" d="M162 87.735L143 99v-2.735L162 85zM158 94.772L146 102v-2.769L158 92zM160 97.737L145 107v-2.74L160 95zM136.08 123l-1.16-.595V70l1.16.595zM167.467 50L134 69.41l1.257.59L169 50.798z"/>
        <path fill="#00274A" d="M298 209c0 5.52 7.834 10 17.5 10 9.663 0 17.5-4.48 17.5-10 0-5.523-7.837-10-17.5-10-9.666 0-17.5 4.477-17.5 10"/>
        <path fill="#2085DE" d="M330 185l-28 .505 2.133 21.206h.092c.15 1.58 1.24 3.135 3.356 4.341 4.557 2.597 11.952 2.597 16.508 0 1.97-1.12 3.037-2.548 3.305-4.01h.036L330 185z"/>
        <path fill="#004D91" d="M325.9 190.657c-5.47 3.124-14.331 3.124-19.798 0-5.47-3.124-5.47-8.19 0-11.314 5.467-3.124 14.328-3.124 19.798 0 5.467 3.124 5.467 8.19 0 11.314"/>
        <path fill="#07355E" d="M322.924 189.242c-4.102 2.344-10.746 2.344-14.848 0-4.101-2.341-4.101-6.142 0-8.486 4.102-2.341 10.746-2.341 14.848 0 4.101 2.344 4.101 6.145 0 8.486"/>
        <path fill="#3890DE" d="M326 176.5c0-5.797-4.703-10.5-10.5-10.5s-10.5 4.703-10.5 10.5 4.703 10.5 10.5 10.5 10.5-4.703 10.5-10.5"/>
        <path fill="#BAE6FF" d="M241.901 161c-12.477-6.74-18.622-10.095-30.901-16.969 5.27-14.777 7.83-22.448 13.144-37.031C236.328 113.582 243 117.403 256 124.652c-5.784 14.704-8.59 22.044-14.099 36.348"/>
        <path fill="#2085DE" d="M231 122.994c-2.13-1.208-3.188-1.808-5.29-2.994-3.503 10-5.229 15.08-8.71 25.057 2.086 1.18 3.13 1.77 5.223 2.943 3.494-9.942 5.24-15.003 8.777-25.006"/>
        <path fill="#73BCF0" d="M237 133.035c-2.13-1.217-3.192-1.825-5.303-3.035-2.697 7.65-4.028 11.487-6.697 19.07 2.08 1.175 3.12 1.758 5.206 2.93 2.7-7.535 4.053-11.347 6.794-18.965"/>
        <path fill="#52A7F2" d="M249 128.087a37873.95 37873.95 0 0 1-5.53-3.087c-4.252 11.284-6.332 16.961-10.47 28.093 2.134 1.164 3.203 1.744 5.347 2.907 4.195-11.04 6.32-16.666 10.653-27.913"/>
        <path fill="#BAE6FF" d="M268.896 183c-13.12-6.889-19.403-10.145-31.896-16.757 5.485-14.23 8.272-21.563 14.008-36.243 12.994 7.216 19.631 10.923 31.992 17.364-5.894 14.728-8.754 21.75-14.104 35.636"/>
        <path fill="#004D91" d="M281.763 151c-12.336-6.666-18.9-10.438-31.763-17.81.483-1.274.723-1.913 1.205-3.19 12.915 7.405 19.51 11.204 31.795 17.81-.499 1.28-.745 1.92-1.237 3.19"/>
        <path fill="#52A7F2" d="M265.236 147c-1.707 4.226-2.558 6.324-4.236 10.492 4.07 2.219 6.104 3.322 10.163 5.508 2.3-5.743-.29-12.903-5.927-16"/>
        <path fill="#2085DE" d="M262.075 148.372c-5.607-3.028-12.027-.875-14.277 4.798-2.25 5.675.42 12.579 5.987 15.502 5.568 2.927 11.935.866 14.215-4.711a2222.255 2222.255 0 0 1-10.11-5.374c1.658-4.059 2.494-6.105 4.185-10.215"/>
        <path fill="#004D91" d="M254.777 128c-12.961-7.318-19.586-11.157-31.777-17.868.447-1.256.674-1.882 1.121-3.132 12.195 6.656 18.87 10.52 31.879 17.852-.492 1.26-.738 1.889-1.223 3.148M213 161.272l1.47-3.272L248 177.585 246.482 181z"/>
        <path fill="#00274A" d="M259 251.502c0 4.141 5.819 7.498 13 7.498 7.178 0 13-3.357 13-7.498 0-4.145-5.822-7.502-13-7.502-7.181 0-13 3.357-13 7.502"/>
        <path fill="#ABE2FF" d="M282 233l-21 .38 1.6 15.904h.064c.115 1.185.935 2.351 2.521 3.254 3.421 1.95 8.965 1.95 12.382 0 1.478-.842 2.278-1.91 2.48-3.007h.023L282 233z"/>
        <path fill="#D4F0FF" d="M278.925 238.245c-4.1 2.34-10.752 2.34-14.85 0-4.1-2.344-4.1-6.146-.002-8.49 4.1-2.34 10.751-2.34 14.852 0 4.1 2.344 4.1 6.146 0 8.49"/>
        <path fill="#004D91" d="M277.66 236.68c-3.125 1.76-8.192 1.76-11.316 0-3.125-1.758-3.125-4.604 0-6.363 3.124-1.756 8.187-1.756 11.312 0 3.125 1.76 3.125 4.608.003 6.364"/>
        <path fill="#ABE2FF" d="M281.5 246.318a2.819 2.819 0 0 1 0-5.636 2.815 2.815 0 0 1 2.815 2.816 2.816 2.816 0 0 1-2.815 2.82m0-8.318a5.501 5.501 0 0 0 0 11c3.034 0 5.5-2.464 5.5-5.502a5.503 5.503 0 0 0-5.5-5.498"/>
        <path fill="#FED1BA" d="M103.74 189.937s16.384 3.893 21.13-3.223c4.748-7.115 5.572-42.568 1.585-50.697-3.987-8.127-16.78 2.74-16.78 2.74l-15.351 14.631-5.782 20.344s-5.856 10.605-2.508 11.45c3.347.85 7.521 3.703 17.707 4.755"/>
        <path fill="#8F6840" d="M107.854 176.003s-8.505 9.456-15.312 9.968c-6.805.515-19.184-5.866-24.195-16.877-3.39-7.446-5.423-39.7 10.867-46.908 15.948-7.06 25.494-4.861 34.68-4.865 12.34-.003 17.306 6.24 15.864 13.651-1.446 7.411-7.201 14.14-9.108 14.755-1.907.618-4.775 17.669-4.775 17.669s-3.014 2.907-3.272 2.398c-.255-.512-1.965-10.959-9.024-3.87-8.256 8.294 4.275 14.08 4.275 14.08"/>
        <path fill="#7D5B38" d="M107.82 176.084s-12.527-5.753-4.27-14c7.054-7.05 8.764 3.34 9.022 3.848.258.506 3.27-2.385 3.27-2.385s2.865-16.954 4.771-17.569c.897-.288 2.642-1.943 4.387-4.35-15.376-7.825-25.669-3.27-34.7 16.374-6.161 13.401-2.507 22.75 1.351 27.955.28 0 .6.06.865.038 6.806-.509 15.305-9.911 15.305-9.911"/>
        <path fill="#C22500" d="M271.82 16.733L244.441 1.055c-2.178-1.244-4.15-1.33-5.721-.558l-.03-.052L232 4.152l3.262 5.669v26.217c0 6.708 4.112 14.496 9.18 17.4l23.792 13.624L271.651 73l5.454-3.081-.007-.013c2.354-.85 3.902-3.572 3.902-7.676v-28.1c0-6.704-4.112-14.492-9.18-17.397"/>
        <path fill="#FF5730" d="M264.968 72.912l-26.936-15.624C233.046 54.397 229 46.633 229 39.952V11.948c0-6.681 4.046-9.752 9.032-6.86l26.936 15.624C269.954 23.606 274 31.37 274 38.052v28c0 6.681-4.046 9.752-9.032 6.86"/>
        <path fill="#C97600" d="M326.82 48.733l-27.378-15.678c-2.176-1.244-4.148-1.33-5.722-.558l-.029-.052L287 36.152l3.261 5.669v26.22c0 6.705 4.112 14.493 9.18 17.398l23.791 13.623 3.417 5.938 5.453-3.081-.007-.013c2.353-.846 3.905-3.572 3.905-7.673v-28.1c0-6.707-4.112-14.495-9.18-17.4"/>
        <path fill="#FFB300" d="M319.968 103.91l-26.936-15.623C288.045 85.395 284 77.63 284 70.95V42.949c0-6.68 4.045-9.754 9.032-6.86l26.936 15.624C324.955 54.605 329 62.37 329 69.05v28.002c0 6.68-4.045 9.754-9.032 6.86"/>
        <path fill="#00B83A" d="M383.817 83.734l-27.375-15.68c-2.176-1.243-4.148-1.33-5.722-.557l-.029-.051L344 71.152l3.261 5.669v26.219c0 6.708 4.112 14.496 9.18 17.4l23.791 13.625 3.417 5.935 5.453-3.078-.007-.013c2.353-.85 3.905-3.572 3.905-7.676v-28.101c0-6.705-4.112-14.493-9.183-17.398"/>
        <path fill="#30FF72" d="M376.965 138.912l-26.933-15.624c-4.987-2.891-9.032-10.655-9.032-17.336V77.948c0-6.681 4.045-9.752 9.032-6.86l26.933 15.624c4.99 2.894 9.035 10.655 9.035 17.34v28c0 6.681-4.045 9.752-9.035 6.86"/>
        <g fill="#FFF">
            <path d="M302 51l7 5v23l-7-3.389z"/>
        </g>
        <g fill="#FFF">
            <path d="M302 78l7 4v7l-7-3.389z"/>
        </g>
        <path fill="#FFF" d="M373.138 95.256l-13.94 13.94-3.077-2.71-2.582-2.26-4.539 5.186 2.603 2.258 5.507 4.82 2.41 2.13L378 100.14zM257.5 28l7 3.123-22 18.648-6.5-4z"/>
        <path fill="#FFF" d="M249 23.173l-9-4.894L252.094 54 261 59z"/>
    </g>
</svg>
