<svg xmlns="http://www.w3.org/2000/svg" xmlns:xlink="http://www.w3.org/1999/xlink" width="414" height="449" viewBox="0 0 414 449">
    <defs>
        <path id="b" d="M0 164.759h115.23V0H0z"/>
        <filter id="a" width="114.8%" height="110.3%" x="-7.4%" y="-3.9%" filterUnits="objectBoundingBox">
            <feMorphology in="SourceAlpha" operator="dilate" radius="1.5" result="shadowSpreadOuter1"/>
            <feOffset dy="2" in="shadowSpreadOuter1" result="shadowOffsetOuter1"/>
            <feGaussianBlur in="shadowOffsetOuter1" result="shadowBlurOuter1" stdDeviation="2"/>
            <feComposite in="shadowBlurOuter1" in2="SourceAlpha" operator="out" result="shadowBlurOuter1"/>
            <feColorMatrix in="shadowBlurOuter1" values="0 0 0 0 0 0 0 0 0 0 0 0 0 0 0 0 0 0 0.27810861 0"/>
        </filter>
        <path id="c" d="M.38.113h9.605v15.784H.381z"/>
        <path id="e" d="M.468.492h10.76v6.547H.467z"/>
        <path id="g" d="M.183.457h9.774v15.784H.183z"/>
        <path id="i" d="M.371.373h12.807v7.93H.37z"/>
        <path id="k" d="M0 216.789h151.62V0H0z"/>
        <filter id="l" width="111.4%" height="108%" x="-5.7%" y="-3.1%" filterUnits="objectBoundingBox">
            <feMorphology in="SourceAlpha" operator="dilate" radius="1.65" result="shadowSpreadOuter1"/>
            <feOffset dy="2" in="shadowSpreadOuter1" result="shadowOffsetOuter1"/>
            <feMorphology in="SourceAlpha" radius="1.65" result="shadowInner"/>
            <feOffset dy="2" in="shadowInner" result="shadowInner"/>
            <feComposite in="shadowOffsetOuter1" in2="shadowInner" operator="out" result="shadowOffsetOuter1"/>
            <feGaussianBlur in="shadowOffsetOuter1" result="shadowBlurOuter1" stdDeviation="2"/>
            <feColorMatrix in="shadowBlurOuter1" values="0 0 0 0 0 0 0 0 0 0 0 0 0 0 0 0 0 0 0.157615822 0"/>
        </filter>
        <path id="o" d="M0 181.234h126.754V0H0z"/>
        <filter id="n" width="113.6%" height="109.5%" x="-6.8%" y="-3.7%" filterUnits="objectBoundingBox">
            <feMorphology in="SourceAlpha" operator="dilate" radius="1.65" result="shadowSpreadOuter1"/>
            <feOffset dy="2" in="shadowSpreadOuter1" result="shadowOffsetOuter1"/>
            <feGaussianBlur in="shadowOffsetOuter1" result="shadowBlurOuter1" stdDeviation="2"/>
            <feComposite in="shadowBlurOuter1" in2="SourceAlpha" operator="out" result="shadowBlurOuter1"/>
            <feColorMatrix in="shadowBlurOuter1" values="0 0 0 0 0 0 0 0 0 0 0 0 0 0 0 0 0 0 0.157615822 0"/>
        </filter>
        <path id="p" d="M0 252.92h176.89V0H0z"/>
        <filter id="q" width="109.8%" height="106.8%" x="-4.9%" y="-2.6%" filterUnits="objectBoundingBox">
            <feMorphology in="SourceAlpha" operator="dilate" radius="1.65" result="shadowSpreadOuter1"/>
            <feOffset dy="2" in="shadowSpreadOuter1" result="shadowOffsetOuter1"/>
            <feMorphology in="SourceAlpha" radius="1.65" result="shadowInner"/>
            <feOffset dy="2" in="shadowInner" result="shadowInner"/>
            <feComposite in="shadowOffsetOuter1" in2="shadowInner" operator="out" result="shadowOffsetOuter1"/>
            <feGaussianBlur in="shadowOffsetOuter1" result="shadowBlurOuter1" stdDeviation="2"/>
            <feColorMatrix in="shadowBlurOuter1" values="0 0 0 0 0 0 0 0 0 0 0 0 0 0 0 0 0 0 0.157615822 0"/>
        </filter>
    </defs>
    <g fill="none" fill-rule="evenodd">
        <g transform="translate(293 185)">
            <use fill="#000" filter="url(#a)" xlink:href="#b"/>
            <use fill="#7137B0" stroke="#FFF" stroke-width="3" xlink:href="#b"/>
        </g>
        <path fill="#2ED8CD" d="M304.062 343.362a1.554 1.554 0 1 1-3.108 0 1.554 1.554 0 0 1 3.108 0"/>
        <path fill="#D52FD9" d="M384.144 207.163a1.554 1.554 0 1 1-3.108 0 1.554 1.554 0 0 1 3.108 0"/>
        <path fill="#FFF" d="M395.493 332.43a1.057 1.057 0 1 1-2.114 0 1.057 1.057 0 0 1 2.114 0M317.682 256.246a.49.49 0 1 1-.978 0 .49.49 0 0 1 .978 0M400.643 341.06a.489.489 0 1 1-.977 0 .489.489 0 0 1 .977 0M348.268 339.99a.49.49 0 1 1-.98 0 .49.49 0 0 1 .98 0M302.95 298.923a.49.49 0 1 1-.979 0 .49.49 0 0 1 .98 0M400.643 239.344a.49.49 0 1 1-.978 0 .49.49 0 0 1 .978 0M302.461 241.06a.49.49 0 1 1-.979 0 .49.49 0 0 1 .98 0M339.143 203.654a.49.49 0 1 1-.979 0 .49.49 0 0 1 .979 0M358.79 321.026a.49.49 0 1 1-.98 0 .49.49 0 0 1 .98 0M302.95 328.068a.49.49 0 1 1-.978-.001.49.49 0 0 1 .978 0M378.231 339.502a.49.49 0 1 1-.978 0 .49.49 0 0 1 .978 0M319.318 189.022a.49.49 0 1 1-.978 0 .49.49 0 0 1 .978 0M366.263 339.502a.49.49 0 1 1-.979 0 .49.49 0 0 1 .98 0M386.285 295.092a.489.489 0 1 1-.978 0 .489.489 0 0 1 .978 0"/>
        <path fill="#22E4CC" d="M308.974 204.465l.81.81.81-.81-.81-.81zM313.078 204.465l.81.81.81-.81-.81-.81zM318.802 204.465l-.81-.81-.81.81.81.81zM308.974 208.718l.81.81.81-.81-.81-.81zM313.078 208.718l.81.81.81-.81-.81-.81zM317.182 208.718l.81.81.81-.81-.81-.81zM308.974 212.97l.81.81.81-.81-.81-.81zM313.078 212.97l.81.81.81-.81-.81-.81zM317.182 212.97l.81.81.81-.81-.81-.81zM311.457 305.424l1.216 1.216 1.215-1.216-1.215-1.216zM317.614 305.424l1.215 1.216 1.215-1.216-1.215-1.216zM326.2 305.424l-1.215-1.216-1.215 1.216 1.215 1.216zM311.457 311.803l1.216 1.216 1.215-1.216-1.215-1.215zM317.614 311.803l1.215 1.216 1.215-1.216-1.215-1.215zM323.77 311.803l1.215 1.216 1.216-1.216-1.216-1.215zM311.457 318.182l1.216 1.216 1.215-1.216-1.215-1.215zM317.614 318.182l1.215 1.216 1.215-1.216-1.215-1.215zM323.77 318.182l1.215 1.216 1.216-1.216-1.216-1.215zM376.122 302.488l.81.81.81-.81-.81-.81zM380.226 302.488l.81.81.81-.81-.81-.81zM385.95 302.488l-.81-.81-.81.81.81.81zM376.122 306.74l.81.81.81-.81-.81-.81zM380.226 306.74l.81.81.81-.81-.81-.81zM384.33 306.74l.81.81.81-.81-.81-.81zM376.122 310.993l.81.81.81-.81-.81-.81zM380.226 310.993l.81.81.81-.81-.81-.81zM384.33 310.993l.81.81.81-.81-.81-.81z"/>
        <path fill="#FFF" d="M386.285 290.11a1.415 1.415 0 1 1 0-2.831 1.415 1.415 0 0 1 0 2.83m0-3.689a2.274 2.274 0 1 0 0 4.548 2.274 2.274 0 0 0 0-4.548M332.365 330.872a1.685 1.685 0 1 1 0-3.37 1.685 1.685 0 0 1 0 3.37m0-4.393a2.708 2.708 0 1 0 0 5.417 2.708 2.708 0 0 0 0-5.417"/>
        <path fill="#D52FD9" d="M304.782 227.402a1.415 1.415 0 1 1 0-2.83 1.415 1.415 0 0 1 0 2.83m0-3.689a2.275 2.275 0 1 0 0 4.55 2.275 2.275 0 0 0 0-4.55"/>
        <path fill="#FFF" d="M397.85 222.04a1.415 1.415 0 1 1 0-2.83 1.415 1.415 0 0 1 0 2.83m0-3.69a2.275 2.275 0 1 0 .001 4.55 2.275 2.275 0 0 0 0-4.55M309.447 290.11a1.415 1.415 0 1 1 0-2.831 1.415 1.415 0 0 1 0 2.83m0-3.689a2.274 2.274 0 1 0 0 4.548 2.274 2.274 0 0 0 0-4.548"/>
        <path fill="#D52FD9" d="M317.193 334.983a2.056 2.056 0 1 1 0-4.113 2.056 2.056 0 0 1 0 4.113m0-5.362a3.306 3.306 0 1 0 0 6.611 3.306 3.306 0 0 0 0-6.61M366.206 210.774a2.056 2.056 0 1 1 0-4.113 2.056 2.056 0 0 1 0 4.113m0-5.361a3.305 3.305 0 1 0 0 6.61 3.305 3.305 0 0 0 0-6.61"/>
        <path fill="#2ED8CD" d="M374.898 333.429a2.056 2.056 0 1 1 0-4.113 2.056 2.056 0 0 1 0 4.113m0-5.361a3.305 3.305 0 1 0 0 6.61 3.305 3.305 0 0 0 0-6.61M393.682 196.38a2.056 2.056 0 1 1 0-4.113 2.056 2.056 0 0 1 0 4.112m0-5.361a3.305 3.305 0 1 0 0 6.61 3.305 3.305 0 0 0 0-6.61M398.58 322.027a3.845 3.845 0 1 1 .001-7.69 3.845 3.845 0 0 1-.001 7.69m0-10.024a6.179 6.179 0 0 0-6.179 6.18 6.179 6.179 0 1 0 12.358 0 6.179 6.179 0 0 0-6.179-6.18M354.179 240.024a3.845 3.845 0 1 1 .001-7.69 3.845 3.845 0 0 1-.001 7.69m0-10.024a6.179 6.179 0 0 0-6.179 6.18 6.179 6.179 0 1 0 12.358 0 6.179 6.179 0 0 0-6.18-6.18"/>
        <path fill="#FFF" d="M364.947 298.31a2.44 2.44 0 1 1-.001-4.88 2.44 2.44 0 0 1 .001 4.88m0-6.364a3.923 3.923 0 1 0 0 7.846 3.923 3.923 0 0 0 0-7.846M340.923 232.364a2.44 2.44 0 1 1-.001-4.88 2.44 2.44 0 0 1 .001 4.88m0-6.364a3.923 3.923 0 1 0 0 7.846 3.923 3.923 0 0 0 0-7.846"/>
        <path fill="#2ED8CD" d="M396.987 258.302a2.056 2.056 0 1 1 0-4.112 2.056 2.056 0 0 1 0 4.112m0-5.361a3.305 3.305 0 1 0 0 6.61 3.305 3.305 0 0 0 0-6.61M326.619 197.551a2.056 2.056 0 1 1 0-4.113 2.056 2.056 0 0 1 0 4.113m0-5.362a3.306 3.306 0 1 0 0 6.612 3.306 3.306 0 0 0 0-6.612"/>
        <path fill="#D52FD9" d="M337.021 310.028a2.243 2.243 0 0 1 1.633-1.615v-.915a3.139 3.139 0 0 0-2.552 2.53h.92zM339.725 308.413c.798.197 1.427.82 1.632 1.615h.918a3.137 3.137 0 0 0-2.55-2.53v.915zM338.654 312.763a2.242 2.242 0 0 1-1.646-1.664h-.913a3.136 3.136 0 0 0 2.559 2.58v-.916zM341.37 311.099a2.242 2.242 0 0 1-1.645 1.663v.917a3.138 3.138 0 0 0 2.558-2.58h-.913z"/>
        <path fill="#FFF" d="M300.757 193.94a3.252 3.252 0 0 1 2.37-2.341v-1.33a4.553 4.553 0 0 0-3.702 3.672h1.332zM304.68 191.598a3.252 3.252 0 0 1 2.37 2.343h1.333a4.553 4.553 0 0 0-3.703-3.672v1.33zM303.127 197.91a3.253 3.253 0 0 1-2.388-2.415h-1.326a4.552 4.552 0 0 0 3.714 3.743v-1.329zM307.068 195.495a3.254 3.254 0 0 1-2.387 2.414v1.33a4.553 4.553 0 0 0 3.712-3.744h-1.325z"/>
        <g transform="translate(296.69 264.63)">
            <mask id="d" fill="#fff">
                <use xlink:href="#c"/>
            </mask>
            <path fill="#2ED8CD" d="M2.093 12.915a4.91 4.91 0 1 1 0-9.82 4.91 4.91 0 0 1 0 9.82m0-12.802a7.892 7.892 0 1 0 0 15.784 7.892 7.892 0 0 0 0-15.784" mask="url(#d)"/>
        </g>
        <g transform="translate(356.259 188.193)">
            <mask id="f" fill="#fff">
                <use xlink:href="#e"/>
            </mask>
            <path fill="#2ED8CD" d="M2.5 1.66a3.347 3.347 0 1 1 6.695 0 3.347 3.347 0 0 1-6.694 0m8.726 0a5.38 5.38 0 1 0-10.758 0 5.38 5.38 0 0 0 10.758 0" mask="url(#f)"/>
        </g>
        <g transform="translate(394.741 279.391)">
            <mask id="h" fill="#fff">
                <use xlink:href="#g"/>
            </mask>
            <path fill="#FFF" d="M8.075 13.26a4.91 4.91 0 1 1 0-9.821 4.91 4.91 0 0 1 0 9.82m0-12.802a7.892 7.892 0 1 0 0 15.784 7.892 7.892 0 1 0 0-15.784" mask="url(#h)"/>
        </g>
        <g transform="translate(325.157 338.433)">
            <mask id="j" fill="#fff">
                <use xlink:href="#i"/>
            </mask>
            <path fill="#FFF" d="M2.79 6.776a3.984 3.984 0 1 1 7.968 0 3.984 3.984 0 0 1-7.967 0m10.387 0a6.403 6.403 0 1 0-12.806 0 6.403 6.403 0 0 0 12.806 0" mask="url(#j)"/>
        </g>
        <path fill="#FFF" fill-rule="nonzero" d="M335.04 282.351c3.458 0 6.182-.9 8.17-2.702 1.988-1.8 2.983-4.502 2.983-8.105V253h-8.732v18.415c0 1.008-.295 1.8-.886 2.377-.591.576-1.362.865-2.313.865-1.21 0-2.45-.433-3.717-1.297L327 280.017c2.017 1.556 4.697 2.334 8.04 2.334zm36.873-.519v-4.625h3.328v-7.608h-3.328V253h-12.104l-10.504 17.507v6.7h13.876v4.625h8.732zM363.18 269.6h-5.447l5.447-9.078v9.078z"/>
        <g>
            <path fill="#F29725" d="M6 221.482h151.62V4.694H6z"/>
            <g transform="translate(6 4.376)">
                <path fill="#FFE11D" d="M21.205 96.531a2.345 2.345 0 1 1-4.691 0 2.345 2.345 0 0 1 4.69 0M99.813 50.661a2.345 2.345 0 1 1-4.691 0 2.345 2.345 0 0 1 4.69 0"/>
                <path fill="#FFF" d="M27.71 119.743l-1.574 1.575-1.574-1.575 1.574-1.575zM31.786 119.743l-1.575 1.575-1.573-1.575 1.573-1.575zM35.862 119.743l-1.575 1.575-1.574-1.575 1.574-1.575zM12.283 82.048l-1.575 1.574-1.574-1.574 1.574-1.575zM16.358 82.048l-1.574 1.574-1.574-1.574 1.574-1.575zM20.434 82.048l-1.575 1.574-1.574-1.574 1.574-1.575zM104.31 17.963l-1.574 1.574-1.574-1.574 1.574-1.575zM108.386 17.963l-1.575 1.574-1.574-1.574 1.574-1.575zM112.461 17.963l-1.574 1.574-1.574-1.574 1.574-1.575zM120.038 205.715l-1.575 1.574-1.574-1.574 1.574-1.575zM124.113 205.715l-1.574 1.574-1.574-1.574 1.574-1.575zM128.189 205.715l-1.574 1.574-1.574-1.574 1.574-1.575zM35.817 68.145l-1.575 1.575-1.573-1.575 1.573-1.574zM39.893 68.145l-1.575 1.575-1.574-1.575 1.574-1.574zM43.968 68.145l-1.575 1.575-1.574-1.575 1.574-1.574zM110.45 71.316l-1.574 1.574-1.574-1.574 1.574-1.575zM114.526 71.316l-1.575 1.574-1.574-1.574 1.574-1.575zM118.602 71.316l-1.575 1.574-1.574-1.574 1.574-1.575zM12.283 209.136l-1.575 1.574-1.574-1.574 1.574-1.575zM16.358 209.136l-1.574 1.574-1.574-1.574 1.574-1.575zM20.434 209.136l-1.575 1.574-1.574-1.574 1.574-1.575zM137.337 84.737a1.65 1.65 0 1 1-3.302 0 1.65 1.65 0 0 1 3.302 0M12.359 159.196a1.65 1.65 0 1 1-3.302 0 1.65 1.65 0 0 1 3.302 0M16.435 47.036a1.65 1.65 0 1 1-3.302 0 1.65 1.65 0 0 1 3.302 0M103.857 200.07a1.65 1.65 0 1 1-3.3 0 1.65 1.65 0 0 1 3.3 0M13.933 14.119a1.65 1.65 0 1 1-3.3 0 1.65 1.65 0 0 1 3.3 0M34.953 138.275a1.086 1.086 0 1 1-2.172 0 1.086 1.086 0 0 1 2.172 0M15.87 119.455a1.085 1.085 0 1 1-2.17 0 1.085 1.085 0 0 1 2.17 0M85.244 207.221a1.085 1.085 0 1 1-2.17.002 1.085 1.085 0 0 1 2.17-.002M83.132 69.231a1.086 1.086 0 1 1-2.17.002 1.086 1.086 0 0 1 2.17-.002M135.41 42.236a1.086 1.086 0 1 1-2.171 0 1.086 1.086 0 0 1 2.172 0M58.796 14.311a1.086 1.086 0 1 1-2.172 0 1.086 1.086 0 0 1 2.172 0M35.089 57.197a1.65 1.65 0 1 1-3.302 0 1.65 1.65 0 0 1 3.302 0M62.346 140.004a1.65 1.65 0 1 1-3.302 0 1.65 1.65 0 0 1 3.302 0M131.154 70.118a1.973 1.973 0 1 1 0-3.946 1.973 1.973 0 0 1 0 3.946m0-5.143a3.17 3.17 0 1 0 0 6.34 3.17 3.17 0 0 0 0-6.34M24.562 151.022a1.973 1.973 0 1 1 0-3.946 1.973 1.973 0 0 1 0 3.946m0-5.143a3.17 3.17 0 1 0 0 6.34 3.17 3.17 0 0 0 0-6.34M30.212 16.091a1.973 1.973 0 1 1 0-3.945 1.973 1.973 0 0 1 0 3.945m0-5.143a3.17 3.17 0 1 0 0 6.34 3.17 3.17 0 0 0 0-6.34M14.872 74.8a1.972 1.972 0 1 1 0-3.945 1.972 1.972 0 0 1 0 3.945m0-5.143a3.171 3.171 0 1 0 0 6.342 3.171 3.171 0 0 0 0-6.342M62.501 63.488a1.972 1.972 0 1 1 0-3.944 1.972 1.972 0 0 1 0 3.944m0-5.143a3.171 3.171 0 1 0 .001 6.342 3.171 3.171 0 0 0 0-6.342M133.238 18.008a1.973 1.973 0 1 1 0-3.946 1.973 1.973 0 0 1 0 3.946m0-5.143a3.17 3.17 0 1 0 0 6.34 3.17 3.17 0 0 0 0-6.34M66.654 203.28a3.211 3.211 0 1 1-.001-6.422 3.211 3.211 0 0 1 0 6.423m0-8.374a5.163 5.163 0 1 0 .002 10.325 5.163 5.163 0 0 0-.001-10.325"/>
                <path fill="#7137B0" d="M45.352 154.729a4.74 4.74 0 0 1 9.48 0h2.877a7.618 7.618 0 0 0-15.235 0h2.878zM92.165 9.684a5.518 5.518 0 1 1-11.036 0h-3.351a8.87 8.87 0 1 0 17.738 0h-3.351zM107.724 200.02a5.518 5.518 0 1 1-11.035 0h-3.351a8.869 8.869 0 1 0 17.738 0h-3.352zM32.733 111.573a1.26 1.26 0 1 1-2.521.002 1.26 1.26 0 0 1 2.52-.002M136.641 204.454a1.26 1.26 0 1 1-2.52 0 1.26 1.26 0 0 1 2.52 0M23.916 30.435a1.26 1.26 0 1 1-2.521 0 1.26 1.26 0 0 1 2.52 0M118.717 63.4a1.26 1.26 0 1 1-2.52.001 1.26 1.26 0 0 1 2.52 0M12.85 144.168a1.26 1.26 0 1 1-2.52.001 1.26 1.26 0 0 1 2.52 0"/>
                <mask id="m" fill="#fff">
                    <use xlink:href="#k"/>
                </mask>
                <use fill="#000" filter="url(#l)" xlink:href="#k"/>
                <use stroke="#FFF" stroke-width="3.3" xlink:href="#k"/>
                <path fill="#FFE11D" d="M120.51 118.39h26.848V91.542h-26.847v26.848zm-.917.918h28.682V90.625h-28.682v28.683z" mask="url(#m)"/>
                <path fill="#FFE11D" d="M111.952 124.262H138.8V97.414h-26.848v26.848zm-.918.917h28.683V96.496h-28.683v28.683z" mask="url(#m)"/>
                <path fill="#FFE11D" d="M111.753 97.333l-.52-.756 8.56-5.872.518.756zM111.753 125.098l-.52-.756 8.56-5.871.518.756zM139.518 125.098l-.52-.756 8.56-5.871.518.756zM139.518 97.333l-.52-.756 8.56-5.872.518.756zM27.393 189.283H54.24v-26.848H27.393v26.848zm-.917.917h28.682v-28.682H26.476V190.2z" mask="url(#m)"/>
                <path fill="#FFE11D" d="M18.835 195.154h26.848v-26.847H18.835v26.847zm-.918.917H46.6V167.39H17.917v28.682z" mask="url(#m)"/>
                <path fill="#FFE11D" d="M18.635 168.226l-.518-.756 8.558-5.871.52.756zM18.635 195.99l-.518-.755 8.558-5.872.52.757zM46.4 195.99l-.519-.755 8.56-5.872.518.757zM46.4 168.226l-.519-.756 8.56-5.871.518.756z" mask="url(#m)"/>
                <path fill="#FFF" d="M49.547 35.854a1.376 1.376 0 1 1-2.753 0 1.376 1.376 0 0 1 2.753 0M58.337 35.854a1.376 1.376 0 1 1-2.751 0 1.376 1.376 0 0 1 2.751 0M67.128 35.854a1.376 1.376 0 1 1-2.752 0 1.376 1.376 0 0 1 2.752 0M75.919 35.854a1.376 1.376 0 1 1-2.753 0 1.376 1.376 0 0 1 2.753 0M84.709 35.854a1.376 1.376 0 1 1-2.753 0 1.376 1.376 0 0 1 2.753 0M93.5 35.854a1.376 1.376 0 1 1-2.752 0 1.376 1.376 0 0 1 2.751 0M102.29 35.854a1.376 1.376 0 1 1-2.752 0 1.376 1.376 0 0 1 2.751 0M111.08 35.854a1.376 1.376 0 1 1-2.752 0 1.376 1.376 0 0 1 2.752 0M53.598 41.15a1.376 1.376 0 1 1-2.752 0 1.376 1.376 0 0 1 2.752 0M62.389 41.15a1.376 1.376 0 1 1-2.752 0 1.376 1.376 0 0 1 2.752 0M71.179 41.15a1.376 1.376 0 1 1-2.751 0 1.376 1.376 0 0 1 2.75 0M79.97 41.15a1.376 1.376 0 1 1-2.752 0 1.376 1.376 0 0 1 2.751 0M88.76 41.15a1.376 1.376 0 1 1-2.752 0 1.376 1.376 0 0 1 2.752 0M97.55 41.15a1.376 1.376 0 1 1-2.75 0 1.376 1.376 0 0 1 2.75 0M106.34 41.15a1.376 1.376 0 1 1-2.75 0 1.376 1.376 0 0 1 2.75 0M78.587 134.919a1.376 1.376 0 1 1-2.753 0 1.376 1.376 0 0 1 2.753 0M87.377 134.919a1.376 1.376 0 1 1-2.751 0 1.376 1.376 0 0 1 2.751 0M96.168 134.919a1.376 1.376 0 1 1-2.752 0 1.376 1.376 0 0 1 2.752 0M104.959 134.919a1.376 1.376 0 1 1-2.753 0 1.376 1.376 0 0 1 2.753 0M113.749 134.919a1.376 1.376 0 1 1-2.753 0 1.376 1.376 0 0 1 2.753 0M122.54 134.919a1.376 1.376 0 1 1-2.752 0 1.376 1.376 0 0 1 2.751 0M131.33 134.919a1.376 1.376 0 1 1-2.752 0 1.376 1.376 0 0 1 2.751 0M140.12 134.919a1.376 1.376 0 1 1-2.752 0 1.376 1.376 0 0 1 2.752 0M82.638 140.216a1.376 1.376 0 1 1-2.752-.002 1.376 1.376 0 0 1 2.752.002M91.429 140.216a1.376 1.376 0 1 1-2.752-.001 1.376 1.376 0 0 1 2.752 0M100.219 140.216a1.376 1.376 0 1 1-2.751 0 1.376 1.376 0 0 1 2.75 0M109.01 140.216a1.376 1.376 0 1 1-2.752 0 1.376 1.376 0 0 1 2.751 0M117.8 140.216a1.376 1.376 0 1 1-2.752-.002 1.376 1.376 0 0 1 2.752.002M126.59 140.216a1.376 1.376 0 1 1-2.75 0 1.376 1.376 0 0 1 2.75 0M135.38 140.216a1.376 1.376 0 1 1-2.75 0 1.376 1.376 0 0 1 2.75 0M78.587 145.544a1.376 1.376 0 1 1-2.752-.001 1.376 1.376 0 0 1 2.752.001M87.377 145.544a1.376 1.376 0 1 1-2.751 0 1.376 1.376 0 0 1 2.751 0M96.168 145.544a1.376 1.376 0 1 1-2.752 0 1.376 1.376 0 0 1 2.752 0M104.959 145.544a1.376 1.376 0 1 1-2.753-.001 1.376 1.376 0 0 1 2.753.001M113.749 145.544a1.376 1.376 0 1 1-2.752-.001 1.376 1.376 0 0 1 2.752.001M122.54 145.544a1.376 1.376 0 1 1-2.752 0 1.376 1.376 0 0 1 2.751 0M131.33 145.544a1.376 1.376 0 1 1-2.752 0 1.376 1.376 0 0 1 2.751 0M140.12 145.544a1.376 1.376 0 1 1-2.752-.001 1.376 1.376 0 0 1 2.752.001M82.638 150.84a1.376 1.376 0 1 1-2.751 0 1.376 1.376 0 0 1 2.751 0M91.429 150.84a1.376 1.376 0 1 1-2.752 0 1.376 1.376 0 0 1 2.752 0M100.219 150.84a1.375 1.375 0 1 1-2.75.001 1.375 1.375 0 0 1 2.75 0M109.01 150.84a1.375 1.375 0 1 1-2.751.001 1.375 1.375 0 0 1 2.75 0M117.8 150.84a1.376 1.376 0 1 1-2.751 0 1.376 1.376 0 0 1 2.751 0M126.59 150.84a1.375 1.375 0 1 1-2.75.001 1.375 1.375 0 0 1 2.75 0M135.38 150.84a1.375 1.375 0 1 1-2.75.001 1.375 1.375 0 0 1 2.75 0M78.587 156.17a1.376 1.376 0 1 1-2.752-.002 1.376 1.376 0 0 1 2.752.001M87.377 156.17a1.376 1.376 0 1 1-2.751-.001 1.376 1.376 0 0 1 2.751 0M96.168 156.17a1.376 1.376 0 1 1-2.752-.001 1.376 1.376 0 0 1 2.752 0M104.959 156.17a1.376 1.376 0 1 1-2.753-.002 1.376 1.376 0 0 1 2.753.001M113.749 156.17a1.376 1.376 0 1 1-2.752-.002 1.376 1.376 0 0 1 2.752.001M122.54 156.17a1.376 1.376 0 1 1-2.752-.001 1.376 1.376 0 0 1 2.751 0M131.33 156.17a1.376 1.376 0 1 1-2.752-.001 1.376 1.376 0 0 1 2.751 0M140.12 156.17a1.376 1.376 0 1 1-2.752-.002 1.376 1.376 0 0 1 2.752.001M82.638 161.466a1.376 1.376 0 1 1-2.752 0 1.376 1.376 0 0 1 2.752 0M91.429 161.466a1.376 1.376 0 1 1-2.753 0 1.376 1.376 0 0 1 2.753 0M100.219 161.466a1.376 1.376 0 1 1-2.752 0 1.376 1.376 0 0 1 2.752 0M109.01 161.466a1.376 1.376 0 1 1-2.752 0 1.376 1.376 0 0 1 2.751 0M117.8 161.466a1.376 1.376 0 1 1-2.753 0 1.376 1.376 0 0 1 2.753 0M126.59 161.466a1.376 1.376 0 1 1-2.751 0 1.376 1.376 0 0 1 2.752 0M135.38 161.466a1.376 1.376 0 1 1-2.75 0 1.376 1.376 0 0 1 2.75 0M78.587 166.794a1.376 1.376 0 1 1-2.752-.001 1.376 1.376 0 0 1 2.752.001M87.377 166.794a1.376 1.376 0 1 1-2.751 0 1.376 1.376 0 0 1 2.751 0M96.168 166.794a1.376 1.376 0 1 1-2.752 0 1.376 1.376 0 0 1 2.752 0M104.959 166.794a1.376 1.376 0 1 1-2.753-.001 1.376 1.376 0 0 1 2.753.001M113.749 166.794a1.376 1.376 0 1 1-2.752-.001 1.376 1.376 0 0 1 2.752.001M122.54 166.794a1.376 1.376 0 1 1-2.752 0 1.376 1.376 0 0 1 2.751 0M131.33 166.794a1.376 1.376 0 1 1-2.752 0 1.376 1.376 0 0 1 2.751 0M140.12 166.794a1.376 1.376 0 1 1-2.752-.001 1.376 1.376 0 0 1 2.752.001M82.638 172.09a1.376 1.376 0 1 1-2.752 0 1.376 1.376 0 0 1 2.752 0M91.429 172.09a1.376 1.376 0 1 1-2.753 0 1.376 1.376 0 0 1 2.753 0M100.219 172.09a1.376 1.376 0 1 1-2.752.001 1.376 1.376 0 0 1 2.752 0M109.01 172.09a1.376 1.376 0 1 1-2.752.001 1.376 1.376 0 0 1 2.751 0M117.8 172.09a1.376 1.376 0 1 1-2.753 0 1.376 1.376 0 0 1 2.753 0M126.59 172.09a1.376 1.376 0 1 1-2.751.001 1.376 1.376 0 0 1 2.752 0M135.38 172.09a1.376 1.376 0 1 1-2.75.001 1.376 1.376 0 0 1 2.75 0M78.587 177.419a1.376 1.376 0 1 1-2.753 0 1.376 1.376 0 0 1 2.753 0M87.377 177.419a1.376 1.376 0 1 1-2.751 0 1.376 1.376 0 0 1 2.751 0M96.168 177.419a1.376 1.376 0 1 1-2.752 0 1.376 1.376 0 0 1 2.752 0M104.959 177.419a1.376 1.376 0 1 1-2.753 0 1.376 1.376 0 0 1 2.753 0M113.749 177.419a1.376 1.376 0 1 1-2.753 0 1.376 1.376 0 0 1 2.753 0M122.54 177.419a1.376 1.376 0 1 1-2.752 0 1.376 1.376 0 0 1 2.751 0M131.33 177.419a1.376 1.376 0 1 1-2.752 0 1.376 1.376 0 0 1 2.751 0M140.12 177.419a1.376 1.376 0 1 1-2.752 0 1.376 1.376 0 0 1 2.752 0M82.638 182.716a1.376 1.376 0 1 1-2.752 0 1.376 1.376 0 0 1 2.752 0M91.429 182.716a1.376 1.376 0 1 1-2.753 0 1.376 1.376 0 0 1 2.753 0M100.219 182.716a1.376 1.376 0 1 1-2.752 0 1.376 1.376 0 0 1 2.752 0M109.01 182.716a1.376 1.376 0 1 1-2.752 0 1.376 1.376 0 0 1 2.751 0M117.8 182.716a1.376 1.376 0 1 1-2.753 0 1.376 1.376 0 0 1 2.753 0M126.59 182.716a1.376 1.376 0 1 1-2.751 0 1.376 1.376 0 0 1 2.752 0M135.38 182.716a1.376 1.376 0 1 1-2.75 0 1.376 1.376 0 0 1 2.75 0M78.587 188.044a1.376 1.376 0 1 1-2.753 0 1.376 1.376 0 0 1 2.753 0M87.377 188.044a1.376 1.376 0 1 1-2.751 0 1.376 1.376 0 0 1 2.751 0M96.168 188.044a1.376 1.376 0 1 1-2.752 0 1.376 1.376 0 0 1 2.752 0M104.959 188.044a1.376 1.376 0 1 1-2.753 0 1.376 1.376 0 0 1 2.753 0M113.749 188.044a1.376 1.376 0 1 1-2.753 0 1.376 1.376 0 0 1 2.753 0M122.54 188.044a1.376 1.376 0 1 1-2.752 0 1.376 1.376 0 0 1 2.751 0M131.33 188.044a1.376 1.376 0 1 1-2.752 0 1.376 1.376 0 0 1 2.751 0M140.12 188.044a1.376 1.376 0 1 1-2.752 0 1.376 1.376 0 0 1 2.752 0" mask="url(#m)"/>
            </g>
            <path fill="#FFF" fill-rule="nonzero" d="M65.42 132.38c4.55 0 8.133-1.185 10.75-3.555 2.616-2.37 3.924-5.925 3.924-10.664V93.76h-11.49v24.23c0 1.327-.388 2.37-1.166 3.128-.777.759-1.791 1.138-3.043 1.138-1.592 0-3.223-.569-4.891-1.707l-4.664 8.76c2.654 2.047 6.18 3.071 10.58 3.071zm42.146-.683V93.76h-9.897l-14.504 14.22 6.484 6.768 6.427-6.37v23.32h11.49z"/>
            <g>
                <g transform="translate(81.9 260.3)">
                    <use fill="#000" filter="url(#n)" xlink:href="#o"/>
                    <use fill="#00C8FB" stroke="#FFF" stroke-width="3.3" xlink:href="#o"/>
                </g>
                <path fill="#FFF" d="M174.729 346.008l-.724.724-.724-.724.724-.724zM178.396 346.008l-.723.724-.725-.724.725-.724zM182.063 346.008l-.723.724-.725-.724.725-.724zM185.73 346.008l-.723.724-.724-.724.724-.724zM189.398 346.008l-.724.724-.724-.724.724-.724zM193.065 346.008l-.724.724-.724-.724.724-.724zM196.732 346.008l-.723.724-.725-.724.725-.724zM200.4 346.008l-.724.724-.724-.724.724-.724zM174.729 349.808l-.724.724-.724-.724.724-.724zM178.396 349.808l-.723.724-.725-.724.725-.724zM182.063 349.808l-.723.724-.725-.724.725-.724zM185.73 349.808l-.723.724-.724-.724.724-.724zM189.398 349.808l-.724.724-.724-.724.724-.724zM193.065 349.808l-.724.724-.724-.724.724-.724zM196.732 349.808l-.723.724-.725-.724.725-.724zM200.4 349.808l-.724.724-.724-.724.724-.724zM174.729 353.608l-.724.724-.724-.724.724-.724zM178.396 353.608l-.723.724-.725-.724.725-.724zM182.063 353.608l-.723.724-.725-.724.725-.724zM185.73 353.608l-.723.724-.724-.724.724-.724zM189.398 353.608l-.724.724-.724-.724.724-.724zM193.065 353.608l-.724.724-.724-.724.724-.724zM196.732 353.608l-.723.724-.725-.724.725-.724zM200.4 353.608l-.724.724-.724-.724.724-.724zM174.729 357.408l-.724.724-.724-.724.724-.724zM178.396 357.408l-.723.724-.725-.724.725-.724zM182.063 357.408l-.723.724-.725-.724.725-.724zM185.73 357.408l-.723.724-.724-.724.724-.724zM189.398 357.408l-.724.724-.724-.724.724-.724zM193.065 357.408l-.724.724-.724-.724.724-.724zM196.732 357.408l-.723.724-.725-.724.725-.724zM200.4 357.408l-.724.724-.724-.724.724-.724zM174.729 361.208l-.724.724-.724-.724.724-.724zM178.396 361.208l-.723.724-.725-.724.725-.724zM182.063 361.208l-.723.724-.725-.724.725-.724zM185.73 361.208l-.723.724-.724-.724.724-.724zM189.398 361.208l-.724.724-.724-.724.724-.724zM193.065 361.208l-.724.724-.724-.724.724-.724zM196.732 361.208l-.723.724-.725-.724.725-.724zM200.4 361.208l-.724.724-.724-.724.724-.724zM174.729 365.008l-.724.724-.724-.724.724-.724zM178.396 365.008l-.723.724-.725-.724.725-.724zM182.063 365.008l-.723.724-.725-.724.725-.724zM185.73 365.008l-.723.724-.724-.724.724-.724zM189.398 365.008l-.724.724-.724-.724.724-.724zM193.065 365.008l-.724.724-.724-.724.724-.724zM196.732 365.008l-.723.724-.725-.724.725-.724zM200.4 365.008l-.724.724-.724-.724.724-.724zM174.729 368.808l-.724.724-.724-.724.724-.724zM178.396 368.808l-.723.724-.725-.724.725-.724zM182.063 368.808l-.723.724-.725-.724.725-.724zM185.73 368.808l-.723.724-.724-.724.724-.724zM189.398 368.808l-.724.724-.724-.724.724-.724zM193.065 368.808l-.724.724-.724-.724.724-.724zM196.732 368.808l-.723.724-.725-.724.725-.724zM200.4 368.808l-.724.724-.724-.724.724-.724zM174.729 372.608l-.724.724-.724-.724.724-.724zM178.396 372.608l-.723.724-.725-.724.725-.724zM182.063 372.608l-.723.724-.725-.724.725-.724zM185.73 372.608l-.723.724-.724-.724.724-.724zM189.398 372.608l-.724.724-.724-.724.724-.724zM193.065 372.608l-.724.724-.724-.724.724-.724zM196.732 372.608l-.723.724-.725-.724.725-.724zM200.4 372.608l-.724.724-.724-.724.724-.724zM163.64 319.33a1.163 1.163 0 1 1-2.325 0 1.163 1.163 0 0 1 2.325 0M202.211 388.483a1.164 1.164 0 1 1-2.327 0 1.164 1.164 0 0 1 2.327 0M132.352 422.813a1.163 1.163 0 1 1-2.325 0 1.163 1.163 0 0 1 2.325 0M186.17 300.072a1.163 1.163 0 1 1-2.326 0 1.163 1.163 0 0 1 2.326 0M92.369 345.655a.684.684 0 1 1-1.368-.001.684.684 0 0 1 1.368.001M171.895 424.96a.683.683 0 1 1-1.367 0 .683.683 0 0 1 1.367 0M153.682 417.108a.684.684 0 1 1-1.368 0 .684.684 0 0 1 1.368 0M186.853 381.897a.683.683 0 1 1-1.367 0 .683.683 0 0 1 1.367 0M105.93 429.276a.684.684 0 1 1-1.368 0 .684.684 0 0 1 1.368 0M151.467 295.084a.683.683 0 1 1-1.367 0 .683.683 0 0 1 1.367 0M95.305 328.971l1.06 1.061 1.062-1.06-1.061-1.063zM100.68 328.971l1.062 1.061 1.062-1.06-1.062-1.063zM108.18 328.971l-1.061-1.062-1.062 1.062 1.062 1.061zM95.305 334.542l1.06 1.061 1.062-1.06-1.061-1.062zM100.68 334.542l1.062 1.061 1.062-1.06-1.062-1.062zM106.057 334.542l1.062 1.061 1.061-1.06-1.061-1.062zM95.305 340.113l1.06 1.061 1.062-1.061-1.061-1.061zM100.68 340.113l1.062 1.061 1.062-1.061-1.062-1.061zM106.057 340.113l1.062 1.061 1.061-1.061-1.061-1.061zM157.203 400.592l1.06 1.062 1.062-1.062-1.061-1.061zM162.579 400.592l1.061 1.062 1.062-1.062-1.062-1.061zM170.078 400.592l-1.062-1.061-1.06 1.061 1.06 1.062zM157.203 406.163l1.06 1.062 1.062-1.062-1.061-1.06zM162.579 406.163l1.061 1.062 1.062-1.062-1.062-1.06zM167.955 406.163l1.061 1.062 1.062-1.062-1.062-1.06zM157.203 411.734l1.06 1.061 1.062-1.06-1.061-1.062zM162.579 411.734l1.061 1.061 1.062-1.06-1.062-1.062zM167.955 411.734l1.061 1.061 1.062-1.06-1.062-1.062zM141.262 276.061a1.673 1.673 0 1 0 0 3.346 1.673 1.673 0 0 0 0-3.346m4.538 0a1.673 1.673 0 1 0 0 3.346 1.673 1.673 0 0 0 0-3.346m4.538 0a1.673 1.673 0 1 0 0 3.346 1.673 1.673 0 0 0 0-3.346m4.539 0a1.672 1.672 0 1 0-.001 3.345 1.672 1.672 0 0 0 0-3.345m-16.303-3.661a1.673 1.673 0 1 0 0 3.345 1.673 1.673 0 0 0 0-3.345m4.538 0a1.673 1.673 0 1 0 0 3.345 1.673 1.673 0 0 0 0-3.345m4.538 0a1.673 1.673 0 1 0 0 3.345 1.673 1.673 0 0 0 0-3.345m2.865 1.672a1.673 1.673 0 1 1 3.346.001 1.673 1.673 0 0 1-3.346 0M108.356 387.874a1.58 1.58 0 1 0 0 3.161 1.58 1.58 0 0 0 0-3.161m4.287 0a1.58 1.58 0 1 0 0 3.161 1.58 1.58 0 0 0 0-3.161m4.286 0a1.58 1.58 0 1 0 0 3.16 1.58 1.58 0 0 0 0-3.16m4.287 0a1.58 1.58 0 1 0 0 3.161 1.58 1.58 0 0 0 0-3.161m-15.4-3.46a1.58 1.58 0 1 0 0 3.162 1.58 1.58 0 0 0 0-3.161m4.286 0a1.581 1.581 0 1 0 .001 3.162 1.581 1.581 0 0 0 0-3.162m4.286 0a1.58 1.58 0 1 0 0 3.16 1.58 1.58 0 0 0 0-3.16m2.706 1.58a1.581 1.581 0 1 1 3.162.001 1.581 1.581 0 0 1-3.162 0M184.115 409.953a1.74 1.74 0 1 0 0 3.479 1.74 1.74 0 0 0 0-3.48m4.719 0a1.74 1.74 0 1 0-.001 3.48 1.74 1.74 0 0 0 0-3.48m4.719 0a1.74 1.74 0 1 0 0 3.48 1.74 1.74 0 0 0 0-3.48m4.719 0a1.74 1.74 0 1 0 0 3.48 1.74 1.74 0 0 0 0-3.48m-16.953-3.807a1.74 1.74 0 1 0 0 3.479 1.74 1.74 0 0 0 0-3.479m4.719 0a1.74 1.74 0 1 0-.001 3.479 1.74 1.74 0 0 0 0-3.479m4.72 0a1.74 1.74 0 1 0-.001 3.479 1.74 1.74 0 0 0 0-3.479m2.98 1.74a1.74 1.74 0 1 1 3.478 0 1.74 1.74 0 0 1-3.478 0"/>
                <path fill="#E2A1F6" d="M181.196 312.218c.877 0 1.668.33 2.285.86l-.004-.023c5.644 4.073 8.222-.746 8.222-.746v.006a6.915 6.915 0 0 1 6.006-3.49 6.923 6.923 0 0 1 0 13.847 6.915 6.915 0 0 1-6.006-3.49v.006s-2.578-4.818-8.222-.746l.004-.023a3.498 3.498 0 0 1-2.285.86 3.53 3.53 0 0 1 0-7.06M113.044 395.488c-.966 0-1.839.365-2.52.948l.004-.025c-6.226 4.493-9.069-.823-9.069-.823v.006a7.63 7.63 0 0 0-6.627-3.85 7.638 7.638 0 0 0 0 15.276 7.63 7.63 0 0 0 6.627-3.85v.007s2.843-5.316 9.07-.823l-.005-.025c.681.583 1.554.948 2.52.948a3.895 3.895 0 0 0 0-7.79"/>
                <path fill="#8C8AF8" d="M154.49 384.074c.806 0 1.533.305 2.1.79l-.003-.02c5.19 3.745 7.56-.686 7.56-.686v.005a6.36 6.36 0 0 1 5.524-3.209 6.367 6.367 0 0 1 0 12.733 6.36 6.36 0 0 1-5.524-3.209v.006s-2.37-4.432-7.56-.686l.003-.021a3.216 3.216 0 0 1-2.1.79 3.246 3.246 0 1 1 0-6.493"/>
                <path fill="#7A96FA" d="M188.551 331.628c0-.406-.153-.774-.398-1.06l.01.002c-1.89-2.619.347-3.814.347-3.814h-.003a3.212 3.212 0 1 0-3.186 0h-.003s2.235 1.195.346 3.814l.01-.002a1.621 1.621 0 0 0-.398 1.06 1.637 1.637 0 1 0 3.275 0M141.36 318.602c0-.374-.142-.711-.368-.975l.01.002c-1.737-2.407.318-3.507.318-3.507h-.002a2.95 2.95 0 0 0-1.465-5.516 2.953 2.953 0 0 0-1.465 5.516h-.002s2.055 1.1.318 3.507l.01-.002c-.226.264-.367.601-.367.975a1.506 1.506 0 1 0 3.012 0"/>
                <path fill="#6177C7" d="M107.922 417.523c0-.448-.169-.853-.44-1.17l.013.003c-2.085-2.888.382-4.208.382-4.208h-.003a3.543 3.543 0 1 0-3.515 0h-.003s2.466 1.32.382 4.208l.01-.002c-.269.316-.438.721-.438 1.17a1.806 1.806 0 1 0 3.612 0"/>
                <path fill="#7A96FA" d="M157.458 432.079c0-.374-.141-.712-.367-.975l.01.002c-1.737-2.408.319-3.508.319-3.508h-.003a2.953 2.953 0 1 0-2.93 0h-.002s2.056 1.1.318 3.508l.01-.002c-.225.263-.366.6-.366.975a1.506 1.506 0 1 0 3.01 0"/>
                <path fill="#E2A1F6" d="M98.076 275.218c1.011 0 1.925.382 2.638.992l-.004-.026c6.516 4.702 9.492-.861 9.492-.861v.005a7.986 7.986 0 0 1 6.935-4.028 7.994 7.994 0 0 1 0 15.988 7.986 7.986 0 0 1-6.935-4.03v.007s-2.976-5.564-9.492-.861l.004-.026a4.045 4.045 0 0 1-2.638.992 4.076 4.076 0 0 1 0-8.152"/>
                <path fill="#6177C7" d="M120.432 290.352c-.47 0-.893.177-1.224.46l.002-.012c-3.023 2.182-4.404-.4-4.404-.4v.004a3.705 3.705 0 0 0-3.217-1.87 3.709 3.709 0 1 0 0 7.417 3.705 3.705 0 0 0 3.217-1.869v.003s1.381-2.58 4.404-.4l-.002-.01c.33.282.754.458 1.224.458a1.89 1.89 0 1 0 0-3.78M197.671 272.093c-.469 0-.893.177-1.223.46l.002-.012c-3.023 2.181-4.403-.4-4.403-.4v.003a3.709 3.709 0 1 0-3.218 5.548 3.706 3.706 0 0 0 3.218-1.868v.002s1.38-2.581 4.403-.4l-.002-.011c.33.283.754.46 1.223.46a1.89 1.89 0 1 0 0-3.782"/>
                <path fill="#7A96FA" d="M197.31 420.144c-.373 0-.71.14-.974.366l.001-.01c-2.407 1.738-3.507-.318-3.507-.318v.003a2.953 2.953 0 1 0 0 2.93v.002s1.1-2.056 3.507-.318l-.001-.01c.263.225.6.366.974.366a1.506 1.506 0 1 0 0-3.011"/>
                <path fill="#FFF" d="M198.816 294.668a2.193 2.193 0 1 1 0-4.385 2.193 2.193 0 0 1 0 4.385m0-5.716a3.524 3.524 0 1 0 0 7.047 3.524 3.524 0 0 0 0-7.047M169.024 293.516a2.193 2.193 0 1 1 0-4.385 2.193 2.193 0 0 1 0 4.385m0-5.716a3.524 3.524 0 1 0 0 7.047 3.524 3.524 0 0 0 0-7.047M95.193 373.095a2.192 2.192 0 1 1 0-4.384 2.192 2.192 0 0 1 0 4.384m0-5.716a3.523 3.523 0 1 0 0 7.047 3.523 3.523 0 0 0 0-7.047M94.126 427.882a1.529 1.529 0 1 1 0-3.058 1.529 1.529 0 0 1 0 3.058m0-3.985a2.456 2.456 0 1 0 0 4.914 2.457 2.457 0 0 0 0-4.914M194 282.898a1.529 1.529 0 1 1 .001-3.057 1.529 1.529 0 0 1 0 3.057m0-3.984a2.456 2.456 0 1 0-.001 4.912 2.456 2.456 0 0 0 0-4.912M139.853 304.985a1.529 1.529 0 1 1 0-3.058 1.529 1.529 0 0 1 0 3.058m0-3.985a2.456 2.456 0 1 0 0 4.914 2.457 2.457 0 0 0 0-4.914M139.229 398.955a2.192 2.192 0 1 1-.002-4.383 2.192 2.192 0 0 1 .002 4.383m0-5.716a3.524 3.524 0 1 0 0 7.048 3.524 3.524 0 0 0 0-7.048"/>
                <path fill="#FFF" fill-rule="nonzero" d="M128.144 366.762c3.804 0 6.8-.991 8.987-2.972 2.187-1.981 3.281-4.953 3.281-8.916v-20.398h-9.605v20.256c0 1.11-.325 1.98-.975 2.615-.65.634-1.498.95-2.544.95-1.331 0-2.694-.475-4.089-1.426l-3.899 7.323c2.219 1.712 5.167 2.568 8.844 2.568zm29.1 0c4.121 0 7.45-.88 9.986-2.64 2.536-1.759 3.804-4.049 3.804-6.87 0-2.06-.769-3.757-2.306-5.088-1.538-1.331-3.273-2.108-5.207-2.33 2.029-.317 3.701-1.15 5.017-2.496 1.315-1.348 1.973-2.861 1.973-4.541 0-2.695-1.133-4.835-3.4-6.42-2.266-1.585-5.54-2.377-9.819-2.377-5.706 0-10.144 1.743-13.314 5.23l4.517 5.992c2.22-1.839 4.803-2.758 7.751-2.758 3.138 0 4.707.681 4.707 2.044 0 1.047-1.458 1.57-4.374 1.57-2.663 0-4.2-.016-4.612-.048v8.511c.634-.063 2.171-.095 4.612-.095 1.965 0 3.273.135 3.923.404.65.27.974.706.974 1.308 0 .602-.396 1.11-1.188 1.522-.793.412-1.934.618-3.424.618-1.363 0-2.853-.262-4.47-.785-1.616-.523-2.995-1.276-4.136-2.258l-4.708 6.561c1.395 1.49 3.273 2.687 5.635 3.59 2.362.904 5.048 1.356 8.06 1.356z"/>
            </g>
            <g>
                <path fill="#24E1CB" d="M132.5 306.13h176.89V53.21H132.5z"/>
                <g transform="translate(132.5 52.839)">
                    <path fill="#F14BF3" d="M64.078 230.983a6.884 6.884 0 1 1-13.769-.001 6.884 6.884 0 0 1 13.769.001"/>
                    <path fill="#FFF" d="M167.23 215.744a.954.954 0 1 1-1.908 0 .954.954 0 0 1 1.908 0M79.845 40.833a.954.954 0 1 1-1.907.001.954.954 0 0 1 1.907 0M41.22 129.206a.953.953 0 1 1-1.905 0 .953.953 0 0 1 1.906 0M92.772 229.245a.955.955 0 1 1-1.91 0 .955.955 0 0 1 1.91 0M143.833 101.908a.954.954 0 1 1-1.907 0 .954.954 0 0 1 1.907 0M14.969 188.365l2.381 2.381 2.382-2.381-2.382-2.381zM27.031 188.365l2.381 2.381 2.382-2.381-2.382-2.381zM43.856 188.365l-2.381-2.381-2.382 2.38 2.382 2.382zM14.969 200.864l2.381 2.38 2.382-2.38-2.382-2.381zM27.031 200.864l2.381 2.38 2.382-2.38-2.382-2.381zM39.093 200.864l2.381 2.38 2.382-2.38-2.382-2.381zM14.969 213.363l2.381 2.38 2.382-2.38-2.382-2.381zM27.031 213.363l2.381 2.38 2.382-2.38-2.382-2.381zM39.093 213.363l2.381 2.38 2.382-2.38-2.382-2.381z"/>
                    <mask id="r" fill="#fff">
                        <use xlink:href="#p"/>
                    </mask>
                    <use fill="#000" filter="url(#q)" xlink:href="#p"/>
                    <use stroke="#FFF" stroke-width="3.3" xlink:href="#p"/>
                    <path fill="#FFF" d="M27.809 174.87H38.51V164.17H27.809v10.701zm-1.605 1.605h13.911v-13.912H26.204v13.912zM102.172 221.095h10.702v-10.703h-10.702v10.703zm-1.604 1.605h13.911v-13.912h-13.911V222.7zM72.446 219.245h5.558v-5.559h-5.558v5.559zm-1.606 1.605h8.769v-8.769H70.84v8.77zM112.87 27.787h5.558v-5.559h-5.558v5.559zm-1.606 1.605h8.77v-8.769h-8.77v8.77zM30.521 119.807h5.559v-5.558H30.52v5.558zm-1.605 1.605h8.77v-8.769h-8.77v8.77zM38.505 60.118h10.702V49.417H38.505v10.701zM36.9 61.724h13.912V47.812H36.9v13.912zM145.484 82.035h17.39v-17.39h-17.39v17.39zm-1.606 1.606h20.6v-20.6h-20.6v20.6zM135.195 198.953h17.39v-17.39h-17.39v17.39zm-1.606 1.605h20.6v-20.6h-20.6v20.6z" mask="url(#r)"/>
                    <path fill="#FFF" d="M157.497 87.792h9.909v-9.907h-9.909v9.907zm-1.604 1.605h13.118V76.28h-13.118v13.118zM68.501 27.09h9.907v-9.907h-9.907v9.908zm-1.606 1.606h13.118V15.578H66.895v13.118zM36.01 239.679h17.389v-17.39h-17.39v17.39zm-1.605 1.604h20.6v-20.6h-20.6v20.6zM14.967 166.844h17.39v-17.39h-17.39v17.39zm-1.606 1.605h20.601v-20.6h-20.6v20.6z" mask="url(#r)"/>
                    <path fill="#7137B0" d="M158.3 122.86a3.769 3.769 0 1 1 0-7.538 3.769 3.769 0 0 1 0 7.537m0-9.825a6.057 6.057 0 1 0 0 12.114 6.057 6.057 0 0 0 0-12.114M144.657 155.687a3.769 3.769 0 1 1 0-7.537 3.769 3.769 0 0 1 0 7.537m0-9.826a6.057 6.057 0 1 0 0 12.114 6.057 6.057 0 0 0 0-12.114M49.177 84.848a3.769 3.769 0 1 1 0-7.537 3.769 3.769 0 0 1 0 7.537m0-9.827a6.057 6.057 0 1 0 0 12.115 6.057 6.057 0 0 0 0-12.115M17.248 77.11a3.768 3.768 0 1 1 0-7.536 3.768 3.768 0 0 1 0 7.536m0-9.826a6.057 6.057 0 1 0 0 12.114 6.057 6.057 0 0 0 0-12.114M140.763 247.106a8.245 8.245 0 0 1 16.489 0h5.007c0-7.318-5.933-13.25-13.252-13.25-7.317 0-13.25 5.932-13.25 13.25h5.006zM6.328 107.71a8.244 8.244 0 1 1 0 16.488v5.008c7.319 0 13.251-5.934 13.251-13.252 0-7.318-5.932-13.25-13.251-13.25v5.006z" mask="url(#r)"/>
                    <path fill="#F14BF3" d="M118.85 70.587a8.338 8.338 0 1 1-16.676 0 8.338 8.338 0 0 1 16.676 0M106.61 169.136a3.254 3.254 0 1 1-6.509 0 3.254 3.254 0 0 1 6.508 0M122.486 237.866a3.254 3.254 0 1 1-6.511 0 3.254 3.254 0 0 1 6.51 0M40.712 22.511a6.783 6.783 0 1 1-13.567 0 6.783 6.783 0 0 1 13.567 0" mask="url(#r)"/>
                    <path fill="#7137B0" d="M128.481 207.113a3.868 3.868 0 1 1-7.736 0 3.868 3.868 0 0 1 7.736 0M63.53 194.614a3.868 3.868 0 1 1-7.735 0 3.868 3.868 0 0 1 7.736 0M137.772 54.767a2.015 2.015 0 1 1-4.03.001 2.015 2.015 0 0 1 4.03 0M87.29 188.365a2.015 2.015 0 1 1-4.031 0 2.015 2.015 0 0 1 4.03 0M24.522 227.23a2.016 2.016 0 1 1-4.03 0 2.016 2.016 0 0 1 4.03 0M57.45 39.887a2.016 2.016 0 1 1-4.033 0 2.016 2.016 0 0 1 4.033 0M41.328 141.594a1.159 1.159 0 1 1-2.317 0 1.159 1.159 0 0 1 2.317 0M162.332 175.673a2.016 2.016 0 1 1-4.031 0 2.016 2.016 0 0 1 4.03 0" mask="url(#r)"/>
                    <path fill="#FFF" d="M134.01 17.271l2.38 2.382 2.383-2.382-2.383-2.38zM146.071 17.271l2.382 2.382 2.381-2.382-2.381-2.38zM162.896 17.271l-2.38-2.38-2.382 2.38 2.381 2.382zM134.01 29.77l2.38 2.38 2.383-2.38-2.383-2.38zM146.071 29.77l2.382 2.38 2.381-2.38-2.381-2.38zM158.134 29.77l2.38 2.38 2.382-2.38-2.381-2.38zM134.01 42.269l2.38 2.38 2.383-2.38-2.383-2.382zM146.071 42.269l2.382 2.38 2.381-2.38-2.381-2.382zM158.134 42.269l2.38 2.38 2.382-2.38-2.381-2.382zM23.083 30.793a8.282 8.282 0 1 1 0-16.564 8.282 8.282 0 0 1 0 16.564m0-19.176c-6.016 0-10.894 4.878-10.894 10.894 0 6.017 4.878 10.894 10.894 10.894 6.017 0 10.894-4.877 10.894-10.894 0-6.016-4.877-10.894-10.894-10.894M95.01 80.11c-5.622 0-10.18-4.557-10.18-10.179s4.558-10.18 10.18-10.18 10.18 4.558 10.18 10.18-4.558 10.18-10.18 10.18m0-23.57c-7.395 0-13.39 5.995-13.39 13.39 0 7.396 5.995 13.39 13.39 13.39 7.395 0 13.39-5.994 13.39-13.39 0-7.395-5.995-13.39-13.39-13.39" mask="url(#r)"/>
                </g>
                <path fill="#FFF" fill-rule="nonzero" d="M197.202 202.84c5.31 0 9.49-1.382 12.542-4.147 3.052-2.765 4.579-6.912 4.579-12.442v-28.467h-13.405v28.268c0 1.548-.453 2.765-1.36 3.65-.907.884-2.09 1.327-3.55 1.327-1.858 0-3.76-.664-5.707-1.991l-5.441 10.219c3.097 2.389 7.21 3.583 12.342 3.583zm59.59-.796v-11.679h-14.4c5.176-3.406 8.803-6.48 10.882-9.224 2.08-2.742 3.12-5.662 3.12-8.759 0-4.468-1.737-8.129-5.21-10.982-3.473-2.853-8.062-4.28-13.769-4.28-3.406 0-6.78.608-10.12 1.825-3.34 1.216-6.204 3.108-8.593 5.673l7.3 8.892c3.627-3.052 7.52-4.578 11.678-4.578 1.46 0 2.677.32 3.65.962.973.641 1.46 1.47 1.46 2.488 0 .885-.166 1.66-.498 2.323-.332.663-1.36 1.747-3.085 3.251-1.726 1.504-3.882 3.185-6.47 5.043a3011.228 3011.228 0 0 1-12.11 8.627v10.418h36.164z"/>
            </g>
        </g>
    </g>
</svg>
