<svg xmlns="http://www.w3.org/2000/svg" xmlns:xlink="http://www.w3.org/1999/xlink" width="403" height="293" viewBox="0 0 403 293">
    <defs>
        <path id="b" d="M107.981 13.617L392.381.178a3.6 3.6 0 0 1 3.77 3.596v207.397a3.6 3.6 0 0 1-3.914 3.587l-284.4-24.877a3.6 3.6 0 0 1-3.286-3.586V17.213a3.6 3.6 0 0 1 3.43-3.596z"/>
        <filter id="a" width="104.8%" height="106.3%" x="-2.4%" y="-2.2%" filterUnits="objectBoundingBox">
            <feOffset dy="2" in="SourceAlpha" result="shadowOffsetOuter1"/>
            <feGaussianBlur in="shadowOffsetOuter1" result="shadowBlurOuter1" stdDeviation="2"/>
            <feColorMatrix in="shadowBlurOuter1" values="0 0 0 0 0 0 0 0 0 0 0 0 0 0 0 0 0 0 0.5 0"/>
        </filter>
        <path id="d" d="M9.433 128.215l189-9.823a9 9 0 0 1 9.467 8.988v148.562a9 9 0 0 1-9.862 8.959l-189-18.183a9 9 0 0 1-8.138-8.96V137.204a9 9 0 0 1 8.533-8.988z"/>
        <filter id="c" width="106.8%" height="107.5%" x="-3.4%" y="-2.7%" filterUnits="objectBoundingBox">
            <feOffset dy="2" in="SourceAlpha" result="shadowOffsetOuter1"/>
            <feGaussianBlur in="shadowOffsetOuter1" result="shadowBlurOuter1" stdDeviation="2"/>
            <feColorMatrix in="shadowBlurOuter1" values="0 0 0 0 0 0 0 0 0 0 0 0 0 0 0 0 0 0 0.5 0"/>
        </filter>
        <path id="f" d="M.9 146.862l207-9.512v138.702a9 9 0 0 1-9.763 8.967l-189-16.077A9 9 0 0 1 .9 259.974V146.862z"/>
        <filter id="e" width="106.8%" height="108.9%" x="-3.4%" y="-3.4%" filterUnits="objectBoundingBox">
            <feOffset dy="2" in="SourceAlpha" result="shadowOffsetOuter1"/>
            <feGaussianBlur in="shadowOffsetOuter1" result="shadowBlurOuter1" stdDeviation="2"/>
            <feColorMatrix in="shadowBlurOuter1" values="0 0 0 0 0 0 0 0 0 0 0 0 0 0 0 0 0 0 0.5 0"/>
        </filter>
        <text id="h" fill="#50C7F9" font-family="ProximaNova-Semibold, Proxima Nova" font-size="22.5" font-weight="500">
            <tspan x="11.216" y="164.1">&gt; _</tspan>
        </text>
        <filter id="g" width="117.2%" height="132.1%" x="-8.6%" y="-16.1%" filterUnits="objectBoundingBox">
            <feOffset in="SourceAlpha" result="shadowOffsetOuter1"/>
            <feGaussianBlur in="shadowOffsetOuter1" result="shadowBlurOuter1" stdDeviation="1.5"/>
            <feColorMatrix in="shadowBlurOuter1" values="0 0 0 0 0.31372549 0 0 0 0 0.780392157 0 0 0 0 0.976470588 0 0 0 1 0"/>
        </filter>
    </defs>
    <g fill="none" fill-rule="evenodd" transform="translate(3 2)">
        <use fill="#000" filter="url(#a)" xlink:href="#b"/>
        <use fill="#FFF" xlink:href="#b"/>
        <path fill="#FFF" stroke="#E9E9E9" stroke-width=".9" d="M367.2 87.877h-234a.449.449 0 0 1-.45-.45V48.665c0-.12.047-.23.125-.311l234.304-10.96a.449.449 0 0 1 .47.42l.001 49.613a.449.449 0 0 1-.45.45zM367.208 139.91L133.18 129.638a.449.449 0 0 1-.43-.45V95.853c0-.125.05-.237.132-.318l234.319.314a.449.449 0 0 1 .449.45v43.162a.449.449 0 0 1-.442.45z"/>
        <path fill="#5438DC" d="M134.14 137.421l233.1 10.177a.9.9 0 0 1 .86.899v35.37a.9.9 0 0 1-.96.897l-233.1-15.725a.9.9 0 0 1-.84-.898v-29.82a.9.9 0 0 1 .94-.9z"/>
        <g transform="matrix(-1 0 0 1 208.8 0)">
            <use fill="#000" filter="url(#c)" xlink:href="#d"/>
            <use fill="#EEE" xlink:href="#d"/>
        </g>
        <circle cx="11.7" cy="129.6" r="3.6" fill="#B51111"/>
        <circle cx="21.6" cy="129.6" r="3.6" fill="#FF9600"/>
        <circle cx="31.5" cy="129.6" r="3.6" fill="#05C35B"/>
        <g transform="matrix(-1 0 0 1 208.8 0)">
            <use fill="#000" filter="url(#e)" xlink:href="#f"/>
            <use fill="#343434" xlink:href="#f"/>
        </g>
        <g fill="#50C7F9">
            <use filter="url(#g)" xlink:href="#h"/>
            <use xlink:href="#h"/>
        </g>
        <path fill="#D8D8D8" d="M149.753 62.905l81.998-1.608a4.854 4.854 0 0 1 4.949 4.853v.096a4.95 4.95 0 0 1-4.853 4.95l-81.998 1.607a4.854 4.854 0 0 1-4.949-4.853v-.096a4.95 4.95 0 0 1 4.853-4.95zM149.849 109.014l68.515 1.575a4.95 4.95 0 0 1 4.836 4.949v.112a4.838 4.838 0 0 1-4.949 4.836l-68.515-1.575a4.95 4.95 0 0 1-4.836-4.949v-.112a4.838 4.838 0 0 1 4.949-4.836z"/>
        <path fill="#FFF" fill-opacity=".19" d="M224.541 153.298l65.107 3.922a4.95 4.95 0 0 1 4.652 4.94v.29a4.66 4.66 0 0 1-4.941 4.652l-65.107-3.922a4.95 4.95 0 0 1-4.652-4.94v-.29a4.66 4.66 0 0 1 4.941-4.652z"/>
    </g>
</svg>
