<svg xmlns="http://www.w3.org/2000/svg" xmlns:xlink="http://www.w3.org/1999/xlink" width="316" height="418" viewBox="0 0 316 418">
    <defs>
        <path id="a" d="M.942 12.241C.942 18.735 15.206 24 32.8 24c17.594 0 31.857-5.265 31.857-11.759C64.658 5.747 50.395.483 32.801.483 15.206.483.94 5.747.94 12.24"/>
        <path id="c" d="M0 .006h37.401v32.806H0z"/>
        <path id="e" d="M0 14.476C0 21.946 15.152 28 33.842 28c18.692 0 33.844-6.054 33.844-13.524C67.686 7.007 52.534.953 33.842.953 15.152.953 0 7.007 0 14.476"/>
        <path id="g" d="M.696.263h65.428V28.29H.696z"/>
        <path id="i" d="M0 15.242C0 23.631 17.754 30.43 39.653 30.43c21.9 0 39.654-6.798 39.654-15.187C79.307 6.856 61.553.056 39.653.056 17.753.056 0 6.856 0 15.242"/>
        <path id="k" d="M0 23.706C0 36.571 60.269 47 134.614 47c74.346 0 134.614-10.43 134.614-23.294S208.96.412 134.614.412C60.269.412 0 10.842 0 23.706"/>
    </defs>
    <g fill="none" fill-rule="evenodd">
        <g transform="translate(201 264)">
            <mask id="b" fill="#fff">
                <use xlink:href="#a"/>
            </mask>
            <path fill="#4634C4" d="M.942 12.241C.942 18.735 15.206 24 32.8 24c17.594 0 31.857-5.265 31.857-11.759C64.658 5.747 50.395.483 32.801.483 15.206.483.94 5.747.94 12.24" mask="url(#b)"/>
        </g>
        <path fill="#E0EEFF" d="M245.62 271.326s.56 1.583.612 3.868a.488.488 0 0 1-.01.097c-.034.163-.148.734-.162 1.1-.116 2.902 5.87-.375 5.87-.375l-.901-6.448-5.41 1.758z"/>
        <path fill="#223E63" d="M246.23 275.246c-1.248 2.4-5.02 4.885-6.526 8.306-.236.538-.044 1.96 1.668 1.96 3.334 0 5.8-2.631 7.646-3.857 2.213-1.47 3.862-2.419 3.847-4.066-.01-.947-.28-3.045-1.163-3.21 0 0-.796 1.882-4.158 2.033-1.652.072-1.318-.982-1.313-1.166"/>
        <path fill="#E0EEFF" d="M223.349 266.824c-.246 1.538-1.555 2.392-1.555 2.392s6.222 4.045 7.812-1.032c-.155-1.421-.495-2.274-.495-2.274l-5.762.914z"/>
        <path fill="#223E63" d="M222.749 268.442c-.041-.204-.09-.258-.152-.258a.412.412 0 0 0-.236.062c-.351.255-.638 1.638-8.415 4.417-.476.17-.567 1.243-.57 1.694-.011 2.14 11.132.14 11.82.069 2.37-.246 6.125.813 6.125-2.541 0-1.527-.55-3.716-1.714-3.7 0 0-1.462 1.919-3.907 1.805-1.97-.092-2.775-.676-2.951-1.548"/>
        <path fill="#FFA412" d="M250.172 200.911c-1.76.807-3.857-.001-7.533-.564-9.564-1.464-24.654-4.648-24.654-4.648s-1.74 4.9-1.74 17.029c0 22.156 6.499 53.463 6.499 53.65 0 1.314 3.634 1.924 6.565.993.723-.228.333-1.379.254-2.086-.324-2.97-.285-11.052-.876-24.138-.742-16.44-.189-22.135.283-27.575 0 0 3.934.714 6.22 1.688-.039 1.849.65 8.382.849 10.224 1.416 13.038 8.863 47.51 8.863 47.51 1.558.83 6.147.914 6.94-.424.597-1.008-2.04-15.313-2.04-36.3 0-13.497.608-21.361.52-26.457-.09-5.425-.15-8.902-.15-8.902"/>
        <path fill="#FFD3B3" d="M210.588 179.243l-15.977 11.537s-.425 3.657 2.543 6.19h1.84s14.587-8.685 18.464-13.277l-6.87-4.45z"/>
        <path fill="#944A90" d="M232.921 147.095c-2.855-.784-3.913-.593-5.011-.25-9.919 3.088-13.162 26.101-17.486 31.413-1.357 1.666 6.884 7.86 8.083 6.894 4.512-3.633 8.555-16.07 12.443-29.171.195-.662.66-1.553.66-2.25 0-1.068 2-6.449 1.311-6.636"/>
        <path fill="#FFC194" d="M233.255 143.132c.564 1.52.584 3.556.386 4.085-.575 1.53-2.219 4.685-.95 5.276.094.043 2.03 2.128 4.622 2.128 2.867 0 5.603-1.139 7.777-3.516v-.563c-3.395-2.815-2.828-7.036-3.677-10.975-2.261 1.126-8.158 3.565-8.158 3.565"/>
        <path fill="#944A90" d="M251.78 172.754c0 1.79-.187.715-.187 1.987 0 0-.327.01-.327 11.019 0 16.895 2.133 18.807-5.367 18.807-2.399 0-28.592-6.274-28.592-8.666 0-.158.063-.327.063-.49 0-1.766-.011-3.568-.011-5.402.005-6.838.214-14.11 1.995-21.74.962-4.125 7.074-21.611 11.985-21.425.883.033.938.08 2.301.373 0 0-2.675 5.212 1.182 6.062 6.103 1.343 9.374-3.61 9.374-3.61 3.393.58 7.37 1.739 9.729 3.05.315.192.581.411.785.653 2.76 3.141-2.93 10.288-2.93 19.382"/>
        <path fill="#80407C" d="M251.78 172.754c0 1.79-.187.715-.187 1.987 0 0-.327.01-.327 11.019 0 16.895 2.133 18.807-5.367 18.807-2.399 0-28.592-6.274-28.592-8.666 0-.158.063-.327.063-.49 0-1.766-.011-3.568-.011-5.402l.101-.777c14.702 4.411 28.097-2.632 27.195-10.263-3.185-26.94 6.096-25.439 6.096-25.439 2.347-.428 2.093-.186 3.96-.158 2.76 3.141-2.93 10.288-2.93 19.382"/>
        <path fill="#FFD3B3" d="M231.798 125.499c-2.806.49-6.017 3.764-6.017 8.334 0 7.945 4.975 13.562 10.58 12.3 5.876-1.322 6.373-7.457 6.373-7.457 2.684-.07 3.5-4.32.412-3.927-1.481.189-1.063.807-1.063.807.706-1.405 2.31-2.794 2.31-4.333 0-1.951-2.223-6-9.408-6-1.106 0-2.195.102-3.187.276"/>
        <path fill="#2B4F7D" d="M235.869 120.67c6.463-.322 11.766 2.184 11.766 8.966 0 .475-.02.91-.053 1.314l.004-.004s.049 2.9-.281 5.36c-.34 2.53-2.215 7.224-5.45 6.69l-.131-1.035c.572-1.199.808-1.894 1.01-3.284 1.735.001 2.653-1.9 2.338-2.91-.17-.54-.569-.916-1.176-1.001-1.726-.244-2.369 1.148-2.461 1.46-.016.048-.06.08-.11.073-.31-.04-.76-.27-.952-.423a.162.162 0 0 1-.04-.201c.12-.247.42-1.017.42-2.58 0-2.078-1.397-3.712-3.669-4.628-1.175 2.677-4.33 5.017-7.07 6.134-.19.076-.38-.109-.32-.302 1.024-3.133 1.078-4.181.632-4.14-2.393.217-4.715 6.147-5.258 6.147-.542 0-.69-2.427-.69-2.967 0-2.11.779-3.99 1.616-5.047l-3.776 2.504c-.065.044-.16.007-.172-.072-.436-3.075 2.9-9.51 13.823-10.054"/>
        <path fill="#FFF" d="M232.186 146.904c-.043-.004-4.172 6.803 1.182 8.698 6.38 2.26 11.624-1.934 14.132-5.227l-3.415-.9a.106.106 0 0 0-.108.027c-.472.48-4.814 4.731-9.214 3.351-2.89-.907-1.948-2.927-1.525-4.29.249-.802.403-1.346.403-1.346s-1.301-.295-1.455-.313"/>
        <path fill="#AABDF2" d="M209.878 186.09l31.835 8.403v1.299a.352.352 0 0 1-.177.305l-20.135 11.622-30.844-10.688 19.32-10.94z"/>
        <path fill="#EDFFFD" d="M209.365 184.885l32.348 9.608-20.825 12.02-30.843-10.687z"/>
        <path fill="#FFD3B3" d="M249.425 186.567l-22.478 9.88 3.017 5.043 22.757-6.9c1.683-.53 2.192-2.651.936-3.882l-4.232-4.141z"/>
        <path fill="#FFD3B3" d="M231.174 196.572s-2.669-1.646-6.71-2.174a3 3 0 0 0-1.583.219l-2.603 1.149 1.264 5.56s1.03-.897 8.422.164l1.21-4.918z"/>
        <path fill="#944A90" d="M253.925 152.72c-.868-.269-2.073-.326-3.038-.025-4.279 1.338-4.99 4.621-4.99 8.022 0 9.025 2.974 22.357 3.15 23.59-4.625 1.347-.2 6.366 2.371 8.85 1.323 1.28 3.43 1.383 4.804.156 2.77-2.476 3.822-8.08 3.822-11.965 0-3.947 0-26.726-6.12-28.627"/>
        <path fill="#AABDF2" d="M222.811 206.905l-1.41.815-31.526-11.33-5.736-20.855a2.71 2.71 0 0 1-.08-.6c.08-.092 1.217-.797 1.217-.797a.813.813 0 0 1 .634-.059l31.216 10a.975.975 0 0 1 .656.721l5.03 22.105z"/>
        <g transform="translate(184 174.908)">
            <mask id="d" fill="#fff">
                <use xlink:href="#c"/>
            </mask>
            <path fill="#2B4F7D" d="M37.401 32.812L5.491 22.56.003.153A.12.12 0 0 1 .155.011l31.502 9.983c.35.11.614.396.693.751l5.051 22.067z" mask="url(#d)"/>
        </g>
        <path fill="#D3F1F5" d="M202.965 191.724c0 .932-.659 1.31-1.47.844-.81-.466-1.469-1.6-1.469-2.532 0-.932.658-1.311 1.468-.844.812.466 1.47 1.6 1.47 2.532M205.746 192.88c0 .534-.378.75-.842.483-.465-.267-.842-.915-.842-1.449s.377-.75.842-.484c.464.268.842.917.842 1.45M198.947 190.556c0 .533-.376.75-.84.484-.467-.267-.843-.916-.843-1.451 0-.534.376-.75.842-.483.465.267.84.916.84 1.45"/>
        <path fill="#FFD3B3" d="M193.015 198.6s-.953 2.78 3.006 4.234c3.959 1.453 6.565-1.485 5.473-3.04-1.09-1.557-7.242-4.488-8.479-1.193"/>
        <g>
            <g transform="matrix(-1 0 0 1 316 325)">
                <mask id="f" fill="#fff">
                    <use xlink:href="#e"/>
                </mask>
                <path fill="#4634C4" d="M0 14.476C0 21.946 15.152 28 33.842 28c18.692 0 33.844-6.054 33.844-13.524C67.686 7.007 52.534.953 33.842.953 15.152.953 0 7.007 0 14.476" mask="url(#f)"/>
            </g>
            <path fill="#FFD3B3" d="M248.667 201.486s9.333 22.148 15.91 26.005c.752.44 3.488.138 3.488.138l17.303-22.357-11.7-2.57-8.051 11.682-12.52-14.444-4.43 1.546z"/>
            <path fill="#294287" d="M270.533 208.63l-28.711 12.476a2.747 2.747 0 0 1-3.648-1.335l-12.274-17.1a2.743 2.743 0 0 1 1.336-3.646l28.647-11.977a2.748 2.748 0 0 1 3.648 1.336l12.338 16.6a2.746 2.746 0 0 1-1.336 3.645"/>
            <path fill="#9DAFE0" d="M239.844 217.467l-10.537-14.76a1.187 1.187 0 0 1 .505-1.785l26.345-11.012a1.184 1.184 0 0 1 1.43.414l11.594 15.786-27.216 11.94c-.714.313-1.668.05-2.12-.583"/>
            <path fill="#DCE3F7" d="M258.326 196.337l-15.895 7.146a.931.931 0 1 1-.765-1.699l15.894-7.147a.935.935 0 0 1 1.114.27.934.934 0 0 1-.348 1.43M260.272 198.891l-15.894 7.146a.932.932 0 0 1-.766-1.699l15.896-7.147a.931.931 0 1 1 .765 1.7M256.568 193.765l-15.894 7.146a.932.932 0 1 1-.766-1.699l15.895-7.147a.931.931 0 1 1 .765 1.7M241.701 216.44s1.973-6.49 5.202-7.696c.785-.293 2.126-.002 3.271.363a2.349 2.349 0 0 0 2.882-1.317c.636-1.486 1.597-3.252 2.641-3.525 1.853-.483 5.261 2.17 6.265 1.905 1.002-.266 1.406-4.677 1.406-4.677l2.927 3.733L241.7 216.44zM237.899 202.775a1.993 1.993 0 1 1-2.717-.753 1.995 1.995 0 0 1 2.717.753"/>
            <path fill="#DCE3F7" d="M239.31 204.028l-.48-.294a.076.076 0 0 0-.117.064c-.007.393-.131 1.56-1.275 2.285-1.22.61-2.289.106-2.625-.087a.076.076 0 0 0-.114.063l-.015.413a1.27 1.27 0 0 0 .973 1.28l2.74.654a.53.53 0 0 0 .56-.317l.888-2.565a1.27 1.27 0 0 0-.536-1.496"/>
            <path fill="#FFD3B3" d="M285.786 335.391c-.085-.75-.155-1.37-.163-1.48-.168-2.307-.901-6.643-1.01-7.96-.697-8.398-5.76-34.398.481-38.33 2.164-1.364 6.874 3.502 6.874 3.502.846 9.438.092 22.378-.405 30.45l-1.347 17.044c-.7.903-2.445.432-4.106-.434-.83-.468-2.696-1.668-2.35-2.892 0 0 .343-.479 2.026.1"/>
            <path fill="#80407C" d="M283.754 335.361c-.302 1.884 4.769 4.822 6.618 2.873 0 0 .84 1.444-.11 3.119-.362.642-1.896.874-4.27-.704-1.037-.687-3.504-2.35-4.727-4.45-1.318-2.266.713-2.926 4.52-.808 0 0-1.95-.53-2.031-.03"/>
            <path fill="#FFD3B3" d="M279.167 342.457s1.275-46.658-3.018-50.376c-2.18-1.888-8.543-1.286-8.658 1.135-.438 9.219 6.723 48.288 6.723 48.288-.007.002-2.14-.46-2.14-.46s-1.77-.335-2.031.247c-.34.75 5.85 4.679 8.841 2.34.238-.187.42-.442.283-1.174"/>
            <path fill="#80407C" d="M274.208 343.541c2.938.957 4.835.895 4.958-1.084 0 0 1.218.134.805 3.258-.163 1.23-1.825 1.855-4.364 1.185-1.22-.322-6.112-2.368-7.485-3.58-1.67-1.477.148-3.629 5.174-2.011 0 0-3.203-.655-3.093.104.09.623 2.103 1.51 4.005 2.128"/>
            <path fill="#294287" d="M266.348 242.278s-2.938 2.778-4.84 17.585c-1.906 14.807-.475 27.293-1.211 35.782 0 0 5.26 7.39 27.302 2.39 6.594-1.498 9.815-4.529 10.38-4.91 0 0-.576-1.966-.579-9.654-.004-9.856 2.032-27.843-3.288-36.19-2.942-4.612-3.337-2.225-4.803-1.942-20.128 3.865-22.96-3.061-22.96-3.061"/>
            <path fill="#FFC194" d="M272.955 195.582s.425 3.435-1.17 7.046l10.385.409s.272-5.993-9.215-7.455"/>
            <path fill="#FFD3B3" d="M269.67 180.16s-1.442 5.381-1.662 11.104c-.07 1.813 1.082 3.82 2.359 4.748 1.634 1.185 3.6 1.986 5.997.326 4.788-3.323 3.94-9.9 3.94-9.9s-.84-10.625-10.635-6.278"/>
            <path fill="#FF6161" d="M264.122 247.492c1.832 2.737 5.937 4.007 10.771 4.555 6.968.79 19.466-1.31 20.429-3.738.767-1.949-.59-3.026-1.972-6.477a26.132 26.132 0 0 1-1.062-3.3c-.05-.205-.105-.425-.153-.645-1.563-6.812 6.473-30.542 6.852-34.185.37-3.65-4.757-7.28-4.757-7.28l-9.289 3.177s.906 3.122-3.837 4.309c-4.743 1.186-7.434-1.208-7.434-1.208l-4.002 2.024c-3.542 1.79-5.346 5.914-4.049 9.66.548 1.591 1.743 3.389 2.333 5.975.233 1.008.372 2.14.343 3.423-.204 8.679-1.38 13.865-2.114 15.834-.26.714-3.158 6.236-2.06 7.876"/>
            <path fill="#FC4646" d="M264.122 247.492c1.832 2.737 5.937 4.007 10.771 4.555 6.968.79 19.466-1.31 20.429-3.738.767-1.949-.59-3.026-1.972-6.477-3.534 4.645-15.766 4.377-20.03.055-4.579-4.63 2.052-23.703 2.052-23.703-1.475-.185-4.928-.7-7.42 2.175.233 1.008.372 2.14.343 3.423-.204 8.679-1.38 13.865-2.114 15.834-.26.714-3.158 6.236-2.06 7.876"/>
            <path fill="#FFD3B3" d="M236.45 211.44s-.116 2.791.032 4.163c.206 1.879 2.575 3.486 3.892 5.308 2.31 3.193 10.64 12.14 10.64 12.14l3.184-5.932-9.666-8.255s-.04-2.38-.42-4.904c-.39-2.595-1.402-2.112-1.574-1.559-.195.626.073 2.24.073 2.24s-.843-.677-1.593-2.19l-1.357-3.82c-.109-.308-.4-.485-.702-.427-.851.162-1.89 1.298-2.51 3.235"/>
            <path fill="#FF6161" d="M270.338 202.57s-2.342.096-4.817 3.663c-1.929 2.78-3.635 7.575-6.36 16.694l-1.25 3.867a.81.81 0 0 1-1.17.454l-4.8-2.735c-3.122 1.709-4.104 5.881-4.104 5.881s7.223 7.484 11.899 8.965c4.736 1.502 17.358-18.932 18.365-24.158 1.009-5.226-4.911-14.721-7.763-12.63"/>
            <path fill="#294287" d="M275.43 172.003c-2.701.473-4.91 2.372-5.873 4.938-.844 2.249-1.657 4.023.048 7.739 1.092 2.376 3.803 5.244 3.803 5.244s2.01-1.667 2.952-.284c.75 1.102.421 2.84-1.586 3.016l.074.381c.459 2.367-.24 4.79-1.816 6.615-1.56 1.807-4.95 4.606-5.692 8.523-.58 3.075-.714 7.29 3.82 10.34 2.675 2.042 5.95-.452 5.95-.452-1.631 3.599.26 8.507 3.941 10.458 8.865 4.7 15.788.47 19.804-2.54 3.973-2.977 4.45-9.786 1.086-13.009 5.806-4.924 5.148-14.37-3.251-18.37-1.274-.606-3.01-2.339-3.096-3.746-.136-2.263-.033-6.083-3.758-12.17-4.004-6.544-10.777-7.67-16.407-6.683"/>
        </g>
        <g>
            <path fill="#294287" d="M192.431 49.09l1.373-.79c.928-.535 1.41-1.225 1.463-1.923l.01-.002v-.129l-.015-2.898-1.477.85-13.898-8.007c-1.963-1.13-5.144-1.13-7.107 0l-19.37 11.157h-37.003a3.52 3.52 0 0 0 3.525 3.516h27.374l-1.373.79a4.103 4.103 0 0 0-.545.377l-.927-1.062V53.7c0 .74.493 1.482 1.472 2.047l13.917 8.016c1.963 1.13 5.145 1.13 7.108 0l19.37-11.157h33.476a3.52 3.52 0 0 0 3.525-3.516H192.43z"/>
            <path fill="#FF6161" d="M223.33 49.875v-3.514h-30.898l1.373-.79c1.962-1.132 1.962-2.965 0-4.096l-13.917-8.016c-1.963-1.13-5.146-1.13-7.11 0l-1.37.791V16.453h-6.106v21.313l-11.891 6.85h-37.003v3.518h30.897l-1.373.79c-1.96 1.129-1.96 2.961 0 4.092l13.92 8.016c1.962 1.132 5.142 1.132 7.105 0l1.373-.79v17.796h6.103V56.725l11.895-6.85h37.002z"/>
            <path fill="#CCC" d="M217.647 46.025l.695.68c.168-.15.362-.292.587-.423 1.74-1.002 4.562-1.002 6.3 0 .418.24.728.518.945.813l.36-.814v1.817c0 .655-.434 1.313-1.305 1.815-1.738 1-4.56 1-6.3 0-.868-.502-1.306-1.16-1.306-1.815l.024-2.073z"/>
            <path fill="#EDEDED" d="M218.93 44.467c-1.74 1.002-1.74 2.628 0 3.629 1.739 1.002 4.56 1.002 6.3 0 1.74-1.001 1.74-2.627 0-3.63-1.74-1.002-4.561-1.002-6.3 0"/>
            <path fill="#294287" d="M220.388 45.308c-.934.538-.934 1.409 0 1.947.935.538 2.45.538 3.382 0 .934-.538.934-1.409 0-1.947-.933-.538-2.447-.538-3.382 0"/>
            <path fill="#757575" d="M220.972 46.371s.316.34 1.107.34c.702 0 1.109-.34 1.109-.34v-2.894c0-.584-.495-1.056-1.109-1.056-.612 0-1.107.472-1.107 1.056v2.894z"/>
            <path fill="#E2E0FF" d="M222.77 44.264l-.846-.053-.863-.055-.093-.01-1.145-.071h-.01l-2.072-.127c-2.373-.146-4.62-.681-6.484-1.535a11.14 11.14 0 0 1-1.147-.571l-3.627-2.096-5.966-3.438c.5-.29 1.072-.516 1.692-.68a9.938 9.938 0 0 1 3.518-.274c1.173.112 2.31.429 3.22.954l1.465.844 10.575 6.088h.01l.81.48h.009l.572.326.383.218z"/>
            <path fill="#E2E0FF" d="M235.895 52.198c-.107-.048-.216-.097-.32-.15-.067-.035-.144-.062-.209-.098l-.21-.127-3.827-2.196-9.787-5.633 5.02.317c1.41.09 2.774.308 4.039.653 1.327.362 2.546.853 3.592 1.459l1.065.609v.009l8.538 4.91c-2.164 1.247-5.561 1.32-7.901.247"/>
            <path fill="#ADADAD" d="M220.97 43.495v.576s.318.41 1.11.41c.7 0 1.11-.41 1.11-.41v-.576c0-.714-.5-1.278-1.11-1.278-.611 0-1.11.564-1.11 1.278"/>
            <g transform="translate(188.8 29.81)">
                <mask id="h" fill="#fff">
                    <use xlink:href="#g"/>
                </mask>
                <path fill="#E2E0FF" d="M33.41 2.042c-16.765 0-30.93 5.603-30.93 12.236 0 6.63 14.165 12.235 30.93 12.235 16.767 0 30.93-5.604 30.93-12.235 0-6.633-14.163-12.236-30.93-12.236m0 26.249C15.066 28.29.696 22.137.696 14.278S15.066.263 33.41.263s32.714 6.156 32.714 14.015c0 7.86-14.37 14.013-32.714 14.013" mask="url(#h)"/>
            </g>
            <path fill="#CCC" d="M163.776 16.336l.695.68a3.6 3.6 0 0 1 .587-.421c1.741-1.003 4.563-1.003 6.3 0 .419.24.729.517.947.81l.359-.812v1.815c0 .658-.434 1.314-1.306 1.816-1.737 1-4.559 1-6.3 0-.868-.502-1.304-1.158-1.304-1.816l.022-2.072z"/>
            <path fill="#EDEDED" d="M165.059 14.778c-1.74 1.003-1.74 2.627 0 3.63 1.74 1.002 4.56 1.002 6.3 0 1.74-1.003 1.74-2.627 0-3.63-1.74-1.002-4.56-1.002-6.3 0"/>
            <path fill="#294287" d="M166.52 15.62c-.935.538-.935 1.408 0 1.946.932.539 2.447.539 3.38 0 .933-.538.933-1.408 0-1.947-.933-.538-2.448-.538-3.38 0"/>
            <path fill="#757575" d="M167.102 16.683s.316.337 1.107.337c.701 0 1.109-.337 1.109-.337v-2.895c0-.584-.496-1.056-1.11-1.056-.611 0-1.106.472-1.106 1.056v2.895z"/>
            <path fill="#E2E0FF" d="M168.9 14.576l-.846-.055-.864-.053-.092-.01-1.145-.072h-.01l-2.073-.127c-2.373-.146-4.62-.68-6.484-1.534-.4-.173-.782-.363-1.146-.571l-3.627-2.095-5.967-3.44a6.85 6.85 0 0 1 1.692-.68c1.1-.3 2.337-.39 3.518-.272 1.174.109 2.31.426 3.22.953l1.465.844 10.575 6.087h.01l.81.48h.01l.572.327.382.218z"/>
            <path fill="#E2E0FF" d="M182.024 22.51a7.444 7.444 0 0 1-.32-.152c-.067-.034-.144-.061-.208-.097l-.21-.127-3.828-2.197-9.785-5.632 5.018.317c1.411.09 2.775.307 4.04.652 1.328.364 2.546.854 3.591 1.461l1.065.609v.008l8.538 4.909c-2.164 1.249-5.56 1.321-7.9.25"/>
            <path fill="#ADADAD" d="M167.1 13.806v.577s.318.408 1.109.408c.7 0 1.11-.408 1.11-.408v-.577c0-.714-.5-1.279-1.11-1.279-.609 0-1.109.565-1.109 1.28"/>
            <path fill="#E2E0FF" d="M168.209 2.556c-16.765 0-30.93 5.603-30.93 12.236 0 6.632 14.165 12.235 30.93 12.235 16.767 0 30.932-5.603 30.932-12.235 0-6.633-14.165-12.236-30.932-12.236m0 26.25c-18.344 0-32.714-6.156-32.714-14.014 0-7.859 14.37-14.015 32.714-14.015s32.716 6.156 32.716 14.015c0 7.858-14.372 14.014-32.716 14.014"/>
            <path fill="#CCC" d="M113.693 44.372l.695.68c.167-.15.362-.291.587-.421 1.741-1.003 4.561-1.003 6.3 0 .417.238.729.516.946.81l.36-.814v1.817c0 .658-.436 1.314-1.306 1.816-1.739 1-4.559 1-6.3 0-.87-.502-1.305-1.158-1.305-1.816l.023-2.072z"/>
            <path fill="#EDEDED" d="M114.976 42.813c-1.74 1.003-1.74 2.628 0 3.63 1.74 1.002 4.559 1.002 6.3 0 1.74-1.002 1.74-2.627 0-3.63-1.741-1.002-4.56-1.002-6.3 0"/>
            <path fill="#294287" d="M116.435 43.655c-.934.538-.934 1.409 0 1.947s2.449.538 3.381 0c.934-.538.934-1.41 0-1.947-.932-.538-2.447-.538-3.381 0"/>
            <path fill="#757575" d="M117.017 44.718s.318.339 1.109.339c.7 0 1.108-.339 1.108-.339v-2.895c0-.582-.495-1.056-1.108-1.056-.614 0-1.109.474-1.109 1.056v2.895z"/>
            <path fill="#E2E0FF" d="M118.817 42.611l-.846-.053-.865-.055-.091-.008-1.145-.074h-.01l-2.073-.127c-2.373-.146-4.62-.68-6.484-1.533-.4-.172-.782-.362-1.147-.57l-3.628-2.097-5.965-3.439c.5-.29 1.072-.516 1.69-.68a9.95 9.95 0 0 1 3.52-.272c1.174.11 2.31.426 3.22.952l1.464.844 10.576 6.088h.01l.81.48h.01l.572.326.382.218z"/>
            <path fill="#E2E0FF" d="M131.94 50.545c-.106-.049-.215-.097-.32-.15-.066-.035-.143-.062-.208-.098l-.21-.127-3.828-2.197-9.786-5.632 5.02.317c1.411.09 2.775.307 4.04.653 1.326.362 2.545.853 3.591 1.46l1.065.609v.008l8.538 4.91c-2.164 1.246-5.562 1.32-7.901.247"/>
            <path fill="#ADADAD" d="M117.017 41.842v.576s.318.41 1.109.41c.7 0 1.108-.41 1.108-.41v-.576c0-.712-.498-1.279-1.108-1.279-.61 0-1.109.567-1.109 1.28"/>
            <path fill="#E2E0FF" d="M118.126 30.104c-16.767 0-30.93 5.603-30.93 12.236 0 6.63 14.163 12.235 30.93 12.235 16.765 0 30.93-5.604 30.93-12.235 0-6.633-14.165-12.236-30.93-12.236m0 26.249c-18.344 0-32.714-6.154-32.714-14.013s14.37-14.015 32.714-14.015S150.84 34.48 150.84 42.34c0 7.86-14.37 14.013-32.714 14.013"/>
            <path fill="#CCC" d="M167.396 78.693l.694.68c.168-.15.362-.291.588-.421 1.74-1.003 4.561-1.003 6.3 0 .417.238.729.516.946.812l.358-.814v1.815c0 .658-.434 1.314-1.303 1.816-1.74 1-4.561 1-6.3 0-.87-.502-1.306-1.158-1.306-1.816l.023-2.072z"/>
            <path fill="#EDEDED" d="M168.679 77.136c-1.74 1.003-1.74 2.627 0 3.63 1.738 1 4.56 1 6.3 0 1.74-1.003 1.74-2.627 0-3.63-1.74-1.004-4.562-1.004-6.3 0"/>
            <path fill="#294287" d="M170.138 77.976c-.934.538-.934 1.409 0 1.947s2.449.538 3.381 0c.933-.538.933-1.409 0-1.947-.932-.538-2.447-.538-3.381 0"/>
            <path fill="#757575" d="M170.72 79.04s.318.338 1.109.338c.7 0 1.107-.339 1.107-.339v-2.895c0-.582-.495-1.056-1.107-1.056-.614 0-1.109.474-1.109 1.056v2.895z"/>
            <path fill="#E2E0FF" d="M172.518 76.934l-.846-.055-.863-.053-.091-.01-1.145-.074h-.01l-2.073-.127c-2.374-.144-4.62-.68-6.484-1.532a11.3 11.3 0 0 1-1.146-.572l-3.629-2.096-5.965-3.437a6.816 6.816 0 0 1 1.69-.683 9.95 9.95 0 0 1 3.52-.271c1.172.11 2.31.427 3.22.954l1.464.842 10.577 6.088h.009l.81.48h.01l.572.326.38.22z"/>
            <path fill="#E2E0FF" d="M185.643 84.868c-.106-.05-.216-.1-.32-.153-.066-.034-.143-.06-.209-.097l-.209-.127-3.828-2.197-9.786-5.632 5.019.317c1.41.09 2.774.307 4.039.652 1.329.363 2.548.854 3.593 1.461l1.064.609v.01l8.538 4.907c-2.163 1.247-5.561 1.321-7.901.25"/>
            <path fill="#ADADAD" d="M170.719 76.163v.576s.317.41 1.11.41c.7 0 1.109-.41 1.109-.41v-.576c0-.712-.5-1.278-1.11-1.278-.61 0-1.11.566-1.11 1.278"/>
            <path fill="#E2E0FF" d="M171.829 64.698c-16.767 0-30.932 5.603-30.932 12.235s14.165 12.236 30.932 12.236c16.765 0 30.93-5.604 30.93-12.236 0-6.632-14.165-12.235-30.93-12.235m0 26.249c-18.344 0-32.716-6.155-32.716-14.014 0-7.86 14.372-14.014 32.716-14.014s32.714 6.155 32.714 14.014c0 7.859-14.37 14.014-32.714 14.014"/>
            <path fill="#294287" d="M188.667 40.848l-.038-8.6c-3.443-.224-5.379 1.864-6.39 3.866-3.131-.52-6.378.108-9.155 1.709l-16.707 9.622-3.773-4.013.06 8.378c.003.386.056.774.207 1.128.368.857 1.128 1.668 2.284 2.333 3.4 1.958 8.965 1.958 12.365 0l18.596-10.711c1.767-1.017 2.615-2.372 2.546-3.712h.005z"/>
            <path fill="#FF6161" d="M186.116 36.282L167.52 46.993c-3.4 1.958-8.963 1.958-12.365 0-3.4-1.96-3.4-5.163 0-7.122l18.597-10.71c3.4-1.959 8.963-1.959 12.364 0 3.4 1.957 3.4 5.163 0 7.12"/>
            <path fill="#FFF" d="M179.934 29.313c-2.032 0-3.989.457-5.37 1.252l-18.595 10.71c-1.105.636-1.738 1.422-1.738 2.157 0 .735.633 1.52 1.738 2.156 1.38.796 3.338 1.252 5.369 1.252 2.03 0 3.988-.456 5.37-1.252l18.595-10.711c1.104-.636 1.738-1.422 1.738-2.156 0-.734-.634-1.52-1.738-2.156-1.38-.795-3.337-1.252-5.37-1.252m-18.595 18.042c-2.12 0-4.171-.482-5.627-1.321-1.27-.731-1.998-1.679-1.998-2.602 0-.924.728-1.871 1.998-2.602l18.596-10.712c1.457-.838 3.507-1.32 5.627-1.32 2.12 0 4.17.482 5.627 1.32 1.27.731 1.997 1.679 1.997 2.603 0 .924-.728 1.872-1.997 2.601l-18.596 10.712c-1.458.84-3.509 1.32-5.627 1.32"/>
            <path fill="#FF6161" d="M158.241 53.277c0-1.837-1.293-4.073-2.889-4.993-.749-.43-1.428-.49-1.942-.247-.074.034-1.757 1.029-1.757 1.029l.893.152a3.178 3.178 0 0 0-.083.731c0 1.839 1.293 4.073 2.889 4.993.3.172.588.285.86.345l-.303.718s.7-.431 1.304-.776c.586-.336 1.028-.93 1.028-1.952"/>
            <path fill="#294287" d="M156.762 54.136c0 1.84-1.293 2.583-2.889 1.665-1.596-.92-2.89-3.154-2.89-4.992s1.294-2.583 2.89-1.665c1.596.92 2.89 3.155 2.89 4.992"/>
            <path fill="#E6EEFF" d="M154.621 52.903c0 .477-.335.67-.749.431-.412-.238-.747-.815-.747-1.292 0-.477.335-.67.747-.43.414.237.749.816.749 1.291"/>
            <g transform="translate(27 284)">
                <mask id="j" fill="#fff">
                    <use xlink:href="#i"/>
                </mask>
                <path fill="#4634C4" d="M0 15.242C0 23.631 17.754 30.43 39.653 30.43c21.9 0 39.654-6.798 39.654-15.187C79.307 6.856 61.553.056 39.653.056 17.753.056 0 6.856 0 15.242" mask="url(#j)"/>
            </g>
            <g>
                <path fill="#FFC194" d="M68.263 129.313c-.03 2.01.163 3.907.44 4.552 1.897 4.404 4.534 5.766 3.3 6.977-.09.09-1.487 3.324-4.51 4.389-3.344 1.177-7.01.969-10.527-.919l-1.507-.685c2.795-4.683 1.66-9.36 1.019-14.314 3.106.386 11.785 0 11.785 0"/>
                <path fill="#FFD3B3" d="M57.438 109.477c3.228-1.41 8.791-.225 11.938 4.494 5.472 8.202 4.214 17.401-2.428 19.929-6.963 2.65-11.698-3.344-11.698-3.344-2.816 1.762-6.581-2.07-3.129-3.774 1.654-.816 1.65.107 1.65.107-1.696-.967-4.306-1.305-5.364-2.893-1.343-2.015-1.843-7.716 5.558-12.625a22.932 22.932 0 0 1 3.473-1.894"/>
                <path fill="#294287" d="M59.422 103.757c-.218.259-.51.441-.847.47-2.14.18-5.484 1.054-8.657 3.046-5.353 3.366-9.8 10.196-5.226 17.26 1.186 1.83 2.48 4.074 4.544 6.362 2.138 2.37 5.36 4.325 7.93 3.793l-.305-2.627c-.635-.46-1.043-.856-1.612-1.505 0 0-1.75 1.254-3.714-.39-.651-.544-1.492-1.944.145-3.075 1.907-1.322 3.297.115 3.297.115.298-.351.416-.756.335-.876 0 0-1.553-1.306-2.347-2.725-2.42-4.32 1.806-8.732 5.498-6.966 6.634 3.174 13.744-1.51 13.123-7.535-.826-8.041-8.505-9.708-12.164-5.347"/>
                <path fill="#FFD3B3" d="M90.928 165.456l7.736 21.673-6.894 5.634-8.432-22.095z"/>
                <path fill="#FC4646" d="M72.554 137.133s1.496-.32 2.724-.564c3.498-.698 7.24 1.393 9.567 4.913 4.42 6.672 6.383 14.302 7.481 20.819.357 2.127 2.136 8.257 2.979 9.636 0 0-.982 1.336-5.08 4.391-2.624 1.957-3.857 4.973-4.806 4.975-8.202.01 1.97-7.066-.928-10.878-2.967-3.9-17.1-27.288-11.937-33.292"/>
                <path fill="#FFF" d="M55.199 290.084s-.904 1.152-.757 4.86c.03.742.501 1.603.035 1.891-1.798 1.114-7.083-.936-7.083-.936l.167-2.03.948-5.965 6.69 2.18z"/>
                <path fill="#294287" d="M54.443 294.944c1.545 2.977 6.213 6.059 8.074 10.3.292.667.055 2.43-2.064 2.43-4.125 0-7.173-3.263-9.46-4.783-2.734-1.822-4.302-2.564-4.284-4.606.01-1.176-.242-4.21.853-4.416 0 0 1.098 2.336 5.257 2.52 2.043.093 1.63-1.215 1.624-1.445"/>
                <path fill="#FFF" d="M82.75 284.502c.305 1.906 1.925 2.965 1.925 2.965s-7.698 5.016-9.665-1.28c.193-1.763.611-2.82.611-2.82l7.13 1.135z"/>
                <path fill="#294287" d="M83.492 286.508c.05-.253.113-.32.187-.32.08 0 .22-.012.294.078.701.862.788 2.03 10.41 5.475.59.211.7 1.543.703 2.1.015 2.654-13.77.174-14.62.086-2.932-.306-7.579 1.01-7.579-3.15 0-1.894.678-4.849 2.122-4.589 0 0 1.806 2.381 4.832 2.24 2.438-.114 3.435-.837 3.651-1.92"/>
                <path fill="#80407C" d="M90.777 217.464c0 27.475-7.276 66.253-7.276 66.481 0 1.633-4.171 1.868-7.823 1.12-.914-.19-.71-1.592-.614-2.475.403-3.68.346-13.7 1.082-29.923.915-20.39.237-27.45-.348-34.194 0 0-4.868.882-7.696 2.088.05 2.292-.804 10.393-1.05 12.677-1.753 16.168-10.964 58.917-10.964 58.917-1.928 1.024-7.61 1.127-8.589-.528-.733-1.25 2.522-18.988 2.522-45.011 0-10.597-.3-18.397-.49-24.29v-.048c-.008-.157-.008-.307-.016-.457-.008-.118-.008-.244-.016-.362-.096-3.026-.16-5.531-.118-7.65.11-6.729.19-11.039.19-11.039 2.172 1.002 4.77 0 9.312-.7 8.139-1.246 19.862-3.672 26.395-5.058.309-.064.607-.133.893-.19 2.45-.528 3.974-.865 3.974-.865s.521 5.3.616 17.45c0 .315.008.638.008.96.008.986.008 2.018.008 3.097"/>
                <path fill="#FFF" d="M59.263 204.29v9.124c0 1.853-.64 3.641-1.817 5.027-1.548 1.837-3.966 3.9-7.023 3.9-.158 0-.53-.008-.893-.016v-.047c-.008-.158-.008-.306-.016-.457-.007-.117-.007-.243-.015-.361 3.065.164 5.814-1.877 7.268-3.595 1.035-1.22 1.605-2.803 1.605-4.451v-9.124h.891zM90.77 214.368c-1.7-.567-3.564-1.481-4.283-2.892-1.248-2.473-1.232-12.424-1.21-14.465v-.347l.894.016v.142c-.063 4.136.101 12.267 1.114 14.245.53 1.048 1.983 1.812 3.476 2.34 0 .315.008.638.008.961"/>
                <path fill="#FF6161" d="M47.578 167.859c0 2.218.23.885.23 2.46 0 0 .405.015.405 13.664 0 20.95-2.637 23.322 6.641 23.322 2.966 0 35.37-7.78 35.37-10.746 0-.195-.077-.405-.077-.608 0-2.19.014-4.423.014-6.698-.008-8.48-.266-17.494-2.47-26.957-1.19-5.115-6.337-25.959-12.414-25.727-1.09.04-3.117.38-4.805.742 0 0 2.046 4.666-2.698 5.838-6.458 1.606-10.814-3.916-10.814-3.916-4.198.719-9.116 2.156-12.035 3.782-.391.238-.72.51-.971.81-3.415 3.894 3.624 12.756 3.624 24.034"/>
                <path fill="#FC4646" d="M90.084 186.83c-17.36 8.652-34.79-1.975-33.69-11.263 3.939-33.406-7.543-31.55-7.543-31.55-2.904-.529-2.588-.228-4.897-.195-3.414 3.895 3.623 12.757 3.623 24.034 0 2.218.23.885.23 2.462 0 0 .407.015.407 13.664 0 20.948-2.637 23.321 6.64 23.321 2.966 0 35.37-7.78 35.37-10.747 0-.195-.077-.405-.077-.606 0-2.192.014-4.425.014-6.699l-.077-2.422z"/>
                <path fill="#294287" d="M96.983 200.634l-.021-1.718c1.125.08 2.191 1.193 2.354 1.297l11.705 7.406.821-.44.053 1.49a.962.962 0 0 1-.937.993.934.934 0 0 1-.542-.145l-13.072-8.281c-.275-.172-.395-.396-.361-.602"/>
                <path fill="#294287" d="M74.63 200.414l-.128-3.476c1.194.392 1.878.993 2.257 1.634l18.256-9.473c1-.519 2.202-.467 3.152.138l8.854 5.629c.504-.303 1.209-.533 2.212-.62l.087 2.48a1.32 1.32 0 0 1-.657 1.55l-19.67 10.206a3.164 3.164 0 0 1-3.153-.139l-10.597-6.735a1.315 1.315 0 0 1-.613-1.194"/>
                <path fill="#859CDB" d="M94.904 185.947l-19.67 10.208a1.326 1.326 0 0 0-.102 2.3l10.597 6.737a3.162 3.162 0 0 0 3.152.139l19.671-10.208c.912-.473.967-1.75.101-2.302l-10.597-6.735a3.161 3.161 0 0 0-3.152-.139"/>
                <path fill="#859CDB" d="M111.321 207.98a.96.96 0 0 0 .07-1.66l-12.131-7.685c-.515-.327-1.381-.363-1.923-.08s-.564.78-.046 1.107l13.07 8.277c.289.185.655.2.96.041"/>
                <path fill="#D6E1FF" d="M85.83 197.993l.354-.012a1.168 1.168 0 0 0 1.123-1.203l-.12-3.357a1.343 1.343 0 0 0-1.387-1.291 1.343 1.343 0 0 0-1.292 1.383l.116 3.36a1.169 1.169 0 0 0 1.206 1.12"/>
                <path fill="#FFF" d="M81.86 195.962c-2.204 1.373-2.132 3.472.164 4.69 2.294 1.215 5.938 1.089 8.142-.284 2.202-1.374 2.128-3.473-.164-4.69-2.295-1.216-5.94-1.088-8.142.284"/>
                <path fill="#D6E1FF" d="M82.685 199.414c1.955 1.05 5.015.988 6.837-.137s1.716-2.889-.237-3.938c-1.956-1.048-5.016-.987-6.837.139-1.823 1.125-1.715 2.886.237 3.936"/>
                <path fill="#94B1FF" d="M83.775 198.741c1.308.703 3.36.662 4.58-.093 1.221-.751 1.15-1.933-.16-2.636-1.308-.704-3.36-.662-4.581.091-1.22.755-1.15 1.935.16 2.638"/>
                <path fill="#D6E1FF" d="M84.505 193.515l.116 3.355c.024.638.57 1.146 1.21 1.125l.355-.012a1.17 1.17 0 0 0 1.12-1.207l-.117-3.354a1.197 1.197 0 0 0-.085-.406 1.321 1.321 0 0 0-1.305-.886c-.591.02-1.09.426-1.238.974-.042.128-.061.27-.056.411"/>
                <path fill="#294287" d="M84.562 193.105c.164.427.602.728 1.084.71l.426-.016c.49-.015.896-.345 1.03-.784a1.319 1.319 0 0 0-1.303-.884c-.591.02-1.09.424-1.237.974"/>
                <path fill="#FFD3B3" d="M45.292 182.42l30.59 13.543.41 6.348-34.954-7.801z"/>
                <path fill="#FFD3B3" d="M84.593 195.894a.63.63 0 0 1-.012.122l-.145.736c.05.747.316.879 1.834.605 1.288-.232 1.198-.514 1.606-.974 1.226-1.388 2.288-.591 1.833.418-.212.47-.304.986-.16 1.489.177.622 1.221 1.919 1.104 2.346-.665 2.44-3.629 6.177-6.092 6.142-3.048-.042-7.654-4.207-9.164-4.626-3.034-.846-.91-6.81-.91-6.81s.622.204 1.487.132c2.024-.169 4.062-1.92 8.587-1.658l.032 2.078z"/>
                <path fill="#FF6161" d="M44.926 143.016c6.598-1.711 8.334 4.95 8.679 9.15.734 8.982-2.874 21.085-4.361 26.267-.37 1.29-.22 4.08.845 4.903 3.614 2.79-3.179 7.476-5.18 10.731-.669 1.087-2.045 1.543-3.164.928-6.756-3.714-6.896-11.876-7.29-16.69-.4-4.879-.145-32.536 10.47-35.29"/>
                <path fill="#FFF" d="M92.608 190.327c-2.202 1.374-2.13 3.473.165 4.69 2.294 1.216 5.939 1.088 8.143-.284 2.202-1.373 2.128-3.472-.166-4.69-2.293-1.215-5.938-1.088-8.142.284"/>
                <path fill="#D6E1FF" d="M93.363 193.892c1.953 1.05 5.015.988 6.836-.137 1.822-1.125 1.716-2.888-.238-3.937-1.955-1.05-5.015-.987-6.837.138-1.823 1.125-1.716 2.887.239 3.936"/>
                <path fill="#94B1FF" d="M94.45 193.22c1.31.703 3.361.662 4.58-.093 1.222-.753 1.151-1.933-.157-2.636-1.31-.705-3.36-.662-4.582.091-1.221.755-1.149 1.935.16 2.638"/>
                <path fill="#FFD3B3" d="M98.46 185.004c-1.416-.305-1.042.092-4.077-.006l-1.02.733s4.987 1.777 4.698 4.012c-.332 2.568-.5 3.496 1.114 3.493 1.057-.002 1.973-2.956 1.008-5.32.83.651 1.251.73 2.117 2.35.65 1.213 1.132 1.432 1.876 1.213.474-.139.627-1.012.445-1.469-1.782-4.497-3.44-4.418-6.162-5.006"/>
                <path fill="#D6E1FF" d="M96.572 192.149l.354-.013a1.166 1.166 0 0 0 1.123-1.2l-.118-3.358a1.347 1.347 0 0 0-1.387-1.293c-.737.027-1.32.65-1.294 1.384l.117 3.36a1.169 1.169 0 0 0 1.205 1.12"/>
                <path fill="#294287" d="M95.305 187.26c.165.427.602.728 1.084.71l.427-.015c.49-.016.896-.345 1.03-.785a1.32 1.32 0 0 0-1.303-.884c-.591.022-1.09.424-1.238.974"/>
            </g>
        </g>
        <g>
            <g transform="translate(0 371)">
                <mask id="l" fill="#fff">
                    <use xlink:href="#k"/>
                </mask>
                <path fill="#4634C4" d="M0 23.706C0 36.571 60.269 47 134.614 47c74.346 0 134.614-10.43 134.614-23.294S208.96.412 134.614.412C60.269.412 0 10.842 0 23.706" mask="url(#l)"/>
            </g>
            <path fill="#FFD3B3" d="M209.187 392.44s7.922 3.84 7.696 5.234c-.228 1.394-7.141 1.46-12.967-.05-.703-.182-2.279-.346-2.889-1.795-.61-1.448 8.16-3.39 8.16-3.39"/>
            <path fill="#80407C" d="M211.798 393.79s3.516 1.172 5.71 2.376c1.77.973 4.761 2.974 4.077 4.293-.611 1.182-3.927 3.154-14.141-.08-1.956-.618-5.312-2.32-6.618-3.706-.796-.844-.605-1.628.2-.844 1.201 1.17 9.68 3.937 13.797 2.386 3.183-1.198-3.025-4.424-3.025-4.424"/>
            <path fill="#FFD3B3" d="M229.26 383.343s6.418 6.03 5.786 7.292c-.633 1.264-6.665 1.805-12.362-3.915-.513-.515-2.074-1.01-2.225-2.575-.15-1.565 8.801-.802 8.801-.802"/>
            <path fill="#80407C" d="M228.868 383.157s4.088 3.738 6.037 6.64c1.125 1.674 2.931 4.734 1.884 5.792-.936.946-3.57 2.434-12.043-4.128-2.492-1.932-3.897-4.857-4.729-6.57-.509-1.043-.09-1.736.443-.746.797 1.475 6.748 7.269 11.141 7.016 3.396-.196-2.733-8.004-2.733-8.004"/>
            <path fill="#80407C" d="M193.095 354.542s15.771-17.809 29.736-17.77c1.974.005 6.112 1.14 6.656 6.28.373 3.53-1.172 39.733-1.172 39.733l-5.827 2.38-26.372 11.868s-39.724-1.487-47.374-6.04c-5.678-3.379-4.765-7.772-3.775-10.588 2.259-6.424 15.48-13.637 15.48-13.637l32.648-12.226z"/>
            <path fill="#EDFFFD" d="M212.745 360.754l-40.666 18.988.002 1.745 24.275 17.242 41.48-19.194z"/>
            <path fill="#D3F1F5" d="M192.858 390.264l31.101-14.744a1.377 1.377 0 0 0 .194-2.377l-10.715-7.964a1.38 1.38 0 0 0-1.371-.111l-32.28 14.957a.63.63 0 0 0-.118 1.071l11.818 9.056c.405.28.927.322 1.371.112"/>
            <path fill="#AABDF2" d="M194.493 395.89l-22.413-16.15v1.747l22.255 15.806z"/>
            <path fill="#FFD3B3" d="M187.974 306.979s4.143-2.468 9.565 7.17c3.99 7.092 17.149 49.403 17.149 49.403l-5.497 3.215s-10.655-15.472-15.885-37.158c-5.232-21.687-16.222-16.637-5.332-22.63"/>
            <path fill="#FF6161" d="M157.606 324.079c-.829 9.231 6.71 18.334 4.726 30.092-1.374 8.151-2.166 7.514-2.5 12.943 0 0 15.125 2.017 31.176-6.944 1.838-1.027 3.697-4.39 4.555-7.146 0 0-3.928-4.045-.01-13.388 0 0 .65-4.724 1.82-6.326.824-1.127 1.566-5.363.165-9.577-1.007-3.033-3.733-8.577-6.402-13.742-.725-1.41-2.074-3.938-3.65-3.855-1.017.05-.898-.134-2.432.048.175.986 2.027 6.291-2.593 7.52-4.604 1.216-8.491-3.757-9.074-6.401-4.403.843-9.395 2.679-12.841 4.902-3.015 1.945-2.405 5.31-1.962 7.897.3 1.736-.978 3.977-.978 3.977"/>
            <path fill="#FC4646" d="M159.832 367.115s14.037 2.29 31.177-6.945c1.851-1 5.348-5.998 4.392-8.036 0 0-3.766-4.286.152-12.499 1.631-3.42 5-7.066 2.388-14.969-1.39-4.21-3.955-10.071-5.229-11.59-.167-.2-.176.19-.117.3 1.71 3.248 8.084 16.747 1.898 20.736-3.4 2.193-29.277 12.937-24.619-8.899 0 0-10.18-13.759-12.268-1.133-.93 5.63 7.124 17.804 4.467 31.7-1.345 7.037-2.26 7.639-2.24 11.335"/>
            <path fill="#FFF" d="M186.591 306.118c-.009-.009-.009-.02-.018-.028l-.028.028h-.01l-.806.603c2.708 3.656 3.738 6.486 3.042 8.426-.65 1.818-2.726 2.55-4.46 2.986-3.264.816-6 .455-8.124-1.076-3.803-2.745-4.536-8.46-4.637-9.352l-1.03.27c.158 1.409 1.039 7.042 5.046 9.936 1.575 1.132 3.42 1.698 5.517 1.698 1.095 0 2.254-.15 3.487-.454.164-.041.333-.091.502-.138.367.64 1.9 3.4 2.288 5.593a.528.528 0 0 0 .612.427.527.527 0 0 0 .424-.61c-.39-2.196-1.771-4.795-2.299-5.733 1.552-.562 3.053-1.481 3.666-3.195.816-2.283-.25-5.438-3.172-9.38"/>
            <path fill="#FFC194" d="M186.436 302.03s-.817 4.888 0 7.846c0 0 3.26 5.791-4.271 6.448-7.531.658-8.779-9.021-8.779-9.021s2.334-.778 4.081-7.368l8.969 2.094z"/>
            <path fill="#FFD3B3" d="M187.712 367.367l4.017 4.145c.746.728 3.77 1.043 6.575 3.273 0 0 1.548 1.548 2.063 3.056.515 1.508 3.179 3.4 2.922 4.347-.258.946-1.203.772-1.203.772l-4.293-2.838s-3.185 1.288-5.507.773c-1.217-.27-3.782-1.632-5.398-4.387-1.253-2.137-5.529-4.157-5.529-4.157l6.353-4.984z"/>
            <path fill="#FFD3B3" d="M161.19 312.752c-2.544-.177-5.003 2.925-3.658 15.632.622 5.887.01 11.838 3.176 21.532 1.914 5.857 4.36 11.56 19.204 21.443 1.645 1.095 3.474 2.302 5.44 3.504 0 0 1.11-3.113 4.636-5.176 0 0-14.885-14.11-17.909-20.933-4.09-9.224 2.424-35.072-10.89-36.002"/>
            <path fill="#AABDF2" d="M194.335 397.293l2.02 1.435 41.48-19.194 3.946-31.142c.065-.411.023-.844.023-.844-.123-.114-1.762-.91-1.762-.91a1.078 1.078 0 0 0-.865.019l-40.578 18.724c-.432.2-.728.62-.777 1.1l-3.487 30.812z"/>
            <path fill="#294287" d="M196.356 398.729l41.48-19.195 4.062-31.852a.162.162 0 0 0-.225-.173L200.7 366.27a1.43 1.43 0 0 0-.821 1.148l-3.524 31.312z"/>
            <path fill="#458CE3" d="M219.834 373.715c.142 1.264 1.085 1.675 2.109.92 1.02-.753 1.735-2.388 1.595-3.65-.142-1.263-1.086-1.676-2.109-.922-1.022.754-1.736 2.39-1.595 3.652M216.264 375.702c.08.724.621.96 1.207.529.585-.434.994-1.37.912-2.092-.08-.724-.62-.96-1.206-.529-.585.433-.994 1.368-.913 2.092M225.068 371.527c.082.724.621.96 1.207.527.586-.432.994-1.369.914-2.091-.082-.724-.622-.96-1.208-.527-.585.43-.994 1.367-.913 2.091"/>
            <path fill="#294287" d="M160.604 289.837c-.831 10.085 7.477 9.354 7.917 9.98.451.642-4.818 5.241 1.675 7.822 0 0 2.292 1.156 4.745-1.077 1.346-1.226 2.435-3.185 2.687-4.855l8.883 4.344c4.016 8.177 8.823 5.987 9.845 5.517 2.227-1.024 2.583-6.09.582-8.748-1.245-1.653 1.983-.674 3.377-3.16 1.396-2.488.937-3.549.165-5.91-.576-1.77 2.386-5.268 1.69-9.971.001-.008-.006-.01-.012-.018-.209-1.41-.75-2.938-1.825-4.55-.125-.201-.27-.4-.42-.606-5.366-7.314-6.701-1.053-6.701-1.053s-.044-1.673-1.038-3.22c-.7-1.108-1.898-2.154-3.904-2.468-4.8-.756-5.42 3.383-5.42 3.383s-1.157-2.268-3.99-2.28c-2.839-.012-5.588 1.108-6.874 4.864 0 0-10.505 1.374-11.382 12.006"/>
            <path fill="#FFD3B3" d="M197.539 288.581s-2.363 14.233-9.171 17.224c-6.632 2.913-12.816-2.862-12.49-12.556 0 0-3.65-1.27-2.644-3.897.816-2.13 3.616-1.836 4.238.76 0 0 .983-5.022 4.773-7.293 5.68-3.407 15.342-2.322 15.294 5.762"/>
            <path fill="#294287" d="M175.679 285.98c1.465 2.237 1.793 4.13 1.793 4.13s.318-1.748 1.234-3.167c.873-1.353 2.525-1.128 3.191-.822 5.833 2.678 9.523-.88 12.13 1.566 1.01.947-1.473 8.382 3.298 7.392 1.586-.328 2.846-1.553 3.312-3.105.586-1.946 2.044-4.748 1.532-8.195.003-.007-.005-.009-.01-.02-.516-1.663-1.204-3.262-1.825-4.548-.127-.2-.27-.399-.42-.606-5.366-7.315-6.701-1.053-6.701-1.053s-.044-1.674-1.038-3.22c-8.38.35-17.502 10.114-16.496 11.649"/>
            <path fill="#FFF" d="M66.938 391.248s-3.121.535-3.121 2.766 5.857 3.4 10.187.853l-7.066-3.619z"/>
            <path fill="#223E63" d="M63.966 389.94s-11.24 6.068-11.874 8.446c-.633 2.379.836 3.514 2.74 3.751 1.9.237 17.024-5.268 18.132-6.71 0 0-3.886 1.412-6.382-.253-2.497-1.665.832-5.235.832-5.235h-3.448z"/>
            <path fill="#FFF" d="M39.338 377.47s-.41 2.248-1.098 4.578c-.69 2.33 9.574 1.986 10.178-.69.604-2.675-9.08-3.888-9.08-3.888"/>
            <path fill="#223E63" d="M38.24 382.049s-6.786 4.485-8.626 8.516c-1.114 2.44 1.609 3.222 4.312 2.531 1.816-.463 13.689-6.09 15.154-9.432 1.466-3.34-3.175-3.79-3.75-3.79-.575 0-1.11 4.593-7.09 2.175"/>
            <path fill="#944A90" d="M77.34 347.271s-18.148-20.492-34.216-20.447c-2.272.006-7.034 1.31-7.66 7.226-.428 4.06 1.32 45.025 1.32 45.025l7.297 3.323 29.783 13.765s45.71-1.71 54.514-6.948c6.534-3.89 5.483-8.946 4.342-12.184-2.597-7.391-20.11-11.91-20.11-11.91l-35.27-17.85z"/>
            <path fill="#FFA412" d="M82.65 298.238s-7.426-3.172-13.701 7.284c-4.62 7.696-17.221 54.09-17.221 54.09l6.361 3.492s13.031-15.28 19.086-38.807c6.054-23.528 18.082-19.557 5.475-26.059"/>
            <path fill="#FFA412" d="M119.54 324.712c.01 22.167-6.928 40.407-6.928 40.407-20.317-.205-35.437-15.366-35.437-15.366s.14-1.454.222-3.793c.197-5.561.041-16.116-3.235-24.131-3.061-7.482-3.081-13.686-2.326-17.547.402-2.069 2.392-4.521 4.305-5.4 13.733-6.316 29.059-1.847 37.341 4.04.633.444 1.224.905 1.766 1.363 2.676 2.267 4.285 4.198 4.292 20.427"/>
            <path fill="#FF8C00" d="M119.54 324.712c0 20.356-6.928 40.407-6.928 40.407-20.317-.205-35.437-15.366-35.437-15.366s.14-1.454.222-3.793c1.855 1.026 3.927 1.392 5.992 1.363 6.763-.097 12.744-5.236 13.439-11.968 3.023-29.332 15.926-30.887 15.926-30.887.632.442 6.786 4.015 6.786 20.244"/>
            <path fill="#FFF" d="M89.236 313.178c0 .668-.47.938-1.048.604-.579-.333-1.047-1.145-1.047-1.814 0-.668.468-.94 1.047-.605.578.334 1.048 1.147 1.048 1.815M89.236 318.432c0 .667-.47.94-1.048.604-.579-.332-1.047-1.145-1.047-1.815 0-.668.468-.94 1.047-.604.578.334 1.048 1.147 1.048 1.815M89.236 323.685c0 .668-.47.94-1.048.606-.579-.334-1.047-1.147-1.047-1.816 0-.668.468-.939 1.047-.605.578.336 1.048 1.149 1.048 1.815"/>
            <path fill="#EDFFFD" d="M56.105 354.545l45.238 21.122-.002 1.94-27.005 19.18-44.978-23.19z"/>
            <path fill="#D3F1F5" d="M78.228 387.371L43.63 370.97a1.532 1.532 0 0 1-.216-2.645l11.92-8.858a1.532 1.532 0 0 1 1.527-.124l35.908 16.638a.7.7 0 0 1 .132 1.19l-13.148 10.075a1.533 1.533 0 0 1-1.525.125"/>
            <path fill="#FFD3B3" d="M82.51 369.468l-3.85 4.094c-.89.869-4.499 1.245-7.847 3.908 0 0-1.847 1.846-2.462 3.646-.616 1.801-3.797 4.06-3.49 5.19.309 1.13 1.437.924 1.437.924l5.125-3.388s3.803 1.535 6.573.922c1.454-.323 4.514-1.95 6.443-5.24 1.497-2.548 5.561-3.998 5.561-3.998l-7.49-6.058z"/>
            <path fill="#AABDF2" d="M76.585 395.19l-2.249 1.597L28.95 373.86l-5.144-33.07c-.071-.457-.024-.936-.024-.936.136-.128 1.959-1.012 1.959-1.012.31-.128.657-.12.962.02l45.14 20.829c.481.222.81.689.863 1.224l3.88 34.275z"/>
            <path fill="#294287" d="M74.337 396.786l-46.144-21.352-4.518-35.432c-.018-.142.123-.25.251-.19l45.576 20.866c.505.232.852.717.916 1.277l3.919 34.831z"/>
            <path fill="#94B5E0" d="M76.41 393.631l24.932-17.965v1.942l-24.756 17.581z"/>
            <path fill="#458CE3" d="M48.22 368.962c-.158 1.406-1.207 1.863-2.345 1.026-1.139-.84-1.933-2.658-1.776-4.063.159-1.404 1.208-1.863 2.346-1.025 1.137.838 1.931 2.657 1.774 4.062M52.19 371.173c-.09.804-.691 1.067-1.342.586-.651-.48-1.106-1.522-1.015-2.325.09-.806.69-1.067 1.343-.588.65.48 1.105 1.523 1.015 2.327M42.397 366.527c-.09.804-.692 1.067-1.343.588-.65-.482-1.105-1.521-1.016-2.325.09-.806.691-1.067 1.342-.588.651.479 1.108 1.521 1.017 2.325"/>
            <path fill="#FFA412" d="M114.251 304.284c.997.001 8.083 2.55 6.026 18.9-.882 7.014-1.081 12.63-5.45 25.463-2.634 7.736-5.604 16.054-29.135 30.428 0 0-2.566-4.987-6.774-7.451 0 0 16.02-15.142 19.632-23.287 4.88-11.01-.232-44.09 15.701-44.053"/>
            <path fill="#FFC194" d="M86.159 297.707s.866 4.068 1.175 5.216c0 0 5.437 3.062 9.44 0 4.002-3.06 3.899-5.216 3.899-5.216l-5.644-7.288-8.87 7.288z"/>
            <path fill="#FFF" d="M84.484 299.58s-1.893 6.186 5.516 7.147c7.412.964 12.932-4.793 14.096-8.56 0 0-1.802-.97-3.981-1.18 0 0 .27.32.346.799.211 1.358-4.407 6.916-9.298 6.342-4.89-.574-4.105-4.712-4.105-4.712l-2.574.164z"/>
            <path fill="#FFD3B3" d="M80.394 275.362c-3.458 1.124-6.932 5.86-6.112 11.669 1.426 10.098 8.837 16.631 15.584 13.743 8.29-3.545 6.327-12.022 6.327-12.022 3.384-.57 1.425-6.407 1.15-8.364-.35-2.48-3.887-7.23-12.969-5.946a23.67 23.67 0 0 0-3.98.92"/>
            <path fill="#294287" d="M71.589 286.64c-.083.153-.248.223-.337.075-1.128-1.894-4.591-9.697 2.914-15.358 8.134-6.136 22.71-4.995 26.13 2.669 3.421 7.667 1.523 17.18-2.577 19.97l-1.39-1.97s.208-.8-.135-3.274c0 0 .938-.452 1.444-1.279.642-1.051.761-2.59-.693-3.318-2.853-1.427-3.557 2.67-3.557 2.67l-.484-.27s.79-5.848-1.161-7.417c-.26-.209-.563-.32-.775-.065-.989 1.194-3.335 3.31-7.595 3.406-4.951.115-7.514 5.647-8.097 7.53-.428 1.383-3.172-2.788-2.515-8.122 0 0 .394 1.864-1.172 4.754"/>
        </g>
    </g>
</svg>
