<svg xmlns="http://www.w3.org/2000/svg" xmlns:xlink="http://www.w3.org/1999/xlink" width="414" height="449"><defs><path id="b" d="M0 164.759h115.23V0H0z"/><path id="c" d="M.38.113h9.605v15.784H.381z"/><path id="e" d="M.468.492h10.76v6.547H.467z"/><path id="g" d="M.183.457h9.774v15.784H.183z"/><path id="i" d="M.371.373h12.807v7.93H.37z"/><path id="k" d="M0 216.789h151.62V0H0z"/><path id="o" d="M0 181.234h126.754V0H0z"/><path id="p" d="M0 252.92h176.89V0H0z"/><filter id="a" width="114.8%" height="110.3%" x="-7.4%" y="-3.9%" filterUnits="objectBoundingBox"><feMorphology in="SourceAlpha" operator="dilate" radius="1.5" result="shadowSpreadOuter1"/><feOffset dy="2" in="shadowSpreadOuter1" result="shadowOffsetOuter1"/><feGaussianBlur in="shadowOffsetOuter1" result="shadowBlurOuter1" stdDeviation="2"/><feComposite in="shadowBlurOuter1" in2="SourceAlpha" operator="out" result="shadowBlurOuter1"/><feColorMatrix in="shadowBlurOuter1" values="0 0 0 0 0 0 0 0 0 0 0 0 0 0 0 0 0 0 0.27810861 0"/></filter><filter id="l" width="111.4%" height="108%" x="-5.7%" y="-3.1%" filterUnits="objectBoundingBox"><feMorphology in="SourceAlpha" operator="dilate" radius="1.65" result="shadowSpreadOuter1"/><feOffset dy="2" in="shadowSpreadOuter1" result="shadowOffsetOuter1"/><feMorphology in="SourceAlpha" radius="1.65" result="shadowInner"/><feOffset dy="2" in="shadowInner" result="shadowInner"/><feComposite in="shadowOffsetOuter1" in2="shadowInner" operator="out" result="shadowOffsetOuter1"/><feGaussianBlur in="shadowOffsetOuter1" result="shadowBlurOuter1" stdDeviation="2"/><feColorMatrix in="shadowBlurOuter1" values="0 0 0 0 0 0 0 0 0 0 0 0 0 0 0 0 0 0 0.157615822 0"/></filter><filter id="n" width="113.6%" height="109.5%" x="-6.8%" y="-3.7%" filterUnits="objectBoundingBox"><feMorphology in="SourceAlpha" operator="dilate" radius="1.65" result="shadowSpreadOuter1"/><feOffset dy="2" in="shadowSpreadOuter1" result="shadowOffsetOuter1"/><feGaussianBlur in="shadowOffsetOuter1" result="shadowBlurOuter1" stdDeviation="2"/><feComposite in="shadowBlurOuter1" in2="SourceAlpha" operator="out" result="shadowBlurOuter1"/><feColorMatrix in="shadowBlurOuter1" values="0 0 0 0 0 0 0 0 0 0 0 0 0 0 0 0 0 0 0.157615822 0"/></filter><filter id="q" width="109.8%" height="106.8%" x="-4.9%" y="-2.6%" filterUnits="objectBoundingBox"><feMorphology in="SourceAlpha" operator="dilate" radius="1.65" result="shadowSpreadOuter1"/><feOffset dy="2" in="shadowSpreadOuter1" result="shadowOffsetOuter1"/><feMorphology in="SourceAlpha" radius="1.65" result="shadowInner"/><feOffset dy="2" in="shadowInner" result="shadowInner"/><feComposite in="shadowOffsetOuter1" in2="shadowInner" operator="out" result="shadowOffsetOuter1"/><feGaussianBlur in="shadowOffsetOuter1" result="shadowBlurOuter1" stdDeviation="2"/><feColorMatrix in="shadowBlurOuter1" values="0 0 0 0 0 0 0 0 0 0 0 0 0 0 0 0 0 0 0.157615822 0"/></filter></defs><g fill="none" fill-rule="evenodd"><g transform="translate(293 185)"><use fill="#000" filter="url(#a)" xlink:href="#b"/><use fill="#7137B0" stroke="#FFF" stroke-width="3" xlink:href="#b"/></g><path fill="#2ED8CD" d="M304.062 343.362a1.554 1.554 0 11-3.108 0 1.554 1.554 0 013.108 0"/><path fill="#D52FD9" d="M384.144 207.163a1.554 1.554 0 11-3.108 0 1.554 1.554 0 013.108 0"/><path fill="#FFF" d="M395.493 332.43a1.057 1.057 0 11-2.114 0 1.057 1.057 0 012.114 0m-77.811-76.184a.49.49 0 11-.978 0 .49.49 0 01.978 0m82.961 84.814a.489.489 0 11-.977 0 .489.489 0 01.977 0m-52.375-1.07a.49.49 0 11-.98 0 .49.49 0 01.98 0m-45.318-41.067a.49.49 0 11-.979 0 .49.49 0 01.98 0m97.692-59.579a.49.49 0 11-.978 0 .49.49 0 01.978 0m-98.182 1.716a.49.49 0 11-.979 0 .49.49 0 01.98 0m36.681-37.406a.49.49 0 11-.979 0 .49.49 0 01.979 0m19.647 117.372a.49.49 0 11-.98 0 .49.49 0 01.98 0m-55.84 7.042a.49.49 0 11-.978-.001.49.49 0 01.978 0m75.281 11.435a.49.49 0 11-.978 0 .49.49 0 01.978 0m-58.913-150.48a.49.49 0 11-.978 0 .49.49 0 01.978 0m46.945 150.48a.49.49 0 11-.979 0 .49.49 0 01.98 0m20.021-44.41a.489.489 0 11-.978 0 .489.489 0 01.978 0"/><path fill="#22E4CC" d="M308.974 204.465l.81.81.81-.81-.81-.81zm4.104 0l.81.81.81-.81-.81-.81zm5.724 0l-.81-.81-.81.81.81.81zm-9.828 4.253l.81.81.81-.81-.81-.81zm4.104 0l.81.81.81-.81-.81-.81zm4.104 0l.81.81.81-.81-.81-.81zm-8.208 4.252l.81.81.81-.81-.81-.81zm4.104 0l.81.81.81-.81-.81-.81zm4.104 0l.81.81.81-.81-.81-.81zm-5.725 92.454l1.216 1.216 1.215-1.216-1.215-1.216zm6.157 0l1.215 1.216 1.215-1.216-1.215-1.216zm8.586 0l-1.215-1.216-1.215 1.216 1.215 1.216zm-14.743 6.379l1.216 1.216 1.215-1.216-1.215-1.215zm6.157 0l1.215 1.216 1.215-1.216-1.215-1.215zm6.156 0l1.215 1.216 1.216-1.216-1.216-1.215zm-12.313 6.379l1.216 1.216 1.215-1.216-1.215-1.215zm6.157 0l1.215 1.216 1.215-1.216-1.215-1.215zm6.156 0l1.215 1.216 1.216-1.216-1.216-1.215zm52.352-15.694l.81.81.81-.81-.81-.81zm4.104 0l.81.81.81-.81-.81-.81zm5.724 0l-.81-.81-.81.81.81.81zm-9.828 4.252l.81.81.81-.81-.81-.81zm4.104 0l.81.81.81-.81-.81-.81zm4.104 0l.81.81.81-.81-.81-.81zm-8.208 4.253l.81.81.81-.81-.81-.81zm4.104 0l.81.81.81-.81-.81-.81zm4.104 0l.81.81.81-.81-.81-.81z"/><path fill="#FFF" d="M386.285 290.11a1.415 1.415 0 110-2.831 1.415 1.415 0 010 2.83m0-3.689a2.274 2.274 0 100 4.548 2.274 2.274 0 000-4.548m-53.92 44.452a1.685 1.685 0 110-3.37 1.685 1.685 0 010 3.37m0-4.393a2.708 2.708 0 100 5.417 2.708 2.708 0 000-5.417"/><path fill="#D52FD9" d="M304.782 227.402a1.415 1.415 0 110-2.83 1.415 1.415 0 010 2.83m0-3.689a2.275 2.275 0 100 4.55 2.275 2.275 0 000-4.55"/><path fill="#FFF" d="M397.85 222.04a1.415 1.415 0 110-2.83 1.415 1.415 0 010 2.83m0-3.69a2.275 2.275 0 10.001 4.55 2.275 2.275 0 000-4.55m-88.404 71.76a1.415 1.415 0 110-2.831 1.415 1.415 0 010 2.83m0-3.689a2.274 2.274 0 100 4.548 2.274 2.274 0 000-4.548"/><path fill="#D52FD9" d="M317.193 334.983a2.056 2.056 0 110-4.113 2.056 2.056 0 010 4.113m0-5.362a3.306 3.306 0 100 6.611 3.306 3.306 0 000-6.61m49.013-118.848a2.056 2.056 0 110-4.113 2.056 2.056 0 010 4.113m0-5.361a3.305 3.305 0 100 6.61 3.305 3.305 0 000-6.61"/><path fill="#2ED8CD" d="M374.898 333.429a2.056 2.056 0 110-4.113 2.056 2.056 0 010 4.113m0-5.361a3.305 3.305 0 100 6.61 3.305 3.305 0 000-6.61m18.784-131.688a2.056 2.056 0 110-4.113 2.056 2.056 0 010 4.112m0-5.361a3.305 3.305 0 100 6.61 3.305 3.305 0 000-6.61m4.898 131.009a3.845 3.845 0 11.001-7.69 3.845 3.845 0 01-.001 7.69m0-10.024a6.179 6.179 0 00-6.179 6.18 6.179 6.179 0 1012.358 0 6.179 6.179 0 00-6.179-6.18m-44.401-71.979a3.845 3.845 0 11.001-7.69 3.845 3.845 0 01-.001 7.69m0-10.024a6.179 6.179 0 00-6.179 6.18 6.179 6.179 0 1012.358 0 6.179 6.179 0 00-6.18-6.18"/><path fill="#FFF" d="M364.947 298.31a2.44 2.44 0 11-.001-4.88 2.44 2.44 0 01.001 4.88m0-6.364a3.923 3.923 0 100 7.846 3.923 3.923 0 000-7.846m-24.024-59.582a2.44 2.44 0 11-.001-4.88 2.44 2.44 0 01.001 4.88m0-6.364a3.923 3.923 0 100 7.846 3.923 3.923 0 000-7.846"/><path fill="#2ED8CD" d="M396.987 258.302a2.056 2.056 0 110-4.112 2.056 2.056 0 010 4.112m0-5.361a3.305 3.305 0 100 6.61 3.305 3.305 0 000-6.61m-70.368-55.39a2.056 2.056 0 110-4.113 2.056 2.056 0 010 4.113m0-5.362a3.306 3.306 0 100 6.612 3.306 3.306 0 000-6.612"/><path fill="#D52FD9" d="M337.021 310.028a2.243 2.243 0 011.633-1.615v-.915a3.139 3.139 0 00-2.552 2.53h.92zm2.704-1.615c.798.197 1.427.82 1.632 1.615h.918a3.137 3.137 0 00-2.55-2.53v.915zm-1.071 4.35a2.242 2.242 0 01-1.646-1.664h-.913a3.136 3.136 0 002.559 2.58v-.916zm2.716-1.664a2.242 2.242 0 01-1.645 1.663v.917a3.138 3.138 0 002.558-2.58h-.913z"/><path fill="#FFF" d="M300.757 193.94a3.252 3.252 0 012.37-2.341v-1.33a4.553 4.553 0 00-3.702 3.672h1.332zm3.923-2.342a3.252 3.252 0 012.37 2.343h1.333a4.553 4.553 0 00-3.703-3.672v1.33zm-1.553 6.312a3.253 3.253 0 01-2.388-2.415h-1.326a4.552 4.552 0 003.714 3.743v-1.329zm3.941-2.415a3.254 3.254 0 01-2.387 2.414v1.33a4.553 4.553 0 003.712-3.744h-1.325z"/><g transform="translate(296.69 264.63)"><mask id="d" fill="#fff"><use xlink:href="#c"/></mask><path fill="#2ED8CD" d="M2.093 12.915a4.91 4.91 0 110-9.82 4.91 4.91 0 010 9.82m0-12.802a7.892 7.892 0 100 15.784 7.892 7.892 0 000-15.784" mask="url(#d)"/></g><g transform="translate(356.259 188.193)"><mask id="f" fill="#fff"><use xlink:href="#e"/></mask><path fill="#2ED8CD" d="M2.5 1.66a3.347 3.347 0 116.695 0 3.347 3.347 0 01-6.694 0m8.726 0a5.38 5.38 0 10-10.758 0 5.38 5.38 0 0010.758 0" mask="url(#f)"/></g><g transform="translate(394.741 279.391)"><mask id="h" fill="#fff"><use xlink:href="#g"/></mask><path fill="#FFF" d="M8.075 13.26a4.91 4.91 0 110-9.821 4.91 4.91 0 010 9.82m0-12.802a7.892 7.892 0 100 15.784 7.892 7.892 0 100-15.784" mask="url(#h)"/></g><g transform="translate(325.157 338.433)"><mask id="j" fill="#fff"><use xlink:href="#i"/></mask><path fill="#FFF" d="M2.79 6.776a3.984 3.984 0 117.968 0 3.984 3.984 0 01-7.967 0m10.387 0a6.403 6.403 0 10-12.806 0 6.403 6.403 0 0012.806 0" mask="url(#j)"/></g><path fill="#FFF" fill-rule="nonzero" d="M335.04 282.351c3.458 0 6.182-.9 8.17-2.702 1.988-1.8 2.983-4.502 2.983-8.105V253h-8.732v18.415c0 1.008-.295 1.8-.886 2.377-.591.576-1.362.865-2.313.865-1.21 0-2.45-.433-3.717-1.297L327 280.017c2.017 1.556 4.697 2.334 8.04 2.334zm36.873-.519v-4.625h3.328v-7.608h-3.328V253h-12.104l-10.504 17.507v6.7h13.876v4.625h8.732zM363.18 269.6h-5.447l5.447-9.078v9.078z"/><path fill="#F29725" d="M6 221.482h151.62V4.694H6z"/><g transform="translate(6 4.376)"><path fill="#FFE11D" d="M21.205 96.531a2.345 2.345 0 11-4.691 0 2.345 2.345 0 014.69 0m78.609-45.87a2.345 2.345 0 11-4.691 0 2.345 2.345 0 014.69 0"/><path fill="#FFF" d="M27.71 119.743l-1.574 1.575-1.574-1.575 1.574-1.575zm4.076 0l-1.575 1.575-1.573-1.575 1.573-1.575zm4.076 0l-1.575 1.575-1.574-1.575 1.574-1.575zM12.283 82.048l-1.575 1.574-1.574-1.574 1.574-1.575zm4.075 0l-1.574 1.574-1.574-1.574 1.574-1.575zm4.076 0l-1.575 1.574-1.574-1.574 1.574-1.575zm83.876-64.085l-1.574 1.574-1.574-1.574 1.574-1.575zm4.076 0l-1.575 1.574-1.574-1.574 1.574-1.575zm4.075 0l-1.574 1.574-1.574-1.574 1.574-1.575zm7.577 187.752l-1.575 1.574-1.574-1.574 1.574-1.575zm4.075 0l-1.574 1.574-1.574-1.574 1.574-1.575zm4.076 0l-1.574 1.574-1.574-1.574 1.574-1.575zM35.817 68.145l-1.575 1.575-1.573-1.575 1.573-1.574zm4.076 0l-1.575 1.575-1.574-1.575 1.574-1.574zm4.075 0l-1.575 1.575-1.574-1.575 1.574-1.574zm66.482 3.171l-1.574 1.574-1.574-1.574 1.574-1.575zm4.076 0l-1.575 1.574-1.574-1.574 1.574-1.575zm4.076 0l-1.575 1.574-1.574-1.574 1.574-1.575zM12.283 209.136l-1.575 1.574-1.574-1.574 1.574-1.575zm4.075 0l-1.574 1.574-1.574-1.574 1.574-1.575zm4.076 0l-1.575 1.574-1.574-1.574 1.574-1.575zM137.337 84.737a1.65 1.65 0 11-3.302 0 1.65 1.65 0 013.302 0M12.359 159.196a1.65 1.65 0 11-3.302 0 1.65 1.65 0 013.302 0m4.076-112.16a1.65 1.65 0 11-3.302 0 1.65 1.65 0 013.302 0m87.422 153.034a1.65 1.65 0 11-3.3 0 1.65 1.65 0 013.3 0M13.933 14.119a1.65 1.65 0 11-3.3 0 1.65 1.65 0 013.3 0m21.02 124.156a1.086 1.086 0 11-2.172 0 1.086 1.086 0 012.172 0m-19.083-18.82a1.085 1.085 0 11-2.17 0 1.085 1.085 0 012.17 0m69.374 87.766a1.085 1.085 0 11-2.17.002 1.085 1.085 0 012.17-.002m-2.112-137.99a1.086 1.086 0 11-2.17.002 1.086 1.086 0 012.17-.002m52.278-26.995a1.086 1.086 0 11-2.171 0 1.086 1.086 0 012.172 0M58.796 14.311a1.086 1.086 0 11-2.172 0 1.086 1.086 0 012.172 0M35.089 57.197a1.65 1.65 0 11-3.302 0 1.65 1.65 0 013.302 0m27.257 82.807a1.65 1.65 0 11-3.302 0 1.65 1.65 0 013.302 0m68.808-69.886a1.973 1.973 0 110-3.946 1.973 1.973 0 010 3.946m0-5.143a3.17 3.17 0 100 6.34 3.17 3.17 0 000-6.34M24.562 151.022a1.973 1.973 0 110-3.946 1.973 1.973 0 010 3.946m0-5.143a3.17 3.17 0 100 6.34 3.17 3.17 0 000-6.34m5.65-129.788a1.973 1.973 0 110-3.945 1.973 1.973 0 010 3.945m0-5.143a3.17 3.17 0 100 6.34 3.17 3.17 0 000-6.34M14.872 74.8a1.972 1.972 0 110-3.945 1.972 1.972 0 010 3.945m0-5.143a3.171 3.171 0 100 6.342 3.171 3.171 0 000-6.342m47.629-6.169a1.972 1.972 0 110-3.944 1.972 1.972 0 010 3.944m0-5.143a3.171 3.171 0 10.001 6.342 3.171 3.171 0 000-6.342m70.736-40.337a1.973 1.973 0 110-3.946 1.973 1.973 0 010 3.946m0-5.143a3.17 3.17 0 100 6.34 3.17 3.17 0 000-6.34M66.654 203.28a3.211 3.211 0 11-.001-6.422 3.211 3.211 0 010 6.423m0-8.374a5.163 5.163 0 10.002 10.325 5.163 5.163 0 00-.001-10.325"/><path fill="#7137B0" d="M45.352 154.729a4.74 4.74 0 019.48 0h2.877a7.618 7.618 0 00-15.235 0h2.878zM92.165 9.684a5.518 5.518 0 11-11.036 0h-3.351a8.87 8.87 0 1017.738 0h-3.351zm15.559 190.336a5.518 5.518 0 11-11.035 0h-3.351a8.869 8.869 0 1017.738 0h-3.352zm-74.991-88.447a1.26 1.26 0 11-2.521.002 1.26 1.26 0 012.52-.002m103.909 92.881a1.26 1.26 0 11-2.52 0 1.26 1.26 0 012.52 0M23.916 30.435a1.26 1.26 0 11-2.521 0 1.26 1.26 0 012.52 0M118.717 63.4a1.26 1.26 0 11-2.52.001 1.26 1.26 0 012.52 0M12.85 144.168a1.26 1.26 0 11-2.52.001 1.26 1.26 0 012.52 0"/><mask id="m" fill="#fff"><use xlink:href="#k"/></mask><use fill="#000" filter="url(#l)" xlink:href="#k"/><use stroke="#FFF" stroke-width="3.3" xlink:href="#k"/><path fill="#FFE11D" d="M120.51 118.39h26.848V91.542h-26.847v26.848zm-.917.918h28.682V90.625h-28.682v28.683z" mask="url(#m)"/><path fill="#FFE11D" d="M111.952 124.262H138.8V97.414h-26.848v26.848zm-.918.917h28.683V96.496h-28.683v28.683z" mask="url(#m)"/><path fill="#FFE11D" d="M111.753 97.333l-.52-.756 8.56-5.872.518.756zm0 27.765l-.52-.756 8.56-5.871.518.756zm27.765 0l-.52-.756 8.56-5.871.518.756zm0-27.765l-.52-.756 8.56-5.872.518.756zm-112.125 91.95H54.24v-26.848H27.393v26.848zm-.917.917h28.682v-28.682H26.476V190.2z" mask="url(#m)"/><path fill="#FFE11D" d="M18.835 195.154h26.848v-26.847H18.835v26.847zm-.918.917H46.6V167.39H17.917v28.682z" mask="url(#m)"/><path fill="#FFE11D" d="M18.635 168.226l-.518-.756 8.558-5.871.52.756zm0 27.764l-.518-.755 8.558-5.872.52.757zm27.765 0l-.519-.755 8.56-5.872.518.757zm0-27.764l-.519-.756 8.56-5.871.518.756z" mask="url(#m)"/><path fill="#FFF" d="M49.547 35.854a1.376 1.376 0 11-2.753 0 1.376 1.376 0 012.753 0m8.79 0a1.376 1.376 0 11-2.751 0 1.376 1.376 0 012.751 0m8.791 0a1.376 1.376 0 11-2.752 0 1.376 1.376 0 012.752 0m8.791 0a1.376 1.376 0 11-2.753 0 1.376 1.376 0 012.753 0m8.79 0a1.376 1.376 0 11-2.753 0 1.376 1.376 0 012.753 0m8.791 0a1.376 1.376 0 11-2.752 0 1.376 1.376 0 012.751 0m8.791 0a1.376 1.376 0 11-2.752 0 1.376 1.376 0 012.751 0m8.791 0a1.376 1.376 0 11-2.752 0 1.376 1.376 0 012.752 0M53.598 41.15a1.376 1.376 0 11-2.752 0 1.376 1.376 0 012.752 0m8.791 0a1.376 1.376 0 11-2.752 0 1.376 1.376 0 012.752 0m8.79 0a1.376 1.376 0 11-2.751 0 1.376 1.376 0 012.75 0m8.792 0a1.376 1.376 0 11-2.752 0 1.376 1.376 0 012.751 0m8.791 0a1.376 1.376 0 11-2.752 0 1.376 1.376 0 012.752 0m8.79 0a1.376 1.376 0 11-2.75 0 1.376 1.376 0 012.75 0m8.79 0a1.376 1.376 0 11-2.75 0 1.376 1.376 0 012.75 0m-27.753 93.769a1.376 1.376 0 11-2.753 0 1.376 1.376 0 012.753 0m8.79 0a1.376 1.376 0 11-2.751 0 1.376 1.376 0 012.751 0m8.791 0a1.376 1.376 0 11-2.752 0 1.376 1.376 0 012.752 0m8.791 0a1.376 1.376 0 11-2.753 0 1.376 1.376 0 012.753 0m8.79 0a1.376 1.376 0 11-2.753 0 1.376 1.376 0 012.753 0m8.791 0a1.376 1.376 0 11-2.752 0 1.376 1.376 0 012.751 0m8.791 0a1.376 1.376 0 11-2.752 0 1.376 1.376 0 012.751 0m8.791 0a1.376 1.376 0 11-2.752 0 1.376 1.376 0 012.752 0m-57.482 5.297a1.376 1.376 0 11-2.752-.002 1.376 1.376 0 012.752.002m8.791 0a1.376 1.376 0 11-2.752-.001 1.376 1.376 0 012.752 0m8.79.001a1.376 1.376 0 11-2.751 0 1.376 1.376 0 012.75 0m8.792 0a1.376 1.376 0 11-2.752 0 1.376 1.376 0 012.751 0m8.791 0a1.376 1.376 0 11-2.752-.002 1.376 1.376 0 012.752.002m8.79 0a1.376 1.376 0 11-2.75 0 1.376 1.376 0 012.75 0m8.79 0a1.376 1.376 0 11-2.75 0 1.376 1.376 0 012.75 0m-56.793 5.328a1.376 1.376 0 11-2.752-.001 1.376 1.376 0 012.752.001m8.79 0a1.376 1.376 0 11-2.751 0 1.376 1.376 0 012.751 0m8.791 0a1.376 1.376 0 11-2.752 0 1.376 1.376 0 012.752 0m8.791 0a1.376 1.376 0 11-2.753-.001 1.376 1.376 0 012.753.001m8.79 0a1.376 1.376 0 11-2.752-.001 1.376 1.376 0 012.752.001m8.791 0a1.376 1.376 0 11-2.752 0 1.376 1.376 0 012.751 0m8.791 0a1.376 1.376 0 11-2.752 0 1.376 1.376 0 012.751 0m8.791 0a1.376 1.376 0 11-2.752-.001 1.376 1.376 0 012.752.001m-57.482 5.296a1.376 1.376 0 11-2.751 0 1.376 1.376 0 012.751 0m8.791 0a1.376 1.376 0 11-2.752 0 1.376 1.376 0 012.752 0m8.79 0a1.375 1.375 0 11-2.75.001 1.375 1.375 0 012.75 0m8.791-.001a1.375 1.375 0 11-2.751.001 1.375 1.375 0 012.75 0m8.791-.001a1.376 1.376 0 11-2.751 0 1.376 1.376 0 012.751 0m8.79 0a1.375 1.375 0 11-2.75.001 1.375 1.375 0 012.75 0m8.79-.001a1.375 1.375 0 11-2.75.001 1.375 1.375 0 012.75 0m-56.793 5.329a1.376 1.376 0 11-2.752-.002 1.376 1.376 0 012.752.001m8.79.001a1.376 1.376 0 11-2.751-.001 1.376 1.376 0 012.751 0m8.791.001a1.376 1.376 0 11-2.752-.001 1.376 1.376 0 012.752 0m8.791.001a1.376 1.376 0 11-2.753-.002 1.376 1.376 0 012.753.001m8.79.001a1.376 1.376 0 11-2.752-.002 1.376 1.376 0 012.752.001m8.791.001a1.376 1.376 0 11-2.752-.001 1.376 1.376 0 012.751 0m8.791.001a1.376 1.376 0 11-2.752-.001 1.376 1.376 0 012.751 0m8.791.001a1.376 1.376 0 11-2.752-.002 1.376 1.376 0 012.752.001m-57.482 5.297a1.376 1.376 0 11-2.752 0 1.376 1.376 0 012.752 0m8.791 0a1.376 1.376 0 11-2.753 0 1.376 1.376 0 012.753 0m8.79 0a1.376 1.376 0 11-2.752 0 1.376 1.376 0 012.752 0m8.791 0a1.376 1.376 0 11-2.752 0 1.376 1.376 0 012.751 0m8.791 0a1.376 1.376 0 11-2.753 0 1.376 1.376 0 012.753 0m8.79 0a1.376 1.376 0 11-2.751 0 1.376 1.376 0 012.752 0m8.789 0a1.376 1.376 0 11-2.75 0 1.376 1.376 0 012.75 0m-56.793 5.328a1.376 1.376 0 11-2.752-.001 1.376 1.376 0 012.752.001m8.79 0a1.376 1.376 0 11-2.751 0 1.376 1.376 0 012.751 0m8.791 0a1.376 1.376 0 11-2.752 0 1.376 1.376 0 012.752 0m8.791 0a1.376 1.376 0 11-2.753-.001 1.376 1.376 0 012.753.001m8.79 0a1.376 1.376 0 11-2.752-.001 1.376 1.376 0 012.752.001m8.791 0a1.376 1.376 0 11-2.752 0 1.376 1.376 0 012.751 0m8.791 0a1.376 1.376 0 11-2.752 0 1.376 1.376 0 012.751 0m8.791 0a1.376 1.376 0 11-2.752-.001 1.376 1.376 0 012.752.001m-57.482 5.296a1.376 1.376 0 11-2.752 0 1.376 1.376 0 012.752 0m8.791 0a1.376 1.376 0 11-2.753 0 1.376 1.376 0 012.753 0m8.79 0a1.376 1.376 0 11-2.752.001 1.376 1.376 0 012.752 0m8.791-.001a1.376 1.376 0 11-2.752.001 1.376 1.376 0 012.751 0m8.791-.001a1.376 1.376 0 11-2.753 0 1.376 1.376 0 012.753 0m8.79 0a1.376 1.376 0 11-2.751.001 1.376 1.376 0 012.752 0m8.789-.001a1.376 1.376 0 11-2.75.001 1.376 1.376 0 012.75 0m-56.793 5.328a1.376 1.376 0 11-2.753 0 1.376 1.376 0 012.753 0m8.79 0a1.376 1.376 0 11-2.751 0 1.376 1.376 0 012.751 0m8.791 0a1.376 1.376 0 11-2.752 0 1.376 1.376 0 012.752 0m8.791 0a1.376 1.376 0 11-2.753 0 1.376 1.376 0 012.753 0m8.79 0a1.376 1.376 0 11-2.753 0 1.376 1.376 0 012.753 0m8.791 0a1.376 1.376 0 11-2.752 0 1.376 1.376 0 012.751 0m8.791 0a1.376 1.376 0 11-2.752 0 1.376 1.376 0 012.751 0m8.791 0a1.376 1.376 0 11-2.752 0 1.376 1.376 0 012.752 0m-57.482 5.297a1.376 1.376 0 11-2.752 0 1.376 1.376 0 012.752 0m8.791 0a1.376 1.376 0 11-2.753 0 1.376 1.376 0 012.753 0m8.79 0a1.376 1.376 0 11-2.752 0 1.376 1.376 0 012.752 0m8.791 0a1.376 1.376 0 11-2.752 0 1.376 1.376 0 012.751 0m8.791 0a1.376 1.376 0 11-2.753 0 1.376 1.376 0 012.753 0m8.79 0a1.376 1.376 0 11-2.751 0 1.376 1.376 0 012.752 0m8.789 0a1.376 1.376 0 11-2.75 0 1.376 1.376 0 012.75 0m-56.793 5.328a1.376 1.376 0 11-2.753 0 1.376 1.376 0 012.753 0m8.79 0a1.376 1.376 0 11-2.751 0 1.376 1.376 0 012.751 0m8.791 0a1.376 1.376 0 11-2.752 0 1.376 1.376 0 012.752 0m8.791 0a1.376 1.376 0 11-2.753 0 1.376 1.376 0 012.753 0m8.79 0a1.376 1.376 0 11-2.753 0 1.376 1.376 0 012.753 0m8.791 0a1.376 1.376 0 11-2.752 0 1.376 1.376 0 012.751 0m8.791 0a1.376 1.376 0 11-2.752 0 1.376 1.376 0 012.751 0m8.791 0a1.376 1.376 0 11-2.752 0 1.376 1.376 0 012.752 0" mask="url(#m)"/></g><path fill="#FFF" fill-rule="nonzero" d="M65.42 132.38c4.55 0 8.133-1.185 10.75-3.555 2.616-2.37 3.924-5.925 3.924-10.664V93.76h-11.49v24.23c0 1.327-.388 2.37-1.166 3.128-.777.759-1.791 1.138-3.043 1.138-1.592 0-3.223-.569-4.891-1.707l-4.664 8.76c2.654 2.047 6.18 3.071 10.58 3.071zm42.146-.683V93.76h-9.897l-14.504 14.22 6.484 6.768 6.427-6.37v23.32h11.49z"/><g transform="translate(81.9 260.3)"><use fill="#000" filter="url(#n)" xlink:href="#o"/><use fill="#00C8FB" stroke="#FFF" stroke-width="3.3" xlink:href="#o"/></g><path fill="#FFF" d="M174.729 346.008l-.724.724-.724-.724.724-.724zm3.667 0l-.723.724-.725-.724.725-.724zm3.667 0l-.723.724-.725-.724.725-.724zm3.667 0l-.723.724-.724-.724.724-.724zm3.668 0l-.724.724-.724-.724.724-.724zm3.667 0l-.724.724-.724-.724.724-.724zm3.667 0l-.723.724-.725-.724.725-.724zm3.668 0l-.724.724-.724-.724.724-.724zm-25.671 3.8l-.724.724-.724-.724.724-.724zm3.667 0l-.723.724-.725-.724.725-.724zm3.667 0l-.723.724-.725-.724.725-.724zm3.667 0l-.723.724-.724-.724.724-.724zm3.668 0l-.724.724-.724-.724.724-.724zm3.667 0l-.724.724-.724-.724.724-.724zm3.667 0l-.723.724-.725-.724.725-.724zm3.668 0l-.724.724-.724-.724.724-.724zm-25.671 3.8l-.724.724-.724-.724.724-.724zm3.667 0l-.723.724-.725-.724.725-.724zm3.667 0l-.723.724-.725-.724.725-.724zm3.667 0l-.723.724-.724-.724.724-.724zm3.668 0l-.724.724-.724-.724.724-.724zm3.667 0l-.724.724-.724-.724.724-.724zm3.667 0l-.723.724-.725-.724.725-.724zm3.668 0l-.724.724-.724-.724.724-.724zm-25.671 3.8l-.724.724-.724-.724.724-.724zm3.667 0l-.723.724-.725-.724.725-.724zm3.667 0l-.723.724-.725-.724.725-.724zm3.667 0l-.723.724-.724-.724.724-.724zm3.668 0l-.724.724-.724-.724.724-.724zm3.667 0l-.724.724-.724-.724.724-.724zm3.667 0l-.723.724-.725-.724.725-.724zm3.668 0l-.724.724-.724-.724.724-.724zm-25.671 3.8l-.724.724-.724-.724.724-.724zm3.667 0l-.723.724-.725-.724.725-.724zm3.667 0l-.723.724-.725-.724.725-.724zm3.667 0l-.723.724-.724-.724.724-.724zm3.668 0l-.724.724-.724-.724.724-.724zm3.667 0l-.724.724-.724-.724.724-.724zm3.667 0l-.723.724-.725-.724.725-.724zm3.668 0l-.724.724-.724-.724.724-.724zm-25.671 3.8l-.724.724-.724-.724.724-.724zm3.667 0l-.723.724-.725-.724.725-.724zm3.667 0l-.723.724-.725-.724.725-.724zm3.667 0l-.723.724-.724-.724.724-.724zm3.668 0l-.724.724-.724-.724.724-.724zm3.667 0l-.724.724-.724-.724.724-.724zm3.667 0l-.723.724-.725-.724.725-.724zm3.668 0l-.724.724-.724-.724.724-.724zm-25.671 3.8l-.724.724-.724-.724.724-.724zm3.667 0l-.723.724-.725-.724.725-.724zm3.667 0l-.723.724-.725-.724.725-.724zm3.667 0l-.723.724-.724-.724.724-.724zm3.668 0l-.724.724-.724-.724.724-.724zm3.667 0l-.724.724-.724-.724.724-.724zm3.667 0l-.723.724-.725-.724.725-.724zm3.668 0l-.724.724-.724-.724.724-.724zm-25.671 3.8l-.724.724-.724-.724.724-.724zm3.667 0l-.723.724-.725-.724.725-.724zm3.667 0l-.723.724-.725-.724.725-.724zm3.667 0l-.723.724-.724-.724.724-.724zm3.668 0l-.724.724-.724-.724.724-.724zm3.667 0l-.724.724-.724-.724.724-.724zm3.667 0l-.723.724-.725-.724.725-.724zm3.668 0l-.724.724-.724-.724.724-.724zm-36.76-53.278a1.163 1.163 0 11-2.325 0 1.163 1.163 0 012.325 0m38.571 69.153a1.164 1.164 0 11-2.327 0 1.164 1.164 0 012.327 0m-69.859 34.33a1.163 1.163 0 11-2.325 0 1.163 1.163 0 012.325 0m53.818-122.741a1.163 1.163 0 11-2.326 0 1.163 1.163 0 012.326 0m-93.801 45.583a.684.684 0 11-1.368-.001.684.684 0 011.368.001m79.526 79.305a.683.683 0 11-1.367 0 .683.683 0 011.367 0m-18.213-7.852a.684.684 0 11-1.368 0 .684.684 0 011.368 0m33.171-35.211a.683.683 0 11-1.367 0 .683.683 0 011.367 0m-80.923 47.379a.684.684 0 11-1.368 0 .684.684 0 011.368 0m45.537-134.192a.683.683 0 11-1.367 0 .683.683 0 011.367 0m-56.162 33.887l1.06 1.061 1.062-1.06-1.061-1.063zm5.375 0l1.062 1.061 1.062-1.06-1.062-1.063zm7.5 0l-1.061-1.062-1.062 1.062 1.062 1.061zm-12.875 5.571l1.06 1.061 1.062-1.06-1.061-1.062zm5.375 0l1.062 1.061 1.062-1.06-1.062-1.062zm5.377 0l1.062 1.061 1.061-1.06-1.061-1.062zm-10.752 5.571l1.06 1.061 1.062-1.061-1.061-1.061zm5.375 0l1.062 1.061 1.062-1.061-1.062-1.061zm5.377 0l1.062 1.061 1.061-1.061-1.061-1.061zm51.146 60.479l1.06 1.062 1.062-1.062-1.061-1.061zm5.376 0l1.061 1.062 1.062-1.062-1.062-1.061zm7.499 0l-1.062-1.061-1.06 1.061 1.06 1.062zm-12.875 5.571l1.06 1.062 1.062-1.062-1.061-1.06zm5.376 0l1.061 1.062 1.062-1.062-1.062-1.06zm5.376 0l1.061 1.062 1.062-1.062-1.062-1.06zm-10.752 5.571l1.06 1.061 1.062-1.06-1.061-1.062zm5.376 0l1.061 1.061 1.062-1.06-1.062-1.062zm5.376 0l1.061 1.061 1.062-1.06-1.062-1.062zm-26.693-135.673a1.673 1.673 0 100 3.346 1.673 1.673 0 000-3.346m4.538 0a1.673 1.673 0 100 3.346 1.673 1.673 0 000-3.346m4.538 0a1.673 1.673 0 100 3.346 1.673 1.673 0 000-3.346m4.539 0a1.672 1.672 0 10-.001 3.345 1.672 1.672 0 000-3.345m-16.303-3.661a1.673 1.673 0 100 3.345 1.673 1.673 0 000-3.345m4.538 0a1.673 1.673 0 100 3.345 1.673 1.673 0 000-3.345m4.538 0a1.673 1.673 0 100 3.345 1.673 1.673 0 000-3.345m2.865 1.672a1.673 1.673 0 113.346.001 1.673 1.673 0 01-3.346 0m-42.158 113.801a1.58 1.58 0 100 3.161 1.58 1.58 0 000-3.161m4.287 0a1.58 1.58 0 100 3.161 1.58 1.58 0 000-3.161m4.286 0a1.58 1.58 0 100 3.16 1.58 1.58 0 000-3.16m4.287 0a1.58 1.58 0 100 3.161 1.58 1.58 0 000-3.161m-15.4-3.46a1.58 1.58 0 100 3.162 1.58 1.58 0 000-3.161m4.286 0a1.581 1.581 0 10.001 3.162 1.581 1.581 0 000-3.162m4.286 0a1.58 1.58 0 100 3.16 1.58 1.58 0 000-3.16m2.706 1.58a1.581 1.581 0 113.162.001 1.581 1.581 0 01-3.162 0m67.02 23.957a1.74 1.74 0 100 3.479 1.74 1.74 0 000-3.48m4.719 0a1.74 1.74 0 10-.001 3.48 1.74 1.74 0 000-3.48m4.719 0a1.74 1.74 0 100 3.48 1.74 1.74 0 000-3.48m4.719 0a1.74 1.74 0 100 3.48 1.74 1.74 0 000-3.48m-16.953-3.807a1.74 1.74 0 100 3.479 1.74 1.74 0 000-3.479m4.719 0a1.74 1.74 0 10-.001 3.479 1.74 1.74 0 000-3.479m4.72 0a1.74 1.74 0 10-.001 3.479 1.74 1.74 0 000-3.479m2.98 1.74a1.74 1.74 0 113.478 0 1.74 1.74 0 01-3.478 0"/><path fill="#E2A1F6" d="M181.196 312.218c.877 0 1.668.33 2.285.86l-.004-.023c5.644 4.073 8.222-.746 8.222-.746v.006a6.915 6.915 0 016.006-3.49 6.923 6.923 0 010 13.847 6.915 6.915 0 01-6.006-3.49v.006s-2.578-4.818-8.222-.746l.004-.023a3.498 3.498 0 01-2.285.86 3.53 3.53 0 010-7.06m-68.152 83.269a3.86 3.86 0 00-2.52.948l.004-.025c-6.226 4.493-9.069-.823-9.069-.823v.006a7.63 7.63 0 00-6.627-3.85 7.638 7.638 0 000 15.276 7.63 7.63 0 006.627-3.85v.007s2.843-5.316 9.07-.823l-.005-.025a3.86 3.86 0 002.52.948 3.895 3.895 0 000-7.79"/><path fill="#8C8AF8" d="M154.49 384.074c.806 0 1.533.305 2.1.79l-.003-.02c5.19 3.745 7.56-.686 7.56-.686v.005a6.36 6.36 0 015.524-3.209 6.367 6.367 0 010 12.733 6.36 6.36 0 01-5.524-3.209v.006s-2.37-4.432-7.56-.686l.003-.021a3.216 3.216 0 01-2.1.79 3.246 3.246 0 110-6.493"/><path fill="#7A96FA" d="M188.551 331.628c0-.406-.153-.774-.398-1.06l.01.002c-1.89-2.619.347-3.814.347-3.814h-.003a3.212 3.212 0 10-3.186 0h-.003s2.235 1.195.346 3.814l.01-.002a1.621 1.621 0 00-.398 1.06 1.637 1.637 0 103.275 0m-47.191-13.026c0-.374-.142-.711-.368-.975l.01.002c-1.737-2.407.318-3.507.318-3.507h-.002a2.95 2.95 0 00-1.465-5.516 2.953 2.953 0 00-1.465 5.516h-.002s2.055 1.1.318 3.507l.01-.002a1.492 1.492 0 00-.367.975 1.506 1.506 0 103.012 0"/><path fill="#6177C7" d="M107.922 417.523c0-.448-.169-.853-.44-1.17l.013.003c-2.085-2.888.382-4.208.382-4.208h-.003a3.543 3.543 0 10-3.515 0h-.003s2.466 1.32.382 4.208l.01-.002a1.798 1.798 0 00-.438 1.17 1.806 1.806 0 103.612 0"/><path fill="#7A96FA" d="M157.458 432.079a1.49 1.49 0 00-.367-.975l.01.002c-1.737-2.408.319-3.508.319-3.508h-.003a2.953 2.953 0 10-2.93 0h-.002s2.056 1.1.318 3.508l.01-.002c-.225.263-.366.6-.366.975a1.506 1.506 0 103.01 0"/><path fill="#E2A1F6" d="M98.076 275.218c1.011 0 1.925.382 2.638.992l-.004-.026c6.516 4.702 9.492-.861 9.492-.861v.005a7.986 7.986 0 016.935-4.028 7.994 7.994 0 010 15.988 7.986 7.986 0 01-6.935-4.03v.007s-2.976-5.564-9.492-.861l.004-.026a4.045 4.045 0 01-2.638.992 4.076 4.076 0 010-8.152"/><path fill="#6177C7" d="M120.432 290.352c-.47 0-.893.177-1.224.46l.002-.012c-3.023 2.182-4.404-.4-4.404-.4v.004a3.705 3.705 0 00-3.217-1.87 3.709 3.709 0 100 7.417 3.705 3.705 0 003.217-1.869v.003s1.381-2.58 4.404-.4l-.002-.01c.33.282.754.458 1.224.458a1.89 1.89 0 100-3.78m77.239-18.26c-.469 0-.893.177-1.223.46l.002-.012c-3.023 2.181-4.403-.4-4.403-.4v.003a3.709 3.709 0 10-3.218 5.548 3.706 3.706 0 003.218-1.868v.002s1.38-2.581 4.403-.4l-.002-.011c.33.283.754.46 1.223.46a1.89 1.89 0 100-3.782"/><path fill="#7A96FA" d="M197.31 420.144c-.373 0-.71.14-.974.366l.001-.01c-2.407 1.738-3.507-.318-3.507-.318v.003a2.953 2.953 0 100 2.93v.002s1.1-2.056 3.507-.318l-.001-.01c.263.225.6.366.974.366a1.506 1.506 0 100-3.011"/><path fill="#FFF" d="M198.816 294.668a2.193 2.193 0 110-4.385 2.193 2.193 0 010 4.385m0-5.716a3.524 3.524 0 100 7.047 3.524 3.524 0 000-7.047m-29.792 4.564a2.193 2.193 0 110-4.385 2.193 2.193 0 010 4.385m0-5.716a3.524 3.524 0 100 7.047 3.524 3.524 0 000-7.047m-73.831 85.295a2.192 2.192 0 110-4.384 2.192 2.192 0 010 4.384m0-5.716a3.523 3.523 0 100 7.047 3.523 3.523 0 000-7.047m-1.067 60.503a1.529 1.529 0 110-3.058 1.529 1.529 0 010 3.058m0-3.985a2.456 2.456 0 100 4.914 2.457 2.457 0 000-4.914M194 282.898a1.529 1.529 0 11.001-3.057 1.529 1.529 0 010 3.057m0-3.984a2.456 2.456 0 10-.001 4.912 2.456 2.456 0 000-4.912m-54.147 26.071a1.529 1.529 0 110-3.058 1.529 1.529 0 010 3.058m0-3.985a2.456 2.456 0 100 4.914 2.457 2.457 0 000-4.914m-.624 97.955a2.192 2.192 0 11-.002-4.383 2.192 2.192 0 01.002 4.383m0-5.716a3.524 3.524 0 100 7.048 3.524 3.524 0 000-7.048"/><path fill="#FFF" fill-rule="nonzero" d="M128.144 366.762c3.804 0 6.8-.991 8.987-2.972 2.187-1.981 3.281-4.953 3.281-8.916v-20.398h-9.605v20.256c0 1.11-.325 1.98-.975 2.615-.65.634-1.498.95-2.544.95-1.331 0-2.694-.475-4.089-1.426l-3.899 7.323c2.219 1.712 5.167 2.568 8.844 2.568zm29.1 0c4.121 0 7.45-.88 9.986-2.64 2.536-1.759 3.804-4.049 3.804-6.87 0-2.06-.769-3.757-2.306-5.088-1.538-1.331-3.273-2.108-5.207-2.33 2.029-.317 3.701-1.15 5.017-2.496 1.315-1.348 1.973-2.861 1.973-4.541 0-2.695-1.133-4.835-3.4-6.42-2.266-1.585-5.54-2.377-9.819-2.377-5.706 0-10.144 1.743-13.314 5.23l4.517 5.992c2.22-1.839 4.803-2.758 7.751-2.758 3.138 0 4.707.681 4.707 2.044 0 1.047-1.458 1.57-4.374 1.57-2.663 0-4.2-.016-4.612-.048v8.511c.634-.063 2.171-.095 4.612-.095 1.965 0 3.273.135 3.923.404.65.27.974.706.974 1.308 0 .602-.396 1.11-1.188 1.522-.793.412-1.934.618-3.424.618-1.363 0-2.853-.262-4.47-.785-1.616-.523-2.995-1.276-4.136-2.258l-4.708 6.561c1.395 1.49 3.273 2.687 5.635 3.59 2.362.904 5.048 1.356 8.06 1.356z"/><path fill="#24E1CB" d="M132.5 306.13h176.89V53.21H132.5z"/><g transform="translate(132.5 52.839)"><path fill="#F14BF3" d="M64.078 230.983a6.884 6.884 0 11-13.769-.001 6.884 6.884 0 0113.769.001"/><path fill="#FFF" d="M167.23 215.744a.954.954 0 11-1.908 0 .954.954 0 011.908 0M79.845 40.833a.954.954 0 11-1.907.001.954.954 0 011.907 0M41.22 129.206a.953.953 0 11-1.905 0 .953.953 0 011.906 0m51.551 100.039a.955.955 0 11-1.91 0 .955.955 0 011.91 0m51.061-127.337a.954.954 0 11-1.907 0 .954.954 0 011.907 0M14.969 188.365l2.381 2.381 2.382-2.381-2.382-2.381zm12.062 0l2.381 2.381 2.382-2.381-2.382-2.381zm16.825 0l-2.381-2.381-2.382 2.38 2.382 2.382zm-28.887 12.499l2.381 2.38 2.382-2.38-2.382-2.381zm12.062 0l2.381 2.38 2.382-2.38-2.382-2.381zm12.062 0l2.381 2.38 2.382-2.38-2.382-2.381zm-24.124 12.499l2.381 2.38 2.382-2.38-2.382-2.381zm12.062 0l2.381 2.38 2.382-2.38-2.382-2.381zm12.062 0l2.381 2.38 2.382-2.38-2.382-2.381z"/><mask id="r" fill="#fff"><use xlink:href="#p"/></mask><use fill="#000" filter="url(#q)" xlink:href="#p"/><use stroke="#FFF" stroke-width="3.3" xlink:href="#p"/><path fill="#FFF" d="M27.809 174.87H38.51v-10.7H27.809v10.701zm-1.605 1.605h13.911v-13.912H26.204v13.912zm75.968 44.62h10.702v-10.703h-10.702v10.703zm-1.604 1.605h13.911v-13.912h-13.911V222.7zm-28.122-3.455h5.558v-5.559h-5.558v5.559zm-1.606 1.605h8.769v-8.769H70.84v8.77zm42.03-193.063h5.558v-5.559h-5.558v5.559zm-1.606 1.605h8.77v-8.769h-8.77v8.77zm-80.743 90.415h5.559v-5.558h-5.56v5.558zm-1.605 1.605h8.77v-8.769h-8.77v8.77zm9.589-61.294h10.702V49.417H38.505v10.701zM36.9 61.724h13.912V47.812H36.9v13.912zm108.584 20.311h17.39v-17.39h-17.39v17.39zm-1.606 1.606h20.6v-20.6h-20.6v20.6zm-8.683 115.312h17.39v-17.39h-17.39v17.39zm-1.606 1.605h20.6v-20.6h-20.6v20.6z" mask="url(#r)"/><path fill="#FFF" d="M157.497 87.792h9.909v-9.907h-9.909v9.907zm-1.604 1.605h13.118V76.28h-13.118v13.118zM68.501 27.09h9.907v-9.907h-9.907v9.908zm-1.606 1.606h13.118V15.578H66.895v13.118zM36.01 239.679h17.389v-17.39h-17.39v17.39zm-1.605 1.604h20.6v-20.6h-20.6v20.6zm-19.438-74.439h17.39v-17.39h-17.39v17.39zm-1.606 1.605h20.601v-20.6h-20.6v20.6z" mask="url(#r)"/><path fill="#7137B0" d="M158.3 122.86a3.769 3.769 0 110-7.538 3.769 3.769 0 010 7.537m0-9.825a6.057 6.057 0 100 12.114 6.057 6.057 0 000-12.114m-13.643 42.653a3.769 3.769 0 110-7.537 3.769 3.769 0 010 7.537m0-9.826a6.057 6.057 0 100 12.114 6.057 6.057 0 000-12.114m-95.48-61.013a3.769 3.769 0 110-7.537 3.769 3.769 0 010 7.537m0-9.827a6.057 6.057 0 100 12.115 6.057 6.057 0 000-12.115M17.248 77.11a3.768 3.768 0 110-7.536 3.768 3.768 0 010 7.536m0-9.826a6.057 6.057 0 100 12.114 6.057 6.057 0 000-12.114m123.515 179.822a8.245 8.245 0 0116.489 0h5.007c0-7.318-5.933-13.25-13.252-13.25-7.317 0-13.25 5.932-13.25 13.25h5.006zM6.328 107.71a8.244 8.244 0 110 16.488v5.008c7.319 0 13.251-5.934 13.251-13.252 0-7.318-5.932-13.25-13.251-13.25v5.006z" mask="url(#r)"/><path fill="#F14BF3" d="M118.85 70.587a8.338 8.338 0 11-16.676 0 8.338 8.338 0 0116.676 0m-12.24 98.549a3.254 3.254 0 11-6.509 0 3.254 3.254 0 016.508 0m15.877 68.73a3.254 3.254 0 11-6.511 0 3.254 3.254 0 016.51 0M40.712 22.511a6.783 6.783 0 11-13.567 0 6.783 6.783 0 0113.567 0" mask="url(#r)"/><path fill="#7137B0" d="M128.481 207.113a3.868 3.868 0 11-7.736 0 3.868 3.868 0 017.736 0M63.53 194.614a3.868 3.868 0 11-7.735 0 3.868 3.868 0 017.736 0m74.241-139.847a2.015 2.015 0 11-4.03.001 2.015 2.015 0 014.03 0M87.29 188.365a2.015 2.015 0 11-4.031 0 2.015 2.015 0 014.03 0M24.522 227.23a2.016 2.016 0 11-4.03 0 2.016 2.016 0 014.03 0M57.45 39.887a2.016 2.016 0 11-4.033 0 2.016 2.016 0 014.033 0M41.328 141.594a1.159 1.159 0 11-2.317 0 1.159 1.159 0 012.317 0m121.004 34.079a2.016 2.016 0 11-4.031 0 2.016 2.016 0 014.03 0" mask="url(#r)"/><path fill="#FFF" d="M134.01 17.271l2.38 2.382 2.383-2.382-2.383-2.38zm12.061 0l2.382 2.382 2.381-2.382-2.381-2.38zm16.825 0l-2.38-2.38-2.382 2.38 2.381 2.382zM134.01 29.77l2.38 2.38 2.383-2.38-2.383-2.38zm12.061 0l2.382 2.38 2.381-2.38-2.381-2.38zm12.063 0l2.38 2.38 2.382-2.38-2.381-2.38zM134.01 42.269l2.38 2.38 2.383-2.38-2.383-2.382zm12.061 0l2.382 2.38 2.381-2.38-2.381-2.382zm12.063 0l2.38 2.38 2.382-2.38-2.381-2.382zM23.083 30.793a8.282 8.282 0 110-16.564 8.282 8.282 0 010 16.564m0-19.176c-6.016 0-10.894 4.878-10.894 10.894 0 6.017 4.878 10.894 10.894 10.894 6.017 0 10.894-4.877 10.894-10.894 0-6.016-4.877-10.894-10.894-10.894M95.01 80.11c-5.622 0-10.18-4.557-10.18-10.179s4.558-10.18 10.18-10.18 10.18 4.558 10.18 10.18-4.558 10.18-10.18 10.18m0-23.57c-7.395 0-13.39 5.995-13.39 13.39 0 7.396 5.995 13.39 13.39 13.39 7.395 0 13.39-5.994 13.39-13.39 0-7.395-5.995-13.39-13.39-13.39" mask="url(#r)"/></g><path fill="#FFF" fill-rule="nonzero" d="M197.202 202.84c5.31 0 9.49-1.382 12.542-4.147 3.052-2.765 4.579-6.912 4.579-12.442v-28.467h-13.405v28.268c0 1.548-.453 2.765-1.36 3.65-.907.884-2.09 1.327-3.55 1.327-1.858 0-3.76-.664-5.707-1.991l-5.441 10.219c3.097 2.389 7.21 3.583 12.342 3.583zm59.59-.796v-11.679h-14.4c5.176-3.406 8.803-6.48 10.882-9.224 2.08-2.742 3.12-5.662 3.12-8.759 0-4.468-1.737-8.129-5.21-10.982-3.473-2.853-8.062-4.28-13.769-4.28-3.406 0-6.78.608-10.12 1.825-3.34 1.216-6.204 3.108-8.593 5.673l7.3 8.892c3.627-3.052 7.52-4.578 11.678-4.578 1.46 0 2.677.32 3.65.962.973.641 1.46 1.47 1.46 2.488 0 .885-.166 1.66-.498 2.323-.332.663-1.36 1.747-3.085 3.251-1.726 1.504-3.882 3.185-6.47 5.043a3011.228 3011.228 0 01-12.11 8.627v10.418h36.164z"/></g></svg>