<svg width="42" height="42" xmlns="http://www.w3.org/2000/svg" xmlns:xlink="http://www.w3.org/1999/xlink"><defs><filter x="-20.6%" y="-14.7%" width="141.2%" height="141.2%" filterUnits="objectBoundingBox" id="a"><feOffset dy="2" in="SourceAlpha" result="shadowOffsetOuter1"/><feGaussianBlur stdDeviation="2" in="shadowOffsetOuter1" result="shadowBlurOuter1"/><feComposite in="shadowBlurOuter1" in2="SourceAlpha" operator="out" result="shadowBlurOuter1"/><feColorMatrix values="0 0 0 0 0 0 0 0 0 0 0 0 0 0 0 0 0 0 0.5 0" in="shadowBlurOuter1"/></filter><circle id="b" cx="17" cy="17" r="17"/></defs><g fill="none" fill-rule="evenodd"><g transform="translate(4 2)"><use fill="#000" filter="url(#a)" xlink:href="#b"/><circle stroke="#FFF" stroke-width="2" stroke-linejoin="square" fill="#181818" cx="17" cy="17" r="16"/></g><path d="M27.675 24.144a1.08 1.08 0 01.007 1.538 1.08 1.08 0 01-1.538-.007l-4.65-4.65-4.651 4.65a1.083 1.083 0 01-1.532-1.531l4.65-4.65-4.65-4.65a1.083 1.083 0 011.532-1.531l4.65 4.65 4.65-4.65v-.001a1.084 1.084 0 011.532 1.532l-4.65 4.65 4.65 4.65z" fill="#FFF"/></g></svg>