<svg xmlns="http://www.w3.org/2000/svg" width="24" height="26"><path d="M11.94 5.97c-3.284 0-5.97 2.687-5.97 5.971a5.69 5.69 0 001.193 3.508s.224.298.298.374c.671.821 2.313 3.134 2.313 5.075h4.477c0-1.94 1.642-4.254 2.313-5.075.074-.074.298-.374.298-.374a5.853 5.853 0 001.194-3.508c-.146-3.284-2.832-5.97-6.116-5.97zM9.701 22.388h4.478v2.985H9.701zM0 11.194h4.478v1.493H0zm19.402 0h4.478v1.493h-4.478zm.462-8.225l1.055 1.055-3.167 3.167-1.055-1.055zM11.194 0h1.493v4.478h-1.493zm-7.17 2.962l3.167 3.167-1.055 1.055-3.167-3.167z" fill="#FFF" fill-rule="evenodd"/></svg>