<svg width="101" height="101" xmlns="http://www.w3.org/2000/svg"><g fill="#00CF92" fill-rule="evenodd"><path d="M50.5 101C22.656 101 0 78.347 0 50.5 0 22.652 22.657 0 50.5 0 78.348 0 101 22.653 101 50.5c0 27.848-22.653 50.5-50.5 50.5zm0-94.07C26.476 6.93 6.93 26.476 6.93 50.5c0 24.027 19.546 43.57 43.57 43.57S94.07 74.528 94.07 50.5c0-24.024-19.546-43.57-43.57-43.57z"/><path d="M43.53 67a3.523 3.523 0 01-2.491-1.033L28.03 52.957a3.53 3.53 0 010-4.985 3.52 3.52 0 014.983 0l10.518 10.515L67.984 34.03a3.528 3.528 0 014.983 0 3.527 3.527 0 010 4.988L46.022 65.967A3.523 3.523 0 0143.531 67"/></g></svg>