<?xml version="1.0" encoding="UTF-8"?>
<svg width="42px" height="42px" viewBox="0 0 42 42" version="1.1" xmlns="http://www.w3.org/2000/svg" xmlns:xlink="http://www.w3.org/1999/xlink">
    <!-- Generator: sketchtool 62 (101010) - https://sketch.com -->
    <title>581230D0-3F14-4881-AB2F-7F664A8BC016</title>
    <desc>Created with sketchtool.</desc>
    <defs>
        <circle id="path-1" cx="17" cy="17" r="17"></circle>
        <filter x="-20.6%" y="-14.7%" width="141.2%" height="141.2%" filterUnits="objectBoundingBox" id="filter-2">
            <feOffset dx="0" dy="2" in="SourceAlpha" result="shadowOffsetOuter1"></feOffset>
            <feGaussianBlur stdDeviation="2" in="shadowOffsetOuter1" result="shadowBlurOuter1"></feGaussianBlur>
            <feComposite in="shadowBlurOuter1" in2="SourceAlpha" operator="out" result="shadowBlurOuter1"></feComposite>
            <feColorMatrix values="0 0 0 0 0   0 0 0 0 0   0 0 0 0 0  0 0 0 0.5 0" type="matrix" in="shadowBlurOuter1"></feColorMatrix>
        </filter>
    </defs>
    <g id="Designs" stroke="none" stroke-width="1" fill="none" fill-rule="evenodd">
        <g id="25.-Bravo---Success" transform="translate(-994.000000, -81.000000)">
            <g id="icon-close" transform="translate(998.000000, 83.000000)">
                <g id="Oval">
                    <use fill="black" fill-opacity="1" filter="url(#filter-2)" xlink:href="#path-1"></use>
                    <circle stroke="#FFFFFF" stroke-width="2" stroke-linejoin="square" fill="#181818" fill-rule="evenodd" cx="17" cy="17" r="16"></circle>
                </g>
                <path d="M23.675007,22.1437883 C23.8811705,22.3468749 23.9979653,22.6230857 24,22.9114491 C24.0010098,23.2008524 23.8872646,23.478064 23.6821047,23.6821514 C23.4779717,23.8872682 23.200709,24.0010071 22.9112892,24 C22.6228573,23.9979631 22.346619,23.8811879 22.1435156,23.6750547 L17.4930918,19.025314 L12.842668,23.6750547 C12.4181579,24.0924058 11.7377146,24.0893644 11.3172603,23.6689615 C10.896806,23.248569 10.8937642,22.5682256 11.3111662,22.1437779 L15.96159,17.4940372 L11.3111662,12.8442965 C10.8937538,12.4198488 10.8967956,11.7395054 11.3172603,11.3191129 C11.7377146,10.8987204 12.4181579,10.895679 12.842668,11.3130223 L17.4930918,15.962763 L22.1435156,11.3130223 L22.1435156,11.3120059 C22.5670117,10.893641 23.2494829,10.8966824 23.6709511,11.3170827 C24.0914054,11.738489 24.0944473,12.42086 23.6750148,12.8442939 L19.0245909,17.4940346 L23.675007,22.1437883 Z" id="Fill-1" fill="#FFFFFF"></path>
            </g>
        </g>
    </g>
</svg>