<svg xmlns="http://www.w3.org/2000/svg" width="24" height="26" viewBox="0 0 24 26">
    <g fill="#FFF" fill-rule="evenodd">
        <path d="M11.94 5.97c-3.284 0-5.97 2.687-5.97 5.971 0 1.344.447 2.537 1.193 3.508 0 0 .224.298.298.374.671.821 2.313 3.134 2.313 5.075h4.477c0-1.94 1.642-4.254 2.313-5.075.074-.074.298-.374.298-.374.746-.97 1.194-2.239 1.194-3.508-.146-3.284-2.832-5.97-6.116-5.97zM9.701 22.388L14.179 22.388 14.179 25.373 9.701 25.373zM0 11.194L4.478 11.194 4.478 12.687 0 12.687zM19.402 11.194L23.88 11.194 23.88 12.687 19.402 12.687zM19.864 2.969L20.919 4.024 17.752 7.191 16.697 6.136zM11.194 0L12.687 0 12.687 4.478 11.194 4.478zM4.024 2.962L7.191 6.129 6.136 7.184 2.969 4.017z"/>
    </g>
</svg>
