<svg xmlns="http://www.w3.org/2000/svg" width="17" height="16" viewBox="0 0 17 16">
    <path fill="#5438DC" fill-rule="evenodd" d="M13.76 1.548c.052-.515.052-.98.052-1.548H3.188c0 .568 0 1.033.052 1.548H0v.516c0 4.594 6.004 7.846 7.438 8.568v1.755c0 .878-.691 1.549-1.595 1.549H4.78V16h7.439v-2.064h-1.063c-.904 0-1.594-.67-1.594-1.549v-1.754C10.996 9.91 17 6.658 17 2.065V1.55h-3.24zM1.116 2.581h2.231c.212 2.323.797 3.975 1.434 5.161-1.7-1.29-3.453-3.097-3.665-5.161zm11.156 5.161c.638-1.187 1.223-2.838 1.435-5.161h2.231c-.266 2.064-2.02 3.871-3.666 5.161z"/>
</svg>
