<svg xmlns="http://www.w3.org/2000/svg" width="116" height="29" viewBox="0 0 116 29">
    <g fill="none" fill-rule="evenodd">
        <rect width="116" height="29" fill="#00CF92" rx="14.5"/>
        <text fill="#FFF" font-family="Roboto-Bold, Roboto" font-size="12" font-weight="bold">
            <tspan x="31" y="16">COMPLETED</tspan>
        </text>
        <g fill="#FFF">
            <path d="M8 16.5c-4.41 0-8-3.589-8-8 0-4.412 3.59-8 8-8 4.412 0 8 3.589 8 8 0 4.412-3.589 8-8 8zM8 1.598A6.91 6.91 0 001.098 8.5 6.91 6.91 0 008 15.402 6.91 6.91 0 0014.902 8.5 6.91 6.91 0 008 1.598z" transform="translate(8 6)"/>
            <path d="M7.462 10.5a.528.528 0 01-.371-.152L5.153 8.435a.514.514 0 010-.733.53.53 0 01.743 0l1.566 1.546 3.642-3.597a.53.53 0 01.742 0 .514.514 0 010 .734l-4.013 3.963a.528.528 0 01-.37.152" transform="translate(8 6)"/>
        </g>
    </g>
</svg>
