<?xml version="1.0" encoding="iso-8859-1"?>
<!-- Generator: Adobe Illustrator 19.0.0, SVG Export Plug-In . SVG Version: 6.00 Build 0)  -->
<svg version="1.1" id="Capa_1" xmlns="http://www.w3.org/2000/svg" xmlns:xlink="http://www.w3.org/1999/xlink" x="0px" y="0px"
	 viewBox="0 0 512.011 512.011" style="enable-background:new 0 0 512.011 512.011;" xml:space="preserve">
<g>
	<g>
		<path d="M511.136,286.255C502.08,194.863,419.84,128.015,328,128.015H192v-80c0-6.144-3.52-11.744-9.056-14.432
			c-5.568-2.656-12.128-1.952-16.928,1.92l-160,128C2.208,166.575,0,171.151,0,176.015s2.208,9.44,5.984,12.512l160,128
			c2.912,2.304,6.464,3.488,10.016,3.488c2.368,0,4.736-0.512,6.944-1.568c5.536-2.688,9.056-8.288,9.056-14.432v-80h139.392
			c41.856,0,80,30.08,84.192,71.712c4.832,47.872-32.704,88.288-79.584,88.288H208c-8.832,0-16,7.168-16,16v64
			c0,8.832,7.168,16,16,16h128C438.816,480.015,521.472,391.151,511.136,286.255z"/>
	</g>
</g>
<g>
</g>
<g>
</g>
<g>
</g>
<g>
</g>
<g>
</g>
<g>
</g>
<g>
</g>
<g>
</g>
<g>
</g>
<g>
</g>
<g>
</g>
<g>
</g>
<g>
</g>
<g>
</g>
<g>
</g>
</svg>
