<?xml version="1.0" encoding="UTF-8"?>
<svg width="101px" height="101px" viewBox="0 0 101 101" version="1.1" xmlns="http://www.w3.org/2000/svg" xmlns:xlink="http://www.w3.org/1999/xlink">
    <!-- Generator: sketchtool 62 (101010) - https://sketch.com -->
    <title>922C308C-1390-4C2D-8E0D-BAFCC24FFF00</title>
    <desc>Created with sketchtool.</desc>
    <g id="Designs" stroke="none" stroke-width="1" fill="none" fill-rule="evenodd">
        <g id="25.-Bravo---Success" transform="translate(-670.000000, -169.000000)" fill="#00CF92">
            <g id="icon-success" transform="translate(670.000000, 169.000000)">
                <path d="M50.5,101 C22.6563207,101 0,78.3467396 0,50.5 C0,22.6522429 22.6573404,0 50.5,0 C78.3477574,0 101,22.6532626 101,50.5 C101,78.3477593 78.3467377,101 50.5,101 Z M50.4999996,6.93007305 C26.4762226,6.93007305 6.9300701,26.4762238 6.9300701,50.5000011 C6.9300701,74.5268377 26.4762226,94.0699292 50.4999996,94.0699292 C74.5237766,94.0699292 94.069927,74.5278574 94.069927,50.5000011 C94.069927,26.4762238 74.5237766,6.93007305 50.4999996,6.93007305 Z" id="Fill-1"></path>
                <path d="M43.5301502,67 C42.5943117,67 41.699004,66.6272212 41.0386671,65.9667728 L28.0300198,52.9561321 C26.6566601,51.5825619 26.6566601,49.349914 28.0300198,47.9722984 C29.4074243,46.5946829 31.6397301,46.5946829 33.0130898,47.9722984 L43.5305651,58.4872362 L67.9838766,34.0301776 C69.3572363,32.6566075 71.5895421,32.6566075 72.9669466,34.0301776 C74.3443511,35.4077932 74.3443511,37.6404411 72.9669466,39.0180567 L46.0224631,65.966669 C45.3621055,66.6271279 44.466777,67 43.5309799,67" id="Fill-2"></path>
            </g>
        </g>
    </g>
</svg>